<svg xmlns="http://www.w3.org/2000/svg" width="478" height="98" viewBox="0 0 478 98"><g><g><g><g><path fill="#08262c" d="M360.528 69.8c.088-.796.165-2.226 1.877-2.793.337-.112.688-.445.852-.768 1.325-2.59 3.688-2.39 4.972.353 1.894 4.05-.376 7.071-4.195 7.91-1.712.377-3.631-1.941-3.506-4.702zm10.609-39.072c.208 1.154.472 1.954.472 2.752-.002 1.67-.149 3.339-.224 5.01-.025.578.053 1.167-.029 1.736-.207 1.45-.486 2.89-.718 4.338-.278 1.73-.656 3.456-.765 5.197-.083 1.308-.94 2.506-2.138 3.154-.97.526-1.722 1.48-2.515 2.299-1.18 1.22-3.663.95-4.19-.624-.36-1.072-.454-2.314-.337-3.445.263-2.562.848-5.094 1.085-7.657.266-2.872.332-5.764.412-8.65.053-1.887-.06-3.78-.028-5.67.017-1.046 1.783-2.08 2.958-1.769 1.462.387 2.89.934 4.371 1.204 1.527.279 1.38 1.487 1.646 2.125zm-87.835 41.557c-.136-.916-.291-1.83-.404-2.749-.29-2.365-.608-4.728-.829-7.101-.2-2.17-.258-4.352-.433-6.524-.193-2.4-.522-4.791-.65-7.194-.11-2.033-.054-4.08-.002-6.118.052-2.05.151-4.1.308-6.143.072-.947.285-1.891.51-2.818.388-1.6.812-3.193 1.29-4.769.07-.231.587-.556.77-.49 1.325.488 2.702.407 4.02 1.47 2.324 1.877.7 3.788.747 5.682.026 1.005.056 2.01.095 3.017.116 3.023.378 6.05.32 9.07-.067 3.472-.15 6.91.725 10.316.24.93.087 1.958.164 2.936.153 1.93.297 3.862.53 5.782.133 1.086.656 2.162.609 3.224-.088 1.972-.236 4.08-2.247 5.204-.627.35-1.523.384-2.268.306-.758-.08-1.615-.315-2.184-.78-.639-.52-1.003-1.375-1.488-2.084zM220.736 37.46c-2.607-.208-4.992-.587-6.684-2.697-.492-.614-.238-2.656.153-3.536.944-2.12 2.845-2.216 4.682-2.388 2.1-.196 4.217-.323 6.324-.308 1.944.015 3.886.264 5.829.394 1.312.087 2.628.112 3.936.23 1.563.142 3.13.295 4.673.56.816.14 1.489 1.902 1.16 3.033-.285.97-.818 1.869-1.107 2.84-.37 1.243-1.476 1.377-2.389 1.516-1.128.173-2.314-.074-3.474-.073-1.48.003-2.961.085-4.442.106-.72.01-1.443-.073-2.161-.037-.17.009-.464.325-.465.501-.016 2.974-.012 5.95.024 8.923.034 2.728.072 5.455.187 8.18.062 1.517.322 3.025.425 4.542.128 1.858.16 3.723.281 5.581.145 2.206.395 4.406.499 6.614.109 2.322-1.617 3.42-3.811 2.557-.627-.246-1.331-.3-2.003-.429-.121-.024-.315.067-.371.008-.702-.75-1.839-1.44-1.988-2.297-.475-2.726-.6-5.515-.82-8.283-.185-2.314-.418-4.633-.436-6.95-.016-2.048.205-4.1.376-6.146.201-2.412.415-4.826.713-7.226.19-1.543.541-3.064.817-4.597.035-.194.046-.392.072-.618zm-47.111 17.646l1.248 13.765c1.076.085 2.248.203 3.422.26.88.042 1.852-.226 2.62.068.774.298 1.648 1.009 1.92 1.745.238.643-.072 1.753-.54 2.34-1.162 1.458-2.674 1.994-4.649 1.455-1.248-.34-2.658-.084-3.995-.123a44.34 44.34 0 0 1-3.109-.175c-.237-.023-.585-.271-.651-.488-.539-1.733-1.118-3.462-1.495-5.232-.386-1.82-.59-3.683-.811-5.535-.132-1.097-.101-2.213-.217-3.314-.23-2.179-.499-4.354-.776-6.528-.076-.603-.236-1.197-.265-1.806-.075-.735-.184-1.467-.22-2.203-.089-1.843-.257-3.691-.184-5.53.08-2.011.42-4.012.597-6.021.103-1.186-.064-2.42.198-3.562.392-1.709.886-3.444 1.697-4.978.267-.505 1.645-.479 2.529-.59 1.76-.22 3.527-.51 5.292-.51 2.394-.005 4.797.16 7.179.414.817.088 1.59.65 2.371 1.022 1.254.598 1.101 1.76.748 2.677-.524 1.358-.402 3.07-1.85 3.981-1.16.732-2.392.916-3.77.55-1.011-.268-2.1-.256-3.153-.346-.802-.07-1.607-.108-2.41-.15-1.079-.053-1.541.69-1.52 2.067.028 1.685-.08 3.373-.136 5.06-.055 1.694-.153 3.39-.13 5.083.003.193.717.595 1.015.528 1.631-.378 3.23-.896 4.853-1.317 1.056-.275 2.375.742 2.47 1.843.202 2.346-1.813 4.718-4.155 4.962-1.355.14-2.699.381-4.123.588zm132.786 21.62c-2.74.705-4.74-1.025-6.714-2.261-2.198-1.376-3.355-3.717-4.056-6.226-.417-1.49-1.023-2.94-1.292-4.454a83.191 83.191 0 0 1-.997-7.614c-.201-2.389-.253-4.796-.234-7.194.01-1.28.276-2.562.488-3.833.343-2.063.633-4.143 1.138-6.168a35.59 35.59 0 0 1 1.815-5.43c.64-1.49 1.389-3.02 2.438-4.228 1.436-1.657 3.58-2.084 5.69-2.011.762.027 1.66.61 2.214 1.203 1.282 1.372 2.428 2.878 3.562 4.38 1.037 1.37.95 2.633-.129 3.942-.31.376-.596.771-.886 1.164-.554.748-2.15.732-2.891-.035-1.847-1.914-2.173-1.984-3.6.38-.794 1.312-1.015 2.974-1.476 4.484-.187.615-.398 1.236-.472 1.868-.152 1.308-.28 2.623-.307 3.938-.037 1.762-.039 3.53.068 5.288.135 2.25.223 4.527.671 6.723.23 1.123 1.17 2.112 1.843 3.126.51.77 1.018 1.58 1.697 2.18.31.276 1.253.331 1.524.077 1.88-1.766 3.682-3.619 5.458-5.49.586-.62.881-1.665 1.564-2.003.863-.427 2.06-.613 2.971-.368.753.202 1.442 1.09 1.905 1.833.965 1.546 1.753 3.19.87 5.097-.764 1.647-1.266 3.464-2.283 4.928-.989 1.425-2.476 2.508-3.763 3.72-.621.586-1.198 1.356-1.948 1.638-1.57.59-3.24.914-4.868 1.347zm106.343-21.643c-1.434 1.317-2.773 2.554-4.12 3.78-1.206 1.097-2.408 2.2-3.64 3.267-1.101.953-1.923.93-2.752-.148a29.799 29.799 0 0 1-2.043-3.064c-.215-.365-.298-.9-.231-1.324.45-2.847.794-5.727 1.514-8.507.36-1.388.196-2.11-.918-2.964-1.786-1.366-3.465-2.882-5.1-4.428a22.78 22.78 0 0 1-2.786-3.18c-.68-.938.723-3.711 1.904-3.858 3.282-.405 6.57-.746 9.852-1.152.223-.028.522-.35.589-.59.878-3.14 1.775-6.278 2.553-9.444.603-2.453 2.76-3.077 5.074-2.278.537.185 1.14.239 1.614.52.313.186.477.656.657 1.024a1202.07 1202.07 0 0 1 3.4 7.005c.513 1.066.943 2.18 1.538 3.196.214.365.779.653 1.225.727 1.172.194 2.365.265 3.552.359 1.538.122 3.075.29 4.615.31 1.856.024 2.959 1.182 2.78 3.072-.077.807.18 1.933-.258 2.367-1.798 1.788-3.816 3.352-5.73 5.025-.852.743-1.656 1.541-2.455 2.34-.107.109-.071.38-.068.575.034 2 .042 4 .123 5.997.078 1.913.227 3.823.356 5.733.083 1.221-.943 1.861-2.513 2.196-2.33.495-3.522-.899-4.814-2.337-1.302-1.45-2.65-2.857-3.918-4.219zm-151.428-21.36c.668-.637 1.146-1.025 1.543-1.484 1.51-1.755 3.54-2.543 5.715-2.926a11.498 11.498 0 0 1 3.602-.051c2.73.4 3.686 2.66 4.555 4.838.489 1.223.902 2.574.908 3.87.008 1.657-.3 3.349-.712 4.964-.405 1.59-1.086 3.113-1.697 4.647-.238.597-.584 1.159-.935 1.702-1.692 2.623-3.292 5.318-5.152 7.818-1.016 1.366-2.509 2.37-3.729 3.595-.282.284-.505.83-.45 1.21.217 1.507.55 2.999.85 4.494.354 1.756.887 3.498 1.014 5.27.075 1.035.117 2.209-1.497 2.836-1.218.471-2.313 1.197-3.686 1.186-.88-.007-3.019-1.595-3.264-2.441-.445-1.535-.942-3.058-1.3-4.614-.552-2.4-1.127-4.808-1.466-7.245-.284-2.036-.192-4.121-.367-6.176-.13-1.541-.513-3.065-.613-4.607-.124-1.894-.075-3.8-.092-5.7-.006-.709.011-1.418.02-2.128.018-1.23-.069-2.473.08-3.687.407-3.356.866-6.706 1.423-10.038.1-.6.662-1.421 1.188-1.592 1.188-.386 2.394-.456 3.471.691 1.306 1.39.362 2.94.64 4.382.052.27-.019.562-.05 1.186zm-174.06 4.097c-.367.627-.685 1.209-1.04 1.77-.392.621-.738 1.298-1.24 1.82-2.207 2.29-4.518 4.482-6.647 6.842-.367.405-.131 1.464-.001 2.19.316 1.774.785 3.522 1.095 5.296.256 1.47.428 2.958.522 4.445.03.47-.31.962-.48 1.445-.037.105-.09.207-.109.314-.246 1.524-1.333 2.746-2.957 2.92-.79.083-1.83-.115-2.422-.596-1.882-1.533-3.595-3.271-5.397-4.902-.605-.55-1.249-1.077-1.95-1.487-.21-.124-.747.089-1.006.304-1.159.958-2.215 2.046-3.414 2.946-1.224.919-2.557 1.696-3.87 2.49-1.46.882-2.583.707-3.791-.508-.255-.256-.53-.492-.783-.751-.516-.526-.86-1.063-.181-1.735a.942.942 0 0 0 .248-.613c-.019-2.837 1.162-5.39 1.88-8.052.2-.744.485-1.499.485-2.249 0-.378-.538-.768-.857-1.131a627.783 627.783 0 0 0-3.22-3.618c-1.543-1.725-3.109-3.432-4.628-5.18-.708-.816-.508-3.67.298-4.422.607-.566 1.241-1.15 1.969-1.518.412-.208 1.036-.003 1.564.025.707.038 1.414.086 2.12.127 1.786.107 3.571.22 5.358.305.137.006.363-.15.413-.283a837.216 837.216 0 0 0 3.687-9.845c.275-.752.237-1.663.65-2.306.376-.584 1.112-1.111 1.789-1.29.976-.258 2.045-.267 3.066-.221 1.403.06 1.45 1.287 1.671 2.268.378 1.668.274 3.409 1.2 5.002.588 1.013.678 2.314 1.006 3.483.181.645.37 1.292.616 1.914.04.104.395.129.6.116 3.019-.173 6.035-.445 9.057-.511 2.159-.048 2.857.616 3.647 2.73.293.782.653 1.538 1.051 2.466zm61.302 14.358c-.995.752-2.009 1.46-2.936 2.27-.189.165-.079.712-.054 1.078.093 1.369.14 2.747.333 4.103.243 1.705.634 3.388.922 5.088.188 1.12.283 2.254.461 3.376.113.71.287 1.414.463 2.113.195.777.431 1.543.625 2.32.035.134-.03.31-.093.448-.445.97-2.944 2.141-3.977 1.922-.445-.095-.924-.02-1.375-.095-1.335-.222-1.546-1.316-1.815-2.38-.275-1.084-.685-2.14-.888-3.237a73.233 73.233 0 0 1-.752-5.235c-.228-2.057-.419-4.12-.537-6.186-.076-1.337.023-2.683.013-4.025-.004-.558-.129-1.115-.123-1.672.016-1.526.106-3.052.1-4.578-.003-.84-.22-1.682-.203-2.52.025-1.204.203-2.405.264-3.609.068-1.385.039-2.775.129-4.16.106-1.61.24-3.224.466-4.822.22-1.55.456-3.12.923-4.606.196-.624.96-1.441 1.539-1.503 1.487-.16 2.46.675 2.516 1.768.03.617.006 1.238.006 1.537 1.824-.779 3.532-1.725 5.362-2.23 1.905-.525 3.791.082 5.662.747 2.672.95 3.647 3.336 4.643 5.497.57 1.233.085 2.974-.011 4.481-.04.644-.288 1.276-.463 1.907-.11.397-.158.872-.409 1.159-1.525 1.75-3.013 3.546-4.687 5.146-1.35 1.29-1.302 1.596.124 2.922 1.212 1.127 2.138 2.586 3.088 3.968a54.37 54.37 0 0 1 2.892 4.65c.625 1.137 1.071 2.38 1.54 3.598.749 1.945 1.318 3.972 2.207 5.85 1.041 2.195.884 4.93-.688 6.762-.81.942-2.456 1.023-3.574.613-2.363-.866-2.482-2.746-2.71-4.796-.143-1.295-.8-2.536-1.248-3.794-.591-1.654-1.168-3.316-1.823-4.946-.453-1.128-.889-2.302-1.576-3.286-1.343-1.929-2.857-3.739-4.336-5.643zm57.232-19.91c.09-.34.143-.437.137-.532-.108-1.585.691-2.582 2.183-2.714 1.032-.09 2.371 1.49 2.44 2.769.145 2.74.39 5.477.506 8.218.103 2.466.098 4.936.122 7.405.024 2.413.045 4.827.03 7.241-.013 1.95-.134 3.898-.104 5.845.017 1.058.313 2.109.365 3.17.057 1.13-.057 2.27-.04 3.405.015.9.307 1.836.134 2.687-.314 1.54.465 3.303-.845 4.62-.338.337-.88.629-1.34.65-.691.03-1.392-.297-2.09-.297-2.44-.002-2.947-1.643-3.032-3.321-.138-2.69-.059-5.396.026-8.092.046-1.44.297-2.874.438-4.144-2.792-.164-5.37-.25-7.927-.523-.476-.05-.878-.852-1.3-1.32-.108-.119-.16-.29-.248-.43-.235-.374-.759-.871-.66-1.09a3.85 3.85 0 0 1 1.221-1.483c.874-.626 1.874-1.07 2.782-1.654 1.825-1.17 3.677-2.311 5.418-3.6 1.307-.967.55-2.438.42-3.629-.213-1.96-.539-3.96-1.214-5.798-.515-1.403-1.51-2.715-2.57-3.79-.394-.4-1.593-.038-2.414.064-.104.012-.123.562-.214.852-.546 1.74-1.238 3.445-1.624 5.219-.645 2.967-1.088 5.978-1.633 8.968-.326 1.78-.831 3.542-.993 5.336-.241 2.673-.303 5.367-.343 8.054-.04 2.633.074 5.268.061 7.901-.008 1.482-2.185 3.149-3.673 2.911-.456-.073-.983.029-1.363-.17-.555-.286-1.336-.696-1.448-1.185-.715-3.138-1.562-6.293-1.802-9.484-.235-3.118.192-6.287.349-9.432.065-1.304.025-2.64.31-3.897.415-1.844 1.094-3.626 1.633-5.443.247-.83.372-1.7.648-2.52.486-1.444.947-2.91 1.598-4.28.988-2.08 2.029-4.148 3.244-6.099.701-1.126 1.725-2.084 2.732-2.972.43-.38 1.19-.388 1.8-.565 2.185-.633 4.252-.225 6.122.941.8.497 1.362 1.373 2.158 2.208zm-80.712 27.688c-.754 0-1.388-.028-2.02.006-1.034.056-2.474-1.225-2.373-2.238.081-.817.191-1.675.519-2.413.548-1.228 1.84-.874 2.843-1.029a39.13 39.13 0 0 1 4.285-.427 75.04 75.04 0 0 1 5.883-.05c.393.013.86.503 1.135.887 1.158 1.622.864 3.585 1.073 5.4.292 2.546.456 5.128.384 7.687-.083 2.902-.438 5.802-.767 8.691-.218 1.923-1.786 2.783-3.51 2.628-1.06-.096-2.29.42-2.966-.94-.72-1.45-.858-2.88-.338-4.46.517-1.57.8-3.216 1.19-4.83.185-.76.382-1.52.347-2.44-.423.527-.862 1.042-1.266 1.584-1.581 2.113-3.867 3.248-6.153 4.331-1.946.922-4.01.74-6.143.703-2.196-.037-3.568-1.306-4.88-2.39-1.924-1.593-3.266-3.852-3.582-6.48-.38-3.157-.97-6.325-.937-9.482.031-2.94.682-5.887 1.211-8.803.402-2.212.846-4.453 1.627-6.548.776-2.08 2.03-3.977 3.011-5.985.827-1.692 1.898-3.133 3.452-4.244 2.613-1.87 5.465-2.163 8.404-1.182 1.083.362 1.985 1.287 2.946 1.987.616.45 1.206.937 1.78 1.44 1.874 1.645 3.127 3.671 3.646 6.122.175.832.397 1.68.386 2.519-.02 1.32-.987 1.936-2.115 2.319a69.33 69.33 0 0 1-2.221.704c-1.81.546-2.813-.193-2.82-2.093-.007-1.842-.432-3.52-1.701-4.933-.588-.655-3.046-.778-3.74-.049-.97 1.019-2.058 2.003-2.734 3.206-.9 1.6-1.587 3.355-2.116 5.117-.688 2.294-1.08 4.675-1.693 6.993-.996 3.765-.225 7.337 1.04 10.87.77 2.146 2.564 2.9 4.801 2.351 2.04-.5 3.397-1.556 3.938-3.6.064-.241.094-.492.174-.93zM329.43 44.859c.942-1.771 1.983-3.497 2.794-5.326a41.515 41.515 0 0 0 2.035-5.643c.434-1.551.546-3.192.84-4.786.175-.953.354-1.917.664-2.832.469-1.389 1.859-1.123 2.744-.99 1.233.187 2.39.923 3.552 1.482.234.113.452.473.489.746.46 3.366.581 6.755-.354 10.041-.868 3.052-1.664 6.162-3.475 8.862-.119.177-.099.596.032.77 1.562 2.07 3.238 4.056 4.71 6.185.924 1.335 1.527 2.886 2.319 4.315.644 1.165 1.48 2.239 2.008 3.45.69 1.587 1.131 3.28 1.735 4.907.451 1.215 1.09 2.368 1.459 3.605.327 1.098.4 2.273.581 3.415.008.047-.021.102-.039.15-.295.81-2.934 2.028-3.796 1.858-.621-.124-1.442.184-1.888-.12-.731-.5-1.41-1.253-1.787-2.052-.579-1.232-.813-2.62-1.319-3.893-1.01-2.539-2.327-4.976-3.107-7.579-.957-3.19-3.163-5.459-5.086-7.96-.467-.606-.935-1.107-1.76-.21-.75.817-1.99 1.24-2.591 2.124-.456.669-.462 1.833-.296 2.706.627 3.298 1.425 6.564 2.12 9.85.261 1.232.4 2.488.62 3.729.167.947.508 1.886.502 2.828-.002.472-.55 1.28-.952 1.35-1.871.32-3.747 1.418-5.67.38-.71-.385-1.527-.95-1.826-1.637-.863-1.98-1.61-4.033-2.162-6.12-.433-1.636-.493-3.37-.746-5.056-.145-.962-.42-1.908-.504-2.873-.212-2.381-.418-4.766-.496-7.155-.09-2.74-.062-5.483-.034-8.224.01-1.027.136-2.056.26-3.078.319-2.645.703-5.282.986-7.93.164-1.535.116-3.09.282-4.624.167-1.523.406-3.185 1.824-4.012.865-.503 2.19-.773 3.119-.502 2.545.745 2.855 1.97 2.713 4.46-.23 4.042-.738 8.068-1.086 12.104-.088 1.021-.013 2.058-.013 3.086l.6.2zm-287.222.728c-1.732 1.52-1.914 2.668-1.777 4.786.075 1.17-.248 2.392-.536 3.556-.356 1.434-.904 2.818-1.29 4.246-.395 1.462-.528 3.017-1.086 4.407-.525 1.308-1.474 2.441-2.203 3.672-1.527 2.581-2.669 5.203-.673 8.088.069.1.016.29.011.438-.058 1.757 1.094 3.236 2.746 3.446.683.087 1.39-.013 2.07.08 3.27.449 6.52 1.07 9.8 1.355 2.008.176 4.06-.141 6.09-.242 1.105-.056 2.21-.193 3.312-.168 2.382.05 4.762.25 7.143.26 2.454.012 4.908-.114 7.36-.206 1.898-.07 3.795-.169 5.69-.285 1.083-.067 2.187-.392 3.238-.258 2.744.352 5.438.93 8.26.737.953-.065 2.38-.181 3.02 1.239.166.368.845.504 1.288.748.194-.508.62-1.051.544-1.515-.317-1.962-.785-3.9-1.193-5.848-.493-2.351-1.052-4.693-1.445-7.061-.3-1.813-.432-3.657-.56-5.492-.146-2.063-.221-4.13-.294-6.197-.04-1.152.06-2.31-.037-3.456-.191-2.286-.521-4.561-.71-6.847-.214-2.587-.313-5.184-.506-7.774-.109-1.466-.538-2.947-.411-4.384.3-3.392.805-6.768 1.32-10.137a9.602 9.602 0 0 1 .956-2.923c.673-1.298 1.53-2.5 2.332-3.728.802-1.225 1.355-1.455 2.027-1.08-.576 1.602-1.325 3.133-1.66 4.752-.373 1.804-.394 3.686-.523 5.537-.117 1.69-.149 3.385-.265 5.074-.124 1.826-.452 3.651-.42 5.473.042 2.26.345 4.517.566 6.772.113 1.156.307 2.304.428 3.46.028.267-.098.549-.158.85.04.035.26.13.275.25.09.707.173 1.42.182 2.131.015 1.262-.448 2.55.248 3.769.027.049-.023.142-.047.267l-.442-.142c.141 1.478.4 2.955.396 4.432-.003 2.034-.325 4.07-.285 6.1.04 2.02.305 4.037.57 6.044.222 1.678.605 3.337.878 5.01.216 1.32.316 2.662.578 3.972.14.7.587 1.335.76 2.032.348 1.402.928 2.598 2.346 3.18.55.225 1.119.472 1.7.549 1.975.26 3.958.6 5.943.63 3.46.052 6.925-.202 10.385-.14 2.683.047 5.358.417 8.04.577 2.886.17 5.776.263 8.664.39 3.502.155 7.005.318 10.508.464 1.617.066 3.237.097 4.856.148.096.002.191.041.288.06.664.123 1.325.327 1.993.355 2.33.093 4.663.186 6.994.167 3.52-.027 7.04-.182 10.562-.215 1.702-.016 3.407.195 5.109.17 1.942-.028 3.884-.187 5.824-.322 2.315-.161 4.623-.414 6.94-.524 3.183-.15 6.371-.158 9.554-.31 3.057-.145 6.107-.41 9.163-.593 1.601-.094 3.21-.226 4.807-.153 2.282.103 4.552.484 6.834.553 3.285.097 6.575.005 9.863.023 2.166.01 4.332.08 6.498.109.614.008 1.229-.023 1.842-.053 1.287-.062 2.575-.204 3.862-.19 2.008.024 4.014.183 6.023.222 1.722.033 3.445-.064 5.168-.028 1.951.042 3.902.247 5.852.234 2.238-.014 4.476-.194 6.715-.292 2.709-.117 5.417-.283 8.127-.317 2.568-.032 5.137.11 7.705.117 2.342.006 4.692.053 7.022-.131 3.038-.24 6.054-.736 9.09-1.027 1.426-.137 2.876-.011 4.313-.07 2.868-.12 5.736-.325 8.606-.417 2.21-.07 4.423.014 6.634-.038 2.064-.05 4.124-.232 6.189-.274 1.575-.033 3.152.08 4.728.096 2.73.025 5.46.027 8.19.038 1.787.006 3.578.1 5.357-.006 2.598-.15 5.186-.473 7.782-.67 2.834-.215 5.671-.416 8.511-.54 1.958-.083 3.927-.112 5.88-.007 2.235.122 4.456.46 6.69.623.834.06 1.686-.167 2.528-.153 2.605.044 5.21.155 7.816.211 1.204.026 2.416.038 3.614-.064.368-.032.738-.425 1.039-.72.188-.185.198-.542.374-.748 1.158-1.36 1.266-2.977 1.193-4.645-.069-1.59-.16-3.182-.197-4.773-.044-1.926-.04-3.852-.058-5.777-.004-.352-.046-.708-.014-1.057.11-1.21.352-2.42.343-3.628-.015-1.829-.21-3.657-.307-5.486-.084-1.582-.096-3.17-.219-4.748-.132-1.716-.39-3.422-.523-5.137-.093-1.208-.082-2.426-.094-3.64-.012-1.213-.029-2.426.018-3.637.03-.758.266-1.514.243-2.266-.057-1.757-.22-3.511-.33-5.268-.091-1.444-.107-2.896-.272-4.331-.205-1.797-.514-3.583-.8-5.37-.323-2.026-1.226-3.683-3.05-4.763-.415-.247-.764-.603-1.424-1.136 2.505.365 4.586 1.159 5.487 3.024 1.17 2.425 1.838 5.123 2.468 7.765.39 1.642.304 3.398.446 5.102.208 2.51.576 5.019.614 7.532.057 3.749-.183 7.501-.163 11.252.016 2.576.264 5.153.399 7.73.037.684-.001 1.376.072 2.054.095.875.357 1.737.393 2.61.116 2.958.2 5.918.228 8.877.022 2.258-.087 4.516-.058 6.773.005.351.39.951.67.995.623.096 1.306-.016 1.936-.169 1.448-.35 2.86-1.004 4.32-1.124 2.986-.244 5.997-.19 8.996-.312 1.803-.073 3.601-.292 5.405-.362 2.128-.082 4.26-.094 6.391-.103 3.838-.016 7.701-.261 11.508.088 2.203.202 4.262.25 6.383-.318 1.065-.287 2.096-.47 2.415-1.74.021-.088.225-.117.315-.204.957-.926 2.001-1.783 2.816-2.821.341-.436.22-1.255.259-1.903.08-1.293.29-2.608.138-3.877-.15-1.242-.59-2.477-1.068-3.647-.775-1.891-1.544-3.812-2.58-5.564-1.027-1.737-2.407-3.263-3.562-4.93-.18-.258-.135-.933.077-1.15.723-.747 1.738-1.251 2.333-2.071 1.479-2.041 3.73-2.99 5.694-4.342 1.54-1.06 3.193-1.964 4.69-3.08 2.37-1.769 4.677-3.625 6.96-5.506 1.663-1.368 3.251-2.828 4.862-4.259 2.146-1.907 4.32-3.788 6.406-5.76 1-.943 1.722-2.19 2.759-3.081 1.199-1.031 1.118-2.448 1.028-3.607-.12-1.505-.871-2.973-1.441-4.421-.153-.387-.586-.794-.98-.934-1.497-.53-3.006-1.19-4.559-1.363-2.355-.261-4.752-.17-7.132-.201-1.203-.015-2.41.085-3.611.031-1.375-.062-2.742-.292-4.116-.353-1.896-.083-3.798-.036-5.694-.12-2.111-.093-4.217-.32-6.33-.393-1.247-.042-2.503.164-3.753.149-2.248-.025-4.496-.142-6.745-.202-1.468-.038-2.938-.022-4.405-.07-1.852-.063-3.702-.166-5.553-.25-.233-.011-.468-.008-.701-.021-1.546-.083-3.092-.215-4.639-.244-1.69-.03-3.381.046-5.073.053-1.092.004-2.184-.03-3.276-.053-2.015-.04-4.036-.196-6.044-.093-1.41.074-2.791.63-4.203.736-1.78.132-3.579-.034-5.366.035-2.71.105-5.416.279-8.12.478-.578.042-1.171.246-1.697.5-.352.169-.589.566-.891.847-1.049.971-.775 2.752.508 3.454.879.48 1.726 1.02 2.622 1.554-1.052.277-1.98.75-2.89.719-2.916-.102-5.828-.368-8.738-.618-2.085-.18-4.163-.458-6.248-.653-3.359-.316-6.716-.71-10.084-.862-3.108-.142-6.23.008-9.346 0-3.442-.01-6.886-.006-10.326-.101-1.98-.055-3.953-.346-5.933-.435-1.822-.084-3.65-.046-5.477-.052-1.074-.002-2.153-.047-3.223.033-1.226.092-2.44.398-3.666.439-2.321.077-4.647-.007-6.968.049-1.796.043-3.587.254-5.382.292-3.067.063-6.139.126-9.203.045-3.692-.097-7.38-.335-11.07-.532-1.533-.082-3.068-.326-4.598-.302-3.267.052-6.531.233-9.796.357-2.444.094-4.889.224-7.333.257-2.443.033-4.889-.052-7.333-.051a87.464 87.464 0 0 0-4.294.116c-1.16.058-2.317.264-3.476.268-2.5.01-5.002-.068-7.503-.11-2.42-.039-4.84-.065-7.258-.12-1.976-.045-3.95-.136-5.926-.185-1.82-.044-3.64-.06-5.46-.083-1.833-.023-3.669-.102-5.499-.04-2.09.07-4.174.288-6.263.404-1.454.083-2.91.121-4.367.146-1.616.028-3.244.145-4.847-.003-2.832-.262-5.643-.774-8.477-1.023-1.405-.123-2.841.164-4.264.16-2.058-.005-4.115-.135-6.173-.156-1.499-.016-2.999.11-4.496.081-1.498-.03-2.992-.229-4.49-.246-1.505-.018-3.012.097-4.518.154l-4.755.183c-1.687.065-3.374.19-5.06.184-2.28-.01-4.559-.117-6.838-.195-1.29-.045-2.582-.195-3.869-.156-1.583.05-3.159.328-4.741.364-2.147.05-4.298-.081-6.446-.056-4.388.053-8.774.154-13.161.243-1.865.037-3.729.071-5.593.143-3.601.138-7.203.302-10.805.457.204-.576.53-.852.871-1.11 1.103-.832 2.61-1.485 2.498-3.112-.117-1.658-1.65-3.38-4.077-3.314-2.123.057-4.245.14-6.366.158-2.576.022-5.153-.005-7.728-.021-1.518-.01-3.044-.14-4.553-.03-1.415.102-2.806.565-4.22.658-1.71.11-3.435.032-5.151-.023-3.805-.122-7.607-.362-11.411-.393-2.36-.02-4.721.246-7.08.403-2.084.137-4.164.4-6.247.426-2.26.028-4.518-.176-6.78-.24-1.625-.045-3.253-.023-4.879-.04-.231 0-.462-.052-.694-.07-1.312-.105-2.626-.298-3.938-.29-2.186.015-4.373.158-6.56.248-.623.027-1.252.115-1.871.071-1.258-.09-2.51-.343-3.767-.355-1.09-.011-2.186.212-3.277.343-.296.035-.76.014-.851.181-.666 1.207-1.987.923-2.96 1.401-.417.204-1.047.537-1.078.858-.108 1.157-.26 2.415.079 3.486.658 2.079 1.487 4.138 2.527 6.054.987 1.814 2.262 3.489 3.552 5.113.639.805 1.615 1.336 2.4 2.033 1.282 1.14 2.428 2.466 3.823 3.437 1.512 1.054 3.253 1.777 4.877 2.675.757.417 1.447.96 2.215 1.353 2.546 1.3 5.188 2.436 7.651 3.876 1.686.987 3.139 2.377 4.746 3.626z"/><path fill="none" stroke="#08262c" stroke-linejoin="round" stroke-miterlimit="20" stroke-width="20" d="M360.528 69.8c.088-.796.165-2.226 1.877-2.793.337-.112.688-.445.852-.768 1.325-2.59 3.688-2.39 4.972.353 1.894 4.05-.376 7.071-4.195 7.91-1.712.377-3.631-1.941-3.506-4.702zm10.609-39.072c.208 1.154.472 1.954.472 2.752-.002 1.67-.149 3.339-.224 5.01-.025.578.053 1.167-.029 1.736-.207 1.45-.486 2.89-.718 4.338-.278 1.73-.656 3.456-.765 5.197-.083 1.308-.94 2.506-2.138 3.154-.97.526-1.722 1.48-2.515 2.299-1.18 1.22-3.663.95-4.19-.624-.36-1.072-.454-2.314-.337-3.445.263-2.562.848-5.094 1.085-7.657.266-2.872.332-5.764.412-8.65.053-1.887-.06-3.78-.028-5.67.017-1.046 1.783-2.08 2.958-1.769 1.462.387 2.89.934 4.371 1.204 1.527.279 1.38 1.487 1.646 2.125zm-87.835 41.557c-.136-.916-.291-1.83-.404-2.749-.29-2.365-.608-4.728-.829-7.101-.2-2.17-.258-4.352-.433-6.524-.193-2.4-.522-4.791-.65-7.194-.11-2.033-.054-4.08-.002-6.118.052-2.05.151-4.1.308-6.143.072-.947.285-1.891.51-2.818.388-1.6.812-3.193 1.29-4.769.07-.231.587-.556.77-.49 1.325.488 2.702.407 4.02 1.47 2.324 1.877.7 3.788.747 5.682.026 1.005.056 2.01.095 3.017.116 3.023.378 6.05.32 9.07-.067 3.472-.15 6.91.725 10.316.24.93.087 1.958.164 2.936.153 1.93.297 3.862.53 5.782.133 1.086.656 2.162.609 3.224-.088 1.972-.236 4.08-2.247 5.204-.627.35-1.523.384-2.268.306-.758-.08-1.615-.315-2.184-.78-.639-.52-1.003-1.375-1.488-2.084zM220.736 37.46c-2.607-.208-4.992-.587-6.684-2.697-.492-.614-.238-2.656.153-3.536.944-2.12 2.845-2.216 4.682-2.388 2.1-.196 4.217-.323 6.324-.308 1.944.015 3.886.264 5.829.394 1.312.087 2.628.112 3.936.23 1.563.142 3.13.295 4.673.56.816.14 1.489 1.902 1.16 3.033-.285.97-.818 1.869-1.107 2.84-.37 1.243-1.476 1.377-2.389 1.516-1.128.173-2.314-.074-3.474-.073-1.48.003-2.961.085-4.442.106-.72.01-1.443-.073-2.161-.037-.17.009-.464.325-.465.501-.016 2.974-.012 5.95.024 8.923.034 2.728.072 5.455.187 8.18.062 1.517.322 3.025.425 4.542.128 1.858.16 3.723.281 5.581.145 2.206.395 4.406.499 6.614.109 2.322-1.617 3.42-3.811 2.557-.627-.246-1.331-.3-2.003-.429-.121-.024-.315.067-.371.008-.702-.75-1.839-1.44-1.988-2.297-.475-2.726-.6-5.515-.82-8.283-.185-2.314-.418-4.633-.436-6.95-.016-2.048.205-4.1.376-6.146.201-2.412.415-4.826.713-7.226.19-1.543.541-3.064.817-4.597.035-.194.046-.392.072-.618zm-47.111 17.646l1.248 13.765c1.076.085 2.248.203 3.422.26.88.042 1.852-.226 2.62.068.774.298 1.648 1.009 1.92 1.745.238.643-.072 1.753-.54 2.34-1.162 1.458-2.674 1.994-4.649 1.455-1.248-.34-2.658-.084-3.995-.123a44.34 44.34 0 0 1-3.109-.175c-.237-.023-.585-.271-.651-.488-.539-1.733-1.118-3.462-1.495-5.232-.386-1.82-.59-3.683-.811-5.535-.132-1.097-.101-2.213-.217-3.314-.23-2.179-.499-4.354-.776-6.528-.076-.603-.236-1.197-.265-1.806-.075-.735-.184-1.467-.22-2.203-.089-1.843-.257-3.691-.184-5.53.08-2.011.42-4.012.597-6.021.103-1.186-.064-2.42.198-3.562.392-1.709.886-3.444 1.697-4.978.267-.505 1.645-.479 2.529-.59 1.76-.22 3.527-.51 5.292-.51 2.394-.005 4.797.16 7.179.414.817.088 1.59.65 2.371 1.022 1.254.598 1.101 1.76.748 2.677-.524 1.358-.402 3.07-1.85 3.981-1.16.732-2.392.916-3.77.55-1.011-.268-2.1-.256-3.153-.346-.802-.07-1.607-.108-2.41-.15-1.079-.053-1.541.69-1.52 2.067.028 1.685-.08 3.373-.136 5.06-.055 1.694-.153 3.39-.13 5.083.003.193.717.595 1.015.528 1.631-.378 3.23-.896 4.853-1.317 1.056-.275 2.375.742 2.47 1.843.202 2.346-1.813 4.718-4.155 4.962-1.355.14-2.699.381-4.123.588zm132.786 21.62c-2.74.705-4.74-1.025-6.714-2.261-2.198-1.376-3.355-3.717-4.056-6.226-.417-1.49-1.023-2.94-1.292-4.454a83.191 83.191 0 0 1-.997-7.614c-.201-2.389-.253-4.796-.234-7.194.01-1.28.276-2.562.488-3.833.343-2.063.633-4.143 1.138-6.168a35.59 35.59 0 0 1 1.815-5.43c.64-1.49 1.389-3.02 2.438-4.228 1.436-1.657 3.58-2.084 5.69-2.011.762.027 1.66.61 2.214 1.203 1.282 1.372 2.428 2.878 3.562 4.38 1.037 1.37.95 2.633-.129 3.942-.31.376-.596.771-.886 1.164-.554.748-2.15.732-2.891-.035-1.847-1.914-2.173-1.984-3.6.38-.794 1.312-1.015 2.974-1.476 4.484-.187.615-.398 1.236-.472 1.868-.152 1.308-.28 2.623-.307 3.938-.037 1.762-.039 3.53.068 5.288.135 2.25.223 4.527.671 6.723.23 1.123 1.17 2.112 1.843 3.126.51.77 1.018 1.58 1.697 2.18.31.276 1.253.331 1.524.077 1.88-1.766 3.682-3.619 5.458-5.49.586-.62.881-1.665 1.564-2.003.863-.427 2.06-.613 2.971-.368.753.202 1.442 1.09 1.905 1.833.965 1.546 1.753 3.19.87 5.097-.764 1.647-1.266 3.464-2.283 4.928-.989 1.425-2.476 2.508-3.763 3.72-.621.586-1.198 1.356-1.948 1.638-1.57.59-3.24.914-4.868 1.347zm106.343-21.643c-1.434 1.317-2.773 2.554-4.12 3.78-1.206 1.097-2.408 2.2-3.64 3.267-1.101.953-1.923.93-2.752-.148a29.799 29.799 0 0 1-2.043-3.064c-.215-.365-.298-.9-.231-1.324.45-2.847.794-5.727 1.514-8.507.36-1.388.196-2.11-.918-2.964-1.786-1.366-3.465-2.882-5.1-4.428a22.78 22.78 0 0 1-2.786-3.18c-.68-.938.723-3.711 1.904-3.858 3.282-.405 6.57-.746 9.852-1.152.223-.028.522-.35.589-.59.878-3.14 1.775-6.278 2.553-9.444.603-2.453 2.76-3.077 5.074-2.278.537.185 1.14.239 1.614.52.313.186.477.656.657 1.024a1202.07 1202.07 0 0 1 3.4 7.005c.513 1.066.943 2.18 1.538 3.196.214.365.779.653 1.225.727 1.172.194 2.365.265 3.552.359 1.538.122 3.075.29 4.615.31 1.856.024 2.959 1.182 2.78 3.072-.077.807.18 1.933-.258 2.367-1.798 1.788-3.816 3.352-5.73 5.025-.852.743-1.656 1.541-2.455 2.34-.107.109-.071.38-.068.575.034 2 .042 4 .123 5.997.078 1.913.227 3.823.356 5.733.083 1.221-.943 1.861-2.513 2.196-2.33.495-3.522-.899-4.814-2.337-1.302-1.45-2.65-2.857-3.918-4.219zm-151.428-21.36c.668-.637 1.146-1.025 1.543-1.484 1.51-1.755 3.54-2.543 5.715-2.926a11.498 11.498 0 0 1 3.602-.051c2.73.4 3.686 2.66 4.555 4.838.489 1.223.902 2.574.908 3.87.008 1.657-.3 3.349-.712 4.964-.405 1.59-1.086 3.113-1.697 4.647-.238.597-.584 1.159-.935 1.702-1.692 2.623-3.292 5.318-5.152 7.818-1.016 1.366-2.509 2.37-3.729 3.595-.282.284-.505.83-.45 1.21.217 1.507.55 2.999.85 4.494.354 1.756.887 3.498 1.014 5.27.075 1.035.117 2.209-1.497 2.836-1.218.471-2.313 1.197-3.686 1.186-.88-.007-3.019-1.595-3.264-2.441-.445-1.535-.942-3.058-1.3-4.614-.552-2.4-1.127-4.808-1.466-7.245-.284-2.036-.192-4.121-.367-6.176-.13-1.541-.513-3.065-.613-4.607-.124-1.894-.075-3.8-.092-5.7-.006-.709.011-1.418.02-2.128.018-1.23-.069-2.473.08-3.687.407-3.356.866-6.706 1.423-10.038.1-.6.662-1.421 1.188-1.592 1.188-.386 2.394-.456 3.471.691 1.306 1.39.362 2.94.64 4.382.052.27-.019.562-.05 1.186zm-174.06 4.097c-.367.627-.685 1.209-1.04 1.77-.392.621-.738 1.298-1.24 1.82-2.207 2.29-4.518 4.482-6.647 6.842-.367.405-.131 1.464-.001 2.19.316 1.774.785 3.522 1.095 5.296.256 1.47.428 2.958.522 4.445.03.47-.31.962-.48 1.445-.037.105-.09.207-.109.314-.246 1.524-1.333 2.746-2.957 2.92-.79.083-1.83-.115-2.422-.596-1.882-1.533-3.595-3.271-5.397-4.902-.605-.55-1.249-1.077-1.95-1.487-.21-.124-.747.089-1.006.304-1.159.958-2.215 2.046-3.414 2.946-1.224.919-2.557 1.696-3.87 2.49-1.46.882-2.583.707-3.791-.508-.255-.256-.53-.492-.783-.751-.516-.526-.86-1.063-.181-1.735a.942.942 0 0 0 .248-.613c-.019-2.837 1.162-5.39 1.88-8.052.2-.744.485-1.499.485-2.249 0-.378-.538-.768-.857-1.131a627.783 627.783 0 0 0-3.22-3.618c-1.543-1.725-3.109-3.432-4.628-5.18-.708-.816-.508-3.67.298-4.422.607-.566 1.241-1.15 1.969-1.518.412-.208 1.036-.003 1.564.025.707.038 1.414.086 2.12.127 1.786.107 3.571.22 5.358.305.137.006.363-.15.413-.283a837.216 837.216 0 0 0 3.687-9.845c.275-.752.237-1.663.65-2.306.376-.584 1.112-1.111 1.789-1.29.976-.258 2.045-.267 3.066-.221 1.403.06 1.45 1.287 1.671 2.268.378 1.668.274 3.409 1.2 5.002.588 1.013.678 2.314 1.006 3.483.181.645.37 1.292.616 1.914.04.104.395.129.6.116 3.019-.173 6.035-.445 9.057-.511 2.159-.048 2.857.616 3.647 2.73.293.782.653 1.538 1.051 2.466zm61.302 14.358c-.995.752-2.009 1.46-2.936 2.27-.189.165-.079.712-.054 1.078.093 1.369.14 2.747.333 4.103.243 1.705.634 3.388.922 5.088.188 1.12.283 2.254.461 3.376.113.71.287 1.414.463 2.113.195.777.431 1.543.625 2.32.035.134-.03.31-.093.448-.445.97-2.944 2.141-3.977 1.922-.445-.095-.924-.02-1.375-.095-1.335-.222-1.546-1.316-1.815-2.38-.275-1.084-.685-2.14-.888-3.237a73.233 73.233 0 0 1-.752-5.235c-.228-2.057-.419-4.12-.537-6.186-.076-1.337.023-2.683.013-4.025-.004-.558-.129-1.115-.123-1.672.016-1.526.106-3.052.1-4.578-.003-.84-.22-1.682-.203-2.52.025-1.204.203-2.405.264-3.609.068-1.385.039-2.775.129-4.16.106-1.61.24-3.224.466-4.822.22-1.55.456-3.12.923-4.606.196-.624.96-1.441 1.539-1.503 1.487-.16 2.46.675 2.516 1.768.03.617.006 1.238.006 1.537 1.824-.779 3.532-1.725 5.362-2.23 1.905-.525 3.791.082 5.662.747 2.672.95 3.647 3.336 4.643 5.497.57 1.233.085 2.974-.011 4.481-.04.644-.288 1.276-.463 1.907-.11.397-.158.872-.409 1.159-1.525 1.75-3.013 3.546-4.687 5.146-1.35 1.29-1.302 1.596.124 2.922 1.212 1.127 2.138 2.586 3.088 3.968a54.37 54.37 0 0 1 2.892 4.65c.625 1.137 1.071 2.38 1.54 3.598.749 1.945 1.318 3.972 2.207 5.85 1.041 2.195.884 4.93-.688 6.762-.81.942-2.456 1.023-3.574.613-2.363-.866-2.482-2.746-2.71-4.796-.143-1.295-.8-2.536-1.248-3.794-.591-1.654-1.168-3.316-1.823-4.946-.453-1.128-.889-2.302-1.576-3.286-1.343-1.929-2.857-3.739-4.336-5.643zm57.232-19.91c.09-.34.143-.437.137-.532-.108-1.585.691-2.582 2.183-2.714 1.032-.09 2.371 1.49 2.44 2.769.145 2.74.39 5.477.506 8.218.103 2.466.098 4.936.122 7.405.024 2.413.045 4.827.03 7.241-.013 1.95-.134 3.898-.104 5.845.017 1.058.313 2.109.365 3.17.057 1.13-.057 2.27-.04 3.405.015.9.307 1.836.134 2.687-.314 1.54.465 3.303-.845 4.62-.338.337-.88.629-1.34.65-.691.03-1.392-.297-2.09-.297-2.44-.002-2.947-1.643-3.032-3.321-.138-2.69-.059-5.396.026-8.092.046-1.44.297-2.874.438-4.144-2.792-.164-5.37-.25-7.927-.523-.476-.05-.878-.852-1.3-1.32-.108-.119-.16-.29-.248-.43-.235-.374-.759-.871-.66-1.09a3.85 3.85 0 0 1 1.221-1.483c.874-.626 1.874-1.07 2.782-1.654 1.825-1.17 3.677-2.311 5.418-3.6 1.307-.967.55-2.438.42-3.629-.213-1.96-.539-3.96-1.214-5.798-.515-1.403-1.51-2.715-2.57-3.79-.394-.4-1.593-.038-2.414.064-.104.012-.123.562-.214.852-.546 1.74-1.238 3.445-1.624 5.219-.645 2.967-1.088 5.978-1.633 8.968-.326 1.78-.831 3.542-.993 5.336-.241 2.673-.303 5.367-.343 8.054-.04 2.633.074 5.268.061 7.901-.008 1.482-2.185 3.149-3.673 2.911-.456-.073-.983.029-1.363-.17-.555-.286-1.336-.696-1.448-1.185-.715-3.138-1.562-6.293-1.802-9.484-.235-3.118.192-6.287.349-9.432.065-1.304.025-2.64.31-3.897.415-1.844 1.094-3.626 1.633-5.443.247-.83.372-1.7.648-2.52.486-1.444.947-2.91 1.598-4.28.988-2.08 2.029-4.148 3.244-6.099.701-1.126 1.725-2.084 2.732-2.972.43-.38 1.19-.388 1.8-.565 2.185-.633 4.252-.225 6.122.941.8.497 1.362 1.373 2.158 2.208zm-80.712 27.688c-.754 0-1.388-.028-2.02.006-1.034.056-2.474-1.225-2.373-2.238.081-.817.191-1.675.519-2.413.548-1.228 1.84-.874 2.843-1.029a39.13 39.13 0 0 1 4.285-.427 75.04 75.04 0 0 1 5.883-.05c.393.013.86.503 1.135.887 1.158 1.622.864 3.585 1.073 5.4.292 2.546.456 5.128.384 7.687-.083 2.902-.438 5.802-.767 8.691-.218 1.923-1.786 2.783-3.51 2.628-1.06-.096-2.29.42-2.966-.94-.72-1.45-.858-2.88-.338-4.46.517-1.57.8-3.216 1.19-4.83.185-.76.382-1.52.347-2.44-.423.527-.862 1.042-1.266 1.584-1.581 2.113-3.867 3.248-6.153 4.331-1.946.922-4.01.74-6.143.703-2.196-.037-3.568-1.306-4.88-2.39-1.924-1.593-3.266-3.852-3.582-6.48-.38-3.157-.97-6.325-.937-9.482.031-2.94.682-5.887 1.211-8.803.402-2.212.846-4.453 1.627-6.548.776-2.08 2.03-3.977 3.011-5.985.827-1.692 1.898-3.133 3.452-4.244 2.613-1.87 5.465-2.163 8.404-1.182 1.083.362 1.985 1.287 2.946 1.987.616.45 1.206.937 1.78 1.44 1.874 1.645 3.127 3.671 3.646 6.122.175.832.397 1.68.386 2.519-.02 1.32-.987 1.936-2.115 2.319a69.33 69.33 0 0 1-2.221.704c-1.81.546-2.813-.193-2.82-2.093-.007-1.842-.432-3.52-1.701-4.933-.588-.655-3.046-.778-3.74-.049-.97 1.019-2.058 2.003-2.734 3.206-.9 1.6-1.587 3.355-2.116 5.117-.688 2.294-1.08 4.675-1.693 6.993-.996 3.765-.225 7.337 1.04 10.87.77 2.146 2.564 2.9 4.801 2.351 2.04-.5 3.397-1.556 3.938-3.6.064-.241.094-.492.174-.93zM329.43 44.859c.942-1.771 1.983-3.497 2.794-5.326a41.515 41.515 0 0 0 2.035-5.643c.434-1.551.546-3.192.84-4.786.175-.953.354-1.917.664-2.832.469-1.389 1.859-1.123 2.744-.99 1.233.187 2.39.923 3.552 1.482.234.113.452.473.489.746.46 3.366.581 6.755-.354 10.041-.868 3.052-1.664 6.162-3.475 8.862-.119.177-.099.596.032.77 1.562 2.07 3.238 4.056 4.71 6.185.924 1.335 1.527 2.886 2.319 4.315.644 1.165 1.48 2.239 2.008 3.45.69 1.587 1.131 3.28 1.735 4.907.451 1.215 1.09 2.368 1.459 3.605.327 1.098.4 2.273.581 3.415.008.047-.021.102-.039.15-.295.81-2.934 2.028-3.796 1.858-.621-.124-1.442.184-1.888-.12-.731-.5-1.41-1.253-1.787-2.052-.579-1.232-.813-2.62-1.319-3.893-1.01-2.539-2.327-4.976-3.107-7.579-.957-3.19-3.163-5.459-5.086-7.96-.467-.606-.935-1.107-1.76-.21-.75.817-1.99 1.24-2.591 2.124-.456.669-.462 1.833-.296 2.706.627 3.298 1.425 6.564 2.12 9.85.261 1.232.4 2.488.62 3.729.167.947.508 1.886.502 2.828-.002.472-.55 1.28-.952 1.35-1.871.32-3.747 1.418-5.67.38-.71-.385-1.527-.95-1.826-1.637-.863-1.98-1.61-4.033-2.162-6.12-.433-1.636-.493-3.37-.746-5.056-.145-.962-.42-1.908-.504-2.873-.212-2.381-.418-4.766-.496-7.155-.09-2.74-.062-5.483-.034-8.224.01-1.027.136-2.056.26-3.078.319-2.645.703-5.282.986-7.93.164-1.535.116-3.09.282-4.624.167-1.523.406-3.185 1.824-4.012.865-.503 2.19-.773 3.119-.502 2.545.745 2.855 1.97 2.713 4.46-.23 4.042-.738 8.068-1.086 12.104-.088 1.021-.013 2.058-.013 3.086l.6.2zm-287.222.728c-1.732 1.52-1.914 2.668-1.777 4.786.075 1.17-.248 2.392-.536 3.556-.356 1.434-.904 2.818-1.29 4.246-.395 1.462-.528 3.017-1.086 4.407-.525 1.308-1.474 2.441-2.203 3.672-1.527 2.581-2.669 5.203-.673 8.088.069.1.016.29.011.438-.058 1.757 1.094 3.236 2.746 3.446.683.087 1.39-.013 2.07.08 3.27.449 6.52 1.07 9.8 1.355 2.008.176 4.06-.141 6.09-.242 1.105-.056 2.21-.193 3.312-.168 2.382.05 4.762.25 7.143.26 2.454.012 4.908-.114 7.36-.206 1.898-.07 3.795-.169 5.69-.285 1.083-.067 2.187-.392 3.238-.258 2.744.352 5.438.93 8.26.737.953-.065 2.38-.181 3.02 1.239.166.368.845.504 1.288.748.194-.508.62-1.051.544-1.515-.317-1.962-.785-3.9-1.193-5.848-.493-2.351-1.052-4.693-1.445-7.061-.3-1.813-.432-3.657-.56-5.492-.146-2.063-.221-4.13-.294-6.197-.04-1.152.06-2.31-.037-3.456-.191-2.286-.521-4.561-.71-6.847-.214-2.587-.313-5.184-.506-7.774-.109-1.466-.538-2.947-.411-4.384.3-3.392.805-6.768 1.32-10.137a9.602 9.602 0 0 1 .956-2.923c.673-1.298 1.53-2.5 2.332-3.728.802-1.225 1.355-1.455 2.027-1.08-.576 1.602-1.325 3.133-1.66 4.752-.373 1.804-.394 3.686-.523 5.537-.117 1.69-.149 3.385-.265 5.074-.124 1.826-.452 3.651-.42 5.473.042 2.26.345 4.517.566 6.772.113 1.156.307 2.304.428 3.46.028.267-.098.549-.158.85.04.035.26.13.275.25.09.707.173 1.42.182 2.131.015 1.262-.448 2.55.248 3.769.027.049-.023.142-.047.267l-.442-.142c.141 1.478.4 2.955.396 4.432-.003 2.034-.325 4.07-.285 6.1.04 2.02.305 4.037.57 6.044.222 1.678.605 3.337.878 5.01.216 1.32.316 2.662.578 3.972.14.7.587 1.335.76 2.032.348 1.402.928 2.598 2.346 3.18.55.225 1.119.472 1.7.549 1.975.26 3.958.6 5.943.63 3.46.052 6.925-.202 10.385-.14 2.683.047 5.358.417 8.04.577 2.886.17 5.776.263 8.664.39 3.502.155 7.005.318 10.508.464 1.617.066 3.237.097 4.856.148.096.002.191.041.288.06.664.123 1.325.327 1.993.355 2.33.093 4.663.186 6.994.167 3.52-.027 7.04-.182 10.562-.215 1.702-.016 3.407.195 5.109.17 1.942-.028 3.884-.187 5.824-.322 2.315-.161 4.623-.414 6.94-.524 3.183-.15 6.371-.158 9.554-.31 3.057-.145 6.107-.41 9.163-.593 1.601-.094 3.21-.226 4.807-.153 2.282.103 4.552.484 6.834.553 3.285.097 6.575.005 9.863.023 2.166.01 4.332.08 6.498.109.614.008 1.229-.023 1.842-.053 1.287-.062 2.575-.204 3.862-.19 2.008.024 4.014.183 6.023.222 1.722.033 3.445-.064 5.168-.028 1.951.042 3.902.247 5.852.234 2.238-.014 4.476-.194 6.715-.292 2.709-.117 5.417-.283 8.127-.317 2.568-.032 5.137.11 7.705.117 2.342.006 4.692.053 7.022-.131 3.038-.24 6.054-.736 9.09-1.027 1.426-.137 2.876-.011 4.313-.07 2.868-.12 5.736-.325 8.606-.417 2.21-.07 4.423.014 6.634-.038 2.064-.05 4.124-.232 6.189-.274 1.575-.033 3.152.08 4.728.096 2.73.025 5.46.027 8.19.038 1.787.006 3.578.1 5.357-.006 2.598-.15 5.186-.473 7.782-.67 2.834-.215 5.671-.416 8.511-.54 1.958-.083 3.927-.112 5.88-.007 2.235.122 4.456.46 6.69.623.834.06 1.686-.167 2.528-.153 2.605.044 5.21.155 7.816.211 1.204.026 2.416.038 3.614-.064.368-.032.738-.425 1.039-.72.188-.185.198-.542.374-.748 1.158-1.36 1.266-2.977 1.193-4.645-.069-1.59-.16-3.182-.197-4.773-.044-1.926-.04-3.852-.058-5.777-.004-.352-.046-.708-.014-1.057.11-1.21.352-2.42.343-3.628-.015-1.829-.21-3.657-.307-5.486-.084-1.582-.096-3.17-.219-4.748-.132-1.716-.39-3.422-.523-5.137-.093-1.208-.082-2.426-.094-3.64-.012-1.213-.029-2.426.018-3.637.03-.758.266-1.514.243-2.266-.057-1.757-.22-3.511-.33-5.268-.091-1.444-.107-2.896-.272-4.331-.205-1.797-.514-3.583-.8-5.37-.323-2.026-1.226-3.683-3.05-4.763-.415-.247-.764-.603-1.424-1.136 2.505.365 4.586 1.159 5.487 3.024 1.17 2.425 1.838 5.123 2.468 7.765.39 1.642.304 3.398.446 5.102.208 2.51.576 5.019.614 7.532.057 3.749-.183 7.501-.163 11.252.016 2.576.264 5.153.399 7.73.037.684-.001 1.376.072 2.054.095.875.357 1.737.393 2.61.116 2.958.2 5.918.228 8.877.022 2.258-.087 4.516-.058 6.773.005.351.39.951.67.995.623.096 1.306-.016 1.936-.169 1.448-.35 2.86-1.004 4.32-1.124 2.986-.244 5.997-.19 8.996-.312 1.803-.073 3.601-.292 5.405-.362 2.128-.082 4.26-.094 6.391-.103 3.838-.016 7.701-.261 11.508.088 2.203.202 4.262.25 6.383-.318 1.065-.287 2.096-.47 2.415-1.74.021-.088.225-.117.315-.204.957-.926 2.001-1.783 2.816-2.821.341-.436.22-1.255.259-1.903.08-1.293.29-2.608.138-3.877-.15-1.242-.59-2.477-1.068-3.647-.775-1.891-1.544-3.812-2.58-5.564-1.027-1.737-2.407-3.263-3.562-4.93-.18-.258-.135-.933.077-1.15.723-.747 1.738-1.251 2.333-2.071 1.479-2.041 3.73-2.99 5.694-4.342 1.54-1.06 3.193-1.964 4.69-3.08 2.37-1.769 4.677-3.625 6.96-5.506 1.663-1.368 3.251-2.828 4.862-4.259 2.146-1.907 4.32-3.788 6.406-5.76 1-.943 1.722-2.19 2.759-3.081 1.199-1.031 1.118-2.448 1.028-3.607-.12-1.505-.871-2.973-1.441-4.421-.153-.387-.586-.794-.98-.934-1.497-.53-3.006-1.19-4.559-1.363-2.355-.261-4.752-.17-7.132-.201-1.203-.015-2.41.085-3.611.031-1.375-.062-2.742-.292-4.116-.353-1.896-.083-3.798-.036-5.694-.12-2.111-.093-4.217-.32-6.33-.393-1.247-.042-2.503.164-3.753.149-2.248-.025-4.496-.142-6.745-.202-1.468-.038-2.938-.022-4.405-.07-1.852-.063-3.702-.166-5.553-.25-.233-.011-.468-.008-.701-.021-1.546-.083-3.092-.215-4.639-.244-1.69-.03-3.381.046-5.073.053-1.092.004-2.184-.03-3.276-.053-2.015-.04-4.036-.196-6.044-.093-1.41.074-2.791.63-4.203.736-1.78.132-3.579-.034-5.366.035-2.71.105-5.416.279-8.12.478-.578.042-1.171.246-1.697.5-.352.169-.589.566-.891.847-1.049.971-.775 2.752.508 3.454.879.48 1.726 1.02 2.622 1.554-1.052.277-1.98.75-2.89.719-2.916-.102-5.828-.368-8.738-.618-2.085-.18-4.163-.458-6.248-.653-3.359-.316-6.716-.71-10.084-.862-3.108-.142-6.23.008-9.346 0-3.442-.01-6.886-.006-10.326-.101-1.98-.055-3.953-.346-5.933-.435-1.822-.084-3.65-.046-5.477-.052-1.074-.002-2.153-.047-3.223.033-1.226.092-2.44.398-3.666.439-2.321.077-4.647-.007-6.968.049-1.796.043-3.587.254-5.382.292-3.067.063-6.139.126-9.203.045-3.692-.097-7.38-.335-11.07-.532-1.533-.082-3.068-.326-4.598-.302-3.267.052-6.531.233-9.796.357-2.444.094-4.889.224-7.333.257-2.443.033-4.889-.052-7.333-.051a87.464 87.464 0 0 0-4.294.116c-1.16.058-2.317.264-3.476.268-2.5.01-5.002-.068-7.503-.11-2.42-.039-4.84-.065-7.258-.12-1.976-.045-3.95-.136-5.926-.185-1.82-.044-3.64-.06-5.46-.083-1.833-.023-3.669-.102-5.499-.04-2.09.07-4.174.288-6.263.404-1.454.083-2.91.121-4.367.146-1.616.028-3.244.145-4.847-.003-2.832-.262-5.643-.774-8.477-1.023-1.405-.123-2.841.164-4.264.16-2.058-.005-4.115-.135-6.173-.156-1.499-.016-2.999.11-4.496.081-1.498-.03-2.992-.229-4.49-.246-1.505-.018-3.012.097-4.518.154l-4.755.183c-1.687.065-3.374.19-5.06.184-2.28-.01-4.559-.117-6.838-.195-1.29-.045-2.582-.195-3.869-.156-1.583.05-3.159.328-4.741.364-2.147.05-4.298-.081-6.446-.056-4.388.053-8.774.154-13.161.243-1.865.037-3.729.071-5.593.143-3.601.138-7.203.302-10.805.457.204-.576.53-.852.871-1.11 1.103-.832 2.61-1.485 2.498-3.112-.117-1.658-1.65-3.38-4.077-3.314-2.123.057-4.245.14-6.366.158-2.576.022-5.153-.005-7.728-.021-1.518-.01-3.044-.14-4.553-.03-1.415.102-2.806.565-4.22.658-1.71.11-3.435.032-5.151-.023-3.805-.122-7.607-.362-11.411-.393-2.36-.02-4.721.246-7.08.403-2.084.137-4.164.4-6.247.426-2.26.028-4.518-.176-6.78-.24-1.625-.045-3.253-.023-4.879-.04-.231 0-.462-.052-.694-.07-1.312-.105-2.626-.298-3.938-.29-2.186.015-4.373.158-6.56.248-.623.027-1.252.115-1.871.071-1.258-.09-2.51-.343-3.767-.355-1.09-.011-2.186.212-3.277.343-.296.035-.76.014-.851.181-.666 1.207-1.987.923-2.96 1.401-.417.204-1.047.537-1.078.858-.108 1.157-.26 2.415.079 3.486.658 2.079 1.487 4.138 2.527 6.054.987 1.814 2.262 3.489 3.552 5.113.639.805 1.615 1.336 2.4 2.033 1.282 1.14 2.428 2.466 3.823 3.437 1.512 1.054 3.253 1.777 4.877 2.675.757.417 1.447.96 2.215 1.353 2.546 1.3 5.188 2.436 7.651 3.876 1.686.987 3.139 2.377 4.746 3.626z"/></g><g><path fill="#08262c" d="M145.234 45.524c0-1.503-.028-2.832.007-4.161.049-1.883.162-3.763.214-5.646a2.762 2.762 0 0 1 2.06-2.627c1.33-.348 2.89-.302 4.237.033 1.343.333 1.994 1.25 1.008 2.823-.772 1.23-1.398 2.553-2.06 3.85-1.076 2.107-2.787 3.614-4.637 5-.242.182-.457.4-.83.728z"/><path fill="none" stroke="#08262c" stroke-linejoin="round" stroke-miterlimit="20" stroke-width="20" d="M145.234 45.524c0-1.503-.028-2.832.007-4.161.049-1.883.162-3.763.214-5.646a2.762 2.762 0 0 1 2.06-2.627c1.33-.348 2.89-.302 4.237.033 1.343.333 1.994 1.25 1.008 2.823-.772 1.23-1.398 2.553-2.06 3.85-1.076 2.107-2.787 3.614-4.637 5-.242.182-.457.4-.83.728z"/></g><g><path fill="#08262c" d="M64.24 34.339c.415-1.464.736-2.664 1.114-3.847.054-.166.474-.39.583-.33.265.146.555.409.645.686.617 1.917.997 3.937 1.834 5.748.61 1.323 1.684 2.638 3.346 2.766 1.219.093 2.466-.247 3.705-.317a29.66 29.66 0 0 1 3.308.004c.215.011.623.496.577.603-.22.503-.51 1.004-.878 1.41-1.747 1.917-3.592 3.75-5.252 5.74-.39.466-.387 1.46-.238 2.14.543 2.473 1.229 4.913 1.84 7.371.044.175-.024.507-.14.563-.194.094-.554.128-.693.008-1.153-.987-2.404-1.903-3.372-3.054-2.119-2.516-5.892-1.585-7.333.219-.825 1.033-1.968 1.814-2.985 2.687-.096.082-.438.066-.462.009-.105-.242-.204-.526-.176-.78.224-2.017.355-4.054.75-6.039.69-3.456-1.591-5.332-3.655-7.363-.018-.017-.052-.025-.062-.046-.37-.778-1.86-1.259-1.108-2.214.377-.477 1.73-.174 2.64-.249.393-.032.782-.125 1.174-.185 1.142-.179 2.3-.29 3.416-.572.362-.091.804-.592.876-.97.268-1.404.398-2.836.546-3.988z"/><path fill="none" stroke="#08262c" stroke-linejoin="round" stroke-miterlimit="20" stroke-width="20" d="M64.24 34.339c.415-1.464.736-2.664 1.114-3.847.054-.166.474-.39.583-.33.265.146.555.409.645.686.617 1.917.997 3.937 1.834 5.748.61 1.323 1.684 2.638 3.346 2.766 1.219.093 2.466-.247 3.705-.317a29.66 29.66 0 0 1 3.308.004c.215.011.623.496.577.603-.22.503-.51 1.004-.878 1.41-1.747 1.917-3.592 3.75-5.252 5.74-.39.466-.387 1.46-.238 2.14.543 2.473 1.229 4.913 1.84 7.371.044.175-.024.507-.14.563-.194.094-.554.128-.693.008-1.153-.987-2.404-1.903-3.372-3.054-2.119-2.516-5.892-1.585-7.333.219-.825 1.033-1.968 1.814-2.985 2.687-.096.082-.438.066-.462.009-.105-.242-.204-.526-.176-.78.224-2.017.355-4.054.75-6.039.69-3.456-1.591-5.332-3.655-7.363-.018-.017-.052-.025-.062-.046-.37-.778-1.86-1.259-1.108-2.214.377-.477 1.73-.174 2.64-.249.393-.032.782-.125 1.174-.185 1.142-.179 2.3-.29 3.416-.572.362-.091.804-.592.876-.97.268-1.404.398-2.836.546-3.988z"/></g><g><path fill="#08262c" d="M263.13 51.008c-.332-2.602-.667-5.203-.997-7.806-.136-1.068-.512-2.186-.32-3.194.177-.938.884-1.824 1.501-2.621.934-1.206 1.838-2.534 3.053-3.384.728-.51 2.068-.415 3.051-.21.774.16 1.098.998.955 1.945-.171 1.136-.06 2.316-.257 3.445-.142.81-.516 1.606-.916 2.338-1.08 1.976-2.219 3.92-3.355 5.866-.732 1.254-1.498 2.488-2.25 3.73z"/><path fill="none" stroke="#08262c" stroke-linejoin="round" stroke-miterlimit="20" stroke-width="20" d="M263.13 51.008c-.332-2.602-.667-5.203-.997-7.806-.136-1.068-.512-2.186-.32-3.194.177-.938.884-1.824 1.501-2.621.934-1.206 1.838-2.534 3.053-3.384.728-.51 2.068-.415 3.051-.21.774.16 1.098.998.955 1.945-.171 1.136-.06 2.316-.257 3.445-.142.81-.516 1.606-.916 2.338-1.08 1.976-2.219 3.92-3.355 5.866-.732 1.254-1.498 2.488-2.25 3.73z"/></g><g><path fill="#08262c" d="M406.005 54.058c-.97-.514-.689-1.274-.495-2.2.295-1.413.293-2.888.427-4.335.014-.15.055-.365.157-.428 1.06-.642.617-1.446.174-2.148-1.08-1.714-2.631-2.949-4.285-4.086-.82-.563-1.553-1.26-2.29-1.937-.143-.131-.218-.606-.148-.652.277-.181.62-.337.947-.357 1.856-.113 3.716-.153 5.571-.279 1.592-.108 2.54-1.016 3.024-2.527.563-1.76 1.218-3.489 1.828-5.233.094-.267.115-.574.258-.807.208-.338.497-.625.751-.934.267.275.668.503.779.831.855 2.538 1.608 5.11 2.487 7.64.512 1.472 1.998 1.291 3.164 1.575 1.476.358 2.976.617 4.453.97.276.065.712.405.691.57-.048.385-.24.854-.531 1.092-1.19.96-2.451 1.83-3.66 2.768-.936.723-1.37 1.519-1.029 2.864.373 1.474.263 3.07.382 4.611.038.488.148.97.203 1.458.149 1.33-.441 1.82-1.63 1.17-1.415-.774-2.766-1.689-4.056-2.658-.804-.605-1.512-.747-2.342-.196-1.605 1.068-3.206 2.142-4.83 3.228z"/><path fill="none" stroke="#08262c" stroke-linejoin="round" stroke-miterlimit="20" stroke-width="20" d="M406.005 54.058c-.97-.514-.689-1.274-.495-2.2.295-1.413.293-2.888.427-4.335.014-.15.055-.365.157-.428 1.06-.642.617-1.446.174-2.148-1.08-1.714-2.631-2.949-4.285-4.086-.82-.563-1.553-1.26-2.29-1.937-.143-.131-.218-.606-.148-.652.277-.181.62-.337.947-.357 1.856-.113 3.716-.153 5.571-.279 1.592-.108 2.54-1.016 3.024-2.527.563-1.76 1.218-3.489 1.828-5.233.094-.267.115-.574.258-.807.208-.338.497-.625.751-.934.267.275.668.503.779.831.855 2.538 1.608 5.11 2.487 7.64.512 1.472 1.998 1.291 3.164 1.575 1.476.358 2.976.617 4.453.97.276.065.712.405.691.57-.048.385-.24.854-.531 1.092-1.19.96-2.451 1.83-3.66 2.768-.936.723-1.37 1.519-1.029 2.864.373 1.474.263 3.07.382 4.611.038.488.148.97.203 1.458.149 1.33-.441 1.82-1.63 1.17-1.415-.774-2.766-1.689-4.056-2.658-.804-.605-1.512-.747-2.342-.196-1.605 1.068-3.206 2.142-4.83 3.228z"/></g></g><g><g><path fill="#fbb03b" d="M360.528 69.8c.088-.796.165-2.226 1.877-2.793.337-.112.688-.445.852-.768 1.325-2.59 3.688-2.39 4.972.353 1.894 4.05-.376 7.071-4.195 7.91-1.712.377-3.631-1.941-3.506-4.702zm10.609-39.072c.208 1.154.472 1.954.472 2.752-.002 1.67-.149 3.339-.224 5.01-.025.578.053 1.167-.029 1.736-.207 1.45-.486 2.89-.718 4.338-.278 1.73-.656 3.456-.765 5.197-.083 1.308-.94 2.506-2.138 3.154-.97.526-1.722 1.48-2.515 2.299-1.18 1.22-3.663.95-4.19-.624-.36-1.072-.454-2.314-.337-3.445.263-2.562.848-5.094 1.085-7.657.266-2.872.332-5.764.412-8.65.053-1.887-.06-3.78-.028-5.67.017-1.046 1.783-2.08 2.958-1.769 1.462.387 2.89.934 4.371 1.204 1.527.279 1.38 1.487 1.646 2.125zm-87.835 41.557c-.136-.916-.291-1.83-.404-2.749-.29-2.365-.608-4.728-.829-7.101-.2-2.17-.258-4.352-.433-6.524-.193-2.4-.522-4.791-.65-7.194-.11-2.033-.054-4.08-.002-6.118.052-2.05.151-4.1.308-6.143.072-.947.285-1.891.51-2.818.388-1.6.812-3.193 1.29-4.769.07-.231.587-.556.77-.49 1.325.488 2.702.407 4.02 1.47 2.324 1.877.7 3.788.747 5.682.026 1.005.056 2.01.095 3.017.116 3.023.378 6.05.32 9.07-.067 3.472-.15 6.91.725 10.316.24.93.087 1.958.164 2.936.153 1.93.297 3.862.53 5.782.133 1.086.656 2.162.609 3.224-.088 1.972-.236 4.08-2.247 5.204-.627.35-1.523.384-2.268.306-.758-.08-1.615-.315-2.184-.78-.639-.52-1.003-1.375-1.488-2.084zM220.736 37.46c-2.607-.208-4.992-.587-6.684-2.697-.492-.614-.238-2.656.153-3.536.944-2.12 2.845-2.216 4.682-2.388 2.1-.196 4.217-.323 6.324-.308 1.944.015 3.886.264 5.829.394 1.312.087 2.628.112 3.936.23 1.563.142 3.13.295 4.673.56.816.14 1.489 1.902 1.16 3.033-.285.97-.818 1.869-1.107 2.84-.37 1.243-1.476 1.377-2.389 1.516-1.128.173-2.314-.074-3.474-.073-1.48.003-2.961.085-4.442.106-.72.01-1.443-.073-2.161-.037-.17.009-.464.325-.465.501-.016 2.974-.012 5.95.024 8.923.034 2.728.072 5.455.187 8.18.062 1.517.322 3.025.425 4.542.128 1.858.16 3.723.281 5.581.145 2.206.395 4.406.499 6.614.109 2.322-1.617 3.42-3.811 2.557-.627-.246-1.331-.3-2.003-.429-.121-.024-.315.067-.371.008-.702-.75-1.839-1.44-1.988-2.297-.475-2.726-.6-5.515-.82-8.283-.185-2.314-.418-4.633-.436-6.95-.016-2.048.205-4.1.376-6.146.201-2.412.415-4.826.713-7.226.19-1.543.541-3.064.817-4.597.035-.194.046-.392.072-.618zm-47.111 17.646l1.248 13.765c1.076.085 2.248.203 3.422.26.88.042 1.852-.226 2.62.068.774.298 1.648 1.009 1.92 1.745.238.643-.072 1.753-.54 2.34-1.162 1.458-2.674 1.994-4.649 1.455-1.248-.34-2.658-.084-3.995-.123a44.34 44.34 0 0 1-3.109-.175c-.237-.023-.585-.271-.651-.488-.539-1.733-1.118-3.462-1.495-5.232-.386-1.82-.59-3.683-.811-5.535-.132-1.097-.101-2.213-.217-3.314-.23-2.179-.499-4.354-.776-6.528-.076-.603-.236-1.197-.265-1.806-.075-.735-.184-1.467-.22-2.203-.089-1.843-.257-3.691-.184-5.53.08-2.011.42-4.012.597-6.021.103-1.186-.064-2.42.198-3.562.392-1.709.886-3.444 1.697-4.978.267-.505 1.645-.479 2.529-.59 1.76-.22 3.527-.51 5.292-.51 2.394-.005 4.797.16 7.179.414.817.088 1.59.65 2.371 1.022 1.254.598 1.101 1.76.748 2.677-.524 1.358-.402 3.07-1.85 3.981-1.16.732-2.392.916-3.77.55-1.011-.268-2.1-.256-3.153-.346-.802-.07-1.607-.108-2.41-.15-1.079-.053-1.541.69-1.52 2.067.028 1.685-.08 3.373-.136 5.06-.055 1.694-.153 3.39-.13 5.083.003.193.717.595 1.015.528 1.631-.378 3.23-.896 4.853-1.317 1.056-.275 2.375.742 2.47 1.843.202 2.346-1.813 4.718-4.155 4.962-1.355.14-2.699.381-4.123.588zm132.786 21.62c-2.74.705-4.74-1.025-6.714-2.261-2.198-1.376-3.355-3.717-4.056-6.226-.417-1.49-1.023-2.94-1.292-4.454a83.191 83.191 0 0 1-.997-7.614c-.201-2.389-.253-4.796-.234-7.194.01-1.28.276-2.562.488-3.833.343-2.063.633-4.143 1.138-6.168a35.59 35.59 0 0 1 1.815-5.43c.64-1.49 1.389-3.02 2.438-4.228 1.436-1.657 3.58-2.084 5.69-2.011.762.027 1.66.61 2.214 1.203 1.282 1.372 2.428 2.878 3.562 4.38 1.037 1.37.95 2.633-.129 3.942-.31.376-.596.771-.886 1.164-.554.748-2.15.732-2.891-.035-1.847-1.914-2.173-1.984-3.6.38-.794 1.312-1.015 2.974-1.476 4.484-.187.615-.398 1.236-.472 1.868-.152 1.308-.28 2.623-.307 3.938-.037 1.762-.039 3.53.068 5.288.135 2.25.223 4.527.671 6.723.23 1.123 1.17 2.112 1.843 3.126.51.77 1.018 1.58 1.697 2.18.31.276 1.253.331 1.524.077 1.88-1.766 3.682-3.619 5.458-5.49.586-.62.881-1.665 1.564-2.003.863-.427 2.06-.613 2.971-.368.753.202 1.442 1.09 1.905 1.833.965 1.546 1.753 3.19.87 5.097-.764 1.647-1.266 3.464-2.283 4.928-.989 1.425-2.476 2.508-3.763 3.72-.621.586-1.198 1.356-1.948 1.638-1.57.59-3.24.914-4.868 1.347zm106.343-21.643c-1.434 1.317-2.773 2.554-4.12 3.78-1.206 1.097-2.408 2.2-3.64 3.267-1.101.953-1.923.93-2.752-.148a29.799 29.799 0 0 1-2.043-3.064c-.215-.365-.298-.9-.231-1.324.45-2.847.794-5.727 1.514-8.507.36-1.388.196-2.11-.918-2.964-1.786-1.366-3.465-2.882-5.1-4.428a22.78 22.78 0 0 1-2.786-3.18c-.68-.938.723-3.711 1.904-3.858 3.282-.405 6.57-.746 9.852-1.152.223-.028.522-.35.589-.59.878-3.14 1.775-6.278 2.553-9.444.603-2.453 2.76-3.077 5.074-2.278.537.185 1.14.239 1.614.52.313.186.477.656.657 1.024a1202.07 1202.07 0 0 1 3.4 7.005c.513 1.066.943 2.18 1.538 3.196.214.365.779.653 1.225.727 1.172.194 2.365.265 3.552.359 1.538.122 3.075.29 4.615.31 1.856.024 2.959 1.182 2.78 3.072-.077.807.18 1.933-.258 2.367-1.798 1.788-3.816 3.352-5.73 5.025-.852.743-1.656 1.541-2.455 2.34-.107.109-.071.38-.068.575.034 2 .042 4 .123 5.997.078 1.913.227 3.823.356 5.733.083 1.221-.943 1.861-2.513 2.196-2.33.495-3.522-.899-4.814-2.337-1.302-1.45-2.65-2.857-3.918-4.219zm-151.428-21.36c.668-.637 1.146-1.025 1.543-1.484 1.51-1.755 3.54-2.543 5.715-2.926a11.498 11.498 0 0 1 3.602-.051c2.73.4 3.686 2.66 4.555 4.838.489 1.223.902 2.574.908 3.87.008 1.657-.3 3.349-.712 4.964-.405 1.59-1.086 3.113-1.697 4.647-.238.597-.584 1.159-.935 1.702-1.692 2.623-3.292 5.318-5.152 7.818-1.016 1.366-2.509 2.37-3.729 3.595-.282.284-.505.83-.45 1.21.217 1.507.55 2.999.85 4.494.354 1.756.887 3.498 1.014 5.27.075 1.035.117 2.209-1.497 2.836-1.218.471-2.313 1.197-3.686 1.186-.88-.007-3.019-1.595-3.264-2.441-.445-1.535-.942-3.058-1.3-4.614-.552-2.4-1.127-4.808-1.466-7.245-.284-2.036-.192-4.121-.367-6.176-.13-1.541-.513-3.065-.613-4.607-.124-1.894-.075-3.8-.092-5.7-.006-.709.011-1.418.02-2.128.018-1.23-.069-2.473.08-3.687.407-3.356.866-6.706 1.423-10.038.1-.6.662-1.421 1.188-1.592 1.188-.386 2.394-.456 3.471.691 1.306 1.39.362 2.94.64 4.382.052.27-.019.562-.05 1.186zm-174.06 4.097c-.367.627-.685 1.209-1.04 1.77-.392.621-.738 1.298-1.24 1.82-2.207 2.29-4.518 4.482-6.647 6.842-.367.405-.131 1.464-.001 2.19.316 1.774.785 3.522 1.095 5.296.256 1.47.428 2.958.522 4.445.03.47-.31.962-.48 1.445-.037.105-.09.207-.109.314-.246 1.524-1.333 2.746-2.957 2.92-.79.083-1.83-.115-2.422-.596-1.882-1.533-3.595-3.271-5.397-4.902-.605-.55-1.249-1.077-1.95-1.487-.21-.124-.747.089-1.006.304-1.159.958-2.215 2.046-3.414 2.946-1.224.919-2.557 1.696-3.87 2.49-1.46.882-2.583.707-3.791-.508-.255-.256-.53-.492-.783-.751-.516-.526-.86-1.063-.181-1.735a.942.942 0 0 0 .248-.613c-.019-2.837 1.162-5.39 1.88-8.052.2-.744.485-1.499.485-2.249 0-.378-.538-.768-.857-1.131a627.783 627.783 0 0 0-3.22-3.618c-1.543-1.725-3.109-3.432-4.628-5.18-.708-.816-.508-3.67.298-4.422.607-.566 1.241-1.15 1.969-1.518.412-.208 1.036-.003 1.564.025.707.038 1.414.086 2.12.127 1.786.107 3.571.22 5.358.305.137.006.363-.15.413-.283a837.216 837.216 0 0 0 3.687-9.845c.275-.752.237-1.663.65-2.306.376-.584 1.112-1.111 1.789-1.29.976-.258 2.045-.267 3.066-.221 1.403.06 1.45 1.287 1.671 2.268.378 1.668.274 3.409 1.2 5.002.588 1.013.678 2.314 1.006 3.483.181.645.37 1.292.616 1.914.04.104.395.129.6.116 3.019-.173 6.035-.445 9.057-.511 2.159-.048 2.857.616 3.647 2.73.293.782.653 1.538 1.051 2.466zm61.302 14.358c-.995.752-2.009 1.46-2.936 2.27-.189.165-.079.712-.054 1.078.093 1.369.14 2.747.333 4.103.243 1.705.634 3.388.922 5.088.188 1.12.283 2.254.461 3.376.113.71.287 1.414.463 2.113.195.777.431 1.543.625 2.32.035.134-.03.31-.093.448-.445.97-2.944 2.141-3.977 1.922-.445-.095-.924-.02-1.375-.095-1.335-.222-1.546-1.316-1.815-2.38-.275-1.084-.685-2.14-.888-3.237a73.233 73.233 0 0 1-.752-5.235c-.228-2.057-.419-4.12-.537-6.186-.076-1.337.023-2.683.013-4.025-.004-.558-.129-1.115-.123-1.672.016-1.526.106-3.052.1-4.578-.003-.84-.22-1.682-.203-2.52.025-1.204.203-2.405.264-3.609.068-1.385.039-2.775.129-4.16.106-1.61.24-3.224.466-4.822.22-1.55.456-3.12.923-4.606.196-.624.96-1.441 1.539-1.503 1.487-.16 2.46.675 2.516 1.768.03.617.006 1.238.006 1.537 1.824-.779 3.532-1.725 5.362-2.23 1.905-.525 3.791.082 5.662.747 2.672.95 3.647 3.336 4.643 5.497.57 1.233.085 2.974-.011 4.481-.04.644-.288 1.276-.463 1.907-.11.397-.158.872-.409 1.159-1.525 1.75-3.013 3.546-4.687 5.146-1.35 1.29-1.302 1.596.124 2.922 1.212 1.127 2.138 2.586 3.088 3.968a54.37 54.37 0 0 1 2.892 4.65c.625 1.137 1.071 2.38 1.54 3.598.749 1.945 1.318 3.972 2.207 5.85 1.041 2.195.884 4.93-.688 6.762-.81.942-2.456 1.023-3.574.613-2.363-.866-2.482-2.746-2.71-4.796-.143-1.295-.8-2.536-1.248-3.794-.591-1.654-1.168-3.316-1.823-4.946-.453-1.128-.889-2.302-1.576-3.286-1.343-1.929-2.857-3.739-4.336-5.643zm57.232-19.91c.09-.34.143-.437.137-.532-.108-1.585.691-2.582 2.183-2.714 1.032-.09 2.371 1.49 2.44 2.769.145 2.74.39 5.477.506 8.218.103 2.466.098 4.936.122 7.405.024 2.413.045 4.827.03 7.241-.013 1.95-.134 3.898-.104 5.845.017 1.058.313 2.109.365 3.17.057 1.13-.057 2.27-.04 3.405.015.9.307 1.836.134 2.687-.314 1.54.465 3.303-.845 4.62-.338.337-.88.629-1.34.65-.691.03-1.392-.297-2.09-.297-2.44-.002-2.947-1.643-3.032-3.321-.138-2.69-.059-5.396.026-8.092.046-1.44.297-2.874.438-4.144-2.792-.164-5.37-.25-7.927-.523-.476-.05-.878-.852-1.3-1.32-.108-.119-.16-.29-.248-.43-.235-.374-.759-.871-.66-1.09a3.85 3.85 0 0 1 1.221-1.483c.874-.626 1.874-1.07 2.782-1.654 1.825-1.17 3.677-2.311 5.418-3.6 1.307-.967.55-2.438.42-3.629-.213-1.96-.539-3.96-1.214-5.798-.515-1.403-1.51-2.715-2.57-3.79-.394-.4-1.593-.038-2.414.064-.104.012-.123.562-.214.852-.546 1.74-1.238 3.445-1.624 5.219-.645 2.967-1.088 5.978-1.633 8.968-.326 1.78-.831 3.542-.993 5.336-.241 2.673-.303 5.367-.343 8.054-.04 2.633.074 5.268.061 7.901-.008 1.482-2.185 3.149-3.673 2.911-.456-.073-.983.029-1.363-.17-.555-.286-1.336-.696-1.448-1.185-.715-3.138-1.562-6.293-1.802-9.484-.235-3.118.192-6.287.349-9.432.065-1.304.025-2.64.31-3.897.415-1.844 1.094-3.626 1.633-5.443.247-.83.372-1.7.648-2.52.486-1.444.947-2.91 1.598-4.28.988-2.08 2.029-4.148 3.244-6.099.701-1.126 1.725-2.084 2.732-2.972.43-.38 1.19-.388 1.8-.565 2.185-.633 4.252-.225 6.122.941.8.497 1.362 1.373 2.158 2.208zm-80.712 27.688c-.754 0-1.388-.028-2.02.006-1.034.056-2.474-1.225-2.373-2.238.081-.817.191-1.675.519-2.413.548-1.228 1.84-.874 2.843-1.029a39.13 39.13 0 0 1 4.285-.427 75.04 75.04 0 0 1 5.883-.05c.393.013.86.503 1.135.887 1.158 1.622.864 3.585 1.073 5.4.292 2.546.456 5.128.384 7.687-.083 2.902-.438 5.802-.767 8.691-.218 1.923-1.786 2.783-3.51 2.628-1.06-.096-2.29.42-2.966-.94-.72-1.45-.858-2.88-.338-4.46.517-1.57.8-3.216 1.19-4.83.185-.76.382-1.52.347-2.44-.423.527-.862 1.042-1.266 1.584-1.581 2.113-3.867 3.248-6.153 4.331-1.946.922-4.01.74-6.143.703-2.196-.037-3.568-1.306-4.88-2.39-1.924-1.593-3.266-3.852-3.582-6.48-.38-3.157-.97-6.325-.937-9.482.031-2.94.682-5.887 1.211-8.803.402-2.212.846-4.453 1.627-6.548.776-2.08 2.03-3.977 3.011-5.985.827-1.692 1.898-3.133 3.452-4.244 2.613-1.87 5.465-2.163 8.404-1.182 1.083.362 1.985 1.287 2.946 1.987.616.45 1.206.937 1.78 1.44 1.874 1.645 3.127 3.671 3.646 6.122.175.832.397 1.68.386 2.519-.02 1.32-.987 1.936-2.115 2.319a69.33 69.33 0 0 1-2.221.704c-1.81.546-2.813-.193-2.82-2.093-.007-1.842-.432-3.52-1.701-4.933-.588-.655-3.046-.778-3.74-.049-.97 1.019-2.058 2.003-2.734 3.206-.9 1.6-1.587 3.355-2.116 5.117-.688 2.294-1.08 4.675-1.693 6.993-.996 3.765-.225 7.337 1.04 10.87.77 2.146 2.564 2.9 4.801 2.351 2.04-.5 3.397-1.556 3.938-3.6.064-.241.094-.492.174-.93zM329.43 44.859c.942-1.771 1.983-3.497 2.794-5.326a41.515 41.515 0 0 0 2.035-5.643c.434-1.551.546-3.192.84-4.786.175-.953.354-1.917.664-2.832.469-1.389 1.859-1.123 2.744-.99 1.233.187 2.39.923 3.552 1.482.234.113.452.473.489.746.46 3.366.581 6.755-.354 10.041-.868 3.052-1.664 6.162-3.475 8.862-.119.177-.099.596.032.77 1.562 2.07 3.238 4.056 4.71 6.185.924 1.335 1.527 2.886 2.319 4.315.644 1.165 1.48 2.239 2.008 3.45.69 1.587 1.131 3.28 1.735 4.907.451 1.215 1.09 2.368 1.459 3.605.327 1.098.4 2.273.581 3.415.008.047-.021.102-.039.15-.295.81-2.934 2.028-3.796 1.858-.621-.124-1.442.184-1.888-.12-.731-.5-1.41-1.253-1.787-2.052-.579-1.232-.813-2.62-1.319-3.893-1.01-2.539-2.327-4.976-3.107-7.579-.957-3.19-3.163-5.459-5.086-7.96-.467-.606-.935-1.107-1.76-.21-.75.817-1.99 1.24-2.591 2.124-.456.669-.462 1.833-.296 2.706.627 3.298 1.425 6.564 2.12 9.85.261 1.232.4 2.488.62 3.729.167.947.508 1.886.502 2.828-.002.472-.55 1.28-.952 1.35-1.871.32-3.747 1.418-5.67.38-.71-.385-1.527-.95-1.826-1.637-.863-1.98-1.61-4.033-2.162-6.12-.433-1.636-.493-3.37-.746-5.056-.145-.962-.42-1.908-.504-2.873-.212-2.381-.418-4.766-.496-7.155-.09-2.74-.062-5.483-.034-8.224.01-1.027.136-2.056.26-3.078.319-2.645.703-5.282.986-7.93.164-1.535.116-3.09.282-4.624.167-1.523.406-3.185 1.824-4.012.865-.503 2.19-.773 3.119-.502 2.545.745 2.855 1.97 2.713 4.46-.23 4.042-.738 8.068-1.086 12.104-.088 1.021-.013 2.058-.013 3.086l.6.2zm-287.222.728c-1.732 1.52-1.914 2.668-1.777 4.786.075 1.17-.248 2.392-.536 3.556-.356 1.434-.904 2.818-1.29 4.246-.395 1.462-.528 3.017-1.086 4.407-.525 1.308-1.474 2.441-2.203 3.672-1.527 2.581-2.669 5.203-.673 8.088.069.1.016.29.011.438-.058 1.757 1.094 3.236 2.746 3.446.683.087 1.39-.013 2.07.08 3.27.449 6.52 1.07 9.8 1.355 2.008.176 4.06-.141 6.09-.242 1.105-.056 2.21-.193 3.312-.168 2.382.05 4.762.25 7.143.26 2.454.012 4.908-.114 7.36-.206 1.898-.07 3.795-.169 5.69-.285 1.083-.067 2.187-.392 3.238-.258 2.744.352 5.438.93 8.26.737.953-.065 2.38-.181 3.02 1.239.166.368.845.504 1.288.748.194-.508.62-1.051.544-1.515-.317-1.962-.785-3.9-1.193-5.848-.493-2.351-1.052-4.693-1.445-7.061-.3-1.813-.432-3.657-.56-5.492-.146-2.063-.221-4.13-.294-6.197-.04-1.152.06-2.31-.037-3.456-.191-2.286-.521-4.561-.71-6.847-.214-2.587-.313-5.184-.506-7.774-.109-1.466-.538-2.947-.411-4.384.3-3.392.805-6.768 1.32-10.137a9.602 9.602 0 0 1 .956-2.923c.673-1.298 1.53-2.5 2.332-3.728.802-1.225 1.355-1.455 2.027-1.08-.576 1.602-1.325 3.133-1.66 4.752-.373 1.804-.394 3.686-.523 5.537-.117 1.69-.149 3.385-.265 5.074-.124 1.826-.452 3.651-.42 5.473.042 2.26.345 4.517.566 6.772.113 1.156.307 2.304.428 3.46.028.267-.098.549-.158.85.04.035.26.13.275.25.09.707.173 1.42.182 2.131.015 1.262-.448 2.55.248 3.769.027.049-.023.142-.047.267l-.442-.142c.141 1.478.4 2.955.396 4.432-.003 2.034-.325 4.07-.285 6.1.04 2.02.305 4.037.57 6.044.222 1.678.605 3.337.878 5.01.216 1.32.316 2.662.578 3.972.14.7.587 1.335.76 2.032.348 1.402.928 2.598 2.346 3.18.55.225 1.119.472 1.7.549 1.975.26 3.958.6 5.943.63 3.46.052 6.925-.202 10.385-.14 2.683.047 5.358.417 8.04.577 2.886.17 5.776.263 8.664.39 3.502.155 7.005.318 10.508.464 1.617.066 3.237.097 4.856.148.096.002.191.041.288.06.664.123 1.325.327 1.993.355 2.33.093 4.663.186 6.994.167 3.52-.027 7.04-.182 10.562-.215 1.702-.016 3.407.195 5.109.17 1.942-.028 3.884-.187 5.824-.322 2.315-.161 4.623-.414 6.94-.524 3.183-.15 6.371-.158 9.554-.31 3.057-.145 6.107-.41 9.163-.593 1.601-.094 3.21-.226 4.807-.153 2.282.103 4.552.484 6.834.553 3.285.097 6.575.005 9.863.023 2.166.01 4.332.08 6.498.109.614.008 1.229-.023 1.842-.053 1.287-.062 2.575-.204 3.862-.19 2.008.024 4.014.183 6.023.222 1.722.033 3.445-.064 5.168-.028 1.951.042 3.902.247 5.852.234 2.238-.014 4.476-.194 6.715-.292 2.709-.117 5.417-.283 8.127-.317 2.568-.032 5.137.11 7.705.117 2.342.006 4.692.053 7.022-.131 3.038-.24 6.054-.736 9.09-1.027 1.426-.137 2.876-.011 4.313-.07 2.868-.12 5.736-.325 8.606-.417 2.21-.07 4.423.014 6.634-.038 2.064-.05 4.124-.232 6.189-.274 1.575-.033 3.152.08 4.728.096 2.73.025 5.46.027 8.19.038 1.787.006 3.578.1 5.357-.006 2.598-.15 5.186-.473 7.782-.67 2.834-.215 5.671-.416 8.511-.54 1.958-.083 3.927-.112 5.88-.007 2.235.122 4.456.46 6.69.623.834.06 1.686-.167 2.528-.153 2.605.044 5.21.155 7.816.211 1.204.026 2.416.038 3.614-.064.368-.032.738-.425 1.039-.72.188-.185.198-.542.374-.748 1.158-1.36 1.266-2.977 1.193-4.645-.069-1.59-.16-3.182-.197-4.773-.044-1.926-.04-3.852-.058-5.777-.004-.352-.046-.708-.014-1.057.11-1.21.352-2.42.343-3.628-.015-1.829-.21-3.657-.307-5.486-.084-1.582-.096-3.17-.219-4.748-.132-1.716-.39-3.422-.523-5.137-.093-1.208-.082-2.426-.094-3.64-.012-1.213-.029-2.426.018-3.637.03-.758.266-1.514.243-2.266-.057-1.757-.22-3.511-.33-5.268-.091-1.444-.107-2.896-.272-4.331-.205-1.797-.514-3.583-.8-5.37-.323-2.026-1.226-3.683-3.05-4.763-.415-.247-.764-.603-1.424-1.136 2.505.365 4.586 1.159 5.487 3.024 1.17 2.425 1.838 5.123 2.468 7.765.39 1.642.304 3.398.446 5.102.208 2.51.576 5.019.614 7.532.057 3.749-.183 7.501-.163 11.252.016 2.576.264 5.153.399 7.73.037.684-.001 1.376.072 2.054.095.875.357 1.737.393 2.61.116 2.958.2 5.918.228 8.877.022 2.258-.087 4.516-.058 6.773.005.351.39.951.67.995.623.096 1.306-.016 1.936-.169 1.448-.35 2.86-1.004 4.32-1.124 2.986-.244 5.997-.19 8.996-.312 1.803-.073 3.601-.292 5.405-.362 2.128-.082 4.26-.094 6.391-.103 3.838-.016 7.701-.261 11.508.088 2.203.202 4.262.25 6.383-.318 1.065-.287 2.096-.47 2.415-1.74.021-.088.225-.117.315-.204.957-.926 2.001-1.783 2.816-2.821.341-.436.22-1.255.259-1.903.08-1.293.29-2.608.138-3.877-.15-1.242-.59-2.477-1.068-3.647-.775-1.891-1.544-3.812-2.58-5.564-1.027-1.737-2.407-3.263-3.562-4.93-.18-.258-.135-.933.077-1.15.723-.747 1.738-1.251 2.333-2.071 1.479-2.041 3.73-2.99 5.694-4.342 1.54-1.06 3.193-1.964 4.69-3.08 2.37-1.769 4.677-3.625 6.96-5.506 1.663-1.368 3.251-2.828 4.862-4.259 2.146-1.907 4.32-3.788 6.406-5.76 1-.943 1.722-2.19 2.759-3.081 1.199-1.031 1.118-2.448 1.028-3.607-.12-1.505-.871-2.973-1.441-4.421-.153-.387-.586-.794-.98-.934-1.497-.53-3.006-1.19-4.559-1.363-2.355-.261-4.752-.17-7.132-.201-1.203-.015-2.41.085-3.611.031-1.375-.062-2.742-.292-4.116-.353-1.896-.083-3.798-.036-5.694-.12-2.111-.093-4.217-.32-6.33-.393-1.247-.042-2.503.164-3.753.149-2.248-.025-4.496-.142-6.745-.202-1.468-.038-2.938-.022-4.405-.07-1.852-.063-3.702-.166-5.553-.25-.233-.011-.468-.008-.701-.021-1.546-.083-3.092-.215-4.639-.244-1.69-.03-3.381.046-5.073.053-1.092.004-2.184-.03-3.276-.053-2.015-.04-4.036-.196-6.044-.093-1.41.074-2.791.63-4.203.736-1.78.132-3.579-.034-5.366.035-2.71.105-5.416.279-8.12.478-.578.042-1.171.246-1.697.5-.352.169-.589.566-.891.847-1.049.971-.775 2.752.508 3.454.879.48 1.726 1.02 2.622 1.554-1.052.277-1.98.75-2.89.719-2.916-.102-5.828-.368-8.738-.618-2.085-.18-4.163-.458-6.248-.653-3.359-.316-6.716-.71-10.084-.862-3.108-.142-6.23.008-9.346 0-3.442-.01-6.886-.006-10.326-.101-1.98-.055-3.953-.346-5.933-.435-1.822-.084-3.65-.046-5.477-.052-1.074-.002-2.153-.047-3.223.033-1.226.092-2.44.398-3.666.439-2.321.077-4.647-.007-6.968.049-1.796.043-3.587.254-5.382.292-3.067.063-6.139.126-9.203.045-3.692-.097-7.38-.335-11.07-.532-1.533-.082-3.068-.326-4.598-.302-3.267.052-6.531.233-9.796.357-2.444.094-4.889.224-7.333.257-2.443.033-4.889-.052-7.333-.051a87.464 87.464 0 0 0-4.294.116c-1.16.058-2.317.264-3.476.268-2.5.01-5.002-.068-7.503-.11-2.42-.039-4.84-.065-7.258-.12-1.976-.045-3.95-.136-5.926-.185-1.82-.044-3.64-.06-5.46-.083-1.833-.023-3.669-.102-5.499-.04-2.09.07-4.174.288-6.263.404-1.454.083-2.91.121-4.367.146-1.616.028-3.244.145-4.847-.003-2.832-.262-5.643-.774-8.477-1.023-1.405-.123-2.841.164-4.264.16-2.058-.005-4.115-.135-6.173-.156-1.499-.016-2.999.11-4.496.081-1.498-.03-2.992-.229-4.49-.246-1.505-.018-3.012.097-4.518.154l-4.755.183c-1.687.065-3.374.19-5.06.184-2.28-.01-4.559-.117-6.838-.195-1.29-.045-2.582-.195-3.869-.156-1.583.05-3.159.328-4.741.364-2.147.05-4.298-.081-6.446-.056-4.388.053-8.774.154-13.161.243-1.865.037-3.729.071-5.593.143-3.601.138-7.203.302-10.805.457.204-.576.53-.852.871-1.11 1.103-.832 2.61-1.485 2.498-3.112-.117-1.658-1.65-3.38-4.077-3.314-2.123.057-4.245.14-6.366.158-2.576.022-5.153-.005-7.728-.021-1.518-.01-3.044-.14-4.553-.03-1.415.102-2.806.565-4.22.658-1.71.11-3.435.032-5.151-.023-3.805-.122-7.607-.362-11.411-.393-2.36-.02-4.721.246-7.08.403-2.084.137-4.164.4-6.247.426-2.26.028-4.518-.176-6.78-.24-1.625-.045-3.253-.023-4.879-.04-.231 0-.462-.052-.694-.07-1.312-.105-2.626-.298-3.938-.29-2.186.015-4.373.158-6.56.248-.623.027-1.252.115-1.871.071-1.258-.09-2.51-.343-3.767-.355-1.09-.011-2.186.212-3.277.343-.296.035-.76.014-.851.181-.666 1.207-1.987.923-2.96 1.401-.417.204-1.047.537-1.078.858-.108 1.157-.26 2.415.079 3.486.658 2.079 1.487 4.138 2.527 6.054.987 1.814 2.262 3.489 3.552 5.113.639.805 1.615 1.336 2.4 2.033 1.282 1.14 2.428 2.466 3.823 3.437 1.512 1.054 3.253 1.777 4.877 2.675.757.417 1.447.96 2.215 1.353 2.546 1.3 5.188 2.436 7.651 3.876 1.686.987 3.139 2.377 4.746 3.626z"/></g><g><path fill="#fbb03b" d="M145.234 45.524c0-1.503-.028-2.832.007-4.161.049-1.883.162-3.763.214-5.646a2.762 2.762 0 0 1 2.06-2.627c1.33-.348 2.89-.302 4.237.033 1.343.333 1.994 1.25 1.008 2.823-.772 1.23-1.398 2.553-2.06 3.85-1.076 2.107-2.787 3.614-4.637 5-.242.182-.457.4-.83.728z"/></g><g><path fill="#fbb03b" d="M64.24 34.339c.415-1.464.736-2.664 1.114-3.847.054-.166.474-.39.583-.33.265.146.555.409.645.686.617 1.917.997 3.937 1.834 5.748.61 1.323 1.684 2.638 3.346 2.766 1.219.093 2.466-.247 3.705-.317a29.66 29.66 0 0 1 3.308.004c.215.011.623.496.577.603-.22.503-.51 1.004-.878 1.41-1.747 1.917-3.592 3.75-5.252 5.74-.39.466-.387 1.46-.238 2.14.543 2.473 1.229 4.913 1.84 7.371.044.175-.024.507-.14.563-.194.094-.554.128-.693.008-1.153-.987-2.404-1.903-3.372-3.054-2.119-2.516-5.892-1.585-7.333.219-.825 1.033-1.968 1.814-2.985 2.687-.096.082-.438.066-.462.009-.105-.242-.204-.526-.176-.78.224-2.017.355-4.054.75-6.039.69-3.456-1.591-5.332-3.655-7.363-.018-.017-.052-.025-.062-.046-.37-.778-1.86-1.259-1.108-2.214.377-.477 1.73-.174 2.64-.249.393-.032.782-.125 1.174-.185 1.142-.179 2.3-.29 3.416-.572.362-.091.804-.592.876-.97.268-1.404.398-2.836.546-3.988z"/></g><g><path fill="#fbb03b" d="M263.13 51.008c-.332-2.602-.667-5.203-.997-7.806-.136-1.068-.512-2.186-.32-3.194.177-.938.884-1.824 1.501-2.621.934-1.206 1.838-2.534 3.053-3.384.728-.51 2.068-.415 3.051-.21.774.16 1.098.998.955 1.945-.171 1.136-.06 2.316-.257 3.445-.142.81-.516 1.606-.916 2.338-1.08 1.976-2.219 3.92-3.355 5.866-.732 1.254-1.498 2.488-2.25 3.73z"/></g><g><path fill="#fbb03b" d="M406.005 54.058c-.97-.514-.689-1.274-.495-2.2.295-1.413.293-2.888.427-4.335.014-.15.055-.365.157-.428 1.06-.642.617-1.446.174-2.148-1.08-1.714-2.631-2.949-4.285-4.086-.82-.563-1.553-1.26-2.29-1.937-.143-.131-.218-.606-.148-.652.277-.181.62-.337.947-.357 1.856-.113 3.716-.153 5.571-.279 1.592-.108 2.54-1.016 3.024-2.527.563-1.76 1.218-3.489 1.828-5.233.094-.267.115-.574.258-.807.208-.338.497-.625.751-.934.267.275.668.503.779.831.855 2.538 1.608 5.11 2.487 7.64.512 1.472 1.998 1.291 3.164 1.575 1.476.358 2.976.617 4.453.97.276.065.712.405.691.57-.048.385-.24.854-.531 1.092-1.19.96-2.451 1.83-3.66 2.768-.936.723-1.37 1.519-1.029 2.864.373 1.474.263 3.07.382 4.611.038.488.148.97.203 1.458.149 1.33-.441 1.82-1.63 1.17-1.415-.774-2.766-1.689-4.056-2.658-.804-.605-1.512-.747-2.342-.196-1.605 1.068-3.206 2.142-4.83 3.228z"/></g></g></g></g></svg>