<svg xmlns="http://www.w3.org/2000/svg" width="708" height="103" viewBox="0 0 708 103"><g><g><g><g><path fill="#00262f" d="M490.888 67.837v-5.771c-.003-3.022-.043-6.044.004-9.064.022-1.442.29-2.882.294-4.323.002-1.804-.189-3.608-.231-5.413-.05-2.165-.109-4.335-.017-6.496.072-1.665.308-3.332.587-4.978.377-2.227.81-4.448 1.327-6.647.253-1.078.998-1.606 2.197-1.258.566.164 1.371-.01 1.72.329 1.072 1.041 1.619 2.367 1.56 3.936-.093 2.447-.073 4.898-.141 7.347-.048 1.688-.14 3.376-.255 5.061-.196 2.861-.47 5.717-.63 8.58-.152 2.727-.249 5.46-.283 8.192-.048 3.739-.024 7.48-.001 11.218.003.583.089.953.992.709a39.658 39.658 0 0 1 5.949-1.12c1.512-.169 2.61 1.605 2.283 3.388a49.864 49.864 0 0 0-.296 1.843c-.175 1.195-1.244 1.405-2.065 1.552-2.104.38-4.243.628-6.379.753-1.404.082-2.84-.06-4.235-.274-.454-.07-1.09-.626-1.187-1.063-.48-2.134-.806-4.302-1.193-6.501zm31.799 7.617c-2.79 0-5.582.03-8.373-.018-.877-.015-1.806-.098-2.612-.408-1.362-.523-1.606-1.923-1.744-3.121a85.196 85.196 0 0 1-.578-8.234c-.04-2.131.286-4.268.34-6.405.069-2.791.019-5.586.04-8.38.035-4.29-.036-8.586.171-12.868.156-3.228.59-6.451 1.065-9.652.317-2.145.634-2.323 2.752-2.329a17.298 17.298 0 0 1 3.133.284c.881.161 1.17.839 1.099 1.718-.154 1.882-.262 3.768-.405 5.652-.203 2.67-.41 5.342-.636 8.011-.268 3.173-.61 6.34-.82 9.515-.181 2.734-.314 5.48-.296 8.219.017 2.62.276 5.24.385 7.862.043 1.02-.018 2.045-.057 3.066-.026.678.126.936.917.788 2.012-.373 4.046-.818 6.071-.816.645 0 1.633 1.229 1.848 2.056.289 1.103.007 2.365-.084 3.556-.11 1.442-1.389 1.035-2.216 1.504zm41.432-43.136c-.405 2.394-.922 4.957-1.25 7.544a82.74 82.74 0 0 0-.638 7.674c-.058 1.717.35 3.45.292 5.166-.06 1.814-.477 3.614-.632 5.428-.07.814.166 1.649.176 2.475.025 1.969-.05 3.94.004 5.907.058 2.12.242 4.238.322 6.357.033.9.071 1.834-.125 2.7-.266 1.173-1.402.995-2.217.956-1.132-.054-2.248-.4-3.376-.58-1.543-.243-1.304-1.554-1.358-2.493-.106-1.863.065-3.741.06-5.613a97.729 97.729 0 0 0-.143-5.376c-.136-2.365-.463-4.726-.486-7.09-.015-1.378.464-2.753.608-4.14.142-1.385.136-2.785.205-4.178.085-1.721.122-3.449.288-5.163.204-2.107.477-4.21.805-6.301.206-1.31.568-2.595.903-4.077-1.335 0-2.694.062-4.045-.02-.955-.058-2.047-.083-2.79-.565-.447-.29-.454-1.432-.451-2.19.005-.851-.023-1.927.453-2.49.524-.62 1.58-.944 2.452-1.077 1.189-.18 2.424-.045 3.639-.072 1.28-.029 2.56-.086 3.84-.137 2.715-.106 5.428-.23 8.142-.32.916-.03 1.84-.034 2.752.04 1.033.086 1.21 1.651.889 2.716-.426 1.415-1.134 2.743-1.627 4.142-.426 1.207-1.407.702-2.145.749-1.51.093-3.029.028-4.547.028zm-293.925-1.457c-2.187-.26-3.111-1.976-2.569-4.164.231-.924.177-1.92.413-2.841.067-.264.695-.531 1.072-.54a44.21 44.21 0 0 1 4.094.096c.916.063 1.82.285 2.733.41 1.023.139 2.05.265 3.078.367 2.023.2 4.044.449 6.072.546 1.622.078 3.256.005 4.88-.085.952-.053 1.328.412 1.314 1.235-.013.757-.217 1.51-.244 2.268-.018.512.126 1.03.195 1.536l-.633-.17c.235.329.371.523.675.95-1.252.268-2.402.629-3.575.74-1.626.153-3.276.057-4.899.224-.277.029-.67.84-.676 1.294-.037 2.356.046 4.714.065 7.072.026 3.462.048 6.925.046 10.388-.002 2.885-.152 5.775-.031 8.653.12 2.9.432 5.797.783 8.68.22 1.815.647 3.607 1.02 5.402.26 1.249-.43 1.946-1.663 1.656-.287-.067-.604-.01-.938-.01-.655-1.132-1.38-.09-1.9.156-1.447.685-2.069.483-2.816-.932-1.042-1.972-.733-4.15-1.104-6.22-.332-1.85-.368-3.762-.427-5.649-.056-1.759.068-3.523.036-5.284-.015-.889-.254-1.773-.299-2.665a61.535 61.535 0 0 1-.056-3.925c.029-1.952.15-3.903.145-5.855-.007-3.29-.112-6.578-.11-9.868 0-1.096.2-2.192.322-3.428-1.781 0-3.413.152-5.003-.037zm-23.569 26.574c0-.792.2-1.648-.039-2.36-.592-1.768-.347-3.508-.182-5.278.107-1.15.086-2.312.164-3.466.132-1.94.201-3.893.475-5.815.335-2.348.814-4.678 1.319-6.998.166-.764.652-1.454.904-2.208.179-.53.205-1.112.31-1.668.397-2.107 1.687-3.647 3.184-5.07.229-.218.264-.627.43-.925.731-1.316 1.79-1.717 3.333-1.386 2.457.528 4.146 2.017 5.41 4.112.545.905 1.375 1.687 1.726 2.653.702 1.934-.58 4.755-2.38 5.688-1.05.545-2.533.089-2.769-.956-.305-1.357-1.4-1.399-2.324-1.322-.42.035-.965.88-1.115 1.449-.713 2.688-1.383 5.393-1.917 8.121-.255 1.307-.18 2.677-.245 4.019a481.008 481.008 0 0 0-.201 4.517c-.142 3.66.565 7.186 1.785 10.612.286.808.646 1.73 1.27 2.228.417.334 1.375.097 2.06-.037.706-.136 1.523-.291 2.023-.737.737-.656 1.344-1.522 1.808-2.403.473-.897.676-1.933 1.052-2.887.39-.985 2.324-1.33 3.1-.585.866.832 1.483 1.919 2.887 2.134.756.116 1.202 2.76.737 3.524-.682 1.12-1.268 2.306-2.02 3.377-1.249 1.778-2.258 3.713-4.343 4.844-1.867 1.014-3.8 1.746-5.82 1.403-2.202-.374-4.17-1.393-5.979-2.927-1.76-1.494-2.35-3.483-3.284-5.344-.403-.803-.452-1.786-.661-2.687l-.851-3.65zm-12.863-26.828l-1.516 9.186c2.717-.108 5.32-.049 7.872-.383 1.287-.168 1.863.184 2.081 1.256.179.88.234 1.822.136 2.714-.12 1.102-.43 2.188-.705 3.269-.228.9-.54 1.672-1.79 1.4-.875-.19-1.81-.095-2.699-.239-.812-.132-1.596-.443-2.404-.62-.728-.16-1.478-.368-2.208-.333-1.102.05-.767 1.034-.782 1.646-.081 3.267-.248 6.543-.08 9.801.143 2.76.701 5.497 1.112 8.507 2.762-.45 5.295-.828 7.815-1.283 1.985-.357 3.06.445 3.739 2.756.453 1.542-.003 2.927-.642 4.244-.164.338-.946.444-1.466.525-.538.085-1.102-.005-1.654.007-1.095.023-2.193.11-3.287.088-2.074-.041-4.145-.203-6.218-.202-3.656.001-3.842-1.536-4.457-4.319-.246-1.11-.486-2.231-.603-3.36-.155-1.517-.128-3.053-.29-4.569-.157-1.478-.529-2.935-.672-4.414-.183-1.91-.36-3.837-.31-5.75.072-2.685.335-5.365.554-8.046.185-2.273.249-4.576.677-6.806.624-3.242.963-6.597 2.654-9.537.278-.484.933-.804 1.476-1.071.862-.425 1.746-.893 2.674-1.077 2.929-.58 5.814-.298 8.548.927.373.168.791.928.707 1.304-.383 1.691-.755 3.435-1.526 4.96-.295.586-1.687.973-2.498.863-1.317-.18-2.567-.844-4.238-1.444zm95.947-5.947c.613-.216 1.416-.692 1.59-.522.532.514 1.175 1.3 1.138 1.944-.15 2.596-.565 5.175-.825 7.767-.107 1.06-.018 2.14-.11 3.202-.1 1.166-.286 2.327-.472 3.484-.262 1.631-.57 3.255-.84 4.885-.18 1.094-.388 2.19-.476 3.295-.101 1.266.045 2.56-.142 3.808-.395 2.647-.969 5.267-1.406 7.908-.36 2.178-.695 4.364-.918 6.558-.242 2.36-.309 4.74-.522 7.104-.07.768-.276 1.384-1.406 1.449-1.025.057-1.99.827-3.03 1.03-1.07.21-2.341.392-2.917-.948-.283-.659-.46-1.438-.416-2.147.114-1.931.401-3.85.56-5.78.095-1.154 0-2.327.135-3.474.075-.629.535-1.202.678-1.833.365-1.61.658-3.235.966-4.857.417-2.19.801-4.385 1.24-6.571.364-1.829.784-3.646 1.186-5.466.134-.608.334-1.206.404-1.82.02-.173-.423-.58-.476-.552-1.527.828-3.067.158-4.524-.1-1.346-.24-2.837-.736-3.837-1.609-1.813-1.58-3.505-3.272-4.294-5.803-.994-3.184-1.435-6.407-1.628-9.68-.176-2.99 1.474-4.234 4.315-3.597.585.131 1.131.432 1.71.602.339.1.737.026 1.057.157.36.147.913.403.95.672.185 1.32.159 2.67.333 3.991.302 2.287.249 4.677 2.073 6.521.986.995 3.14.855 4.569.103 1.433-.752 1.893-1.936 2.087-3.527.24-1.97.844-3.915 1.472-5.81.344-1.036 1.28-1.086 1.776-.384zm207.187 17.463c1.792.12 3.51.547 5.073.224.932-.192 1.603-.169 2.329.212.354.185.847.593.841.894-.027 1.67-.087 3.355-.37 4.993-.078.446-.948 1.022-1.495 1.07-2.105.182-4.229.152-6.34.274-.236.013-.614.48-.637.76-.13 1.61-.18 3.228-.243 4.845-.061 1.578-.147 3.158-.145 4.737 0 1.842.047 3.686.145 5.524.06 1.104.255 2.2.39 3.299l.122.967c1.856 1.193 3.83.592 5.789.07 2.533-.673 3.665.404 4.105 3.038.25 1.492-.616 2.082-1.177 3-.075.124-.33.182-.506.196-1.687.134-3.374.353-5.06.348-2.193-.006-4.384-.214-6.577-.295a10.07 10.07 0 0 0-2.151.138c-.841.155-1.494-.003-1.753-.855-.312-1.027-.615-2.073-.753-3.133a78.69 78.69 0 0 1-.523-5.688c-.075-1.33.013-2.67.008-4.004-.005-1.282-.046-2.565-.052-3.847-.01-1.799-.01-3.598.001-5.397.007-1.104.03-2.21.07-3.314.015-.458.1-.912.149-1.37.32-2.974.55-5.962.988-8.92.363-2.452.948-4.873 1.48-7.298.39-1.787.825-3.565 1.292-5.334.648-2.459 1.716-3.34 4.378-3.106 1.326.116 2.66.177 3.977.361 1.614.226 3.236.47 4.808.883.531.14 1.154.746 1.323 1.272.352 1.094.677 2.305.554 3.418-.152 1.376-1.12 1.716-2.558 1.603-1.762-.14-3.54-.11-5.31-.115-1.568-.003-1.358 1.354-1.493 2.245-.224 1.454-.168 2.949-.28 4.422-.1 1.307-.266 2.61-.399 3.883zm-406.692 6.01c-.11 1.402-.434 3.33-.37 5.244.105 3.179-.582 6.489 1.084 9.472.778 1.393 1.578 2.844 2.671 3.973 1.246 1.284 2.64.882 3.43-.742.67-1.377 1.204-2.823 1.925-4.17.222-.414.918-.91 1.302-.842 1.76.32 3.498.791 5.215 1.303.257.077.57.717.5 1.011-.576 2.461-1.182 4.917-1.886 7.345-.735 2.533-2.446 4.317-5.073 4.479-2.216.137-4.51-.262-6.702-.73-1.298-.279-2.456-1.178-3.697-1.753-2.024-.937-2.758-2.802-3.372-4.713-.58-1.803-1.18-3.624-1.486-5.484-.383-2.328-.581-4.701-.662-7.06a52.281 52.281 0 0 1 .193-6.77c.27-2.814.67-5.623 1.186-8.403.485-2.618.976-5.274 1.874-7.766.684-1.895 2.001-3.562 3.051-5.322 1.242-2.08 3.156-3.447 5.331-4.243 2-.73 4-.582 6.134.422 2.639 1.243 3.353 3.518 4.296 5.795.511 1.232 1.166 2.467.57 3.865-.097.228-.234.505-.432.612-1.059.57-2.148 1.084-3.218 1.633-.872.447-1.703 1-2.617 1.325-.27.095-.997-.354-1.105-.686-.385-1.191-.575-2.444-.884-3.662-.062-.246-.346-.645-.484-.627-.676.086-1.531.09-1.957.502-.568.55-.83 1.433-1.165 2.2-.562 1.28-1.187 2.549-1.59 3.881-.608 2.004-1.089 4.05-1.542 6.095-.24 1.08-.307 2.196-.52 3.816zm216.484-26.31c1.24.488 2.51.915 3.718 1.475 3.39 1.573 4.265 4.73 4.92 8.003.271 1.36.635 2.715.754 4.09.165 1.927.245 3.875.169 5.806-.113 2.891-.42 5.776-.583 8.667-.049.851.211 1.723.152 2.573-.147 2.13-.37 4.255-.613 6.377-.174 1.52-.294 3.066-.676 4.538-.74 2.854-1.487 5.73-2.57 8.46-.417 1.053-1.729 1.774-2.686 2.582-1.314 1.107-2.8 1.931-4.55 2.018-.937.047-1.896-.077-2.824-.242-1.295-.231-2.699-.336-3.815-.941-.872-.474-1.639-1.53-1.99-2.496-.67-1.844-1.136-3.788-1.451-5.729-.257-1.581-.143-3.22-.245-4.83-.044-.7-.282-1.39-.321-2.093-.1-1.772-.127-3.547-.203-5.32-.04-.902-.2-1.805-.164-2.702.047-1.129.28-2.248.36-3.377.141-2 .195-4.007.356-6.006.069-.86.285-1.714.481-2.56.735-3.168 1.314-6.388 2.304-9.476.566-1.765 1.748-3.356 2.774-4.947 1.264-1.96 3.183-3.015 5.432-3.497.384-.082.782-.103 1.174-.152l.097-.221zm51.165 25.687c-1.564.967-2.738 1.993-4.102 2.464-1.966.68-1.488 1.876-1.215 3.269.318 1.632.428 3.303.664 4.951.288 2.026.663 4.04.907 6.07.21 1.756.228 3.535.452 5.29.176 1.383.442 2.773.844 4.106.304 1.006-.45 2.025-1.756 2.134-.887.073-1.812.42-2.639.249-.663-.138-1.546-.765-1.73-1.36-.591-1.9-.967-3.877-1.306-5.844a216.45 216.45 0 0 1-1.322-8.761c-.207-1.592-.237-3.206-.351-4.81-.235-3.315-.569-6.626-.683-9.945-.098-2.844.013-5.697.108-8.544.088-2.602.187-5.21.451-7.798.205-2.001.574-4 1.09-5.942.14-.532 1.3-1.325 1.594-1.182.798.39 1.64 1.107 1.98 1.9.38.888.224 2.002.309 3.128.776-.62 1.508-1.23 2.265-1.807 1.514-1.154 3.244-1.786 5.135-1.82 3.675-.065 5.476 2.577 7.034 5.27 1.323 2.288 1.316 4.905 1.317 7.536.002 2.046-.76 3.718-1.672 5.354-.523.937-1.4 1.768-2.299 2.383-1.436.98-1.41 1.166-.52 2.665 1.136 1.912 2.058 3.964 2.922 6.02.671 1.6 1.259 3.263 1.622 4.955.457 2.128.69 4.309.938 6.476.211 1.84.36 3.69.44 5.54.07 1.653.146 3.33-.068 4.96-.076.583-.95 1.11-1.538 1.562-.35.269-.86.493-1.284.469-1.013-.057-2.04-.193-3.01-.472-.272-.078-.503-.76-.524-1.175-.13-2.666-.113-5.34-.315-8-.145-1.918-.551-3.815-.848-5.72-.335-2.148-.585-4.314-1.04-6.436-.506-2.356-1.202-4.67-1.85-7.135zM159.685 74.834c-2.818-.185-5.064-.641-6.728-2.36-.747-.77-1.233-1.85-1.655-2.864-.685-1.648-1.335-3.329-1.783-5.052-.418-1.607-.59-3.283-.804-4.937-.278-2.148-.588-4.3-.699-6.458-.073-1.403.19-2.822.283-4.236.024-.361-.071-.732-.036-1.09.263-2.734.379-5.496.87-8.19.471-2.579 1.266-5.109 2.06-7.616.455-1.434 1.203-2.772 1.795-4.164.14-.332.108-.75.287-1.05 1.416-2.368 3.302-4.228 6.123-4.661 1.676-.257 3.534-.483 5.01.561 1.299.919 2.476 2.098 3.449 3.36.805 1.047 1.405 2.33 1.796 3.6 1.13 3.664 2.337 7.308 1.845 11.284-.25 2.015.052 4.091-.002 6.137-.042 1.504-.255 3.004-.398 4.505-.146 1.528-.28 3.057-.462 4.58-.074.62-.25 1.23-.4 1.84-.241.989-.453 1.99-.759 2.959-.777 2.464-1.367 5.027-2.477 7.336a19.668 19.668 0 0 1-3.924 5.47c-.857.835-2.547.812-3.39 1.046zm319.994-21.67c-2.207-.444-4.255.134-6.276.961a8.587 8.587 0 0 1-1.876.52c-.235.038-.609-.149-.762-.35-.671-.887-2.018-1.732-.765-3 2.525-2.555 5.576-4.213 9.118-4.93.808-.163 1.293-.543 1.207-1.511-.157-1.785-.129-3.589-.328-5.367-.173-1.54-.546-3.059-.846-4.585-.17-.868-.228-1.796-.592-2.578-.393-.843-1.075-1.554-1.664-2.296-.06-.075-.39-.023-.53.068-1.358.891-2.407 2.013-3.243 3.46-1.64 2.84-2.309 5.992-3.097 9.078-.821 3.216-1.216 6.54-1.8 9.817-.218 1.22-.544 2.429-.641 3.657-.113 1.45.01 2.918-.043 4.375-.109 3.02-.295 6.037-.388 9.058-.038 1.215.184 2.443.106 3.652-.055.827-.413 1.636-.67 2.442-.048.15-.25.278-.41.36-1.227.633-4.35-.99-4.562-2.397-.373-2.472-.893-4.943-1-7.428-.098-2.303.258-4.627.424-6.94.156-2.17.3-4.342.501-6.508.096-1.028.358-2.04.465-3.068.147-1.407.177-2.83.335-4.236.137-1.22.368-2.43.582-3.64.218-1.232.393-2.479.72-3.683a63.952 63.952 0 0 1 1.542-4.818c.34-.945.735-1.894 1.269-2.74 1.216-1.927 2.402-3.898 3.842-5.652 1.816-2.213 4.285-1.913 6.7-1.168 1.12.348 2.256.746 3.255 1.34.528.316.794 1.09 1.143 1.678.165.282.245.613.434 1.099.28-.861.451-1.554.737-2.195.14-.315.454-.688.759-.767.685-.178 1.422-.291 2.125-.244.956.065 1.097.882 1.112 1.636.038 2.076-.037 4.157.056 6.23.091 2.081.352 4.156.493 6.236.054.79-.003 1.588-.042 2.38-.154 3.118-.367 6.233-.468 9.353-.065 2.03.08 4.068.031 6.1a136.855 136.855 0 0 1-.357 6.71 148.44 148.44 0 0 1-.656 6.854c-.13 1.076-.444 2.133-.705 3.19-.293 1.18-1.303 1.706-2.289 1.952-.427.107-1.063-.624-1.694-1.033-.937.605-1.822.162-1.832-1.245-.02-2.792-.058-5.589.067-8.377.158-3.513.477-7.018.706-10.528.019-.297-.122-.604-.193-.922zM214.652 32.108c-1.655-.393-2.783.343-3.539 1.824-.661 1.297-1.466 2.533-2.319 3.716-.853 1.183-1.005 2.51-1.09 3.877a356.67 356.67 0 0 0-.261 4.843c-.073 1.527-.131 3.053-.192 4.58-.08 1.987-.292 3.98-.196 5.957.085 1.739.529 3.459.791 5.191.197 1.311.332 2.632.541 3.94.242 1.516.631 3.015.77 4.537.084.925.011 1.977-.382 2.78-.186.38-1.289.39-1.982.42-.693.027-1.397-.21-2.092-.191-1.355.035-2.587-1.358-2.49-2.74.048-.695-.208-1.41-.319-2.117-.15-.95-.304-1.901-.437-2.854-.183-1.3-.37-2.597-.515-3.9-.12-1.086-.17-2.178-.273-3.267-.086-.909-.202-1.816-.311-2.723-.065-.544-.187-1.086-.21-1.632-.084-1.882-.138-3.765-.203-5.649-.051-1.486-.117-2.97-.146-4.456-.007-.38.104-.762-.1-1.134l.406-7.812c0-1.477-.056-2.56.014-3.635.097-1.533.294-3.059.434-4.59.13-1.427.302-2.854.345-4.283.044-1.506 2.368-2.851 3.802-2.137 1.915.956 2.655 2.526 2.51 5.037a16.957 16.957 0 0 0 .316 4.496c.767-.947 1.53-1.896 2.3-2.84.727-.891 1.362-1.894 2.222-2.63.66-.565 1.578-.964 2.439-1.13 1.71-.331 3.475-.16 4.904.87.695.501 1.145 1.48 1.468 2.334 1.173 3.092 1.175 6.29.717 9.527-.142 1.008-.014 2.05-.07 3.072-.075 1.412-.203 2.823-.316 4.232-.204 2.578-.405 5.155-.629 7.731-.04.48-.183.95-.108 1.425 0 .466-.033.935.006 1.398.215 2.63.319 5.279.715 7.882.303 1.99.962 3.928 1.503 5.879.317 1.144-.251 2.647-1.319 3.123-.273.121-.668-.06-.981.01-.627.14-1.227.408-1.854.538-1.671.348-3.252-.617-3.822-2.739-.646-2.402-.969-4.893-1.38-7.355a25.985 25.985 0 0 1-.335-3.34 78.965 78.965 0 0 1-.002-4.662c.047-1.992.123-3.984.224-5.974.223-4.414.443-8.83.733-13.24.048-.721.452-1.418.713-2.19zm155.724 34.68c1.932-.039 1.88-1.496 2.342-2.37.594-1.12.985-2.365 1.335-3.593.274-.962.344-1.98.52-2.972.13-.734.336-1.458.416-2.197.232-2.11.474-4.224.605-6.342.232-3.777.437-7.557.555-11.34.102-3.29.021-6.587.12-9.878.045-1.505.16-3.047.548-4.489.4-1.475 3.427-1.602 4.629-.498 2.036 1.87 1.444 4.176 1.385 6.432-.073 2.663-.12 5.327-.173 7.99-.05 2.462-.13 4.925-.137 7.387-.008 3.023.062 6.046.066 9.07.003 1.449-.1 2.898-.093 4.347.007 1.448.127 2.896.133 4.343.007 1.44-.187 2.89-.073 4.318.135 1.705.511 3.39.769 5.086.072.478.209.991.107 1.441-.128.563-2.658 1.31-3.537 1.26-1.578-.092-2.308-1.218-2.763-2.416-.296-.78-.609-.567-1-.361-1.187.622-2.298 1.412-3.53 1.918-2.04.84-4.153 1.077-6.146-.186-.984-.623-2.113-1.198-2.785-2.09-1.029-1.363-1.851-2.926-2.514-4.507-.591-1.41-.991-2.939-1.215-4.454-.255-1.728-.207-3.5-.317-5.25-.143-2.248-.373-4.493-.442-6.743-.034-1.096.275-2.197.32-3.3.093-2.298.044-4.603.186-6.897.129-2.085.32-4.179.685-6.232.568-3.185 1.254-6.353 1.993-9.504.546-2.33 2.827-3.215 4.93-1.858 1.362.88 1.87 1.778 1.372 3.565-.461 1.659-.062 3.545-.122 5.329-.117 3.456-.242 6.914-.46 10.365-.095 1.527-.483 3.034-.63 4.56a47.85 47.85 0 0 0-.193 4.405c-.01 3.232-.088 6.47.106 9.692.105 1.764.569 3.548 1.17 5.214.174.481 1.39.587 1.838.756zM175.313 60.31c-.054-.038-.039-.042 0-.026zm0-.026v-9.287c.099-.186.247-.34.258-.503.15-2.242.286-4.486.418-6.73.115-1.964.151-3.936.346-5.893.283-2.823.676-5.635 1.027-8.451.219-1.753.182-3.603.772-5.222.333-.91.451-2.531 1.961-2.618.873-.05 1.793.245 2.644.528.243.08.456.665.45 1.014-.032 1.732-.141 3.462-.224 5.192l-.154 3.172c.97-1.32 1.708-2.37 2.49-3.385 1.604-2.085 5.434-3.429 7.835-2.468.798.32 1.658 1.473 1.77 2.338.366 2.83.506 5.703.526 8.56.015 2.024-.354 4.047-.459 6.075a32.636 32.636 0 0 0 .059 4.082c.15 2.023.4 4.038.608 6.056.257 2.491.606 4.978.736 7.476.087 1.643-.212 3.303-.204 4.956.006 1.341.222 2.681.329 4.023.08 1.004.222 2.014.173 3.013-.04.82-.417 1.294-1.484 1.163-.941-.115-1.946.173-2.908.361-2.208.432-3.11-.354-3.751-2.163-.455-1.285-.52-2.715-.7-4.089-.247-1.877-.525-3.756-.628-5.642-.095-1.74.06-3.492.032-5.237-.016-.94-.276-1.877-.269-2.815.014-1.722.177-3.441.21-5.162.018-.855-.182-1.715-.16-2.57.026-1.05.197-2.096.277-3.146.13-1.73.205-3.467.37-5.194.057-.606.345-1.187.46-1.792.047-.252-.085-.537-.136-.807-.237.098-.526.14-.702.303-1.879 1.73-2.052 4.302-3.135 6.43-.57 1.117-1.21 2.286-1.387 3.496-.217 1.478-.034 3.025.071 4.537.156 2.231.357 4.461.619 6.683.123 1.047.508 2.062.635 3.109.085.7-.102 1.428-.12 2.145a16.77 16.77 0 0 0 .066 1.779c.086 1.058.28 2.113.28 3.17.001 1.81-.046 3.626-.233 5.422-.038.355-.751.76-1.229.928-1.45.515-2.912 1.13-4.418 1.326-1.882.246-2.742-.683-2.937-2.588-.127-1.228-.41-2.45-.42-3.675-.017-2.06.117-4.12.213-6.18.023-.52.177-1.036.197-1.556.002-.067-.113-.14-.174-.164zm265.366-2.207c.21-.788.364-1.597.644-2.361.585-1.603 1.229-3.185 1.865-4.77.334-.834 2.548-1.28 3.303-.745 1.4.993 1.512 2.437 1.69 3.975.182 1.564.707 3.087 1.158 4.943.152-.933.238-1.582.366-2.224.456-2.278 1.067-4.535 1.356-6.832.379-3.02.494-6.075.75-9.111.186-2.201.446-4.397.618-6.6.19-2.425.381-4.853.448-7.283.067-2.436 1.872-3.828 4.244-3.137.633.184 1.28.332 1.893.57.29.114.591.353.755.617 1.819 2.937 1.364 6.152 1.113 9.344-.169 2.146-.186 4.313-.485 6.44-.283 2.007-.865 3.97-1.273 5.962-.135.656-.093 1.348-.21 2.01-.147.83-.39 1.645-.565 2.472-.47 2.234-.84 4.492-1.406 6.701-.763 2.979-1.644 5.928-2.53 8.873-.378 1.258-.94 2.46-1.326 3.715-.108.351.014.861.206 1.2.556.98.28 1.674-.8 1.904-.868.184-1.775.724-2.57.58-.98-.177-2.206-.672-2.71-1.436-1.03-1.564-1.65-3.398-2.574-5.42-.583 1.839-1.097 3.448-1.604 5.06-.655 2.08-1.94 3.138-3.695 2.74-1.448-.33-2.597-1.22-3.186-2.688-.49-1.22-1.071-2.406-1.519-3.64-1.006-2.778-2.035-5.55-2.897-8.374-.631-2.068-1.073-4.202-1.483-6.329-.32-1.669-.422-3.379-.698-5.059-.267-1.627-.67-3.233-.943-4.86-.27-1.602-.439-3.221-.673-4.83-.121-.835-.353-1.658-.419-2.494-.126-1.587-.122-3.184-.259-4.769-.161-1.859-.495-3.705-.596-5.567-.05-.916-.065-2.194.475-2.703.944-.89 2.287-1.397 3.738-.71 1.031.49 2.106.922 3.204 1.223 1.595.44 1.455 1.798 1.648 2.932.297 1.74.488 3.501.66 5.26.248 2.523.356 5.062.68 7.575.216 1.669.75 3.293 1.06 4.953.26 1.394.368 2.816.608 4.214.125.734.44 1.436.577 2.17.22 1.17.36 2.357.544 3.536.066.422.178.836.25 1.256.096.562.172 1.128.258 1.692zm-338.905 29.52c-3.486-.355-6.53-2.721-6.946-5.943-.237-1.825-1.017-3.573-1.35-5.392-.288-1.568-.275-3.189-.419-4.785-.229-2.551-.615-5.096-.683-7.652-.087-3.286.153-6.58.106-9.87-.038-2.707-.309-5.412-.436-8.12-.047-.997.107-2.007.023-2.998-.226-2.644-.572-5.277-.788-7.921-.11-1.357-.052-2.728-.052-4.093-.002-2.363.04-4.726-.016-7.087-.007-.34-.422-.915-.705-.953-.634-.084-1.321.034-1.957.19-1.535.376-3.03.998-4.583 1.194-1.863.236-3.771.097-5.656.189-1.93.092-3.855.283-5.784.404-1.81.112-3.621.18-5.431.284-1.065.062-2.125.197-3.19.23-1.99.063-3.98.074-5.972.108-1.493.024-2.986.086-4.478.057-.56-.01-1.11-.274-1.675-.338-.776-.088-1.597.037-2.334-.165-1.355-.373-2.646-.328-3.594.697-.915.988-1.97 1.392-3.227 1.656-1.706.36-2.84 1.55-3.535 3.088-.248.549-.166 1.253-.204 1.888a250.864 250.864 0 0 0-.196 3.974c-.004.094.088.19.123.29.584 1.606 1.16 3.216 1.75 4.82.444 1.205.753 2.493 1.393 3.584.975 1.665 2.168 3.203 3.307 4.767.272.374.728.609 1.035.963.661.76-.056 1.064-.51 1.49a442.009 442.009 0 0 0-4.692 4.483c-1.253 1.211-2.473 2.456-3.74 3.652-1.61 1.519-3.187 3.084-4.903 4.474-1.194.967-2.621 1.638-3.905 2.5a291.746 291.746 0 0 0-6.373 4.388c-2.085 1.48-4.622 2.384-6.048 4.713-.046.075-.197.078-.262.148-.518.553-1.297 1.038-1.477 1.687-.332 1.194-.977 1.958-1.862 2.801-1.639 1.564-1.92 3.656-1.572 5.9.28 1.814.949 3.216 2.83 3.694 1.212.307 2.45.538 3.692.68 1.607.187 3.227.294 4.845.353 1.269.047 2.543-.004 3.813-.064.957-.045 1.91-.258 2.863-.242 1.427.024 2.85.23 4.276.275 1.95.063 3.905.004 5.854.08 1.974.076 3.943.319 5.916.363 1.449.033 2.902-.205 4.352-.205 2.298 0 4.596.106 6.894.153 1.484.03 2.97.003 4.452.059 1.618.062 3.233.204 4.851.283.498.024 1.001-.086 1.5-.072 1.65.046 3.298.154 4.947.175 1.661.021 3.322-.041 4.983-.052 1.106-.009 2.212.005 3.318.016 2.082.02 4.172.154 6.247.029 1.167-.07 2.293-.71 3.465-.831 1.465-.15 2.958-.015 4.438-.035 2.5-.034 4.999-.069 7.495-.157.895-.031 1.793-.18 2.676-.344.558-.105 1.13-.268 1.625-.538.368-.2.608-.626.928-.928 1.01-.952.714-2.757-.54-3.423-.927-.493-1.822-1.047-2.74-1.58 1.032-.294 1.962-.798 2.878-.774 2.97.078 5.937.323 8.901.555 2.181.17 4.358.405 6.533.641 2.65.287 5.292.707 7.95.88 2.127.137 4.272.01 6.408-.036 1.465-.032 2.928-.167 4.392-.184 2.586-.03 5.174-.063 7.76.009 4.434.122 8.865.346 13.3.484 1.738.054 3.482.064 5.216-.037 1.873-.11 3.733-.441 5.605-.548 1.827-.105 3.665.006 5.493-.078 2.248-.103 4.489-.392 6.737-.454 2.894-.08 5.794-.018 8.69-.012 2.672.007 5.347-.045 8.015.057 1.577.06 3.14.427 4.718.547 2.489.19 4.987.271 7.48.43 1.204.076 2.404.324 3.607.32 3.56-.01 7.12-.148 10.68-.152 1.84-.003 3.685.115 5.518.283 1.911.175 3.816.447 5.715.727 1.257.185 2.495.491 3.75.684 1.738.267 3.478.559 5.228.693 1.84.14 3.698.23 5.535.117 3.004-.186 5.997-.549 8.994-.85 3.586-.358 7.17-.739 10.757-1.093 1.75-.173 3.5-.348 5.254-.446 1.336-.074 2.68.011 4.018-.045 2.95-.126 5.896-.361 8.847-.428 3.11-.072 6.227.073 9.336-.012 2.81-.075 5.613-.353 8.421-.5.899-.047 1.805.053 2.708.062 1.31.015 2.62-.014 3.927.019 1.233.03 2.463.145 3.695.175 1.434.035 2.87-.02 4.304.033 1.753.064 3.505.281 5.256.276 1.775-.004 3.553-.317 5.325-.283 3.014.058 6.024.337 9.038.418 2.41.064 4.828-.112 7.237-.029 2.41.084 4.815.334 7.217.558 1.445.135 2.88.503 4.32.517 2.802.025 5.607-.207 8.408-.173 1.846.023 3.687.324 5.531.5 1.719.163 3.437.44 5.157.457 1.93.02 3.862-.199 5.793-.308 1.974-.111 3.95-.18 5.92-.33 2.168-.168 4.328-.426 6.495-.606.697-.058 1.506.234 2.088-.026 2.421-1.083 4.86-.357 7.286-.245 2.806.128 5.604.421 8.409.53 1.655.065 3.318-.09 4.978-.143 3.544-.112 7.087-.218 10.63-.333 2.768-.09 5.534-.225 8.303-.277 2.533-.047 5.07.051 7.6-.029 2.044-.065 4.08-.366 6.124-.44 1.826-.067 3.658.036 5.486.059 2.475.029 4.95.044 7.425.082 2.075.031 4.15.09 6.225.127 1.863.033 3.726.089 5.588.074 2.305-.019 4.611-.051 6.913-.17 2.03-.104 4.053-.364 6.083-.498 1.134-.073 2.275-.032 3.412-.036 1.638-.005 3.283-.109 4.91.023 2.064.166 4.107.62 6.172.772 1.814.133 3.646-.02 5.468.025 1.344.032 2.684.224 4.026.254.867.02 1.737-.189 2.605-.182 1.35.01 2.701.164 4.052.173 2.082.013 4.165-.042 6.248-.077.316-.005.63-.065.947-.088 1.864-.132 3.726-.31 5.592-.379 2.368-.087 4.739-.071 7.108-.123 1.486-.032 2.975-.19 4.457-.147 2.423.072 4.841.313 7.263.382 1.253.037 2.512-.173 3.77-.22 2.4-.092 4.802-.153 7.204-.216 3.326-.088 6.65-.177 9.976-.24.802-.015 1.609.132 2.408.094 2.804-.135 5.604-.35 8.409-.469 1.868-.079 3.743 0 5.61-.081 1.374-.06 2.743-.264 4.115-.405l.126.36c-.372.285-.75.56-1.112.856-1.073.878-2.52 1.502-2.482 3.202.04 1.809 2.386 3.456 4.408 3.288 1.935-.16 3.88-.219 5.822-.242 2.9-.034 5.802-.009 8.702.014 1.229.008 2.47.206 3.683.083 1.615-.164 3.197-.692 4.811-.812 1.832-.137 3.686-.029 5.528.033 2.288.076 4.576.312 6.862.293 1.895-.016 3.785-.354 5.682-.46 3.758-.21 7.52-.361 11.28-.526.433-.019.87.046 1.306.038 1.448-.027 2.894-.114 4.34-.093 1.759.027 3.516.158 5.275.211 2.431.072 4.864.123 7.296.162 1.108.018 2.218-.014 3.327-.02.265-.002.53.01.795.016 2.09.04 4.18.11 6.27.112 1.512.002 3.024-.084 4.537-.133.649-.02 1.3-.1 1.944-.057 1.326.087 2.646.323 3.97.336 1.084.01 2.18-.153 3.248-.361.468-.091.877-.483 1.31-.743.186-.112.35-.284.55-.347.853-.268 1.737-.453 2.564-.781.298-.119.634-.538.666-.85.083-.795.076-1.616-.028-2.408-.117-.899-.261-1.827-.605-2.654-.635-1.526-1.314-3.055-2.179-4.457-1.103-1.79-2.249-3.604-3.669-5.136-1.616-1.741-3.539-3.2-5.358-4.748-.747-.635-1.522-1.267-2.372-1.746-1.17-.66-2.44-1.142-3.636-1.761-.771-.399-1.458-.962-2.234-1.35-2.61-1.304-5.317-2.432-7.842-3.881-1.746-1.003-3.252-2.425-4.976-3.744 1.934-1.352 1.95-2.992 1.868-4.773-.055-1.21.206-2.459.482-3.653.349-1.5.87-2.96 1.294-4.444.328-1.15.56-2.328.95-3.454.265-.763.725-1.456 1.1-2.18.61-1.178 1.307-2.32 1.807-3.542a18.691 18.691 0 0 0 1.098-3.666c.203-1.103-.083-2.133-.763-3.154-.582-.874-.733-2.038-1.052-3.082-.023-.075.134-.204.24-.356-.255 0-.474.065-.617-.011-.507-.268-.96-.766-1.485-.852-2.22-.361-4.46-.61-6.693-.893-1.576-.199-3.156-.573-4.726-.538-2.634.06-5.263.385-7.894.591-1.596.125-3.19.271-4.789.341-1.847.08-3.704.2-5.544.09-1.606-.097-3.187-.641-4.79-.715-2.707-.125-5.424-.049-8.137-.027-1.408.012-2.817.081-4.225.14-1.326.055-2.654.084-3.972.213-1.205.116-2.398.353-3.599.53-.07.01-.15-.051-.227-.064-2.727-.429-5.427-.949-8.237-.712-.974.082-2.036-.534-3.01-.945-.56-.237-1.025-.702-1.532-1.063-.185.574-.601 1.188-.512 1.716.332 1.966.838 3.901 1.263 5.851.518 2.374 1.093 4.739 1.506 7.131.32 1.862.465 3.757.622 5.643.17 2.03.286 4.065.384 6.1.068 1.396.01 2.8.118 4.194.098 1.277.375 2.54.513 3.815.14 1.297.22 2.6.299 3.902.083 1.379.122 2.76.202 4.138.08 1.39.153 2.78.29 4.165.096.97.5 1.951.406 2.891-.298 3.05-.821 6.078-1.144 9.126-.326 3.083-1.633 5.709-3.534 8.065-.5.62-1.02 1.603-1.989 1.068.588-1.651 1.316-3.219 1.682-4.867.36-1.616.366-3.312.495-4.976.174-2.236.336-4.472.464-6.71.06-1.052.057-2.108.039-3.16-.029-1.71-.046-3.421-.16-5.125-.068-1.015-.373-2.014-.463-3.03-.18-2.041-.285-4.09-.425-6.135-.05-.729-.142-1.455-.156-2.184-.01-.523.176-1.062.099-1.567-.07-.455-.38-.873-.7-1.554l.516.25c.062-.767.138-1.581.194-2.397.024-.335.047-.68-.001-1.01-.106-.724-.344-1.437-.372-2.162-.058-1.52-.017-3.043-.017-4.806.032-.012.225-.18.216-.336-.09-1.52-.165-3.046-.373-4.552-.225-1.646-.566-3.278-.896-4.91-.29-1.43-.67-2.842-.94-4.275-.26-1.383-.38-2.793-.664-4.17-.138-.671-.484-1.305-.78-1.936-.4-.855-.711-1.8-1.301-2.509-.674-.81-1.631-1.257-2.789-1.324-2.044-.117-4.076-.548-6.116-.565-3.525-.03-7.052.26-10.575.223-2.73-.028-5.455-.381-8.186-.53a368.404 368.404 0 0 0-8.718-.358c-3.402-.105-6.807-.115-10.207-.262-2.154-.093-4.298-.386-6.45-.543-1.521-.11-3.048-.152-4.572-.206-2.022-.073-4.046-.177-6.07-.176-1.708.002-3.417.127-5.127.208-1.298.06-2.596.195-3.894.19-1.88-.005-3.76-.112-5.641-.167-2.241-.065-4.481-.15-6.722-.172-2.11-.02-4.22-.003-6.33.07-1.146.04-2.285.295-3.433.34-1.875.073-3.755.051-5.632.077-1.512.02-3.023.06-4.535.08-1.37.018-2.741.022-4.112.032-.318.002-.639.028-.953-.004-1.145-.115-2.286-.304-3.434-.364-1.523-.08-3.053-.03-4.578-.1-1.415-.066-2.825-.287-4.24-.313-2.513-.047-5.028.05-7.54-.007-1.648-.037-3.293-.236-4.938-.368-1.704-.136-3.405-.332-5.112-.404-1.677-.071-3.361.014-5.04-.03-2.372-.064-4.743-.27-7.112-.252-2.072.017-4.139.293-6.211.392-1.446.069-2.899-.014-4.343.054-2.435.113-4.863.326-7.297.435-2.174.098-4.352.087-6.525.175-1.155.047-2.303.253-3.458.295-1.344.05-2.695-.049-4.038.006-1.286.054-2.566.294-3.851.323-2.044.046-4.09-.008-6.136-.032a609.512 609.512 0 0 1-6.879-.104c-.622-.014-1.249-.207-1.862-.163-1.74.124-3.472.365-5.212.493-2.267.168-4.54.25-6.807.409-2.105.148-4.205.378-6.309.52-1.673.113-3.353.138-5.028.222-.97.05-1.938.208-2.906.199-1.988-.019-3.975-.13-5.963-.174-1.029-.023-2.06.055-3.086.017-2.118-.078-4.235-.198-6.351-.313-1.09-.058-2.177-.196-3.265-.2-1.67-.006-3.34.078-5.01.11-.695.013-1.392-.01-2.088-.017-1.354-.017-2.708-.067-4.062-.045-1.5.025-3 .185-4.5.16-1.647-.028-3.295-.314-4.937-.277-1.909.043-3.809.4-5.717.466-2.377.082-4.76.037-7.14-.015-.967-.022-1.927-.246-2.895-.305-1.014-.063-2.035 0-3.05-.061-1.118-.069-2.23-.241-3.347-.32-.445-.03-.9.113-1.347.096-.793-.03-1.581-.168-2.372-.18-1.053-.015-2.109.106-3.16.065-1.733-.067-3.463-.262-5.196-.317-1.391-.043-2.788.108-4.177.053-1.883-.075-3.762-.375-5.643-.38-2.549-.005-5.097.184-7.646.28-2.589.096-5.179.162-7.767.28-1.17.053-2.333.238-3.502.29-1.57.07-3.146.026-4.715.11-2.042.107-4.077.366-6.118.424-2.543.071-5.092.05-7.636-.018-1.998-.054-3.992-.294-5.991-.351-2.55-.072-5.102-.062-7.653-.05-1.52.006-3.044.025-4.557.145-1.505.12-2.994.504-4.496.54-2.546.06-5.099-.137-7.645-.085-2.237.045-4.469.294-6.705.43-.824.05-1.654.063-2.48.046-1.565-.03-3.13-.08-4.693-.152-.739-.034-1.475-.134-2.213-.209-1.532-.154-3.061-.36-4.597-.457-1.562-.1-3.14 0-4.693-.16-1.589-.163-3.147-.636-4.737-.792-1.71-.167-3.469.045-5.162-.21-2.661-.398-5.275-.063-7.905.127-1.495.108-2.986.243-4.48.355-.962.072-1.926.13-2.89.184-2.358.138-4.716.294-7.076.394-1.197.051-2.4-.025-3.598-.006-1.694.026-3.386.116-5.08.128-2.455.019-4.914-.05-7.37-.002-2.062.04-4.123.22-6.185.285-.891.027-1.788-.14-2.68-.118-2.094.05-4.186.239-6.28.231-2.583-.01-5.166-.242-7.748-.228-2.359.015-4.716.247-7.075.351-1.943.087-3.897.037-5.829.22-1.266.121-2.512.52-3.752.852-.973.26-2.019.449-2.863.953-1.424.85-2.76 1.87-4.04 2.932-.558.462-.795 1.298-1.333 1.797-1.293 1.201-1.212 2.823-1.302 4.305-.09 1.469.378 2.964.38 4.449.005 2.77-.171 5.54-.23 8.312a84.491 84.491 0 0 0 .043 4.823c.047 1.312.187 2.62.288 3.929.143 1.845.283 3.69.433 5.533.125 1.553.373 3.107.358 4.658-.013 1.202-.273 2.306.045 3.607.397 1.625-.047 3.448-.08 5.188-.025 1.423-.027 2.85.05 4.272.105 1.988.288 3.973.45 5.959.049.6.106 1.2.212 1.79.236 1.323.52 2.637.758 3.96.3 1.68.878 3.203 2.298 4.277l2.355 1.776z"/><path fill="none" stroke="#00262f" stroke-linejoin="round" stroke-miterlimit="20" stroke-width="20" d="M490.888 67.837v-5.771c-.003-3.022-.043-6.044.004-9.064.022-1.442.29-2.882.294-4.323.002-1.804-.189-3.608-.231-5.413-.05-2.165-.109-4.335-.017-6.496.072-1.665.308-3.332.587-4.978.377-2.227.81-4.448 1.327-6.647.253-1.078.998-1.606 2.197-1.258.566.164 1.371-.01 1.72.329 1.072 1.041 1.619 2.367 1.56 3.936-.093 2.447-.073 4.898-.141 7.347-.048 1.688-.14 3.376-.255 5.061-.196 2.861-.47 5.717-.63 8.58-.152 2.727-.249 5.46-.283 8.192-.048 3.739-.024 7.48-.001 11.218.003.583.089.953.992.709a39.658 39.658 0 0 1 5.949-1.12c1.512-.169 2.61 1.605 2.283 3.388a49.864 49.864 0 0 0-.296 1.843c-.175 1.195-1.244 1.405-2.065 1.552-2.104.38-4.243.628-6.379.753-1.404.082-2.84-.06-4.235-.274-.454-.07-1.09-.626-1.187-1.063-.48-2.134-.806-4.302-1.193-6.501zm31.799 7.617c-2.79 0-5.582.03-8.373-.018-.877-.015-1.806-.098-2.612-.408-1.362-.523-1.606-1.923-1.744-3.121a85.196 85.196 0 0 1-.578-8.234c-.04-2.131.286-4.268.34-6.405.069-2.791.019-5.586.04-8.38.035-4.29-.036-8.586.171-12.868.156-3.228.59-6.451 1.065-9.652.317-2.145.634-2.323 2.752-2.329a17.298 17.298 0 0 1 3.133.284c.881.161 1.17.839 1.099 1.718-.154 1.882-.262 3.768-.405 5.652-.203 2.67-.41 5.342-.636 8.011-.268 3.173-.61 6.34-.82 9.515-.181 2.734-.314 5.48-.296 8.219.017 2.62.276 5.24.385 7.862.043 1.02-.018 2.045-.057 3.066-.026.678.126.936.917.788 2.012-.373 4.046-.818 6.071-.816.645 0 1.633 1.229 1.848 2.056.289 1.103.007 2.365-.084 3.556-.11 1.442-1.389 1.035-2.216 1.504zm41.432-43.136c-.405 2.394-.922 4.957-1.25 7.544a82.74 82.74 0 0 0-.638 7.674c-.058 1.717.35 3.45.292 5.166-.06 1.814-.477 3.614-.632 5.428-.07.814.166 1.649.176 2.475.025 1.969-.05 3.94.004 5.907.058 2.12.242 4.238.322 6.357.033.9.071 1.834-.125 2.7-.266 1.173-1.402.995-2.217.956-1.132-.054-2.248-.4-3.376-.58-1.543-.243-1.304-1.554-1.358-2.493-.106-1.863.065-3.741.06-5.613a97.729 97.729 0 0 0-.143-5.376c-.136-2.365-.463-4.726-.486-7.09-.015-1.378.464-2.753.608-4.14.142-1.385.136-2.785.205-4.178.085-1.721.122-3.449.288-5.163.204-2.107.477-4.21.805-6.301.206-1.31.568-2.595.903-4.077-1.335 0-2.694.062-4.045-.02-.955-.058-2.047-.083-2.79-.565-.447-.29-.454-1.432-.451-2.19.005-.851-.023-1.927.453-2.49.524-.62 1.58-.944 2.452-1.077 1.189-.18 2.424-.045 3.639-.072 1.28-.029 2.56-.086 3.84-.137 2.715-.106 5.428-.23 8.142-.32.916-.03 1.84-.034 2.752.04 1.033.086 1.21 1.651.889 2.716-.426 1.415-1.134 2.743-1.627 4.142-.426 1.207-1.407.702-2.145.749-1.51.093-3.029.028-4.547.028zm-293.925-1.457c-2.187-.26-3.111-1.976-2.569-4.164.231-.924.177-1.92.413-2.841.067-.264.695-.531 1.072-.54a44.21 44.21 0 0 1 4.094.096c.916.063 1.82.285 2.733.41 1.023.139 2.05.265 3.078.367 2.023.2 4.044.449 6.072.546 1.622.078 3.256.005 4.88-.085.952-.053 1.328.412 1.314 1.235-.013.757-.217 1.51-.244 2.268-.018.512.126 1.03.195 1.536l-.633-.17c.235.329.371.523.675.95-1.252.268-2.402.629-3.575.74-1.626.153-3.276.057-4.899.224-.277.029-.67.84-.676 1.294-.037 2.356.046 4.714.065 7.072.026 3.462.048 6.925.046 10.388-.002 2.885-.152 5.775-.031 8.653.12 2.9.432 5.797.783 8.68.22 1.815.647 3.607 1.02 5.402.26 1.249-.43 1.946-1.663 1.656-.287-.067-.604-.01-.938-.01-.655-1.132-1.38-.09-1.9.156-1.447.685-2.069.483-2.816-.932-1.042-1.972-.733-4.15-1.104-6.22-.332-1.85-.368-3.762-.427-5.649-.056-1.759.068-3.523.036-5.284-.015-.889-.254-1.773-.299-2.665a61.535 61.535 0 0 1-.056-3.925c.029-1.952.15-3.903.145-5.855-.007-3.29-.112-6.578-.11-9.868 0-1.096.2-2.192.322-3.428-1.781 0-3.413.152-5.003-.037zm-23.569 26.574c0-.792.2-1.648-.039-2.36-.592-1.768-.347-3.508-.182-5.278.107-1.15.086-2.312.164-3.466.132-1.94.201-3.893.475-5.815.335-2.348.814-4.678 1.319-6.998.166-.764.652-1.454.904-2.208.179-.53.205-1.112.31-1.668.397-2.107 1.687-3.647 3.184-5.07.229-.218.264-.627.43-.925.731-1.316 1.79-1.717 3.333-1.386 2.457.528 4.146 2.017 5.41 4.112.545.905 1.375 1.687 1.726 2.653.702 1.934-.58 4.755-2.38 5.688-1.05.545-2.533.089-2.769-.956-.305-1.357-1.4-1.399-2.324-1.322-.42.035-.965.88-1.115 1.449-.713 2.688-1.383 5.393-1.917 8.121-.255 1.307-.18 2.677-.245 4.019a481.008 481.008 0 0 0-.201 4.517c-.142 3.66.565 7.186 1.785 10.612.286.808.646 1.73 1.27 2.228.417.334 1.375.097 2.06-.037.706-.136 1.523-.291 2.023-.737.737-.656 1.344-1.522 1.808-2.403.473-.897.676-1.933 1.052-2.887.39-.985 2.324-1.33 3.1-.585.866.832 1.483 1.919 2.887 2.134.756.116 1.202 2.76.737 3.524-.682 1.12-1.268 2.306-2.02 3.377-1.249 1.778-2.258 3.713-4.343 4.844-1.867 1.014-3.8 1.746-5.82 1.403-2.202-.374-4.17-1.393-5.979-2.927-1.76-1.494-2.35-3.483-3.284-5.344-.403-.803-.452-1.786-.661-2.687l-.851-3.65zm-12.863-26.828l-1.516 9.186c2.717-.108 5.32-.049 7.872-.383 1.287-.168 1.863.184 2.081 1.256.179.88.234 1.822.136 2.714-.12 1.102-.43 2.188-.705 3.269-.228.9-.54 1.672-1.79 1.4-.875-.19-1.81-.095-2.699-.239-.812-.132-1.596-.443-2.404-.62-.728-.16-1.478-.368-2.208-.333-1.102.05-.767 1.034-.782 1.646-.081 3.267-.248 6.543-.08 9.801.143 2.76.701 5.497 1.112 8.507 2.762-.45 5.295-.828 7.815-1.283 1.985-.357 3.06.445 3.739 2.756.453 1.542-.003 2.927-.642 4.244-.164.338-.946.444-1.466.525-.538.085-1.102-.005-1.654.007-1.095.023-2.193.11-3.287.088-2.074-.041-4.145-.203-6.218-.202-3.656.001-3.842-1.536-4.457-4.319-.246-1.11-.486-2.231-.603-3.36-.155-1.517-.128-3.053-.29-4.569-.157-1.478-.529-2.935-.672-4.414-.183-1.91-.36-3.837-.31-5.75.072-2.685.335-5.365.554-8.046.185-2.273.249-4.576.677-6.806.624-3.242.963-6.597 2.654-9.537.278-.484.933-.804 1.476-1.071.862-.425 1.746-.893 2.674-1.077 2.929-.58 5.814-.298 8.548.927.373.168.791.928.707 1.304-.383 1.691-.755 3.435-1.526 4.96-.295.586-1.687.973-2.498.863-1.317-.18-2.567-.844-4.238-1.444zm95.947-5.947c.613-.216 1.416-.692 1.59-.522.532.514 1.175 1.3 1.138 1.944-.15 2.596-.565 5.175-.825 7.767-.107 1.06-.018 2.14-.11 3.202-.1 1.166-.286 2.327-.472 3.484-.262 1.631-.57 3.255-.84 4.885-.18 1.094-.388 2.19-.476 3.295-.101 1.266.045 2.56-.142 3.808-.395 2.647-.969 5.267-1.406 7.908-.36 2.178-.695 4.364-.918 6.558-.242 2.36-.309 4.74-.522 7.104-.07.768-.276 1.384-1.406 1.449-1.025.057-1.99.827-3.03 1.03-1.07.21-2.341.392-2.917-.948-.283-.659-.46-1.438-.416-2.147.114-1.931.401-3.85.56-5.78.095-1.154 0-2.327.135-3.474.075-.629.535-1.202.678-1.833.365-1.61.658-3.235.966-4.857.417-2.19.801-4.385 1.24-6.571.364-1.829.784-3.646 1.186-5.466.134-.608.334-1.206.404-1.82.02-.173-.423-.58-.476-.552-1.527.828-3.067.158-4.524-.1-1.346-.24-2.837-.736-3.837-1.609-1.813-1.58-3.505-3.272-4.294-5.803-.994-3.184-1.435-6.407-1.628-9.68-.176-2.99 1.474-4.234 4.315-3.597.585.131 1.131.432 1.71.602.339.1.737.026 1.057.157.36.147.913.403.95.672.185 1.32.159 2.67.333 3.991.302 2.287.249 4.677 2.073 6.521.986.995 3.14.855 4.569.103 1.433-.752 1.893-1.936 2.087-3.527.24-1.97.844-3.915 1.472-5.81.344-1.036 1.28-1.086 1.776-.384zm207.187 17.463c1.792.12 3.51.547 5.073.224.932-.192 1.603-.169 2.329.212.354.185.847.593.841.894-.027 1.67-.087 3.355-.37 4.993-.078.446-.948 1.022-1.495 1.07-2.105.182-4.229.152-6.34.274-.236.013-.614.48-.637.76-.13 1.61-.18 3.228-.243 4.845-.061 1.578-.147 3.158-.145 4.737 0 1.842.047 3.686.145 5.524.06 1.104.255 2.2.39 3.299l.122.967c1.856 1.193 3.83.592 5.789.07 2.533-.673 3.665.404 4.105 3.038.25 1.492-.616 2.082-1.177 3-.075.124-.33.182-.506.196-1.687.134-3.374.353-5.06.348-2.193-.006-4.384-.214-6.577-.295a10.07 10.07 0 0 0-2.151.138c-.841.155-1.494-.003-1.753-.855-.312-1.027-.615-2.073-.753-3.133a78.69 78.69 0 0 1-.523-5.688c-.075-1.33.013-2.67.008-4.004-.005-1.282-.046-2.565-.052-3.847-.01-1.799-.01-3.598.001-5.397.007-1.104.03-2.21.07-3.314.015-.458.1-.912.149-1.37.32-2.974.55-5.962.988-8.92.363-2.452.948-4.873 1.48-7.298.39-1.787.825-3.565 1.292-5.334.648-2.459 1.716-3.34 4.378-3.106 1.326.116 2.66.177 3.977.361 1.614.226 3.236.47 4.808.883.531.14 1.154.746 1.323 1.272.352 1.094.677 2.305.554 3.418-.152 1.376-1.12 1.716-2.558 1.603-1.762-.14-3.54-.11-5.31-.115-1.568-.003-1.358 1.354-1.493 2.245-.224 1.454-.168 2.949-.28 4.422-.1 1.307-.266 2.61-.399 3.883zm-406.692 6.01c-.11 1.402-.434 3.33-.37 5.244.105 3.179-.582 6.489 1.084 9.472.778 1.393 1.578 2.844 2.671 3.973 1.246 1.284 2.64.882 3.43-.742.67-1.377 1.204-2.823 1.925-4.17.222-.414.918-.91 1.302-.842 1.76.32 3.498.791 5.215 1.303.257.077.57.717.5 1.011-.576 2.461-1.182 4.917-1.886 7.345-.735 2.533-2.446 4.317-5.073 4.479-2.216.137-4.51-.262-6.702-.73-1.298-.279-2.456-1.178-3.697-1.753-2.024-.937-2.758-2.802-3.372-4.713-.58-1.803-1.18-3.624-1.486-5.484-.383-2.328-.581-4.701-.662-7.06a52.281 52.281 0 0 1 .193-6.77c.27-2.814.67-5.623 1.186-8.403.485-2.618.976-5.274 1.874-7.766.684-1.895 2.001-3.562 3.051-5.322 1.242-2.08 3.156-3.447 5.331-4.243 2-.73 4-.582 6.134.422 2.639 1.243 3.353 3.518 4.296 5.795.511 1.232 1.166 2.467.57 3.865-.097.228-.234.505-.432.612-1.059.57-2.148 1.084-3.218 1.633-.872.447-1.703 1-2.617 1.325-.27.095-.997-.354-1.105-.686-.385-1.191-.575-2.444-.884-3.662-.062-.246-.346-.645-.484-.627-.676.086-1.531.09-1.957.502-.568.55-.83 1.433-1.165 2.2-.562 1.28-1.187 2.549-1.59 3.881-.608 2.004-1.089 4.05-1.542 6.095-.24 1.08-.307 2.196-.52 3.816zm216.484-26.31c1.24.488 2.51.915 3.718 1.475 3.39 1.573 4.265 4.73 4.92 8.003.271 1.36.635 2.715.754 4.09.165 1.927.245 3.875.169 5.806-.113 2.891-.42 5.776-.583 8.667-.049.851.211 1.723.152 2.573-.147 2.13-.37 4.255-.613 6.377-.174 1.52-.294 3.066-.676 4.538-.74 2.854-1.487 5.73-2.57 8.46-.417 1.053-1.729 1.774-2.686 2.582-1.314 1.107-2.8 1.931-4.55 2.018-.937.047-1.896-.077-2.824-.242-1.295-.231-2.699-.336-3.815-.941-.872-.474-1.639-1.53-1.99-2.496-.67-1.844-1.136-3.788-1.451-5.729-.257-1.581-.143-3.22-.245-4.83-.044-.7-.282-1.39-.321-2.093-.1-1.772-.127-3.547-.203-5.32-.04-.902-.2-1.805-.164-2.702.047-1.129.28-2.248.36-3.377.141-2 .195-4.007.356-6.006.069-.86.285-1.714.481-2.56.735-3.168 1.314-6.388 2.304-9.476.566-1.765 1.748-3.356 2.774-4.947 1.264-1.96 3.183-3.015 5.432-3.497.384-.082.782-.103 1.174-.152l.097-.221zm51.165 25.687c-1.564.967-2.738 1.993-4.102 2.464-1.966.68-1.488 1.876-1.215 3.269.318 1.632.428 3.303.664 4.951.288 2.026.663 4.04.907 6.07.21 1.756.228 3.535.452 5.29.176 1.383.442 2.773.844 4.106.304 1.006-.45 2.025-1.756 2.134-.887.073-1.812.42-2.639.249-.663-.138-1.546-.765-1.73-1.36-.591-1.9-.967-3.877-1.306-5.844a216.45 216.45 0 0 1-1.322-8.761c-.207-1.592-.237-3.206-.351-4.81-.235-3.315-.569-6.626-.683-9.945-.098-2.844.013-5.697.108-8.544.088-2.602.187-5.21.451-7.798.205-2.001.574-4 1.09-5.942.14-.532 1.3-1.325 1.594-1.182.798.39 1.64 1.107 1.98 1.9.38.888.224 2.002.309 3.128.776-.62 1.508-1.23 2.265-1.807 1.514-1.154 3.244-1.786 5.135-1.82 3.675-.065 5.476 2.577 7.034 5.27 1.323 2.288 1.316 4.905 1.317 7.536.002 2.046-.76 3.718-1.672 5.354-.523.937-1.4 1.768-2.299 2.383-1.436.98-1.41 1.166-.52 2.665 1.136 1.912 2.058 3.964 2.922 6.02.671 1.6 1.259 3.263 1.622 4.955.457 2.128.69 4.309.938 6.476.211 1.84.36 3.69.44 5.54.07 1.653.146 3.33-.068 4.96-.076.583-.95 1.11-1.538 1.562-.35.269-.86.493-1.284.469-1.013-.057-2.04-.193-3.01-.472-.272-.078-.503-.76-.524-1.175-.13-2.666-.113-5.34-.315-8-.145-1.918-.551-3.815-.848-5.72-.335-2.148-.585-4.314-1.04-6.436-.506-2.356-1.202-4.67-1.85-7.135zM159.685 74.834c-2.818-.185-5.064-.641-6.728-2.36-.747-.77-1.233-1.85-1.655-2.864-.685-1.648-1.335-3.329-1.783-5.052-.418-1.607-.59-3.283-.804-4.937-.278-2.148-.588-4.3-.699-6.458-.073-1.403.19-2.822.283-4.236.024-.361-.071-.732-.036-1.09.263-2.734.379-5.496.87-8.19.471-2.579 1.266-5.109 2.06-7.616.455-1.434 1.203-2.772 1.795-4.164.14-.332.108-.75.287-1.05 1.416-2.368 3.302-4.228 6.123-4.661 1.676-.257 3.534-.483 5.01.561 1.299.919 2.476 2.098 3.449 3.36.805 1.047 1.405 2.33 1.796 3.6 1.13 3.664 2.337 7.308 1.845 11.284-.25 2.015.052 4.091-.002 6.137-.042 1.504-.255 3.004-.398 4.505-.146 1.528-.28 3.057-.462 4.58-.074.62-.25 1.23-.4 1.84-.241.989-.453 1.99-.759 2.959-.777 2.464-1.367 5.027-2.477 7.336a19.668 19.668 0 0 1-3.924 5.47c-.857.835-2.547.812-3.39 1.046zm319.994-21.67c-2.207-.444-4.255.134-6.276.961a8.587 8.587 0 0 1-1.876.52c-.235.038-.609-.149-.762-.35-.671-.887-2.018-1.732-.765-3 2.525-2.555 5.576-4.213 9.118-4.93.808-.163 1.293-.543 1.207-1.511-.157-1.785-.129-3.589-.328-5.367-.173-1.54-.546-3.059-.846-4.585-.17-.868-.228-1.796-.592-2.578-.393-.843-1.075-1.554-1.664-2.296-.06-.075-.39-.023-.53.068-1.358.891-2.407 2.013-3.243 3.46-1.64 2.84-2.309 5.992-3.097 9.078-.821 3.216-1.216 6.54-1.8 9.817-.218 1.22-.544 2.429-.641 3.657-.113 1.45.01 2.918-.043 4.375-.109 3.02-.295 6.037-.388 9.058-.038 1.215.184 2.443.106 3.652-.055.827-.413 1.636-.67 2.442-.048.15-.25.278-.41.36-1.227.633-4.35-.99-4.562-2.397-.373-2.472-.893-4.943-1-7.428-.098-2.303.258-4.627.424-6.94.156-2.17.3-4.342.501-6.508.096-1.028.358-2.04.465-3.068.147-1.407.177-2.83.335-4.236.137-1.22.368-2.43.582-3.64.218-1.232.393-2.479.72-3.683a63.952 63.952 0 0 1 1.542-4.818c.34-.945.735-1.894 1.269-2.74 1.216-1.927 2.402-3.898 3.842-5.652 1.816-2.213 4.285-1.913 6.7-1.168 1.12.348 2.256.746 3.255 1.34.528.316.794 1.09 1.143 1.678.165.282.245.613.434 1.099.28-.861.451-1.554.737-2.195.14-.315.454-.688.759-.767.685-.178 1.422-.291 2.125-.244.956.065 1.097.882 1.112 1.636.038 2.076-.037 4.157.056 6.23.091 2.081.352 4.156.493 6.236.054.79-.003 1.588-.042 2.38-.154 3.118-.367 6.233-.468 9.353-.065 2.03.08 4.068.031 6.1a136.855 136.855 0 0 1-.357 6.71 148.44 148.44 0 0 1-.656 6.854c-.13 1.076-.444 2.133-.705 3.19-.293 1.18-1.303 1.706-2.289 1.952-.427.107-1.063-.624-1.694-1.033-.937.605-1.822.162-1.832-1.245-.02-2.792-.058-5.589.067-8.377.158-3.513.477-7.018.706-10.528.019-.297-.122-.604-.193-.922zM214.652 32.108c-1.655-.393-2.783.343-3.539 1.824-.661 1.297-1.466 2.533-2.319 3.716-.853 1.183-1.005 2.51-1.09 3.877a356.67 356.67 0 0 0-.261 4.843c-.073 1.527-.131 3.053-.192 4.58-.08 1.987-.292 3.98-.196 5.957.085 1.739.529 3.459.791 5.191.197 1.311.332 2.632.541 3.94.242 1.516.631 3.015.77 4.537.084.925.011 1.977-.382 2.78-.186.38-1.289.39-1.982.42-.693.027-1.397-.21-2.092-.191-1.355.035-2.587-1.358-2.49-2.74.048-.695-.208-1.41-.319-2.117-.15-.95-.304-1.901-.437-2.854-.183-1.3-.37-2.597-.515-3.9-.12-1.086-.17-2.178-.273-3.267-.086-.909-.202-1.816-.311-2.723-.065-.544-.187-1.086-.21-1.632-.084-1.882-.138-3.765-.203-5.649-.051-1.486-.117-2.97-.146-4.456-.007-.38.104-.762-.1-1.134l.406-7.812c0-1.477-.056-2.56.014-3.635.097-1.533.294-3.059.434-4.59.13-1.427.302-2.854.345-4.283.044-1.506 2.368-2.851 3.802-2.137 1.915.956 2.655 2.526 2.51 5.037a16.957 16.957 0 0 0 .316 4.496c.767-.947 1.53-1.896 2.3-2.84.727-.891 1.362-1.894 2.222-2.63.66-.565 1.578-.964 2.439-1.13 1.71-.331 3.475-.16 4.904.87.695.501 1.145 1.48 1.468 2.334 1.173 3.092 1.175 6.29.717 9.527-.142 1.008-.014 2.05-.07 3.072-.075 1.412-.203 2.823-.316 4.232-.204 2.578-.405 5.155-.629 7.731-.04.48-.183.95-.108 1.425 0 .466-.033.935.006 1.398.215 2.63.319 5.279.715 7.882.303 1.99.962 3.928 1.503 5.879.317 1.144-.251 2.647-1.319 3.123-.273.121-.668-.06-.981.01-.627.14-1.227.408-1.854.538-1.671.348-3.252-.617-3.822-2.739-.646-2.402-.969-4.893-1.38-7.355a25.985 25.985 0 0 1-.335-3.34 78.965 78.965 0 0 1-.002-4.662c.047-1.992.123-3.984.224-5.974.223-4.414.443-8.83.733-13.24.048-.721.452-1.418.713-2.19zm155.724 34.68c1.932-.039 1.88-1.496 2.342-2.37.594-1.12.985-2.365 1.335-3.593.274-.962.344-1.98.52-2.972.13-.734.336-1.458.416-2.197.232-2.11.474-4.224.605-6.342.232-3.777.437-7.557.555-11.34.102-3.29.021-6.587.12-9.878.045-1.505.16-3.047.548-4.489.4-1.475 3.427-1.602 4.629-.498 2.036 1.87 1.444 4.176 1.385 6.432-.073 2.663-.12 5.327-.173 7.99-.05 2.462-.13 4.925-.137 7.387-.008 3.023.062 6.046.066 9.07.003 1.449-.1 2.898-.093 4.347.007 1.448.127 2.896.133 4.343.007 1.44-.187 2.89-.073 4.318.135 1.705.511 3.39.769 5.086.072.478.209.991.107 1.441-.128.563-2.658 1.31-3.537 1.26-1.578-.092-2.308-1.218-2.763-2.416-.296-.78-.609-.567-1-.361-1.187.622-2.298 1.412-3.53 1.918-2.04.84-4.153 1.077-6.146-.186-.984-.623-2.113-1.198-2.785-2.09-1.029-1.363-1.851-2.926-2.514-4.507-.591-1.41-.991-2.939-1.215-4.454-.255-1.728-.207-3.5-.317-5.25-.143-2.248-.373-4.493-.442-6.743-.034-1.096.275-2.197.32-3.3.093-2.298.044-4.603.186-6.897.129-2.085.32-4.179.685-6.232.568-3.185 1.254-6.353 1.993-9.504.546-2.33 2.827-3.215 4.93-1.858 1.362.88 1.87 1.778 1.372 3.565-.461 1.659-.062 3.545-.122 5.329-.117 3.456-.242 6.914-.46 10.365-.095 1.527-.483 3.034-.63 4.56a47.85 47.85 0 0 0-.193 4.405c-.01 3.232-.088 6.47.106 9.692.105 1.764.569 3.548 1.17 5.214.174.481 1.39.587 1.838.756zM175.313 60.31c-.054-.038-.039-.042 0-.026zm0-.026v-9.287c.099-.186.247-.34.258-.503.15-2.242.286-4.486.418-6.73.115-1.964.151-3.936.346-5.893.283-2.823.676-5.635 1.027-8.451.219-1.753.182-3.603.772-5.222.333-.91.451-2.531 1.961-2.618.873-.05 1.793.245 2.644.528.243.08.456.665.45 1.014-.032 1.732-.141 3.462-.224 5.192l-.154 3.172c.97-1.32 1.708-2.37 2.49-3.385 1.604-2.085 5.434-3.429 7.835-2.468.798.32 1.658 1.473 1.77 2.338.366 2.83.506 5.703.526 8.56.015 2.024-.354 4.047-.459 6.075a32.636 32.636 0 0 0 .059 4.082c.15 2.023.4 4.038.608 6.056.257 2.491.606 4.978.736 7.476.087 1.643-.212 3.303-.204 4.956.006 1.341.222 2.681.329 4.023.08 1.004.222 2.014.173 3.013-.04.82-.417 1.294-1.484 1.163-.941-.115-1.946.173-2.908.361-2.208.432-3.11-.354-3.751-2.163-.455-1.285-.52-2.715-.7-4.089-.247-1.877-.525-3.756-.628-5.642-.095-1.74.06-3.492.032-5.237-.016-.94-.276-1.877-.269-2.815.014-1.722.177-3.441.21-5.162.018-.855-.182-1.715-.16-2.57.026-1.05.197-2.096.277-3.146.13-1.73.205-3.467.37-5.194.057-.606.345-1.187.46-1.792.047-.252-.085-.537-.136-.807-.237.098-.526.14-.702.303-1.879 1.73-2.052 4.302-3.135 6.43-.57 1.117-1.21 2.286-1.387 3.496-.217 1.478-.034 3.025.071 4.537.156 2.231.357 4.461.619 6.683.123 1.047.508 2.062.635 3.109.085.7-.102 1.428-.12 2.145a16.77 16.77 0 0 0 .066 1.779c.086 1.058.28 2.113.28 3.17.001 1.81-.046 3.626-.233 5.422-.038.355-.751.76-1.229.928-1.45.515-2.912 1.13-4.418 1.326-1.882.246-2.742-.683-2.937-2.588-.127-1.228-.41-2.45-.42-3.675-.017-2.06.117-4.12.213-6.18.023-.52.177-1.036.197-1.556.002-.067-.113-.14-.174-.164zm265.366-2.207c.21-.788.364-1.597.644-2.361.585-1.603 1.229-3.185 1.865-4.77.334-.834 2.548-1.28 3.303-.745 1.4.993 1.512 2.437 1.69 3.975.182 1.564.707 3.087 1.158 4.943.152-.933.238-1.582.366-2.224.456-2.278 1.067-4.535 1.356-6.832.379-3.02.494-6.075.75-9.111.186-2.201.446-4.397.618-6.6.19-2.425.381-4.853.448-7.283.067-2.436 1.872-3.828 4.244-3.137.633.184 1.28.332 1.893.57.29.114.591.353.755.617 1.819 2.937 1.364 6.152 1.113 9.344-.169 2.146-.186 4.313-.485 6.44-.283 2.007-.865 3.97-1.273 5.962-.135.656-.093 1.348-.21 2.01-.147.83-.39 1.645-.565 2.472-.47 2.234-.84 4.492-1.406 6.701-.763 2.979-1.644 5.928-2.53 8.873-.378 1.258-.94 2.46-1.326 3.715-.108.351.014.861.206 1.2.556.98.28 1.674-.8 1.904-.868.184-1.775.724-2.57.58-.98-.177-2.206-.672-2.71-1.436-1.03-1.564-1.65-3.398-2.574-5.42-.583 1.839-1.097 3.448-1.604 5.06-.655 2.08-1.94 3.138-3.695 2.74-1.448-.33-2.597-1.22-3.186-2.688-.49-1.22-1.071-2.406-1.519-3.64-1.006-2.778-2.035-5.55-2.897-8.374-.631-2.068-1.073-4.202-1.483-6.329-.32-1.669-.422-3.379-.698-5.059-.267-1.627-.67-3.233-.943-4.86-.27-1.602-.439-3.221-.673-4.83-.121-.835-.353-1.658-.419-2.494-.126-1.587-.122-3.184-.259-4.769-.161-1.859-.495-3.705-.596-5.567-.05-.916-.065-2.194.475-2.703.944-.89 2.287-1.397 3.738-.71 1.031.49 2.106.922 3.204 1.223 1.595.44 1.455 1.798 1.648 2.932.297 1.74.488 3.501.66 5.26.248 2.523.356 5.062.68 7.575.216 1.669.75 3.293 1.06 4.953.26 1.394.368 2.816.608 4.214.125.734.44 1.436.577 2.17.22 1.17.36 2.357.544 3.536.066.422.178.836.25 1.256.096.562.172 1.128.258 1.692zm-338.905 29.52c-3.486-.355-6.53-2.721-6.946-5.943-.237-1.825-1.017-3.573-1.35-5.392-.288-1.568-.275-3.189-.419-4.785-.229-2.551-.615-5.096-.683-7.652-.087-3.286.153-6.58.106-9.87-.038-2.707-.309-5.412-.436-8.12-.047-.997.107-2.007.023-2.998-.226-2.644-.572-5.277-.788-7.921-.11-1.357-.052-2.728-.052-4.093-.002-2.363.04-4.726-.016-7.087-.007-.34-.422-.915-.705-.953-.634-.084-1.321.034-1.957.19-1.535.376-3.03.998-4.583 1.194-1.863.236-3.771.097-5.656.189-1.93.092-3.855.283-5.784.404-1.81.112-3.621.18-5.431.284-1.065.062-2.125.197-3.19.23-1.99.063-3.98.074-5.972.108-1.493.024-2.986.086-4.478.057-.56-.01-1.11-.274-1.675-.338-.776-.088-1.597.037-2.334-.165-1.355-.373-2.646-.328-3.594.697-.915.988-1.97 1.392-3.227 1.656-1.706.36-2.84 1.55-3.535 3.088-.248.549-.166 1.253-.204 1.888a250.864 250.864 0 0 0-.196 3.974c-.004.094.088.19.123.29.584 1.606 1.16 3.216 1.75 4.82.444 1.205.753 2.493 1.393 3.584.975 1.665 2.168 3.203 3.307 4.767.272.374.728.609 1.035.963.661.76-.056 1.064-.51 1.49a442.009 442.009 0 0 0-4.692 4.483c-1.253 1.211-2.473 2.456-3.74 3.652-1.61 1.519-3.187 3.084-4.903 4.474-1.194.967-2.621 1.638-3.905 2.5a291.746 291.746 0 0 0-6.373 4.388c-2.085 1.48-4.622 2.384-6.048 4.713-.046.075-.197.078-.262.148-.518.553-1.297 1.038-1.477 1.687-.332 1.194-.977 1.958-1.862 2.801-1.639 1.564-1.92 3.656-1.572 5.9.28 1.814.949 3.216 2.83 3.694 1.212.307 2.45.538 3.692.68 1.607.187 3.227.294 4.845.353 1.269.047 2.543-.004 3.813-.064.957-.045 1.91-.258 2.863-.242 1.427.024 2.85.23 4.276.275 1.95.063 3.905.004 5.854.08 1.974.076 3.943.319 5.916.363 1.449.033 2.902-.205 4.352-.205 2.298 0 4.596.106 6.894.153 1.484.03 2.97.003 4.452.059 1.618.062 3.233.204 4.851.283.498.024 1.001-.086 1.5-.072 1.65.046 3.298.154 4.947.175 1.661.021 3.322-.041 4.983-.052 1.106-.009 2.212.005 3.318.016 2.082.02 4.172.154 6.247.029 1.167-.07 2.293-.71 3.465-.831 1.465-.15 2.958-.015 4.438-.035 2.5-.034 4.999-.069 7.495-.157.895-.031 1.793-.18 2.676-.344.558-.105 1.13-.268 1.625-.538.368-.2.608-.626.928-.928 1.01-.952.714-2.757-.54-3.423-.927-.493-1.822-1.047-2.74-1.58 1.032-.294 1.962-.798 2.878-.774 2.97.078 5.937.323 8.901.555 2.181.17 4.358.405 6.533.641 2.65.287 5.292.707 7.95.88 2.127.137 4.272.01 6.408-.036 1.465-.032 2.928-.167 4.392-.184 2.586-.03 5.174-.063 7.76.009 4.434.122 8.865.346 13.3.484 1.738.054 3.482.064 5.216-.037 1.873-.11 3.733-.441 5.605-.548 1.827-.105 3.665.006 5.493-.078 2.248-.103 4.489-.392 6.737-.454 2.894-.08 5.794-.018 8.69-.012 2.672.007 5.347-.045 8.015.057 1.577.06 3.14.427 4.718.547 2.489.19 4.987.271 7.48.43 1.204.076 2.404.324 3.607.32 3.56-.01 7.12-.148 10.68-.152 1.84-.003 3.685.115 5.518.283 1.911.175 3.816.447 5.715.727 1.257.185 2.495.491 3.75.684 1.738.267 3.478.559 5.228.693 1.84.14 3.698.23 5.535.117 3.004-.186 5.997-.549 8.994-.85 3.586-.358 7.17-.739 10.757-1.093 1.75-.173 3.5-.348 5.254-.446 1.336-.074 2.68.011 4.018-.045 2.95-.126 5.896-.361 8.847-.428 3.11-.072 6.227.073 9.336-.012 2.81-.075 5.613-.353 8.421-.5.899-.047 1.805.053 2.708.062 1.31.015 2.62-.014 3.927.019 1.233.03 2.463.145 3.695.175 1.434.035 2.87-.02 4.304.033 1.753.064 3.505.281 5.256.276 1.775-.004 3.553-.317 5.325-.283 3.014.058 6.024.337 9.038.418 2.41.064 4.828-.112 7.237-.029 2.41.084 4.815.334 7.217.558 1.445.135 2.88.503 4.32.517 2.802.025 5.607-.207 8.408-.173 1.846.023 3.687.324 5.531.5 1.719.163 3.437.44 5.157.457 1.93.02 3.862-.199 5.793-.308 1.974-.111 3.95-.18 5.92-.33 2.168-.168 4.328-.426 6.495-.606.697-.058 1.506.234 2.088-.026 2.421-1.083 4.86-.357 7.286-.245 2.806.128 5.604.421 8.409.53 1.655.065 3.318-.09 4.978-.143 3.544-.112 7.087-.218 10.63-.333 2.768-.09 5.534-.225 8.303-.277 2.533-.047 5.07.051 7.6-.029 2.044-.065 4.08-.366 6.124-.44 1.826-.067 3.658.036 5.486.059 2.475.029 4.95.044 7.425.082 2.075.031 4.15.09 6.225.127 1.863.033 3.726.089 5.588.074 2.305-.019 4.611-.051 6.913-.17 2.03-.104 4.053-.364 6.083-.498 1.134-.073 2.275-.032 3.412-.036 1.638-.005 3.283-.109 4.91.023 2.064.166 4.107.62 6.172.772 1.814.133 3.646-.02 5.468.025 1.344.032 2.684.224 4.026.254.867.02 1.737-.189 2.605-.182 1.35.01 2.701.164 4.052.173 2.082.013 4.165-.042 6.248-.077.316-.005.63-.065.947-.088 1.864-.132 3.726-.31 5.592-.379 2.368-.087 4.739-.071 7.108-.123 1.486-.032 2.975-.19 4.457-.147 2.423.072 4.841.313 7.263.382 1.253.037 2.512-.173 3.77-.22 2.4-.092 4.802-.153 7.204-.216 3.326-.088 6.65-.177 9.976-.24.802-.015 1.609.132 2.408.094 2.804-.135 5.604-.35 8.409-.469 1.868-.079 3.743 0 5.61-.081 1.374-.06 2.743-.264 4.115-.405l.126.36c-.372.285-.75.56-1.112.856-1.073.878-2.52 1.502-2.482 3.202.04 1.809 2.386 3.456 4.408 3.288 1.935-.16 3.88-.219 5.822-.242 2.9-.034 5.802-.009 8.702.014 1.229.008 2.47.206 3.683.083 1.615-.164 3.197-.692 4.811-.812 1.832-.137 3.686-.029 5.528.033 2.288.076 4.576.312 6.862.293 1.895-.016 3.785-.354 5.682-.46 3.758-.21 7.52-.361 11.28-.526.433-.019.87.046 1.306.038 1.448-.027 2.894-.114 4.34-.093 1.759.027 3.516.158 5.275.211 2.431.072 4.864.123 7.296.162 1.108.018 2.218-.014 3.327-.02.265-.002.53.01.795.016 2.09.04 4.18.11 6.27.112 1.512.002 3.024-.084 4.537-.133.649-.02 1.3-.1 1.944-.057 1.326.087 2.646.323 3.97.336 1.084.01 2.18-.153 3.248-.361.468-.091.877-.483 1.31-.743.186-.112.35-.284.55-.347.853-.268 1.737-.453 2.564-.781.298-.119.634-.538.666-.85.083-.795.076-1.616-.028-2.408-.117-.899-.261-1.827-.605-2.654-.635-1.526-1.314-3.055-2.179-4.457-1.103-1.79-2.249-3.604-3.669-5.136-1.616-1.741-3.539-3.2-5.358-4.748-.747-.635-1.522-1.267-2.372-1.746-1.17-.66-2.44-1.142-3.636-1.761-.771-.399-1.458-.962-2.234-1.35-2.61-1.304-5.317-2.432-7.842-3.881-1.746-1.003-3.252-2.425-4.976-3.744 1.934-1.352 1.95-2.992 1.868-4.773-.055-1.21.206-2.459.482-3.653.349-1.5.87-2.96 1.294-4.444.328-1.15.56-2.328.95-3.454.265-.763.725-1.456 1.1-2.18.61-1.178 1.307-2.32 1.807-3.542a18.691 18.691 0 0 0 1.098-3.666c.203-1.103-.083-2.133-.763-3.154-.582-.874-.733-2.038-1.052-3.082-.023-.075.134-.204.24-.356-.255 0-.474.065-.617-.011-.507-.268-.96-.766-1.485-.852-2.22-.361-4.46-.61-6.693-.893-1.576-.199-3.156-.573-4.726-.538-2.634.06-5.263.385-7.894.591-1.596.125-3.19.271-4.789.341-1.847.08-3.704.2-5.544.09-1.606-.097-3.187-.641-4.79-.715-2.707-.125-5.424-.049-8.137-.027-1.408.012-2.817.081-4.225.14-1.326.055-2.654.084-3.972.213-1.205.116-2.398.353-3.599.53-.07.01-.15-.051-.227-.064-2.727-.429-5.427-.949-8.237-.712-.974.082-2.036-.534-3.01-.945-.56-.237-1.025-.702-1.532-1.063-.185.574-.601 1.188-.512 1.716.332 1.966.838 3.901 1.263 5.851.518 2.374 1.093 4.739 1.506 7.131.32 1.862.465 3.757.622 5.643.17 2.03.286 4.065.384 6.1.068 1.396.01 2.8.118 4.194.098 1.277.375 2.54.513 3.815.14 1.297.22 2.6.299 3.902.083 1.379.122 2.76.202 4.138.08 1.39.153 2.78.29 4.165.096.97.5 1.951.406 2.891-.298 3.05-.821 6.078-1.144 9.126-.326 3.083-1.633 5.709-3.534 8.065-.5.62-1.02 1.603-1.989 1.068.588-1.651 1.316-3.219 1.682-4.867.36-1.616.366-3.312.495-4.976.174-2.236.336-4.472.464-6.71.06-1.052.057-2.108.039-3.16-.029-1.71-.046-3.421-.16-5.125-.068-1.015-.373-2.014-.463-3.03-.18-2.041-.285-4.09-.425-6.135-.05-.729-.142-1.455-.156-2.184-.01-.523.176-1.062.099-1.567-.07-.455-.38-.873-.7-1.554l.516.25c.062-.767.138-1.581.194-2.397.024-.335.047-.68-.001-1.01-.106-.724-.344-1.437-.372-2.162-.058-1.52-.017-3.043-.017-4.806.032-.012.225-.18.216-.336-.09-1.52-.165-3.046-.373-4.552-.225-1.646-.566-3.278-.896-4.91-.29-1.43-.67-2.842-.94-4.275-.26-1.383-.38-2.793-.664-4.17-.138-.671-.484-1.305-.78-1.936-.4-.855-.711-1.8-1.301-2.509-.674-.81-1.631-1.257-2.789-1.324-2.044-.117-4.076-.548-6.116-.565-3.525-.03-7.052.26-10.575.223-2.73-.028-5.455-.381-8.186-.53a368.404 368.404 0 0 0-8.718-.358c-3.402-.105-6.807-.115-10.207-.262-2.154-.093-4.298-.386-6.45-.543-1.521-.11-3.048-.152-4.572-.206-2.022-.073-4.046-.177-6.07-.176-1.708.002-3.417.127-5.127.208-1.298.06-2.596.195-3.894.19-1.88-.005-3.76-.112-5.641-.167-2.241-.065-4.481-.15-6.722-.172-2.11-.02-4.22-.003-6.33.07-1.146.04-2.285.295-3.433.34-1.875.073-3.755.051-5.632.077-1.512.02-3.023.06-4.535.08-1.37.018-2.741.022-4.112.032-.318.002-.639.028-.953-.004-1.145-.115-2.286-.304-3.434-.364-1.523-.08-3.053-.03-4.578-.1-1.415-.066-2.825-.287-4.24-.313-2.513-.047-5.028.05-7.54-.007-1.648-.037-3.293-.236-4.938-.368-1.704-.136-3.405-.332-5.112-.404-1.677-.071-3.361.014-5.04-.03-2.372-.064-4.743-.27-7.112-.252-2.072.017-4.139.293-6.211.392-1.446.069-2.899-.014-4.343.054-2.435.113-4.863.326-7.297.435-2.174.098-4.352.087-6.525.175-1.155.047-2.303.253-3.458.295-1.344.05-2.695-.049-4.038.006-1.286.054-2.566.294-3.851.323-2.044.046-4.09-.008-6.136-.032a609.512 609.512 0 0 1-6.879-.104c-.622-.014-1.249-.207-1.862-.163-1.74.124-3.472.365-5.212.493-2.267.168-4.54.25-6.807.409-2.105.148-4.205.378-6.309.52-1.673.113-3.353.138-5.028.222-.97.05-1.938.208-2.906.199-1.988-.019-3.975-.13-5.963-.174-1.029-.023-2.06.055-3.086.017-2.118-.078-4.235-.198-6.351-.313-1.09-.058-2.177-.196-3.265-.2-1.67-.006-3.34.078-5.01.11-.695.013-1.392-.01-2.088-.017-1.354-.017-2.708-.067-4.062-.045-1.5.025-3 .185-4.5.16-1.647-.028-3.295-.314-4.937-.277-1.909.043-3.809.4-5.717.466-2.377.082-4.76.037-7.14-.015-.967-.022-1.927-.246-2.895-.305-1.014-.063-2.035 0-3.05-.061-1.118-.069-2.23-.241-3.347-.32-.445-.03-.9.113-1.347.096-.793-.03-1.581-.168-2.372-.18-1.053-.015-2.109.106-3.16.065-1.733-.067-3.463-.262-5.196-.317-1.391-.043-2.788.108-4.177.053-1.883-.075-3.762-.375-5.643-.38-2.549-.005-5.097.184-7.646.28-2.589.096-5.179.162-7.767.28-1.17.053-2.333.238-3.502.29-1.57.07-3.146.026-4.715.11-2.042.107-4.077.366-6.118.424-2.543.071-5.092.05-7.636-.018-1.998-.054-3.992-.294-5.991-.351-2.55-.072-5.102-.062-7.653-.05-1.52.006-3.044.025-4.557.145-1.505.12-2.994.504-4.496.54-2.546.06-5.099-.137-7.645-.085-2.237.045-4.469.294-6.705.43-.824.05-1.654.063-2.48.046-1.565-.03-3.13-.08-4.693-.152-.739-.034-1.475-.134-2.213-.209-1.532-.154-3.061-.36-4.597-.457-1.562-.1-3.14 0-4.693-.16-1.589-.163-3.147-.636-4.737-.792-1.71-.167-3.469.045-5.162-.21-2.661-.398-5.275-.063-7.905.127-1.495.108-2.986.243-4.48.355-.962.072-1.926.13-2.89.184-2.358.138-4.716.294-7.076.394-1.197.051-2.4-.025-3.598-.006-1.694.026-3.386.116-5.08.128-2.455.019-4.914-.05-7.37-.002-2.062.04-4.123.22-6.185.285-.891.027-1.788-.14-2.68-.118-2.094.05-4.186.239-6.28.231-2.583-.01-5.166-.242-7.748-.228-2.359.015-4.716.247-7.075.351-1.943.087-3.897.037-5.829.22-1.266.121-2.512.52-3.752.852-.973.26-2.019.449-2.863.953-1.424.85-2.76 1.87-4.04 2.932-.558.462-.795 1.298-1.333 1.797-1.293 1.201-1.212 2.823-1.302 4.305-.09 1.469.378 2.964.38 4.449.005 2.77-.171 5.54-.23 8.312a84.491 84.491 0 0 0 .043 4.823c.047 1.312.187 2.62.288 3.929.143 1.845.283 3.69.433 5.533.125 1.553.373 3.107.358 4.658-.013 1.202-.273 2.306.045 3.607.397 1.625-.047 3.448-.08 5.188-.025 1.423-.027 2.85.05 4.272.105 1.988.288 3.973.45 5.959.049.6.106 1.2.212 1.79.236 1.323.52 2.637.758 3.96.3 1.68.878 3.203 2.298 4.277l2.355 1.776z"/></g><g><path fill="#00262f" d="M155.673 55.865c-.137-1.314-.388-2.709-.397-4.106-.007-1.162.294-2.324.415-3.49.146-1.407.242-2.818.364-4.226.07-.798.075-1.61.242-2.388.159-.734.553-1.416.733-2.147.362-1.47.55-2.988 1-4.427.324-1.035.821-2.08 1.487-2.925.807-1.026 2.276-.69 3.047.687.72 1.285 1.354 2.582 1.316 4.197-.027 1.176.619 2.353.81 3.555.1.628-.15 1.307-.217 1.966-.215 2.064-.379 4.134-.638 6.194-.248 1.978-.481 3.969-.917 5.91a82.799 82.799 0 0 1-2.032 7.477c-.484 1.486-1.278 2.873-1.98 4.28-.1.203-.573.443-.696.37-.427-.256-.96-.57-1.126-.99a24.868 24.868 0 0 1-1.72-8.712c-.006-.374.185-.752.31-1.225z"/><path fill="none" stroke="#00262f" stroke-linejoin="round" stroke-miterlimit="20" stroke-width="20" d="M155.673 55.865c-.137-1.314-.388-2.709-.397-4.106-.007-1.162.294-2.324.415-3.49.146-1.407.242-2.818.364-4.226.07-.798.075-1.61.242-2.388.159-.734.553-1.416.733-2.147.362-1.47.55-2.988 1-4.427.324-1.035.821-2.08 1.487-2.925.807-1.026 2.276-.69 3.047.687.72 1.285 1.354 2.582 1.316 4.197-.027 1.176.619 2.353.81 3.555.1.628-.15 1.307-.217 1.966-.215 2.064-.379 4.134-.638 6.194-.248 1.978-.481 3.969-.917 5.91a82.799 82.799 0 0 1-2.032 7.477c-.484 1.486-1.278 2.873-1.98 4.28-.1.203-.573.443-.696.37-.427-.256-.96-.57-1.126-.99a24.868 24.868 0 0 1-1.72-8.712c-.006-.374.185-.752.31-1.225z"/></g><g><path fill="#00262f" d="M391.275 43.303c0-2.42.01-4.429-.004-6.438-.007-1.009-.2-2.042-.037-3.018.119-.717.524-1.555 1.076-1.997 1.145-.917 2.408-1.747 3.74-2.355 1.729-.788 3.103.083 3.848 1.793.706 1.615.828 3.207.218 4.758-.39.995-1.102 1.965-1.91 2.673-1.388 1.214-2.943 2.243-4.468 3.29-.652.447-1.404.746-2.463 1.294z"/><path fill="none" stroke="#00262f" stroke-linejoin="round" stroke-miterlimit="20" stroke-width="20" d="M391.275 43.303c0-2.42.01-4.429-.004-6.438-.007-1.009-.2-2.042-.037-3.018.119-.717.524-1.555 1.076-1.997 1.145-.917 2.408-1.747 3.74-2.355 1.729-.788 3.103.083 3.848 1.793.706 1.615.828 3.207.218 4.758-.39.995-1.102 1.965-1.91 2.673-1.388 1.214-2.943 2.243-4.468 3.29-.652.447-1.404.746-2.463 1.294z"/></g><g><path fill="#00262f" d="M349.7 35.079c.211 1.903.553 3.802.595 5.71.045 1.99-.186 3.986-.322 5.978-.115 1.665-.245 3.33-.41 4.991-.121 1.23-.34 2.449-.457 3.678-.226 2.4-.285 4.822-.671 7.194-.16.982-.95 1.877-1.516 2.772a12.308 12.308 0 0 1-1.333 1.707c-1.091 1.19-2.885 1.035-3.558-.39-.549-1.16-1.005-2.402-1.248-3.657-.336-1.733-.556-3.51-.6-5.272-.06-2.419.125-4.843.142-7.264.012-1.728-.142-3.457-.111-5.182.058-3.25.677-6.408 1.763-9.474.364-1.03.577-2.137 1.088-3.085.892-1.654 2.426-2.592 4.242-2.918 1.196-.214 1.887.51 2.026 1.746.13 1.155.31 2.303.468 3.454z"/><path fill="none" stroke="#00262f" stroke-linejoin="round" stroke-miterlimit="20" stroke-width="20" d="M349.7 35.079c.211 1.903.553 3.802.595 5.71.045 1.99-.186 3.986-.322 5.978-.115 1.665-.245 3.33-.41 4.991-.121 1.23-.34 2.449-.457 3.678-.226 2.4-.285 4.822-.671 7.194-.16.982-.95 1.877-1.516 2.772a12.308 12.308 0 0 1-1.333 1.707c-1.091 1.19-2.885 1.035-3.558-.39-.549-1.16-1.005-2.402-1.248-3.657-.336-1.733-.556-3.51-.6-5.272-.06-2.419.125-4.843.142-7.264.012-1.728-.142-3.457-.111-5.182.058-3.25.677-6.408 1.763-9.474.364-1.03.577-2.137 1.088-3.085.892-1.654 2.426-2.592 4.242-2.918 1.196-.214 1.887.51 2.026 1.746.13 1.155.31 2.303.468 3.454z"/></g></g><g><g><path fill="#f9ae3b" d="M490.888 67.837v-5.771c-.003-3.022-.043-6.044.004-9.064.022-1.442.29-2.882.294-4.323.002-1.804-.189-3.608-.231-5.413-.05-2.165-.109-4.335-.017-6.496.072-1.665.308-3.332.587-4.978.377-2.227.81-4.448 1.327-6.647.253-1.078.998-1.606 2.197-1.258.566.164 1.371-.01 1.72.329 1.072 1.041 1.619 2.367 1.56 3.936-.093 2.447-.073 4.898-.141 7.347-.048 1.688-.14 3.376-.255 5.061-.196 2.861-.47 5.717-.63 8.58-.152 2.727-.249 5.46-.283 8.192-.048 3.739-.024 7.48-.001 11.218.003.583.089.953.992.709a39.658 39.658 0 0 1 5.949-1.12c1.512-.169 2.61 1.605 2.283 3.388a49.864 49.864 0 0 0-.296 1.843c-.175 1.195-1.244 1.405-2.065 1.552-2.104.38-4.243.628-6.379.753-1.404.082-2.84-.06-4.235-.274-.454-.07-1.09-.626-1.187-1.063-.48-2.134-.806-4.302-1.193-6.501zm31.799 7.617c-2.79 0-5.582.03-8.373-.018-.877-.015-1.806-.098-2.612-.408-1.362-.523-1.606-1.923-1.744-3.121a85.196 85.196 0 0 1-.578-8.234c-.04-2.131.286-4.268.34-6.405.069-2.791.019-5.586.04-8.38.035-4.29-.036-8.586.171-12.868.156-3.228.59-6.451 1.065-9.652.317-2.145.634-2.323 2.752-2.329a17.298 17.298 0 0 1 3.133.284c.881.161 1.17.839 1.099 1.718-.154 1.882-.262 3.768-.405 5.652-.203 2.67-.41 5.342-.636 8.011-.268 3.173-.61 6.34-.82 9.515-.181 2.734-.314 5.48-.296 8.219.017 2.62.276 5.24.385 7.862.043 1.02-.018 2.045-.057 3.066-.026.678.126.936.917.788 2.012-.373 4.046-.818 6.071-.816.645 0 1.633 1.229 1.848 2.056.289 1.103.007 2.365-.084 3.556-.11 1.442-1.389 1.035-2.216 1.504zm41.432-43.136c-.405 2.394-.922 4.957-1.25 7.544a82.74 82.74 0 0 0-.638 7.674c-.058 1.717.35 3.45.292 5.166-.06 1.814-.477 3.614-.632 5.428-.07.814.166 1.649.176 2.475.025 1.969-.05 3.94.004 5.907.058 2.12.242 4.238.322 6.357.033.9.071 1.834-.125 2.7-.266 1.173-1.402.995-2.217.956-1.132-.054-2.248-.4-3.376-.58-1.543-.243-1.304-1.554-1.358-2.493-.106-1.863.065-3.741.06-5.613a97.729 97.729 0 0 0-.143-5.376c-.136-2.365-.463-4.726-.486-7.09-.015-1.378.464-2.753.608-4.14.142-1.385.136-2.785.205-4.178.085-1.721.122-3.449.288-5.163.204-2.107.477-4.21.805-6.301.206-1.31.568-2.595.903-4.077-1.335 0-2.694.062-4.045-.02-.955-.058-2.047-.083-2.79-.565-.447-.29-.454-1.432-.451-2.19.005-.851-.023-1.927.453-2.49.524-.62 1.58-.944 2.452-1.077 1.189-.18 2.424-.045 3.639-.072 1.28-.029 2.56-.086 3.84-.137 2.715-.106 5.428-.23 8.142-.32.916-.03 1.84-.034 2.752.04 1.033.086 1.21 1.651.889 2.716-.426 1.415-1.134 2.743-1.627 4.142-.426 1.207-1.407.702-2.145.749-1.51.093-3.029.028-4.547.028zm-293.925-1.457c-2.187-.26-3.111-1.976-2.569-4.164.231-.924.177-1.92.413-2.841.067-.264.695-.531 1.072-.54a44.21 44.21 0 0 1 4.094.096c.916.063 1.82.285 2.733.41 1.023.139 2.05.265 3.078.367 2.023.2 4.044.449 6.072.546 1.622.078 3.256.005 4.88-.085.952-.053 1.328.412 1.314 1.235-.013.757-.217 1.51-.244 2.268-.018.512.126 1.03.195 1.536l-.633-.17c.235.329.371.523.675.95-1.252.268-2.402.629-3.575.74-1.626.153-3.276.057-4.899.224-.277.029-.67.84-.676 1.294-.037 2.356.046 4.714.065 7.072.026 3.462.048 6.925.046 10.388-.002 2.885-.152 5.775-.031 8.653.12 2.9.432 5.797.783 8.68.22 1.815.647 3.607 1.02 5.402.26 1.249-.43 1.946-1.663 1.656-.287-.067-.604-.01-.938-.01-.655-1.132-1.38-.09-1.9.156-1.447.685-2.069.483-2.816-.932-1.042-1.972-.733-4.15-1.104-6.22-.332-1.85-.368-3.762-.427-5.649-.056-1.759.068-3.523.036-5.284-.015-.889-.254-1.773-.299-2.665a61.535 61.535 0 0 1-.056-3.925c.029-1.952.15-3.903.145-5.855-.007-3.29-.112-6.578-.11-9.868 0-1.096.2-2.192.322-3.428-1.781 0-3.413.152-5.003-.037zm-23.569 26.574c0-.792.2-1.648-.039-2.36-.592-1.768-.347-3.508-.182-5.278.107-1.15.086-2.312.164-3.466.132-1.94.201-3.893.475-5.815.335-2.348.814-4.678 1.319-6.998.166-.764.652-1.454.904-2.208.179-.53.205-1.112.31-1.668.397-2.107 1.687-3.647 3.184-5.07.229-.218.264-.627.43-.925.731-1.316 1.79-1.717 3.333-1.386 2.457.528 4.146 2.017 5.41 4.112.545.905 1.375 1.687 1.726 2.653.702 1.934-.58 4.755-2.38 5.688-1.05.545-2.533.089-2.769-.956-.305-1.357-1.4-1.399-2.324-1.322-.42.035-.965.88-1.115 1.449-.713 2.688-1.383 5.393-1.917 8.121-.255 1.307-.18 2.677-.245 4.019a481.008 481.008 0 0 0-.201 4.517c-.142 3.66.565 7.186 1.785 10.612.286.808.646 1.73 1.27 2.228.417.334 1.375.097 2.06-.037.706-.136 1.523-.291 2.023-.737.737-.656 1.344-1.522 1.808-2.403.473-.897.676-1.933 1.052-2.887.39-.985 2.324-1.33 3.1-.585.866.832 1.483 1.919 2.887 2.134.756.116 1.202 2.76.737 3.524-.682 1.12-1.268 2.306-2.02 3.377-1.249 1.778-2.258 3.713-4.343 4.844-1.867 1.014-3.8 1.746-5.82 1.403-2.202-.374-4.17-1.393-5.979-2.927-1.76-1.494-2.35-3.483-3.284-5.344-.403-.803-.452-1.786-.661-2.687l-.851-3.65zm-12.863-26.828l-1.516 9.186c2.717-.108 5.32-.049 7.872-.383 1.287-.168 1.863.184 2.081 1.256.179.88.234 1.822.136 2.714-.12 1.102-.43 2.188-.705 3.269-.228.9-.54 1.672-1.79 1.4-.875-.19-1.81-.095-2.699-.239-.812-.132-1.596-.443-2.404-.62-.728-.16-1.478-.368-2.208-.333-1.102.05-.767 1.034-.782 1.646-.081 3.267-.248 6.543-.08 9.801.143 2.76.701 5.497 1.112 8.507 2.762-.45 5.295-.828 7.815-1.283 1.985-.357 3.06.445 3.739 2.756.453 1.542-.003 2.927-.642 4.244-.164.338-.946.444-1.466.525-.538.085-1.102-.005-1.654.007-1.095.023-2.193.11-3.287.088-2.074-.041-4.145-.203-6.218-.202-3.656.001-3.842-1.536-4.457-4.319-.246-1.11-.486-2.231-.603-3.36-.155-1.517-.128-3.053-.29-4.569-.157-1.478-.529-2.935-.672-4.414-.183-1.91-.36-3.837-.31-5.75.072-2.685.335-5.365.554-8.046.185-2.273.249-4.576.677-6.806.624-3.242.963-6.597 2.654-9.537.278-.484.933-.804 1.476-1.071.862-.425 1.746-.893 2.674-1.077 2.929-.58 5.814-.298 8.548.927.373.168.791.928.707 1.304-.383 1.691-.755 3.435-1.526 4.96-.295.586-1.687.973-2.498.863-1.317-.18-2.567-.844-4.238-1.444zm95.947-5.947c.613-.216 1.416-.692 1.59-.522.532.514 1.175 1.3 1.138 1.944-.15 2.596-.565 5.175-.825 7.767-.107 1.06-.018 2.14-.11 3.202-.1 1.166-.286 2.327-.472 3.484-.262 1.631-.57 3.255-.84 4.885-.18 1.094-.388 2.19-.476 3.295-.101 1.266.045 2.56-.142 3.808-.395 2.647-.969 5.267-1.406 7.908-.36 2.178-.695 4.364-.918 6.558-.242 2.36-.309 4.74-.522 7.104-.07.768-.276 1.384-1.406 1.449-1.025.057-1.99.827-3.03 1.03-1.07.21-2.341.392-2.917-.948-.283-.659-.46-1.438-.416-2.147.114-1.931.401-3.85.56-5.78.095-1.154 0-2.327.135-3.474.075-.629.535-1.202.678-1.833.365-1.61.658-3.235.966-4.857.417-2.19.801-4.385 1.24-6.571.364-1.829.784-3.646 1.186-5.466.134-.608.334-1.206.404-1.82.02-.173-.423-.58-.476-.552-1.527.828-3.067.158-4.524-.1-1.346-.24-2.837-.736-3.837-1.609-1.813-1.58-3.505-3.272-4.294-5.803-.994-3.184-1.435-6.407-1.628-9.68-.176-2.99 1.474-4.234 4.315-3.597.585.131 1.131.432 1.71.602.339.1.737.026 1.057.157.36.147.913.403.95.672.185 1.32.159 2.67.333 3.991.302 2.287.249 4.677 2.073 6.521.986.995 3.14.855 4.569.103 1.433-.752 1.893-1.936 2.087-3.527.24-1.97.844-3.915 1.472-5.81.344-1.036 1.28-1.086 1.776-.384zm207.187 17.463c1.792.12 3.51.547 5.073.224.932-.192 1.603-.169 2.329.212.354.185.847.593.841.894-.027 1.67-.087 3.355-.37 4.993-.078.446-.948 1.022-1.495 1.07-2.105.182-4.229.152-6.34.274-.236.013-.614.48-.637.76-.13 1.61-.18 3.228-.243 4.845-.061 1.578-.147 3.158-.145 4.737 0 1.842.047 3.686.145 5.524.06 1.104.255 2.2.39 3.299l.122.967c1.856 1.193 3.83.592 5.789.07 2.533-.673 3.665.404 4.105 3.038.25 1.492-.616 2.082-1.177 3-.075.124-.33.182-.506.196-1.687.134-3.374.353-5.06.348-2.193-.006-4.384-.214-6.577-.295a10.07 10.07 0 0 0-2.151.138c-.841.155-1.494-.003-1.753-.855-.312-1.027-.615-2.073-.753-3.133a78.69 78.69 0 0 1-.523-5.688c-.075-1.33.013-2.67.008-4.004-.005-1.282-.046-2.565-.052-3.847-.01-1.799-.01-3.598.001-5.397.007-1.104.03-2.21.07-3.314.015-.458.1-.912.149-1.37.32-2.974.55-5.962.988-8.92.363-2.452.948-4.873 1.48-7.298.39-1.787.825-3.565 1.292-5.334.648-2.459 1.716-3.34 4.378-3.106 1.326.116 2.66.177 3.977.361 1.614.226 3.236.47 4.808.883.531.14 1.154.746 1.323 1.272.352 1.094.677 2.305.554 3.418-.152 1.376-1.12 1.716-2.558 1.603-1.762-.14-3.54-.11-5.31-.115-1.568-.003-1.358 1.354-1.493 2.245-.224 1.454-.168 2.949-.28 4.422-.1 1.307-.266 2.61-.399 3.883zm-406.692 6.01c-.11 1.402-.434 3.33-.37 5.244.105 3.179-.582 6.489 1.084 9.472.778 1.393 1.578 2.844 2.671 3.973 1.246 1.284 2.64.882 3.43-.742.67-1.377 1.204-2.823 1.925-4.17.222-.414.918-.91 1.302-.842 1.76.32 3.498.791 5.215 1.303.257.077.57.717.5 1.011-.576 2.461-1.182 4.917-1.886 7.345-.735 2.533-2.446 4.317-5.073 4.479-2.216.137-4.51-.262-6.702-.73-1.298-.279-2.456-1.178-3.697-1.753-2.024-.937-2.758-2.802-3.372-4.713-.58-1.803-1.18-3.624-1.486-5.484-.383-2.328-.581-4.701-.662-7.06a52.281 52.281 0 0 1 .193-6.77c.27-2.814.67-5.623 1.186-8.403.485-2.618.976-5.274 1.874-7.766.684-1.895 2.001-3.562 3.051-5.322 1.242-2.08 3.156-3.447 5.331-4.243 2-.73 4-.582 6.134.422 2.639 1.243 3.353 3.518 4.296 5.795.511 1.232 1.166 2.467.57 3.865-.097.228-.234.505-.432.612-1.059.57-2.148 1.084-3.218 1.633-.872.447-1.703 1-2.617 1.325-.27.095-.997-.354-1.105-.686-.385-1.191-.575-2.444-.884-3.662-.062-.246-.346-.645-.484-.627-.676.086-1.531.09-1.957.502-.568.55-.83 1.433-1.165 2.2-.562 1.28-1.187 2.549-1.59 3.881-.608 2.004-1.089 4.05-1.542 6.095-.24 1.08-.307 2.196-.52 3.816zm216.484-26.31c1.24.488 2.51.915 3.718 1.475 3.39 1.573 4.265 4.73 4.92 8.003.271 1.36.635 2.715.754 4.09.165 1.927.245 3.875.169 5.806-.113 2.891-.42 5.776-.583 8.667-.049.851.211 1.723.152 2.573-.147 2.13-.37 4.255-.613 6.377-.174 1.52-.294 3.066-.676 4.538-.74 2.854-1.487 5.73-2.57 8.46-.417 1.053-1.729 1.774-2.686 2.582-1.314 1.107-2.8 1.931-4.55 2.018-.937.047-1.896-.077-2.824-.242-1.295-.231-2.699-.336-3.815-.941-.872-.474-1.639-1.53-1.99-2.496-.67-1.844-1.136-3.788-1.451-5.729-.257-1.581-.143-3.22-.245-4.83-.044-.7-.282-1.39-.321-2.093-.1-1.772-.127-3.547-.203-5.32-.04-.902-.2-1.805-.164-2.702.047-1.129.28-2.248.36-3.377.141-2 .195-4.007.356-6.006.069-.86.285-1.714.481-2.56.735-3.168 1.314-6.388 2.304-9.476.566-1.765 1.748-3.356 2.774-4.947 1.264-1.96 3.183-3.015 5.432-3.497.384-.082.782-.103 1.174-.152l.097-.221zm51.165 25.687c-1.564.967-2.738 1.993-4.102 2.464-1.966.68-1.488 1.876-1.215 3.269.318 1.632.428 3.303.664 4.951.288 2.026.663 4.04.907 6.07.21 1.756.228 3.535.452 5.29.176 1.383.442 2.773.844 4.106.304 1.006-.45 2.025-1.756 2.134-.887.073-1.812.42-2.639.249-.663-.138-1.546-.765-1.73-1.36-.591-1.9-.967-3.877-1.306-5.844a216.45 216.45 0 0 1-1.322-8.761c-.207-1.592-.237-3.206-.351-4.81-.235-3.315-.569-6.626-.683-9.945-.098-2.844.013-5.697.108-8.544.088-2.602.187-5.21.451-7.798.205-2.001.574-4 1.09-5.942.14-.532 1.3-1.325 1.594-1.182.798.39 1.64 1.107 1.98 1.9.38.888.224 2.002.309 3.128.776-.62 1.508-1.23 2.265-1.807 1.514-1.154 3.244-1.786 5.135-1.82 3.675-.065 5.476 2.577 7.034 5.27 1.323 2.288 1.316 4.905 1.317 7.536.002 2.046-.76 3.718-1.672 5.354-.523.937-1.4 1.768-2.299 2.383-1.436.98-1.41 1.166-.52 2.665 1.136 1.912 2.058 3.964 2.922 6.02.671 1.6 1.259 3.263 1.622 4.955.457 2.128.69 4.309.938 6.476.211 1.84.36 3.69.44 5.54.07 1.653.146 3.33-.068 4.96-.076.583-.95 1.11-1.538 1.562-.35.269-.86.493-1.284.469-1.013-.057-2.04-.193-3.01-.472-.272-.078-.503-.76-.524-1.175-.13-2.666-.113-5.34-.315-8-.145-1.918-.551-3.815-.848-5.72-.335-2.148-.585-4.314-1.04-6.436-.506-2.356-1.202-4.67-1.85-7.135zM159.685 74.834c-2.818-.185-5.064-.641-6.728-2.36-.747-.77-1.233-1.85-1.655-2.864-.685-1.648-1.335-3.329-1.783-5.052-.418-1.607-.59-3.283-.804-4.937-.278-2.148-.588-4.3-.699-6.458-.073-1.403.19-2.822.283-4.236.024-.361-.071-.732-.036-1.09.263-2.734.379-5.496.87-8.19.471-2.579 1.266-5.109 2.06-7.616.455-1.434 1.203-2.772 1.795-4.164.14-.332.108-.75.287-1.05 1.416-2.368 3.302-4.228 6.123-4.661 1.676-.257 3.534-.483 5.01.561 1.299.919 2.476 2.098 3.449 3.36.805 1.047 1.405 2.33 1.796 3.6 1.13 3.664 2.337 7.308 1.845 11.284-.25 2.015.052 4.091-.002 6.137-.042 1.504-.255 3.004-.398 4.505-.146 1.528-.28 3.057-.462 4.58-.074.62-.25 1.23-.4 1.84-.241.989-.453 1.99-.759 2.959-.777 2.464-1.367 5.027-2.477 7.336a19.668 19.668 0 0 1-3.924 5.47c-.857.835-2.547.812-3.39 1.046zm319.994-21.67c-2.207-.444-4.255.134-6.276.961a8.587 8.587 0 0 1-1.876.52c-.235.038-.609-.149-.762-.35-.671-.887-2.018-1.732-.765-3 2.525-2.555 5.576-4.213 9.118-4.93.808-.163 1.293-.543 1.207-1.511-.157-1.785-.129-3.589-.328-5.367-.173-1.54-.546-3.059-.846-4.585-.17-.868-.228-1.796-.592-2.578-.393-.843-1.075-1.554-1.664-2.296-.06-.075-.39-.023-.53.068-1.358.891-2.407 2.013-3.243 3.46-1.64 2.84-2.309 5.992-3.097 9.078-.821 3.216-1.216 6.54-1.8 9.817-.218 1.22-.544 2.429-.641 3.657-.113 1.45.01 2.918-.043 4.375-.109 3.02-.295 6.037-.388 9.058-.038 1.215.184 2.443.106 3.652-.055.827-.413 1.636-.67 2.442-.048.15-.25.278-.41.36-1.227.633-4.35-.99-4.562-2.397-.373-2.472-.893-4.943-1-7.428-.098-2.303.258-4.627.424-6.94.156-2.17.3-4.342.501-6.508.096-1.028.358-2.04.465-3.068.147-1.407.177-2.83.335-4.236.137-1.22.368-2.43.582-3.64.218-1.232.393-2.479.72-3.683a63.952 63.952 0 0 1 1.542-4.818c.34-.945.735-1.894 1.269-2.74 1.216-1.927 2.402-3.898 3.842-5.652 1.816-2.213 4.285-1.913 6.7-1.168 1.12.348 2.256.746 3.255 1.34.528.316.794 1.09 1.143 1.678.165.282.245.613.434 1.099.28-.861.451-1.554.737-2.195.14-.315.454-.688.759-.767.685-.178 1.422-.291 2.125-.244.956.065 1.097.882 1.112 1.636.038 2.076-.037 4.157.056 6.23.091 2.081.352 4.156.493 6.236.054.79-.003 1.588-.042 2.38-.154 3.118-.367 6.233-.468 9.353-.065 2.03.08 4.068.031 6.1a136.855 136.855 0 0 1-.357 6.71 148.44 148.44 0 0 1-.656 6.854c-.13 1.076-.444 2.133-.705 3.19-.293 1.18-1.303 1.706-2.289 1.952-.427.107-1.063-.624-1.694-1.033-.937.605-1.822.162-1.832-1.245-.02-2.792-.058-5.589.067-8.377.158-3.513.477-7.018.706-10.528.019-.297-.122-.604-.193-.922zM214.652 32.108c-1.655-.393-2.783.343-3.539 1.824-.661 1.297-1.466 2.533-2.319 3.716-.853 1.183-1.005 2.51-1.09 3.877a356.67 356.67 0 0 0-.261 4.843c-.073 1.527-.131 3.053-.192 4.58-.08 1.987-.292 3.98-.196 5.957.085 1.739.529 3.459.791 5.191.197 1.311.332 2.632.541 3.94.242 1.516.631 3.015.77 4.537.084.925.011 1.977-.382 2.78-.186.38-1.289.39-1.982.42-.693.027-1.397-.21-2.092-.191-1.355.035-2.587-1.358-2.49-2.74.048-.695-.208-1.41-.319-2.117-.15-.95-.304-1.901-.437-2.854-.183-1.3-.37-2.597-.515-3.9-.12-1.086-.17-2.178-.273-3.267-.086-.909-.202-1.816-.311-2.723-.065-.544-.187-1.086-.21-1.632-.084-1.882-.138-3.765-.203-5.649-.051-1.486-.117-2.97-.146-4.456-.007-.38.104-.762-.1-1.134l.406-7.812c0-1.477-.056-2.56.014-3.635.097-1.533.294-3.059.434-4.59.13-1.427.302-2.854.345-4.283.044-1.506 2.368-2.851 3.802-2.137 1.915.956 2.655 2.526 2.51 5.037a16.957 16.957 0 0 0 .316 4.496c.767-.947 1.53-1.896 2.3-2.84.727-.891 1.362-1.894 2.222-2.63.66-.565 1.578-.964 2.439-1.13 1.71-.331 3.475-.16 4.904.87.695.501 1.145 1.48 1.468 2.334 1.173 3.092 1.175 6.29.717 9.527-.142 1.008-.014 2.05-.07 3.072-.075 1.412-.203 2.823-.316 4.232-.204 2.578-.405 5.155-.629 7.731-.04.48-.183.95-.108 1.425 0 .466-.033.935.006 1.398.215 2.63.319 5.279.715 7.882.303 1.99.962 3.928 1.503 5.879.317 1.144-.251 2.647-1.319 3.123-.273.121-.668-.06-.981.01-.627.14-1.227.408-1.854.538-1.671.348-3.252-.617-3.822-2.739-.646-2.402-.969-4.893-1.38-7.355a25.985 25.985 0 0 1-.335-3.34 78.965 78.965 0 0 1-.002-4.662c.047-1.992.123-3.984.224-5.974.223-4.414.443-8.83.733-13.24.048-.721.452-1.418.713-2.19zm155.724 34.68c1.932-.039 1.88-1.496 2.342-2.37.594-1.12.985-2.365 1.335-3.593.274-.962.344-1.98.52-2.972.13-.734.336-1.458.416-2.197.232-2.11.474-4.224.605-6.342.232-3.777.437-7.557.555-11.34.102-3.29.021-6.587.12-9.878.045-1.505.16-3.047.548-4.489.4-1.475 3.427-1.602 4.629-.498 2.036 1.87 1.444 4.176 1.385 6.432-.073 2.663-.12 5.327-.173 7.99-.05 2.462-.13 4.925-.137 7.387-.008 3.023.062 6.046.066 9.07.003 1.449-.1 2.898-.093 4.347.007 1.448.127 2.896.133 4.343.007 1.44-.187 2.89-.073 4.318.135 1.705.511 3.39.769 5.086.072.478.209.991.107 1.441-.128.563-2.658 1.31-3.537 1.26-1.578-.092-2.308-1.218-2.763-2.416-.296-.78-.609-.567-1-.361-1.187.622-2.298 1.412-3.53 1.918-2.04.84-4.153 1.077-6.146-.186-.984-.623-2.113-1.198-2.785-2.09-1.029-1.363-1.851-2.926-2.514-4.507-.591-1.41-.991-2.939-1.215-4.454-.255-1.728-.207-3.5-.317-5.25-.143-2.248-.373-4.493-.442-6.743-.034-1.096.275-2.197.32-3.3.093-2.298.044-4.603.186-6.897.129-2.085.32-4.179.685-6.232.568-3.185 1.254-6.353 1.993-9.504.546-2.33 2.827-3.215 4.93-1.858 1.362.88 1.87 1.778 1.372 3.565-.461 1.659-.062 3.545-.122 5.329-.117 3.456-.242 6.914-.46 10.365-.095 1.527-.483 3.034-.63 4.56a47.85 47.85 0 0 0-.193 4.405c-.01 3.232-.088 6.47.106 9.692.105 1.764.569 3.548 1.17 5.214.174.481 1.39.587 1.838.756zM175.313 60.31c-.054-.038-.039-.042 0-.026zm0-.026v-9.287c.099-.186.247-.34.258-.503.15-2.242.286-4.486.418-6.73.115-1.964.151-3.936.346-5.893.283-2.823.676-5.635 1.027-8.451.219-1.753.182-3.603.772-5.222.333-.91.451-2.531 1.961-2.618.873-.05 1.793.245 2.644.528.243.08.456.665.45 1.014-.032 1.732-.141 3.462-.224 5.192l-.154 3.172c.97-1.32 1.708-2.37 2.49-3.385 1.604-2.085 5.434-3.429 7.835-2.468.798.32 1.658 1.473 1.77 2.338.366 2.83.506 5.703.526 8.56.015 2.024-.354 4.047-.459 6.075a32.636 32.636 0 0 0 .059 4.082c.15 2.023.4 4.038.608 6.056.257 2.491.606 4.978.736 7.476.087 1.643-.212 3.303-.204 4.956.006 1.341.222 2.681.329 4.023.08 1.004.222 2.014.173 3.013-.04.82-.417 1.294-1.484 1.163-.941-.115-1.946.173-2.908.361-2.208.432-3.11-.354-3.751-2.163-.455-1.285-.52-2.715-.7-4.089-.247-1.877-.525-3.756-.628-5.642-.095-1.74.06-3.492.032-5.237-.016-.94-.276-1.877-.269-2.815.014-1.722.177-3.441.21-5.162.018-.855-.182-1.715-.16-2.57.026-1.05.197-2.096.277-3.146.13-1.73.205-3.467.37-5.194.057-.606.345-1.187.46-1.792.047-.252-.085-.537-.136-.807-.237.098-.526.14-.702.303-1.879 1.73-2.052 4.302-3.135 6.43-.57 1.117-1.21 2.286-1.387 3.496-.217 1.478-.034 3.025.071 4.537.156 2.231.357 4.461.619 6.683.123 1.047.508 2.062.635 3.109.085.7-.102 1.428-.12 2.145a16.77 16.77 0 0 0 .066 1.779c.086 1.058.28 2.113.28 3.17.001 1.81-.046 3.626-.233 5.422-.038.355-.751.76-1.229.928-1.45.515-2.912 1.13-4.418 1.326-1.882.246-2.742-.683-2.937-2.588-.127-1.228-.41-2.45-.42-3.675-.017-2.06.117-4.12.213-6.18.023-.52.177-1.036.197-1.556.002-.067-.113-.14-.174-.164zm265.366-2.207c.21-.788.364-1.597.644-2.361.585-1.603 1.229-3.185 1.865-4.77.334-.834 2.548-1.28 3.303-.745 1.4.993 1.512 2.437 1.69 3.975.182 1.564.707 3.087 1.158 4.943.152-.933.238-1.582.366-2.224.456-2.278 1.067-4.535 1.356-6.832.379-3.02.494-6.075.75-9.111.186-2.201.446-4.397.618-6.6.19-2.425.381-4.853.448-7.283.067-2.436 1.872-3.828 4.244-3.137.633.184 1.28.332 1.893.57.29.114.591.353.755.617 1.819 2.937 1.364 6.152 1.113 9.344-.169 2.146-.186 4.313-.485 6.44-.283 2.007-.865 3.97-1.273 5.962-.135.656-.093 1.348-.21 2.01-.147.83-.39 1.645-.565 2.472-.47 2.234-.84 4.492-1.406 6.701-.763 2.979-1.644 5.928-2.53 8.873-.378 1.258-.94 2.46-1.326 3.715-.108.351.014.861.206 1.2.556.98.28 1.674-.8 1.904-.868.184-1.775.724-2.57.58-.98-.177-2.206-.672-2.71-1.436-1.03-1.564-1.65-3.398-2.574-5.42-.583 1.839-1.097 3.448-1.604 5.06-.655 2.08-1.94 3.138-3.695 2.74-1.448-.33-2.597-1.22-3.186-2.688-.49-1.22-1.071-2.406-1.519-3.64-1.006-2.778-2.035-5.55-2.897-8.374-.631-2.068-1.073-4.202-1.483-6.329-.32-1.669-.422-3.379-.698-5.059-.267-1.627-.67-3.233-.943-4.86-.27-1.602-.439-3.221-.673-4.83-.121-.835-.353-1.658-.419-2.494-.126-1.587-.122-3.184-.259-4.769-.161-1.859-.495-3.705-.596-5.567-.05-.916-.065-2.194.475-2.703.944-.89 2.287-1.397 3.738-.71 1.031.49 2.106.922 3.204 1.223 1.595.44 1.455 1.798 1.648 2.932.297 1.74.488 3.501.66 5.26.248 2.523.356 5.062.68 7.575.216 1.669.75 3.293 1.06 4.953.26 1.394.368 2.816.608 4.214.125.734.44 1.436.577 2.17.22 1.17.36 2.357.544 3.536.066.422.178.836.25 1.256.096.562.172 1.128.258 1.692zm-338.905 29.52c-3.486-.355-6.53-2.721-6.946-5.943-.237-1.825-1.017-3.573-1.35-5.392-.288-1.568-.275-3.189-.419-4.785-.229-2.551-.615-5.096-.683-7.652-.087-3.286.153-6.58.106-9.87-.038-2.707-.309-5.412-.436-8.12-.047-.997.107-2.007.023-2.998-.226-2.644-.572-5.277-.788-7.921-.11-1.357-.052-2.728-.052-4.093-.002-2.363.04-4.726-.016-7.087-.007-.34-.422-.915-.705-.953-.634-.084-1.321.034-1.957.19-1.535.376-3.03.998-4.583 1.194-1.863.236-3.771.097-5.656.189-1.93.092-3.855.283-5.784.404-1.81.112-3.621.18-5.431.284-1.065.062-2.125.197-3.19.23-1.99.063-3.98.074-5.972.108-1.493.024-2.986.086-4.478.057-.56-.01-1.11-.274-1.675-.338-.776-.088-1.597.037-2.334-.165-1.355-.373-2.646-.328-3.594.697-.915.988-1.97 1.392-3.227 1.656-1.706.36-2.84 1.55-3.535 3.088-.248.549-.166 1.253-.204 1.888a250.864 250.864 0 0 0-.196 3.974c-.004.094.088.19.123.29.584 1.606 1.16 3.216 1.75 4.82.444 1.205.753 2.493 1.393 3.584.975 1.665 2.168 3.203 3.307 4.767.272.374.728.609 1.035.963.661.76-.056 1.064-.51 1.49a442.009 442.009 0 0 0-4.692 4.483c-1.253 1.211-2.473 2.456-3.74 3.652-1.61 1.519-3.187 3.084-4.903 4.474-1.194.967-2.621 1.638-3.905 2.5a291.746 291.746 0 0 0-6.373 4.388c-2.085 1.48-4.622 2.384-6.048 4.713-.046.075-.197.078-.262.148-.518.553-1.297 1.038-1.477 1.687-.332 1.194-.977 1.958-1.862 2.801-1.639 1.564-1.92 3.656-1.572 5.9.28 1.814.949 3.216 2.83 3.694 1.212.307 2.45.538 3.692.68 1.607.187 3.227.294 4.845.353 1.269.047 2.543-.004 3.813-.064.957-.045 1.91-.258 2.863-.242 1.427.024 2.85.23 4.276.275 1.95.063 3.905.004 5.854.08 1.974.076 3.943.319 5.916.363 1.449.033 2.902-.205 4.352-.205 2.298 0 4.596.106 6.894.153 1.484.03 2.97.003 4.452.059 1.618.062 3.233.204 4.851.283.498.024 1.001-.086 1.5-.072 1.65.046 3.298.154 4.947.175 1.661.021 3.322-.041 4.983-.052 1.106-.009 2.212.005 3.318.016 2.082.02 4.172.154 6.247.029 1.167-.07 2.293-.71 3.465-.831 1.465-.15 2.958-.015 4.438-.035 2.5-.034 4.999-.069 7.495-.157.895-.031 1.793-.18 2.676-.344.558-.105 1.13-.268 1.625-.538.368-.2.608-.626.928-.928 1.01-.952.714-2.757-.54-3.423-.927-.493-1.822-1.047-2.74-1.58 1.032-.294 1.962-.798 2.878-.774 2.97.078 5.937.323 8.901.555 2.181.17 4.358.405 6.533.641 2.65.287 5.292.707 7.95.88 2.127.137 4.272.01 6.408-.036 1.465-.032 2.928-.167 4.392-.184 2.586-.03 5.174-.063 7.76.009 4.434.122 8.865.346 13.3.484 1.738.054 3.482.064 5.216-.037 1.873-.11 3.733-.441 5.605-.548 1.827-.105 3.665.006 5.493-.078 2.248-.103 4.489-.392 6.737-.454 2.894-.08 5.794-.018 8.69-.012 2.672.007 5.347-.045 8.015.057 1.577.06 3.14.427 4.718.547 2.489.19 4.987.271 7.48.43 1.204.076 2.404.324 3.607.32 3.56-.01 7.12-.148 10.68-.152 1.84-.003 3.685.115 5.518.283 1.911.175 3.816.447 5.715.727 1.257.185 2.495.491 3.75.684 1.738.267 3.478.559 5.228.693 1.84.14 3.698.23 5.535.117 3.004-.186 5.997-.549 8.994-.85 3.586-.358 7.17-.739 10.757-1.093 1.75-.173 3.5-.348 5.254-.446 1.336-.074 2.68.011 4.018-.045 2.95-.126 5.896-.361 8.847-.428 3.11-.072 6.227.073 9.336-.012 2.81-.075 5.613-.353 8.421-.5.899-.047 1.805.053 2.708.062 1.31.015 2.62-.014 3.927.019 1.233.03 2.463.145 3.695.175 1.434.035 2.87-.02 4.304.033 1.753.064 3.505.281 5.256.276 1.775-.004 3.553-.317 5.325-.283 3.014.058 6.024.337 9.038.418 2.41.064 4.828-.112 7.237-.029 2.41.084 4.815.334 7.217.558 1.445.135 2.88.503 4.32.517 2.802.025 5.607-.207 8.408-.173 1.846.023 3.687.324 5.531.5 1.719.163 3.437.44 5.157.457 1.93.02 3.862-.199 5.793-.308 1.974-.111 3.95-.18 5.92-.33 2.168-.168 4.328-.426 6.495-.606.697-.058 1.506.234 2.088-.026 2.421-1.083 4.86-.357 7.286-.245 2.806.128 5.604.421 8.409.53 1.655.065 3.318-.09 4.978-.143 3.544-.112 7.087-.218 10.63-.333 2.768-.09 5.534-.225 8.303-.277 2.533-.047 5.07.051 7.6-.029 2.044-.065 4.08-.366 6.124-.44 1.826-.067 3.658.036 5.486.059 2.475.029 4.95.044 7.425.082 2.075.031 4.15.09 6.225.127 1.863.033 3.726.089 5.588.074 2.305-.019 4.611-.051 6.913-.17 2.03-.104 4.053-.364 6.083-.498 1.134-.073 2.275-.032 3.412-.036 1.638-.005 3.283-.109 4.91.023 2.064.166 4.107.62 6.172.772 1.814.133 3.646-.02 5.468.025 1.344.032 2.684.224 4.026.254.867.02 1.737-.189 2.605-.182 1.35.01 2.701.164 4.052.173 2.082.013 4.165-.042 6.248-.077.316-.005.63-.065.947-.088 1.864-.132 3.726-.31 5.592-.379 2.368-.087 4.739-.071 7.108-.123 1.486-.032 2.975-.19 4.457-.147 2.423.072 4.841.313 7.263.382 1.253.037 2.512-.173 3.77-.22 2.4-.092 4.802-.153 7.204-.216 3.326-.088 6.65-.177 9.976-.24.802-.015 1.609.132 2.408.094 2.804-.135 5.604-.35 8.409-.469 1.868-.079 3.743 0 5.61-.081 1.374-.06 2.743-.264 4.115-.405l.126.36c-.372.285-.75.56-1.112.856-1.073.878-2.52 1.502-2.482 3.202.04 1.809 2.386 3.456 4.408 3.288 1.935-.16 3.88-.219 5.822-.242 2.9-.034 5.802-.009 8.702.014 1.229.008 2.47.206 3.683.083 1.615-.164 3.197-.692 4.811-.812 1.832-.137 3.686-.029 5.528.033 2.288.076 4.576.312 6.862.293 1.895-.016 3.785-.354 5.682-.46 3.758-.21 7.52-.361 11.28-.526.433-.019.87.046 1.306.038 1.448-.027 2.894-.114 4.34-.093 1.759.027 3.516.158 5.275.211 2.431.072 4.864.123 7.296.162 1.108.018 2.218-.014 3.327-.02.265-.002.53.01.795.016 2.09.04 4.18.11 6.27.112 1.512.002 3.024-.084 4.537-.133.649-.02 1.3-.1 1.944-.057 1.326.087 2.646.323 3.97.336 1.084.01 2.18-.153 3.248-.361.468-.091.877-.483 1.31-.743.186-.112.35-.284.55-.347.853-.268 1.737-.453 2.564-.781.298-.119.634-.538.666-.85.083-.795.076-1.616-.028-2.408-.117-.899-.261-1.827-.605-2.654-.635-1.526-1.314-3.055-2.179-4.457-1.103-1.79-2.249-3.604-3.669-5.136-1.616-1.741-3.539-3.2-5.358-4.748-.747-.635-1.522-1.267-2.372-1.746-1.17-.66-2.44-1.142-3.636-1.761-.771-.399-1.458-.962-2.234-1.35-2.61-1.304-5.317-2.432-7.842-3.881-1.746-1.003-3.252-2.425-4.976-3.744 1.934-1.352 1.95-2.992 1.868-4.773-.055-1.21.206-2.459.482-3.653.349-1.5.87-2.96 1.294-4.444.328-1.15.56-2.328.95-3.454.265-.763.725-1.456 1.1-2.18.61-1.178 1.307-2.32 1.807-3.542a18.691 18.691 0 0 0 1.098-3.666c.203-1.103-.083-2.133-.763-3.154-.582-.874-.733-2.038-1.052-3.082-.023-.075.134-.204.24-.356-.255 0-.474.065-.617-.011-.507-.268-.96-.766-1.485-.852-2.22-.361-4.46-.61-6.693-.893-1.576-.199-3.156-.573-4.726-.538-2.634.06-5.263.385-7.894.591-1.596.125-3.19.271-4.789.341-1.847.08-3.704.2-5.544.09-1.606-.097-3.187-.641-4.79-.715-2.707-.125-5.424-.049-8.137-.027-1.408.012-2.817.081-4.225.14-1.326.055-2.654.084-3.972.213-1.205.116-2.398.353-3.599.53-.07.01-.15-.051-.227-.064-2.727-.429-5.427-.949-8.237-.712-.974.082-2.036-.534-3.01-.945-.56-.237-1.025-.702-1.532-1.063-.185.574-.601 1.188-.512 1.716.332 1.966.838 3.901 1.263 5.851.518 2.374 1.093 4.739 1.506 7.131.32 1.862.465 3.757.622 5.643.17 2.03.286 4.065.384 6.1.068 1.396.01 2.8.118 4.194.098 1.277.375 2.54.513 3.815.14 1.297.22 2.6.299 3.902.083 1.379.122 2.76.202 4.138.08 1.39.153 2.78.29 4.165.096.97.5 1.951.406 2.891-.298 3.05-.821 6.078-1.144 9.126-.326 3.083-1.633 5.709-3.534 8.065-.5.62-1.02 1.603-1.989 1.068.588-1.651 1.316-3.219 1.682-4.867.36-1.616.366-3.312.495-4.976.174-2.236.336-4.472.464-6.71.06-1.052.057-2.108.039-3.16-.029-1.71-.046-3.421-.16-5.125-.068-1.015-.373-2.014-.463-3.03-.18-2.041-.285-4.09-.425-6.135-.05-.729-.142-1.455-.156-2.184-.01-.523.176-1.062.099-1.567-.07-.455-.38-.873-.7-1.554l.516.25c.062-.767.138-1.581.194-2.397.024-.335.047-.68-.001-1.01-.106-.724-.344-1.437-.372-2.162-.058-1.52-.017-3.043-.017-4.806.032-.012.225-.18.216-.336-.09-1.52-.165-3.046-.373-4.552-.225-1.646-.566-3.278-.896-4.91-.29-1.43-.67-2.842-.94-4.275-.26-1.383-.38-2.793-.664-4.17-.138-.671-.484-1.305-.78-1.936-.4-.855-.711-1.8-1.301-2.509-.674-.81-1.631-1.257-2.789-1.324-2.044-.117-4.076-.548-6.116-.565-3.525-.03-7.052.26-10.575.223-2.73-.028-5.455-.381-8.186-.53a368.404 368.404 0 0 0-8.718-.358c-3.402-.105-6.807-.115-10.207-.262-2.154-.093-4.298-.386-6.45-.543-1.521-.11-3.048-.152-4.572-.206-2.022-.073-4.046-.177-6.07-.176-1.708.002-3.417.127-5.127.208-1.298.06-2.596.195-3.894.19-1.88-.005-3.76-.112-5.641-.167-2.241-.065-4.481-.15-6.722-.172-2.11-.02-4.22-.003-6.33.07-1.146.04-2.285.295-3.433.34-1.875.073-3.755.051-5.632.077-1.512.02-3.023.06-4.535.08-1.37.018-2.741.022-4.112.032-.318.002-.639.028-.953-.004-1.145-.115-2.286-.304-3.434-.364-1.523-.08-3.053-.03-4.578-.1-1.415-.066-2.825-.287-4.24-.313-2.513-.047-5.028.05-7.54-.007-1.648-.037-3.293-.236-4.938-.368-1.704-.136-3.405-.332-5.112-.404-1.677-.071-3.361.014-5.04-.03-2.372-.064-4.743-.27-7.112-.252-2.072.017-4.139.293-6.211.392-1.446.069-2.899-.014-4.343.054-2.435.113-4.863.326-7.297.435-2.174.098-4.352.087-6.525.175-1.155.047-2.303.253-3.458.295-1.344.05-2.695-.049-4.038.006-1.286.054-2.566.294-3.851.323-2.044.046-4.09-.008-6.136-.032a609.512 609.512 0 0 1-6.879-.104c-.622-.014-1.249-.207-1.862-.163-1.74.124-3.472.365-5.212.493-2.267.168-4.54.25-6.807.409-2.105.148-4.205.378-6.309.52-1.673.113-3.353.138-5.028.222-.97.05-1.938.208-2.906.199-1.988-.019-3.975-.13-5.963-.174-1.029-.023-2.06.055-3.086.017-2.118-.078-4.235-.198-6.351-.313-1.09-.058-2.177-.196-3.265-.2-1.67-.006-3.34.078-5.01.11-.695.013-1.392-.01-2.088-.017-1.354-.017-2.708-.067-4.062-.045-1.5.025-3 .185-4.5.16-1.647-.028-3.295-.314-4.937-.277-1.909.043-3.809.4-5.717.466-2.377.082-4.76.037-7.14-.015-.967-.022-1.927-.246-2.895-.305-1.014-.063-2.035 0-3.05-.061-1.118-.069-2.23-.241-3.347-.32-.445-.03-.9.113-1.347.096-.793-.03-1.581-.168-2.372-.18-1.053-.015-2.109.106-3.16.065-1.733-.067-3.463-.262-5.196-.317-1.391-.043-2.788.108-4.177.053-1.883-.075-3.762-.375-5.643-.38-2.549-.005-5.097.184-7.646.28-2.589.096-5.179.162-7.767.28-1.17.053-2.333.238-3.502.29-1.57.07-3.146.026-4.715.11-2.042.107-4.077.366-6.118.424-2.543.071-5.092.05-7.636-.018-1.998-.054-3.992-.294-5.991-.351-2.55-.072-5.102-.062-7.653-.05-1.52.006-3.044.025-4.557.145-1.505.12-2.994.504-4.496.54-2.546.06-5.099-.137-7.645-.085-2.237.045-4.469.294-6.705.43-.824.05-1.654.063-2.48.046-1.565-.03-3.13-.08-4.693-.152-.739-.034-1.475-.134-2.213-.209-1.532-.154-3.061-.36-4.597-.457-1.562-.1-3.14 0-4.693-.16-1.589-.163-3.147-.636-4.737-.792-1.71-.167-3.469.045-5.162-.21-2.661-.398-5.275-.063-7.905.127-1.495.108-2.986.243-4.48.355-.962.072-1.926.13-2.89.184-2.358.138-4.716.294-7.076.394-1.197.051-2.4-.025-3.598-.006-1.694.026-3.386.116-5.08.128-2.455.019-4.914-.05-7.37-.002-2.062.04-4.123.22-6.185.285-.891.027-1.788-.14-2.68-.118-2.094.05-4.186.239-6.28.231-2.583-.01-5.166-.242-7.748-.228-2.359.015-4.716.247-7.075.351-1.943.087-3.897.037-5.829.22-1.266.121-2.512.52-3.752.852-.973.26-2.019.449-2.863.953-1.424.85-2.76 1.87-4.04 2.932-.558.462-.795 1.298-1.333 1.797-1.293 1.201-1.212 2.823-1.302 4.305-.09 1.469.378 2.964.38 4.449.005 2.77-.171 5.54-.23 8.312a84.491 84.491 0 0 0 .043 4.823c.047 1.312.187 2.62.288 3.929.143 1.845.283 3.69.433 5.533.125 1.553.373 3.107.358 4.658-.013 1.202-.273 2.306.045 3.607.397 1.625-.047 3.448-.08 5.188-.025 1.423-.027 2.85.05 4.272.105 1.988.288 3.973.45 5.959.049.6.106 1.2.212 1.79.236 1.323.52 2.637.758 3.96.3 1.68.878 3.203 2.298 4.277l2.355 1.776z"/></g><g><path fill="#f9ae3b" d="M155.673 55.865c-.137-1.314-.388-2.709-.397-4.106-.007-1.162.294-2.324.415-3.49.146-1.407.242-2.818.364-4.226.07-.798.075-1.61.242-2.388.159-.734.553-1.416.733-2.147.362-1.47.55-2.988 1-4.427.324-1.035.821-2.08 1.487-2.925.807-1.026 2.276-.69 3.047.687.72 1.285 1.354 2.582 1.316 4.197-.027 1.176.619 2.353.81 3.555.1.628-.15 1.307-.217 1.966-.215 2.064-.379 4.134-.638 6.194-.248 1.978-.481 3.969-.917 5.91a82.799 82.799 0 0 1-2.032 7.477c-.484 1.486-1.278 2.873-1.98 4.28-.1.203-.573.443-.696.37-.427-.256-.96-.57-1.126-.99a24.868 24.868 0 0 1-1.72-8.712c-.006-.374.185-.752.31-1.225z"/></g><g><path fill="#f9ae3b" d="M391.275 43.303c0-2.42.01-4.429-.004-6.438-.007-1.009-.2-2.042-.037-3.018.119-.717.524-1.555 1.076-1.997 1.145-.917 2.408-1.747 3.74-2.355 1.729-.788 3.103.083 3.848 1.793.706 1.615.828 3.207.218 4.758-.39.995-1.102 1.965-1.91 2.673-1.388 1.214-2.943 2.243-4.468 3.29-.652.447-1.404.746-2.463 1.294z"/></g><g><path fill="#f9ae3b" d="M349.7 35.079c.211 1.903.553 3.802.595 5.71.045 1.99-.186 3.986-.322 5.978-.115 1.665-.245 3.33-.41 4.991-.121 1.23-.34 2.449-.457 3.678-.226 2.4-.285 4.822-.671 7.194-.16.982-.95 1.877-1.516 2.772a12.308 12.308 0 0 1-1.333 1.707c-1.091 1.19-2.885 1.035-3.558-.39-.549-1.16-1.005-2.402-1.248-3.657-.336-1.733-.556-3.51-.6-5.272-.06-2.419.125-4.843.142-7.264.012-1.728-.142-3.457-.111-5.182.058-3.25.677-6.408 1.763-9.474.364-1.03.577-2.137 1.088-3.085.892-1.654 2.426-2.592 4.242-2.918 1.196-.214 1.887.51 2.026 1.746.13 1.155.31 2.303.468 3.454z"/></g></g></g></g></svg>