<svg xmlns="http://www.w3.org/2000/svg" width="293" height="190" viewBox="0 0 293 190"><g><g><g><g><g><path fill="#013944" d="M263.117 79.82c2.11-.153 4.46-.403 6.818-.481 9.024-.3 15.669 3.782 20.06 11.46 3.563 6.233 4.007 12.796.936 19.43-1.473 3.179-3.837 5.669-6.34 8.045-4.692 4.454-10.255 7.597-15.93 10.566-4.898 2.56-9.96 4.752-15.332 6.084-6.459 1.602-12.953 3.035-19.579 3.833-4.14.498-8.238 1.326-12.373 1.877-2.335.31-4.703.385-7.06.524-7.308.432-14.62.826-21.927 1.269-7.023.426-14.041.921-21.065 1.333-5.475.322-10.972.378-16.428.894-4.786.454-9.554 1.24-14.28 2.14a299.856 299.856 0 0 0-17.046 3.744c-2.78.698-5.422 1.95-8.132 2.935-.576.209-.614.512-.385 1.036 1.301 2.973 2.56 5.963 3.198 9.17 1.293 6.502-.366 12.148-4.97 16.9-3.985 4.113-8.723 6.96-14.396 8.024-3.81.715-7.674 1.041-11.53.418-5.652-.912-10.024-3.88-12.997-8.737-4.077-6.661-7.616-13.607-10.696-20.791-1.23-2.868-2.719-5.624-4.098-8.427-4.403-8.945-8.69-17.944-12.983-26.943-3.905-8.187-7.426-16.534-11.194-24.775-1.265-2.769-2.935-5.348-4.32-8.064A1649.38 1649.38 0 0 1 21.515 72.3c-1.563-3.162-2.935-6.418-4.478-9.59-1.667-3.427-3.41-6.818-5.165-10.201-.9-1.738-2.018-3.324-3.313-4.817-3.056-3.522-5.236-7.586-6.647-12.008C-.297 28.758.817 22.188 4.744 16.18c3.477-5.318 8.098-9.55 13.758-12.457 8.846-4.542 17.629-3.862 26.222.842C47.378 6.02 49.695 7.94 51.91 9.98c.423.389.862.538 1.419.509 3.214-.165 6.43-.332 9.645-.465 3.956-.162 7.913-.397 11.869-.406 4.814-.012 9.64.01 14.44.326 5.944.391 11.94.702 17.785 1.76 10.2 1.845 20.433 3.71 30.309 6.98 4.113 1.362 8.183 2.93 12.113 4.75 4.854 2.249 9.783 4.271 14.774 6.185 3.73 1.431 7.502 2.532 11.484 2.819 2.02.145 4.05.176 6.075.236 4.26.125 8.378.858 12.038 3.165 6.97 4.393 10.557 10.698 10.402 19-.046 2.532-.706 4.95-1.719 7.269-.31.712-.27.79.51.915 3.955.636 7.912 1.264 11.868 1.894 4.926.784 9.594 2.492 14.332 3.958 7.001 2.167 13.652 5.146 20.12 8.561 2.48 1.311 5.18 1.758 7.923 2.007 1.851.169 3.71.245 5.82.377z"/></g></g></g><g><g><g><g><g><g><path fill="#fbb03b" d="M91.804 179.518l-.661-.008c-3.536-.089-6.535-1.778-8.446-4.758-.666-1.04-1.263-2.123-1.859-3.207l-.94-1.684c-2.637-4.562-5.05-9.517-7.596-15.593-.464-1.107-1.028-2.171-1.589-3.238a86.514 86.514 0 0 1-.998-1.938l-3.946-8.017-2.78-5.654-1.06-2.122c-.68-1.35-1.359-2.701-2-4.07-.677-1.452-1.326-2.92-1.974-4.387-1.188-2.69-2.373-5.379-3.76-7.961-1.65-3.074-3-6.26-4.306-9.34-.79-1.865-1.58-3.73-2.437-5.567a116.843 116.843 0 0 1-1.72-3.94c-.483-1.142-.964-2.285-1.48-3.411-.645-1.404-1.344-2.794-2.153-4.108-1.931-3.13-3.77-6.531-5.785-10.7a795.567 795.567 0 0 0-3.308-6.736l-2.177-4.412-.403-.81c-.543-1.085-1.081-2.174-1.504-3.304-1.112-2.963-2.654-5.754-4.155-8.33-.436-.747-.854-1.523-1.139-2.333-.745-2.12-1.903-4.11-3.128-6.214l-.575-.991c-.705-1.224-1.396-2.179-2.175-3.005-2.181-2.318-3.951-5.24-5.411-8.939-1.61-4.077-1.166-8.42 1.283-12.558.444-.75.973-1.464 1.538-2.131 2.246-2.652 4.702-4.859 7.3-6.558 3.051-1.995 6.327-3.007 9.738-3.007 1.925 0 3.9.328 5.87.973 2.78.911 5.387 2.444 7.97 4.684 1.554 1.348 3.125 2.709 4.373 4.437 1.909-.415 3.775-.437 5.468-.458.79-.009 1.58-.016 2.365-.069 4.786-.32 9.579-.613 14.374-.731 2.544-.063 5.09-.12 7.634-.12 4.297 0 7.844.165 11.163.521 2.334.25 4.678.409 7.02.569l1.517.104c3.16.22 5.958.606 8.553 1.18 1.928.427 3.863.821 5.798 1.217l3.799.785c4.647.982 9.376 1.981 14.006 3.328 6.088 1.77 12.103 4.178 18.391 7.358 2.166 1.095 4.459 1.92 6.886 2.79 1.462.526 2.924 1.052 4.362 1.637 2.753 1.12 5.085 1.848 7.342 2.288 3.039.592 6.089.933 9.064 1.012l1.347.023c1.76.023 3.582.045 5.494.418 5.558 1.084 9.79 5.886 10.063 11.42.155 3.145-1.001 6.2-3.346 8.835-.697.783-1.53 1.446-2.374 2.096l-.815.64-.229.19-.432.248c-2.049 1.602-4.342 2.87-6.667 3.922 1.781.064 3.562.147 5.34.264 3.296.217 6.58.674 9.858 1.132l.703.098c2.12.296 4.233.658 6.345 1.02l2.859.484 1.208.209c.87.153 1.739.31 2.615.402 3.445.363 6.956 1.168 11.049 2.53l3.246 1.057c3.8 1.22 7.73 2.481 11.506 4.257l1.853.863c2.067.955 4.134 1.913 6.123 3.01 2.929 1.616 6.363 2.573 10.808 3.013 2.322.23 4.645.368 6.968.368a50.98 50.98 0 0 0 5.677-.303 19.96 19.96 0 0 1 2.219-.14c1.38 0 2.599.197 3.728.603 1.047.376 2.33.837 3.449 1.73 3.579 2.855 5.518 6.393 5.764 10.515.18 3.007-.885 5.897-3.081 8.358-3.25 3.64-7.266 6.708-12.276 9.382l-1.361.767a38.41 38.41 0 0 1-2.174 1.194l-1.122.56c-1.833.917-3.67 1.832-5.574 2.575-2.735 1.066-5.429 2.078-8.314 2.715l-2.789.628c-4.375.993-8.9 2.018-13.54 2.506-.77.082-1.537.205-2.303.327l-1.606.243-3.653.491-2.373.316c-2.538.706-4.536.806-6.469.903l-.635.033-7.65.392-1.6.08-2.29.108c-1.47.067-2.939.134-4.407.228l-8.046.55-4.732.33-1.26.087c-2.858.195-5.715.391-8.574.566-4.144.252-8.29.492-12.435.714-1.92.102-3.84.166-5.76.22-4.11.117-8.579.594-13.663 1.458-4.221.717-8.415 1.59-12.61 2.463l-3.933.814a87.96 87.96 0 0 0-5.444 1.282c-1.774.48-3.545.999-5.27 1.629-1.976.724-3.912 1.557-5.847 2.387-1.814.779-3.6 1.651-4.96 3.026a47.746 47.746 0 0 1-2.169 2.05 158.367 158.367 0 0 1 1.997 4.304c.929 2.091 1.84 4.194 2.685 6.321.444 1.119.752 2.302 1.027 3.477.79 3.375-.138 6.612-2.614 9.113-3.345 3.378-7.13 5.306-11.252 5.735-1.536.16-3.087.29-4.63.29z"/></g><g><path fill="#013944" d="M32.203 7.455c2.246 0 4.538.377 6.814 1.123 3.171 1.04 6.12 2.765 9.013 5.275 1.191 1.034 2.464 2.136 3.633 3.45 1.51-.18 2.93-.197 4.184-.212.735-.01 1.47-.014 2.2-.063 4.829-.323 9.664-.617 14.5-.737 2.57-.064 5.14-.121 7.71-.121 4.407 0 8.058.17 11.486.538 2.295.246 4.6.402 6.904.558l1.521.105c3.31.23 6.253.638 8.996 1.245 1.913.421 3.832.815 5.752 1.207l3.817.788c4.7.993 9.487 2.005 14.227 3.384 6.27 1.824 12.456 4.298 18.912 7.563 2 1.011 4.207 1.804 6.543 2.643 1.502.54 3.003 1.081 4.48 1.682 2.566 1.045 4.72 1.718 6.78 2.12 2.874.56 5.755.883 8.564.957l1.303.022c1.808.023 3.857.049 6.037.474 6.908 1.347 12.17 7.339 12.512 14.247.196 3.956-1.226 7.76-4.11 11-.822.923-1.794 1.718-2.79 2.483l-.276.217c2 .227 3.971.503 5.903.773l.7.098c2.153.3 4.296.667 6.44 1.034l4.083.696c.799.142 1.598.288 2.403.373 3.67.387 7.384 1.235 11.69 2.67l3.214 1.044c3.892 1.25 7.918 2.542 11.87 4.403l1.835.853c2.133.985 4.264 1.976 6.315 3.107 2.557 1.411 5.62 2.253 9.642 2.65 4 .395 8.002.517 12.01.07a23.04 23.04 0 0 1 2.555-.16c1.736 0 3.291.256 4.755.783 1.192.428 2.803 1.007 4.314 2.213 4.218 3.365 6.605 7.759 6.9 12.704.23 3.831-1.1 7.483-3.846 10.559-3.491 3.91-7.78 7.193-13.11 10.038l-1.271.717c-.773.447-1.548.89-2.346 1.285l-1.111.555c-1.916.959-3.839 1.912-5.828 2.688-2.737 1.068-5.668 2.168-8.762 2.852l-2.773.624c-4.461 1.012-9.075 2.059-13.894 2.565-.718.075-1.43.192-2.144.305l-1.668.254-6.035.806c-2.41.712-4.7.826-6.723.927l-12.19.614c-1.45.067-2.9.132-4.348.225l-14.02.965c-2.867.197-5.733.393-8.602.568-4.152.254-8.305.493-12.459.716-1.944.104-3.89.168-5.835.224-3.966.112-8.297.575-13.241 1.415-4.184.711-8.342 1.578-12.5 2.443l-3.944.815c-1.764.36-3.521.767-5.258 1.238-1.69.459-3.378.95-5.021 1.551-1.923.704-3.807 1.515-5.69 2.324-2.09.897-3.212 1.574-4.002 2.373-.21.212-.42.42-.634.627.366.785.726 1.572 1.077 2.365a176.384 176.384 0 0 1 2.732 6.432c.499 1.257.851 2.583 1.16 3.904 1.038 4.43-.174 8.67-3.412 11.939-3.852 3.889-8.256 6.115-13.093 6.617-1.64.17-3.296.306-4.944.306l-.738-.01c-4.572-.113-8.451-2.298-10.922-6.151-.703-1.098-1.336-2.24-1.965-3.387l-.906-1.624c-2.703-4.676-5.172-9.74-7.768-15.938-.43-1.026-.956-2.01-1.476-2.999-.35-.666-.701-1.334-1.033-2.008l-7.777-15.77a159.171 159.171 0 0 1-2.037-4.151c-.687-1.471-1.344-2.958-2.001-4.445-1.157-2.618-2.308-5.238-3.658-7.753-1.715-3.195-3.093-6.445-4.426-9.589-.777-1.832-1.552-3.666-2.394-5.471a119.171 119.171 0 0 1-1.766-4.042c-.47-1.113-.94-2.228-1.443-3.326-.591-1.29-1.233-2.572-1.977-3.78-1.986-3.22-3.872-6.708-5.933-10.972a798.774 798.774 0 0 0-3.295-6.709l-2.575-5.212c-.59-1.18-1.171-2.366-1.632-3.595-1.032-2.752-2.501-5.408-3.935-7.868-.533-.913-1.032-1.865-1.38-2.855-.65-1.85-1.737-3.717-2.888-5.694l-.581-1.003c-.585-1.014-1.143-1.79-1.756-2.44-2.45-2.602-4.42-5.842-6.024-9.904-1.967-4.98-1.45-10.242 1.494-15.216.53-.896 1.158-1.75 1.834-2.546 2.435-2.876 5.111-5.277 7.955-7.137 3.552-2.322 7.386-3.5 11.397-3.5zm0 6.065c-2.821 0-5.525.842-8.078 2.511-2.496 1.632-4.703 3.686-6.646 5.98-.456.538-.885 1.11-1.243 1.717-1.854 3.132-2.415 6.496-1.072 9.899 1.143 2.894 2.633 5.673 4.799 7.973 1.028 1.091 1.853 2.284 2.594 3.57 1.444 2.504 2.97 4.962 3.937 7.714.222.63.559 1.23.897 1.812 1.653 2.835 3.218 5.706 4.375 8.792.494 1.32 1.169 2.575 1.791 3.844 1.825 3.724 3.687 7.43 5.492 11.162 1.723 3.562 3.557 7.058 5.636 10.43.874 1.418 1.633 2.918 2.328 4.434 1.11 2.423 2.066 4.918 3.192 7.334 2.28 4.89 4.103 9.976 6.667 14.754 2.17 4.042 3.865 8.336 5.81 12.499.966 2.067 2.024 4.09 3.032 6.136 2.244 4.555 4.477 9.115 6.725 13.667.882 1.787 1.897 3.516 2.665 5.349 2.188 5.224 4.589 10.34 7.425 15.247.917 1.585 1.738 3.23 2.726 4.77 1.376 2.147 3.425 3.3 5.968 3.363 1.633.041 3.277-.097 4.905-.266 3.756-.39 6.81-2.228 9.409-4.852 1.718-1.736 2.383-3.865 1.816-6.288-.241-1.031-.503-2.069-.893-3.05-.83-2.09-1.726-4.154-2.638-6.21a171.686 171.686 0 0 0-2.408-5.154c-.35-.727-.346-1.317.308-1.887.988-.862 1.966-1.742 2.888-2.674 1.619-1.637 3.598-2.685 5.673-3.576 2.067-.887 4.136-1.78 6.247-2.552 1.806-.662 3.66-1.205 5.518-1.71a92.13 92.13 0 0 1 5.632-1.326c5.54-1.132 11.068-2.348 16.642-3.295 4.653-.791 9.35-1.365 14.085-1.5a227.38 227.38 0 0 0 5.683-.217c4.138-.222 8.276-.46 12.413-.713 3.272-.2 6.541-.428 9.812-.651 4.263-.291 8.526-.605 12.79-.88 2.245-.145 4.493-.225 6.739-.339 3.08-.155 6.16-.306 9.24-.472 1.988-.107 3.986-.146 5.914-.745.305-.094.63-.125.948-.168 2.006-.27 4.012-.528 6.016-.805 1.337-.184 2.666-.441 4.007-.582 5.42-.569 10.693-1.907 15.992-3.08 2.682-.593 5.297-1.577 7.866-2.579 2.209-.862 4.323-1.973 6.452-3.028 1.179-.583 2.291-1.299 3.453-1.918 4.288-2.288 8.19-5.085 11.441-8.727 1.557-1.743 2.46-3.788 2.317-6.156-.209-3.494-1.965-6.2-4.629-8.326-.73-.582-1.685-.923-2.583-1.247-1.485-.533-3.052-.474-4.585-.303-4.432.495-8.856.377-13.28-.061-4.187-.414-8.225-1.307-11.974-3.375-2.528-1.394-5.187-2.553-7.803-3.784-4.64-2.184-9.572-3.566-14.42-5.18-3.397-1.133-6.838-2.015-10.408-2.392-1.34-.141-2.666-.416-3.997-.636-3.043-.501-6.077-1.066-9.13-1.492-3.438-.48-6.883-.98-10.342-1.207-4.454-.293-8.925-.377-13.39-.445-2.826-.043-5.654.107-8.482.168-.378.009-.757.002-1.135.002a48.456 48.456 0 0 0-.067-.305c.386-.119.771-.245 1.16-.354 2.473-.7 4.976-1.306 7.414-2.11 5.07-1.673 10.128-3.404 14.428-6.74.101-.078.229-.122.327-.203.962-.795 2.035-1.494 2.856-2.416 1.67-1.877 2.71-4.101 2.583-6.668-.206-4.175-3.494-7.79-7.615-8.594-2.102-.41-4.221-.33-6.341-.386a57.987 57.987 0 0 1-9.563-1.067c-2.727-.532-5.34-1.41-7.906-2.456-3.807-1.55-7.783-2.664-11.473-4.53-5.745-2.905-11.673-5.349-17.87-7.152-4.545-1.322-9.164-2.296-13.785-3.272-3.207-.677-6.425-1.301-9.625-2.008-2.676-.592-5.38-.926-8.11-1.117-2.884-.2-5.774-.374-8.648-.682-6.125-.657-12.266-.536-18.4-.385-4.752.118-9.502.41-14.246.726-2.936.195-5.935-.169-8.791.864-.424.153-.747 0-.961-.403-1.115-2.095-2.898-3.591-4.644-5.107-2.054-1.782-4.306-3.234-6.926-4.092-1.676-.55-3.32-.822-4.926-.822"/></g></g></g></g><g><g><g><path d="M186.944 88.615c.123 1.745.228 3.49.368 5.23.104 1.26-.242 1.72-1.5 1.774-1.237.056-2.48.209-3.694-.265-.516-.202-.837-.504-.803-1.067.144-2.396.298-4.79.464-7.184.038-.322.107-.638.206-.946a1.65 1.65 0 0 1 1.88-1.236c.68.123 1.353.28 2.017.47.648.172 1.103.752 1.114 1.42.025.599.005 1.198.005 1.798l-.058.004zM92.356 36.722c-.057.008.184 1.682.216 2.519a8.879 8.879 0 0 1-.245 2.161c-.098.462-.539.575-.98.616-1.44.135-2.878.295-4.32.405a3.188 3.188 0 0 1-1.206-.151c-.411-.136-.529-.496-.517-.949.017-.61-.075-1.221-.11-1.833a5.911 5.911 0 0 1-.022-1.032c.16-1.37.338-2.738.533-4.104a.856.856 0 0 1 .835-.717c.818-.067 1.646-.059 2.473-.054.529.003 1.057.067 1.586.077 1.085.022 1.435.296 1.589 1.351.085.564.11 1.14.165 1.71zm.612 10.366c-.006 1.314-.087 2.634.018 3.943.148 1.756.466 3.497.692 5.247.108.84.145 1.693.261 2.536.172 1.25.36 2.5.59 3.738.179.961-.131 1.465-1.097 1.582-1.144.138-2.286.317-3.435.372-1.062.047-1.35-.273-1.589-1.33-.407-1.804-.9-3.589-1.23-5.404-.305-1.696-.42-3.427-.662-5.136-.22-1.551-.533-3.09-.733-4.643a18.428 18.428 0 0 1-.076-2.54.69.69 0 0 1 .632-.716c1.333-.195 2.903-.445 4.235-.54.338.004.676-.018 1.011-.065.862-.034.99.073 1.155.903.1.573.171 1.15.214 1.729.008.106.011.211.011.322zm91.023 50.57c.71 0 1.425-.046 2.128.01a1.12 1.12 0 0 1 1.145 1.09c.081.549.084 1.106.01 1.654a35.406 35.406 0 0 0-.21 6.693c.11 2.856.16 5.713.183 8.57a18.52 18.52 0 0 1-.264 2.408c-.062.367-.32.672-.674.79-1.135.573-2.26.404-3.428.14-.67-.152-1.198-.447-1.331-1.08-.12-.612-.209-1.23-.266-1.85-.155-1.443-.251-2.894-.445-4.33-.454-3.378-.738-6.749-.102-10.14.101-.776.16-1.558.18-2.341.017-.161.053-.32.104-.473.314-1.033.49-1.154 1.582-1.134.462.007.924 0 1.386 0v-.009zm-65.843-26.952c.025.003-.322 5.813-.531 8.716a110.52 110.52 0 0 1-.338 3.866c-.084.757-.19 1.54-.992 1.934a1.84 1.84 0 0 1-.758.247c-1.083.003-2.165-.063-3.247-.063-1.313.003-2.628.012-3.937.087-2.871.163-5.74.368-8.61.56-2.095.14-4.186.276-6.282.435-1.425.107-2.848.259-4.272.384-1.445.126-2.215-.334-2.706-1.614-.588-1.532-1.126-3.08-1.71-4.613-.746-1.96-1.512-3.919-2.276-5.875-.336-.86-.702-1.708-1.024-2.573a4.745 4.745 0 0 1-.276-1.137 1.68 1.68 0 0 1 1.544-1.968c1.662-.264 3.33-.493 4.988-.772 1.407-.237 2.8-.564 4.21-.78 1.432-.221 2.887-.305 4.317-.539a58.51 58.51 0 0 1 8.258-.761c1.79-.036 3.578-.21 5.37-.244 2.25-.045 4.503-.024 6.756 0 1.1.011 1.558.573 1.52 1.66-.034 1.015-.007 2.032-.007 3.049zm21.958-26.529a7.73 7.73 0 0 1 1.561.477c1.395.634 2.71 1.447 4.056 2.19 1.146.634 2.279 1.292 3.435 1.907 1.157.616 2.305 1.264 3.51 1.771a22.72 22.72 0 0 0 5.942 1.336c1.26.167 2.347-.337 3.505-.571.438-.13.91-.077 1.309.148.9.522 1.842.97 2.752 1.477a15.261 15.261 0 0 0 5.216 1.86c.962.136 1.147.508.706 1.294-.145.263-.34.494-.576.68a10.045 10.045 0 0 1-4.356 1.99c-1.065.189-2.102.529-3.168.709-.925.161-1.86.244-2.799.245a34.485 34.485 0 0 1-3.997-.224c-1.406-.173-2.944-.128-4.08-1.088-.992-.835-2.293-1-3.273-1.827-.607-.512-1.406-.79-2.062-1.251-.539-.38-.965-.913-1.492-1.311-.929-.698-1.902-1.341-2.846-2.021-.596-.432-1.157-.912-1.764-1.323a2.354 2.354 0 0 0-2.395-.218 1.548 1.548 0 0 0-.639 2.206 5.337 5.337 0 0 0 2.787 2.493c2.15.767 4.295 1.55 6.451 2.302a1.807 1.807 0 0 1 1.126 1.394c.381 1.547.532 3.133-.417 4.553-.336.55-.8 1.01-1.35 1.344-.239.125-.99.504-1.608.814a5.513 5.513 0 0 1-2.435.606 22.763 22.763 0 0 1-4.803-.532c-1.19-.317-2.153-1.139-3.084-1.925a21.935 21.935 0 0 1-1.619-1.697.742.742 0 0 1-.107-1.016c.721-.895 1.497-1.746 2.251-2.613.602-.673 1.067.043 1.498.264.482.247.791.828 1.271 1.087 1.254.676 2.474 1.473 3.936 1.638.621.055 1.246.067 1.87.035a.86.86 0 0 0 .957-.788c.11-.956-.07-1.163-.972-1.383-.802-.195-1.6-.401-2.388-.65-2.017-.635-4.103-1.293-5.688-2.824-.42-.407-.987-.66-1.445-1.034a2.926 2.926 0 0 1-.7-.838c-.482-.883-1.153-1.749-1.323-2.699-.32-1.778-.192-3.636 1.263-4.947a10.553 10.553 0 0 1 3.319-1.895 4.765 4.765 0 0 1 2.662-.146zm50.945 70.19c.002-.567-.19-3.815-.32-5.514-.159-2.002-.357-4.002-.446-6.006a158.688 158.688 0 0 1-.145-7.061c.001-1.103.19-2.206.26-3.309.09-1.406.115-2.817.225-4.221.097-1.25.562-1.704 1.799-1.675a17.4 17.4 0 0 1 2.884.335c.298.144.512.42.577.745.224 1.294.373 2.6.555 3.901.028.121.07.238.122.352a3.52 3.52 0 0 0 .246-.227c.47-.627.995-1.21 1.57-1.741a11.95 11.95 0 0 1 4.127-2.31 7.007 7.007 0 0 1 3.364.1 6.981 6.981 0 0 1 3.346 1.583 13.701 13.701 0 0 1 3.98 6.447c.495 1.78.354 3.585.256 5.383a72.37 72.37 0 0 1-.492 5.395c-.304 2.36-.322 4.755-.928 7.083-.313 1.196-.426 2.444-.63 3.67-.1.588-.39.901-.93.776-1.633-.376-3.304-.13-4.94-.39-1.094-.173-1.508-.482-1.511-1.596.016-1.174.114-2.346.293-3.506.457-3.34.98-6.668 1.433-10.008.134-.983.115-1.984.18-2.977.026-.39.085-.78.143-1.166.123-.617.136-1.25.038-1.87a3.844 3.844 0 0 0-.132-.541c-.078-.254-.138-.545-.209-.845-.457-1.94-2.176-3.354-4.05-2.658a11.958 11.958 0 0 0-4.16 2.566 3.54 3.54 0 0 0-1.103 2.64c-.051 1.614-.274 3.223-.302 4.836-.046 2.541-.105 5.092.06 7.624.105 1.616.133 3.32.226 4.828.004.079.004.157.004.235-.01.681.108 1.572-.48 2.123a3.33 3.33 0 0 1-2.458 1.092 1.531 1.531 0 0 0-.41.04 5.814 5.814 0 0 0-.764.151c-.68.185-1.07-.116-1.125-.943-.07-.993-.102-1.985-.148-2.978-.006-.12-.006-.242-.006-.363zm37.153-3.913a7.284 7.284 0 0 0 3.16-.689c1.625-.807 3.415-1.275 4.934-2.305.683-.463 1.289-1.045 1.98-1.494a45.13 45.13 0 0 1 2.902-1.709c2.924-1.608 6.083-1.496 9.253-1.194a7.42 7.42 0 0 1 1.644.503c.436.15.85.368 1.292.496a6.88 6.88 0 0 1 2.657 1.584c.261.262.449.588.545.946a.715.715 0 0 1-.26.609 10.4 10.4 0 0 1-1.378.784c-.744.368-1.528.666-2.24 1.086a6.49 6.49 0 0 0-1.177 1.053c-.212.21-.37.474-.569.698-.761.858-1.1.941-2.114.46-.812-.384-1.577-.877-2.411-1.195-2.58-.983-5.084-1.051-7.518.561-1.78 1.18-3.676 2.189-5.513 3.288-.433.26-.828.584-1.245.87a6.536 6.536 0 0 1-5.054 1.17c-.998-.183-2.028-.239-3-.508a8.986 8.986 0 0 1-2.095-1.01c-.711-.422-1.359-.951-2.053-1.402a6.522 6.522 0 0 1-1.893-2.26c-.229-.376-.447-.76-.708-1.113a6.161 6.161 0 0 1-1.03-2.323c-.146-.62-.47-1.196-.623-1.813a9.89 9.89 0 0 1-.403-2.371c.017-1.432.236-2.852.651-4.221.131-.44.319-.862.558-1.253a27.912 27.912 0 0 1 2.07-3.182 10.275 10.275 0 0 1 3.853-2.636c.24-.09.494-.13.749-.119.942-.011 1.89-.038 2.827.017.55.034 1.09.145 1.608.331 1.491.48 2.873 1.251 4.064 2.267a30.279 30.279 0 0 1 3.499 4c.404.56.73 1.174.968 1.823a1.322 1.322 0 0 1-.486 1.804c-1.191.87-2.426 1.679-3.64 2.513-.348.263-.711.507-1.087.731-.974.52-1.961 1.016-2.95 1.512-1.01.506-2.02 1.007-3.043 1.484-.316.146-.307.275-.11.507.905 1.074 1.91 1.946 3.386 1.698zM171.763 106c-.084-2.564-.139-5.128-.268-7.681a21.346 21.346 0 0 0-.421-2.667c-.268-1.497-.547-2.99-.833-4.484a4.908 4.908 0 0 0-.204-.661c-.404-1.182-1.217-1.562-2.43-1.196-1.262.381-1.783 1.432-1.985 2.52a33.169 33.169 0 0 0-.31 4.33c-.107 2.074-.19 4.148-.288 6.222a67.153 67.153 0 0 0 .135 9.75c.192 1.977.385 3.998.559 5.977.01.113-.012.362 0 .475.06.587 0 .666-.453.93-.27.133-.564.208-.865.222-1.008-.019-2.02-.05-3.022-.155a1.207 1.207 0 0 1-.956-.918c-.427-1.29-.888-2.575-1.222-3.892a27.476 27.476 0 0 1-.676-3.679c-.223-1.969-.435-3.947-.479-5.924-.045-2.03.13-4.063.189-6.095a55.171 55.171 0 0 1 1.054-8.431c.44-2.006.993-3.985 1.655-5.929.245-.807.535-.943 1.41-.912.6.02 1.199.075 1.799.103.472 0 .897.29 1.068.73.381.665.555 1.43.5 2.194-.017.13.082.275.128.412.09-.094.186-.184.271-.282.334-.518.75-.98 1.23-1.365a5.923 5.923 0 0 1 2.114-.606c2.337-.304 3.899 1.027 5.31 2.637 1.188 1.356 1.392 3.01 1.494 4.712.065 1.08.166 2.16.312 3.23.093.544.24 1.077.436 1.592.458 1.575.585 3.227.372 4.853-.082 1.099-.006 2.209-.027 3.311-.026 1.455-.021 2.912-.136 4.36-.182 2.295-.441 4.583-.692 6.871a18.8 18.8 0 0 1-.35 1.96.757.757 0 0 1-.808.62 5.126 5.126 0 0 1-1.737-.09 3.5 3.5 0 0 0-.429-.119 6.287 6.287 0 0 0-.7-.131.828.828 0 0 1-.754-.828c0-.806-.05-1.617.015-2.419a2.04 2.04 0 0 0-1.21-2.072c-.863-.474-1.79-.838-2.683-1.264a18.106 18.106 0 0 1-1.527-.792 1.095 1.095 0 0 1-.569-1.337c.128-.6.292-1.197 1.04-1.283 1.01-.118 2.02-.271 3.032-.29 2.106-.038 1.813-.155 1.923-1.748.015-.253 0-.508 0-.762h-.012zm-17.27-8.137c-.232 2.02-.486 4.043-1.474 5.749-.7 1.212-1.166 2.543-1.964 3.693a.788.788 0 0 0-.032.823c.725 2.022 2.09 3.568 3.61 5.008.684.649 1.364 1.3 2.048 1.95a.788.788 0 0 1 .18 1.163c-.353.484-.732.95-1.135 1.395-.665.702-1.342 1.398-2.067 2.037-.642.566-1.013.537-1.758.104a14.546 14.546 0 0 1-5.9-6.788 3.81 3.81 0 0 0-.207-.436c-.429-.684-.425-.665-1.197-.426-.88.275-1.763.54-2.659.756-.39.095-.504.262-.531.653-.168 2.416-.359 4.83-.573 7.24-.087 1.002-.602 1.306-1.576 1.063-.76-.19-1.536-.314-2.29-.521a3.327 3.327 0 0 1-1.103-.524.884.884 0 0 1-.294-.71c.426-2.405.156-4.786-.199-7.163-.357-2.394-.717-4.79-1.14-7.174-.274-1.542-.72-3.053-.987-4.597a23.161 23.161 0 0 1-.509-6.053c.18-1.998.3-4.005.404-6.01.064-1.222.022-2.449.074-3.672.045-1.081.154-2.161.231-3.243a.488.488 0 0 1 .521-.514c.862-.065 1.722-.166 2.583-.235.861-.07 1.46.35 1.908 1.379.265.615.497 1.243.696 1.883a.765.765 0 0 0 .721.618c1.102.125 2.201.275 3.299.436 2.7.336 5.211 1.557 7.142 3.474a13.802 13.802 0 0 1 4.044 7.234c.089.472.093.96.134 1.41zm-34.38-16.32c.02-.181.032-.362.034-.544.007-.415.08-.92.084-1.296.006-.569.242-.791.816-.799a20.17 20.17 0 0 1 5.526.606c.163.045.329.078.496.099 1.064.12 1.282.35 1.095 1.433-.244 1.401-.561 2.79-.87 4.178-.284 1.282-.612 2.553-.897 3.835-.345 1.55-.62 3.116-1.012 4.652-.232.906-.645 1.763-.949 2.652-.28.818-.52 1.654-.779 2.481a.565.565 0 0 1-.068.195c-.626.723-.144 1.327.247 1.89.717 1.033 1.521 2.007 2.229 3.047.388.596.72 1.225.992 1.881.625 1.427 1.265 2.851 1.788 4.316.392 1.098.583 2.266.917 3.387.239.962.608 1.887 1.096 2.75a5.582 5.582 0 0 0 2.776 2.358.741.741 0 0 1 .387.56c-.038.922-.138 1.84-.228 2.758-.038.385-.337.445-.654.487a6.315 6.315 0 0 1-3.962-.974 9.532 9.532 0 0 1-4.158-4.46 22.27 22.27 0 0 1-.733-2.659c-.313-1.037-.672-2.055-1.024-3.077-.209-.61-.474-1.203-.654-1.82a9.547 9.547 0 0 0-1.493-2.863 27.861 27.861 0 0 0-1.86-2.235c-.141-.16-.428-.347-.582-.3-.364.108-.745.303-.717.8.04.711.083 1.425.143 2.136.13 1.512.269 3.022.406 4.533.12 1.332.273 2.662.355 3.996.09 1.446.09 2.898.177 4.345.054.916.202 1.826.299 2.74.06.574.132 1.15.143 1.726a.723.723 0 0 1-.75.823 51.923 51.923 0 0 1-3.439-.256 1.232 1.232 0 0 1-.674-.49c-.552-.697-.488-1.574-.598-2.386-.227-1.692-.481-3.387-.562-5.089a33.002 33.002 0 0 0-1.133-6.244c-.201-.826-.253-1.687-.418-2.523-.538-2.688-.8-5.426-1.622-8.062-.534-1.714-.932-3.471-1.328-5.224-.227-1.008-.338-2.043-.486-3.068-.028-.55.354-1.039.895-1.145a12.755 12.755 0 0 1 4.566-.404c.186.014.368.065.551.074 1.08.05 1.464.414 1.665 1.47.19.997.438 1.981.665 2.97.03.084.071.165.121.239.083-.063.195-.11.245-.193a12.801 12.801 0 0 0 1.384-3.298c.579-2.35.974-4.74 1.181-7.153a1.06 1.06 0 0 1 .079-.335c.128-1.106.184-1.688.29-2.524zm-7.107-38.049c-1.965-.206-3.513.666-4.903 1.885-.897.787-1.737 1.644-2.555 2.516a1.43 1.43 0 0 0-.262.9c-.008 1.496.006 2.992.042 4.487.043 1.682.361 3.786.467 5.464.025.48.089.958.19 1.428.034.405.041.814.023 1.22-.006.932-.178 1.115-1.1 1.21-1.302.137-2.603.282-3.908.393-1.532.13-1.606-.32-1.678-1.562-.09-1.535-.484-3-.692-4.5-.179-1.294-.131-2.617-.241-3.922-.167-1.951-.404-3.896-.576-5.848a14.14 14.14 0 0 1 .007-3.926c.211-1.128.014-2.325.07-3.492.055-1.168.187-2.333.315-3.496a1.2 1.2 0 0 1 1.168-1.15c1.376-.17 2.74-.345 4.113.064a2.662 2.662 0 0 1 2.118 3.023c-.03.771-.1 1.541-.214 2.305a7.573 7.573 0 0 0-.084 2.316l.028.22c.033.262.188.27.39.111.705-.56 1.42-1.104 2.128-1.662a6.207 6.207 0 0 1 2.927-1.46c2.184-.318 4.365-.701 6.562-.876a11.025 11.025 0 0 1 4.872.827 9.098 9.098 0 0 1 3.694 2.448c.295.35.554.729.772 1.132.47.808.897 1.638 1.283 2.49.412.97.755 1.974 1.074 2.98.608 1.924.44 3.927.567 5.9.05.753.25 1.495.352 2.247.11.633.168 1.274.175 1.918-.051.591-.144 1.179-.276 1.758a34.734 34.734 0 0 0-.416 5.71 22.06 22.06 0 0 1-.38 5.214 4.47 4.47 0 0 0-.044 1.103c.01.663-.225.964-.89.928a72.304 72.304 0 0 1-3.722-.3c-1.005-.108-2.003-.28-3.003-.427-.496-.071-.61-.358-.558-.843.046-.573.047-1.15.003-1.722a26.426 26.426 0 0 1 .19-4.683c.077-1.31.08-2.623.013-3.934.017-1.289.096-2.575.123-3.863.018-.876-.003-1.753-.013-2.63-.004-.278-.03-.554-.045-.83-.105-1.888-.185-3.779-.337-5.663a2.674 2.674 0 0 0-.507-1.228c-.538-.773-1.136-1.506-1.733-2.236a4.251 4.251 0 0 0-3.055-1.699c-.826-.06-1.646-.162-2.473-.245zm-13.1 47.624c.572-.036 1.349-.097 2.127-.14.973-.055 1.358.166 1.664 1.103.436 1.33.787 2.692 1.223 4.025.316.965.747 1.891 1.065 2.856a59.834 59.834 0 0 1 1.142 3.837c.38 1.468.75 2.95 1.003 4.445.342 2.025.652 4.06.813 6.104a35.14 35.14 0 0 1-.128 4.039c-.034.936-.052 1.874-.094 2.811a14.813 14.813 0 0 1-1.012 4.844c-.187.467-.347.944-.48 1.429-.37 1.372-1.25 2.46-1.991 3.619a8.228 8.228 0 0 1-1.57 1.525c-1.13 1.008-2.342 1.913-3.911 2.026-.943.069-1.89.035-2.827-.099a7.326 7.326 0 0 1-4.221-1.874c-.34-.331-.534-.81-.875-1.141a24.46 24.46 0 0 1-3.489-4.613c-.82-1.3-1.49-2.694-2.183-4.072-.9-1.789-1.769-3.593-2.623-5.403-.303-.644-.53-1.326-.785-1.993-.345-.9-.683-1.802-1.026-2.701-.688-1.803-1.305-3.634-2.1-5.387-.356-.787-1.083-1.403-1.618-2.114-.485-.644-1.222-.767-1.919-.945a3.09 3.09 0 0 1-2.173-1.937c-.466-1.05-1.116-2.019-1.362-3.168-.174-.809-.408-1.608-.533-2.423-.091-.608.147-.868.772-.889 1.124-.038 2.249 0 3.373-.023 1.961-.042 3.927-.027 5.827-.658.7-.221 1.414-.399 2.137-.53.462-.137.961.028 1.25.415.47.57.844 1.211 1.107 1.9a37.176 37.176 0 0 0 2.014 5.079c.147.339.223.708.367 1.043.28.653.504.924.683 1.379.14.357.286.713.448 1.06.216.522.402 1.056.555 1.6.47 1.418.873 2.856 1.3 4.29.641 2.14 1.247 4.293 1.93 6.42.436 1.354.985 2.672 1.484 4.005.29.778.545 1.574.893 2.326.195.382.467.72.798.993.432.37.9.698 1.397.978.252.101.523.145.794.13.217-.002.433.012.648.04a2.129 2.129 0 0 0 1.948-1.433 17.223 17.223 0 0 0 1.357-4.27c.168-1.165-.207-2.406-.317-3.618-.08-.867-.084-1.742-.2-2.604a35.169 35.169 0 0 0-.552-3.051c-.2-.9-.457-1.785-.728-2.667-.267-.858-.575-1.7-.873-2.545-.335-.952-.677-1.902-1.018-2.852a3.815 3.815 0 0 0-.204-.514c-.92-1.698-1.328-3.574-1.88-5.4-.227-.751-.481-1.494-.708-2.245a20.845 20.845 0 0 1-.393-1.473.844.844 0 0 1 .516-1.017 5.124 5.124 0 0 1 3.159-.523zM75.356 89.18c-.5-.048-.997-.128-1.487-.238a1.135 1.135 0 0 1-.772-.844 17.944 17.944 0 0 0-1.402-3.655c-1.108-1.833-2.046-3.77-3.102-5.638-.576-1.02-1.25-1.988-1.872-2.98-.338-.547-.659-1.108-1-1.655-.902-1.448-1.822-2.885-2.71-4.34-.992-1.63-2.046-3.237-2.922-4.93-.733-1.418-1.24-2.953-1.864-4.428-.485-1.143-1.012-2.27-1.498-3.413-.457-1.077-.866-2.175-1.33-3.248-.847-1.958-1.826-3.868-2.543-5.873-.506-1.418-1.372-2.637-1.907-4.025-.405-1.05-.866-2.084-1.197-3.158a2.788 2.788 0 0 1 1.213-3.308c.492-.342.967-.71 1.423-1.1 1.125-.972 2.518-1.236 3.909-1.432 1.688-.238 3.388-.436 5.088-.506 1.107.028 2.212.118 3.308.268 1.75.136 3.446.663 4.963 1.545a34.662 34.662 0 0 1 4.178 2.913 25.415 25.415 0 0 1 2.91 2.742c1.009 1.096 1.919 2.286 2.85 3.45a14.066 14.066 0 0 1 2.196 4.353c.59 1.894.843 3.878.75 5.86-.067.71-.197 1.413-.39 2.1-.317 1.573-.527 3.183-.987 4.716a12.893 12.893 0 0 1-2.71 4.546 14.472 14.472 0 0 1-3.02 3.024c-.243.158-.26.29-.094.492.037.06.08.114.127.165 1.11.904 1.674 2.197 2.308 3.41.862 1.648 1.575 3.376 2.36 5.066.359.772.802 1.511 1.092 2.306.407 1.119.689 2.285 1.068 3.414.203.605.548 1.162.741 1.768.3.938.019 1.369-.974 1.54-1.313.226-2.635.4-3.952.612-.974.157-1.945.34-2.751.481zM55.528 27.736a18.07 18.07 0 0 0-2.975.038c-1.313.248-2.604.6-3.86 1.055a4.65 4.65 0 0 0-2.666 1.985c-.065.114-1.267 2.507-1.99 3.642a6.11 6.11 0 0 0-1.057 2.453 8.443 8.443 0 0 0 .893 4.82c.642 1.348 1.385 2.654 1.981 4.025a5.648 5.648 0 0 1 .496 3.772c-.054.316-.128.63-.223.937-.055.134-.282.197-.431.294a2.83 2.83 0 0 1-.184-.339c-.414-1.09-.764-2.207-1.25-3.264-.46-1-1.05-1.94-1.598-2.897-.456-.796-1.002-1.55-1.388-2.377-.66-1.42-1.15-2.922-1.855-4.319-.686-1.362-.621-2.208-.29-3.532a3.73 3.73 0 0 1 .58-.888c.49-.447 1.028-.845 1.488-1.32.723-.745 1.521-1.505 1.654-2.577.146-.887.223-1.783.232-2.681a3.367 3.367 0 0 0-.334-1.608 10.226 10.226 0 0 0-1.754-1.972 23.745 23.745 0 0 0-2.036-1.81 19.46 19.46 0 0 0-2.454-1.732 17.469 17.469 0 0 0-2.552-1.057 5.152 5.152 0 0 0-1.464-.38c-2.839-.157-5.417.442-7.608 2.447-1.766 1.615-3.712 3.004-5.06 5.074-1.025 1.574-1.378 4.05-.43 5.773.624 1.13 1.264 2.252 1.881 3.384a10.4 10.4 0 0 0 2.167 2.765 9.908 9.908 0 0 1 1.98 2.626c.659 1.19 1.385 2.343 2.05 3.53.764 1.365 1.705 2.68 2.189 4.143a30.994 30.994 0 0 0 2.812 5.762 32.685 32.685 0 0 1 1.61 2.884c.853 1.886 1.54 3.848 2.426 5.717 1.285 2.708 2.702 5.352 4.025 8.042 1.393 2.83 2.726 5.69 4.111 8.525.537 1.1 1.111 2.178 1.722 3.234 1.025 1.775 2.11 3.516 3.143 5.286a31.906 31.906 0 0 1 2.592 5.716c.502 1.453 1.242 2.825 1.885 4.23.68 1.484 1.386 2.955 2.047 4.448.37.837.657 1.71.998 2.562.29.727.598 1.45.907 2.166.381.887.734 1.79 1.167 2.651.592 1.173 1.288 2.295 1.869 3.474a350.312 350.312 0 0 1 3.705 7.728c.782 1.693 1.42 3.454 2.21 5.143.796 1.704 1.734 3.341 2.553 5.035.711 1.473 1.31 2.999 2.016 4.472a416.499 416.499 0 0 0 3.695 7.509 83.502 83.502 0 0 0 1.885 3.5 93.627 93.627 0 0 1 4.497 9.66 71.055 71.055 0 0 0 2.053 4.438c.854 1.684 1.787 3.33 2.694 4.984.97 1.771 1.937 3.544 2.93 5.304a1.98 1.98 0 0 0 1.925 1.212c1.15-.074 2.306-.065 3.453-.17a9.056 9.056 0 0 0 5.02-1.946c.5-.407.992-.821 1.481-1.24.438-.292.65-.824.53-1.336a17.559 17.559 0 0 0-.523-1.912 124.586 124.586 0 0 0-1.754-4.272A81.752 81.752 0 0 0 98 157.609c-.446-.937-.95-1.846-1.37-2.792-.746-1.686-1.437-3.398-2.18-5.086-.33-.763-.743-1.49-1.102-2.242a1.46 1.46 0 0 1 .317-1.81c.522-.576 1.116-.434 1.723-.268.776.215 1.486.27 2.087-.427a11.12 11.12 0 0 1 2.437-2.336c.114-.072.203-.136.289-.201.4-.306.77-.647 1.106-1.022a10.036 10.036 0 0 1 2.13-1.577 29.404 29.404 0 0 1 3.436-1.88c1.568-.735 3.194-1.347 4.79-2.024a59.16 59.16 0 0 1 1.952-.793c1.369-.528 2.731-1.088 4.135-1.504 1.719-.51 3.49-.846 5.239-1.26 1.702-.404 3.399-.834 5.108-1.209 1.725-.378 3.46-.716 5.193-1.047 3.297-.634 6.542-1.526 9.882-1.943 2.946-.367 5.885-.798 8.835-1.124 2.037-.225 4.087-.357 6.135-.464 2.473-.13 4.95-.186 7.425-.28 1.681-.066 3.362-.116 5.04-.222 2.57-.165 5.137-.376 7.706-.55 2.106-.145 4.216-.257 6.323-.4 1.543-.106 3.08-.25 4.624-.361 2.325-.16 4.652-.316 6.978-.467 2.127-.138 4.254-.282 6.382-.395 1.374-.073 2.753-.063 4.127-.15 1.857-.115 3.71-.324 5.569-.425 1.654-.089 3.316-.074 4.97-.13a15.459 15.459 0 0 0 1.904-.174c.37-.058 1.904-.519 2.274-.567 1.688-.216 2.192-.15 3.88-.371.934-.122 1.855-.34 2.786-.491 1.273-.207 2.546-.406 3.823-.582 1.093-.15 2.2-.213 3.284-.403 1.923-.336 3.837-.724 5.748-1.12 1.553-.323 3.094-.698 4.644-1.029.539-.115 1.106-.11 1.634-.255 1.731-.475 3.453-.986 5.172-1.502.37-.112.715-.302 1.076-.447.855-.342 1.728-.643 2.564-1.024 1.742-.793 3.547-1.46 5.146-2.541.366-.247.98-.624 1.37-.831 1.162-.617 2.378-1.143 3.491-1.835a52.564 52.564 0 0 0 4.715-3.22 28.38 28.38 0 0 0 3.672-3.44c.877-.982 1.379-2.239.717-3.583a17.684 17.684 0 0 0-1.12-1.882 3.528 3.528 0 0 0-1.025-1.04l-.007-.006a2.21 2.21 0 0 0-.336-.181 4.473 4.473 0 0 0-2.164-.316c-1.654.105-3.309.306-4.963.372-1.587.064-3.18.048-4.769-.008-1.82-.062-3.642-.142-5.452-.33-1.785-.186-3.558-.505-5.33-.796a14.062 14.062 0 0 1-1.734-.34c-3.042-.57-8.475-3.633-9.879-4.218-.85-.355-1.71-.699-2.536-1.097-.756-.363-1.462-.83-2.222-1.183a55.487 55.487 0 0 0-3.534-1.517 110.537 110.537 0 0 0-4.535-1.603c-1.875-.626-3.763-1.217-5.648-1.816-1.62-.513-3.224-1.095-4.87-1.506-2.764-.69-4.414-.613-7.198-1.22-.533-.116-1.094-.098-1.631-.197-1.714-.316-2.657-.597-4.375-.886-1.596-.27-3.205-.473-4.811-.676-1.664-.212-3.333-.382-4.999-.58-1.87-.225-3.738-.52-5.613-.674-1.897-.155-3.804-.178-5.707-.25-.78-.03-1.562-.072-2.342-.048-1.555.05-3.978-.254-5.528-.125-1.793.148-4.614.109-6.405.141-3.367.061-6.738-.059-10.107-.086-1.705-.015-3.411.027-5.117.01-1.614-.014-3.23-.035-4.84-.129a20.79 20.79 0 0 1-2.796-.36 30.385 30.385 0 0 1-3.934-.941 2.212 2.212 0 0 1-1.443-2.761c.261-1.058 1.059-1.53 1.874-1.87 1.445-.6 2.964-1.022 4.457-1.505a22.413 22.413 0 0 1 1.908-.512c1.697-.352 3.397-.683 5.097-1.02 1.264-.252 2.524-.51 3.792-.743 1.405-.258 2.827-.433 4.217-.75 1.545-.353 3.058-.842 4.593-1.244 1.16-.3 2.354-.493 3.495-.852 1.914-.6 3.804-1.279 5.693-1.952a190.02 190.02 0 0 0 4.872-1.815 9.098 9.098 0 0 0 1.562-.784c1.537-.968 3.015-2.034 4.585-2.945a5.7 5.7 0 0 0 2.614-3.35c.484-1.537-1.103-3.675-2.757-4.061-1.737-.408-3.485-.326-5.238-.352-1.169-.019-2.34-.03-3.503-.115-.87-.063-1.728-.264-2.596-.36-.962-.103-1.948-.068-2.892-.25-1.87-.362-3.717-.825-5.57-1.258a12.731 12.731 0 0 1-1.524-.435c-2.34-.872-4.668-1.775-7.008-2.647-1.765-.658-3.558-1.244-5.307-1.942-1.4-.56-2.773-1.2-4.122-1.878-2.02-1.015-1.706-.87-3.781-1.908-.271-.062-4.972-1.98-5.188-2.075-1.417-.634-1.34-.521-2.778-1.103a20.03 20.03 0 0 0-4.566-1.427c-1.048-.376-2.258-.713-3.428-1.048-1.853-.53-6.85-1.527-7.796-1.806-.61-.18-2.286-.442-3.424-.666-1.009-.199-2.616-.647-3.618-.864-1.347-.29-2.721-.449-4.075-.71-.99-.19-1.96-.49-2.952-.675a59.5 59.5 0 0 0-7.967-.814c-1.262-.062-2.52-.184-3.78-.287-1.01-.083-2.02-.179-3.028-.269-1.446-.129-2.89-.296-4.338-.376-1.374-.076-2.753-.078-4.131-.082-2.7-.007-5.399-.032-8.098.023-1.953.04-3.904.203-5.857.3-2 .1-4.002.176-6.001.276-2.094.104-4.186.225-6.124.33z"/></g><g><path d="M63.057 40.163c.805.052 1.62.042 2.413.172a8.887 8.887 0 0 1 2.585.675 9.664 9.664 0 0 1 2.191 1.744c.908.879 1.724 1.85 2.603 2.761a8.525 8.525 0 0 1 1.968 2.973c.437 1.186 1.127 2.294 1.158 3.596.066.918.22 1.826.458 2.712.053.528.022 1.06-.092 1.576-.156 1.329-.33 2.655-.502 3.981a1.91 1.91 0 0 1-.147.601 9.344 9.344 0 0 1-1.79 2.763c-.507.424-1.041.815-1.599 1.169-.308.22-.453-.011-.61-.21-.986-1.245-1.975-2.487-2.953-3.737-.812-1.035-1.66-2.046-2.395-3.133-.654-.968-1.157-2.035-1.76-3.04-1.004-1.68-2.047-3.336-3.038-5.023a12.23 12.23 0 0 1-1.02-2.107 20.276 20.276 0 0 0-2.65-4.911c-.237-.337-.236-.393-.496-.717a.662.662 0 0 1 .38-.951c1.89-.48 3.275-1.118 5.296-.894z"/></g><g><path d="M141.124 105.235c-.055-.717-.103-1.428-.16-2.143-.152-1.884-.336-3.766-.456-5.652-.132-2.111-.197-4.227-.315-6.341-.04-.782-.122-1.56-.249-2.331-.083-.497.1-.52.512-.515 2.21.029 3.955 1.048 5.581 2.439 1.563 1.337 2.058 3.121 2.347 5.02.183 1.208.43 2.435-.04 3.623-.354.9-.849 1.743-1.206 2.64a5.497 5.497 0 0 1-2.537 2.812c-.4.201-.786.43-1.155.685a7.233 7.233 0 0 1-1.593.772c-.647.181-.704.08-.742-.59-.009-.138 0-.276 0-.416z"/></g><g><path d="M225.498 97.812c.24.073.448.252.689.32 1.307.367 1.815 1.475 2.386 2.529.136.251.055.41-.189.561-1.664 1.027-3.313 2.078-4.981 3.098a5.9 5.9 0 0 1-1.263.556.628.628 0 0 1-.566-.145 5.73 5.73 0 0 1-.894-3.35c.008-.481.118-.96.163-1.442.146-1.559 1.518-2.231 2.636-2.393a4.958 4.958 0 0 1 2.019.266z"/></g><g><path d="M100.86 71.326c.948.007 1.202.317 1.178 1.38-.018.78.072 1.566.127 2.348.104 1.449.236 2.896.314 4.346.012.229-.149.628-.314.676a8.952 8.952 0 0 1-2.005.386c-.49.029-.713-.323-.779-.857-.266-2.145-.59-4.282-.89-6.422a7.229 7.229 0 0 1-.066-.69.927.927 0 0 1 .865-1.047c.48-.063.964-.075 1.57-.12zm-1.524-2.59c-.503.003-2.236.101-3.174.22-.937.119-1.17.47-1.03 1.403.316 2.093.595 4.192.957 6.277.318 1.836.723 3.656 1.099 5.481.192.934.34 1.04 1.312.974 1.906-.13 3.813-.272 5.72-.397.352-.021.58-.15.61-.518.06-.475.089-.953.085-1.433-.11-2.072-.247-4.142-.379-6.214-.105-1.653-.202-3.307-.334-4.958-.072-.908-.436-1.183-1.359-1.108-1.014.082-2.028.169-3.042.253-.155.013-.31.02-.465.02z"/></g><g><path d="M113.009 73.604c-.033.62-.311.855-.932.827-.39-.017-.78-.056-1.17-.043a.652.652 0 0 1-.75-.702c-.023-.434-.002-.873-.002-1.308 0-.39.017-.776-.006-1.162-.031-.521.173-.809.677-.844.433-.029.87-.032 1.304-.032.565 0 .799.212.827.783.022.414.065 1.134.055 1.241 0 .414.018.828-.003 1.24zm-2.644 6.958c0-.506-.012-1.014 0-1.523.012-.499.253-.653.639-.35.338.24.602.57.76.953.222.748.382 1.513.479 2.287.11.749.2.85.941.768.208-.016.416-.019.623-.011a.982.982 0 0 0 1.114-1.213c-.042-.6-.134-1.192-.275-1.775a7.971 7.971 0 0 0-.8-2.124c-.726-1.151-.79-1.138.563-1.427a.999.999 0 0 0 .906-1.035c.032-.685.057-1.37.077-2.054.031-1.127.118-2.248.063-3.379-.055-1.13-.14-1.494-1.29-1.517-.543-.01-1.086-.049-1.63-.062-1.262-.03-2.525-.086-3.788-.069-.922.015-1.282.423-1.292 1.338-.016 1.449-.032 2.897-.02 4.346.013 1.634.04 3.268.094 4.902.043 1.15.139 2.298.221 3.448.023.314.116.604.506.635.458.037.918.081 1.378.093.584.014.802-.232.798-.844v-1.386z"/></g><g><path d="M90.927 69.86c.827-.023.833-.024 1.034.802.191.784.363 1.573.563 2.355a.556.556 0 0 1-.501.793c-.61.116-1.218.257-1.83.366-.996.178-1.294.614-1.052 1.576.386 1.525.489 1.591 2.046 1.296.5-.095.996-.22 1.499-.269.182-.018.496.088.551.22.202.515.363 1.046.482 1.584a.666.666 0 0 1-.51.903c-.617.175-1.219.403-1.833.59-.367.11-.463.294-.331.67.254.742.463 1.498.687 2.248.059.199.115.399.16.601.077.354-.092.516-.435.546-.5.074-1.007.116-1.514.125a.848.848 0 0 1-.614-.41 71.454 71.454 0 0 1-1.335-3.11 466.507 466.507 0 0 1-1.99-4.937c-.245-.62-.44-1.26-.664-1.89-.198-.565-.377-1.137-.603-1.69-.325-.794-.234-1.08.565-1.28.691-.173 1.404-.262 2.106-.398 1.172-.226 2.345-.458 3.519-.69z"/></g></g></g><g><g><path d="M65.544 75.172c0-.243.156-.459.386-.535 1.075-.356 1.305.345 1.333.53-.028.253-.09.504-.182.742a.564.564 0 0 1-.828.309l-.44-.264a.563.563 0 0 1-.276-.482z"/></g><g><path d="M96.442 77.416a.155.155 0 0 0-.217.024.5.5 0 0 0-.085.576c.097.133.625.105.651 0a.9.9 0 0 0-.09-.367.153.153 0 0 0-.046-.061z"/></g><g><path d="M140.115 65.318c0-.084.045-.162.117-.204a.65.65 0 0 1 .726-.012c.103.085.163.21.165.344a.233.233 0 0 1-.186.26l-.244.048a.233.233 0 0 1-.155-.023l-.299-.159a.234.234 0 0 1-.124-.206z"/></g><g><path d="M133.932 106.192c0-.13.085-.246.208-.287.578-.192.702.185.717.284-.015.137-.048.27-.098.4a.302.302 0 0 1-.441.165l-.236-.142a.304.304 0 0 1-.148-.26z"/></g><g><path d="M173.274 85.494a.267.267 0 0 0-.377.041.867.867 0 0 0-.145 1c.165.23 1.083.181 1.13 0a1.57 1.57 0 0 0-.158-.636.268.268 0 0 0-.08-.107z"/></g><g><path d="M156.535 44.763a.563.563 0 0 1 .651-.107c1.013.504.684 1.163.574 1.314-.2.16-.419.294-.653.398a.563.563 0 0 1-.803-.361l-.126-.497a.562.562 0 0 1 .146-.535z"/></g><g><path d="M90.193 108.076a.234.234 0 0 1 .227-.061c.26.045.468.243.524.502a.456.456 0 0 1-.126.36.235.235 0 0 1-.314.056l-.208-.138a.236.236 0 0 1-.095-.126l-.097-.325a.23.23 0 0 1 .055-.233z"/></g><g><path d="M117.889 74.05a.304.304 0 0 1 .35-.054c.545.27.368.625.31.706a1.624 1.624 0 0 1-.352.215.304.304 0 0 1-.432-.195l-.068-.267a.302.302 0 0 1 .079-.288z"/></g><g><path d="M221.174 112.558a.267.267 0 0 0-.296-.235.865.865 0 0 0-.808.606c-.043.28.641.89.801.795.151-.162.266-.354.337-.563a.268.268 0 0 0 .02-.131z"/></g></g></g></g></g></g></svg>