<svg xmlns="http://www.w3.org/2000/svg" width="503" height="318" viewBox="0 0 503 318"><defs><clipPath id="3viha"><path fill="#fff" d="M.804 317.028V.972h501.392v316.056zm280.38-198.298c-.04-.184-.08-.368-.122-.552.702-.214 1.4-.443 2.105-.642 4.485-1.268 9.025-2.368 13.446-3.826 9.196-3.034 18.369-6.173 26.167-12.225.183-.141.416-.22.594-.368 1.744-1.442 3.69-2.708 5.179-4.38 3.03-3.405 4.915-7.44 4.685-12.095-.375-7.573-6.337-14.129-13.811-15.586-3.813-.744-7.657-.597-11.5-.7-5.832-.155-11.613-.818-17.345-1.936-4.945-.964-9.684-2.558-14.338-4.452-6.906-2.812-14.117-4.832-20.808-8.217-10.418-5.269-21.17-9.701-32.408-12.97-8.245-2.399-16.621-4.165-25.004-5.936-5.815-1.229-11.652-2.36-17.454-3.642-4.855-1.073-9.758-1.679-14.71-2.025-5.23-.365-10.471-.68-15.684-1.238-11.108-1.19-22.244-.973-33.37-.698-8.62.214-17.234.742-25.839 1.316-5.325.355-10.763-.306-15.943 1.568-.77.278-1.355 0-1.744-.73-2.022-3.8-5.255-6.515-8.422-9.263-3.725-3.232-7.808-5.865-12.56-7.422-8.378-2.744-16.318-1.688-23.585 3.065-4.526 2.96-8.53 6.684-12.055 10.845-.826.975-1.603 2.014-2.253 3.112-3.363 5.682-4.38 11.784-1.944 17.955 2.072 5.248 4.776 10.289 8.702 14.459 1.865 1.98 3.363 4.143 4.706 6.474 2.619 4.544 5.387 9.002 7.14 13.99.403 1.146 1.014 2.233 1.628 3.288 2.997 5.14 5.835 10.35 7.933 15.946.897 2.394 2.12 4.67 3.25 6.972 3.31 6.753 6.686 13.473 9.96 20.243 3.123 6.461 6.45 12.801 10.221 18.916 1.586 2.572 2.961 5.293 4.222 8.042 2.015 4.395 3.748 8.92 5.79 13.301 4.135 8.87 7.441 18.094 12.092 26.76 3.933 7.329 7.01 15.116 10.537 22.667 1.75 3.749 3.67 7.417 5.499 11.13 4.069 8.26 8.12 16.53 12.196 24.787 1.6 3.24 3.44 6.375 4.833 9.699 3.97 9.476 8.322 18.754 13.467 27.653 1.662 2.876 3.153 5.86 4.943 8.652 2.497 3.894 6.212 5.985 10.825 6.1 2.96.074 5.942-.177 8.894-.483 6.812-.707 12.352-4.041 17.065-8.8 3.117-3.147 4.324-7.01 3.294-11.405-.437-1.869-.913-3.751-1.619-5.53-1.505-3.79-3.13-7.536-4.785-11.265-1.393-3.143-2.87-6.25-4.366-9.347-.637-1.317-.628-2.387.557-3.42 1.794-1.564 3.567-3.16 5.24-4.852 2.934-2.967 6.524-4.868 10.287-6.483 3.75-1.61 7.502-3.23 11.331-4.631 3.276-1.2 6.639-2.186 10.008-3.1a166.181 166.181 0 0 1 10.213-2.405c10.048-2.054 20.075-4.259 30.183-5.977 8.44-1.434 16.958-2.475 25.544-2.719 3.437-.097 6.874-.21 10.308-.394 7.506-.403 15.01-.834 22.513-1.293 5.934-.363 11.864-.775 17.794-1.18 7.734-.53 15.463-1.1 23.198-1.598 4.07-.262 8.148-.408 12.221-.613 5.586-.28 11.173-.557 16.758-.857 3.607-.194 7.23-.264 10.727-1.35.553-.172 1.143-.228 1.72-.306 3.636-.49 7.275-.957 10.91-1.459 2.425-.335 4.835-.801 7.268-1.057 9.827-1.032 19.393-3.459 29.002-5.583 4.866-1.076 9.608-2.862 14.267-4.68 4.006-1.563 7.84-3.578 11.702-5.49 2.137-1.06 4.155-2.356 6.262-3.48 7.778-4.15 14.854-9.223 20.75-15.826 2.824-3.163 4.46-6.872 4.203-11.167-.38-6.337-3.564-11.245-8.396-15.1-1.324-1.056-3.055-1.675-4.684-2.26-2.693-.968-5.535-.862-8.315-.551-8.04.898-16.063.683-24.085-.11-7.595-.751-14.92-2.37-21.718-6.121-4.584-2.529-9.408-4.63-14.152-6.863-8.417-3.961-17.36-6.467-26.151-9.396-6.163-2.052-12.403-3.655-18.877-4.337-2.43-.257-4.835-.755-7.25-1.153-5.52-.908-11.022-1.934-16.56-2.706-6.234-.87-12.481-1.778-18.754-2.19-8.079-.53-16.187-.684-24.286-.808-5.125-.078-10.255.195-15.383.306-.685.015-1.373.002-2.06.002z"/></clipPath></defs><g><g><g><g><g><g><path fill="#fbb03b" d="M281.184 118.73c.686 0 1.374.013 2.06-.002 5.127-.11 10.257-.384 15.382-.306 8.099.124 16.207.278 24.286.808 6.273.412 12.52 1.32 18.754 2.19 5.538.772 11.04 1.798 16.56 2.706 2.415.398 4.82.896 7.25 1.153 6.474.682 12.714 2.285 18.877 4.337 8.792 2.929 17.734 5.435 26.151 9.396 4.744 2.233 9.568 4.334 14.152 6.863 6.798 3.75 14.123 5.37 21.718 6.12 8.022.794 16.046 1.01 24.085.11 2.78-.31 5.622-.416 8.315.552 1.629.585 3.36 1.204 4.684 2.26 4.832 3.855 8.017 8.763 8.396 15.1.257 4.295-1.38 8.004-4.202 11.167-5.897 6.603-12.973 11.676-20.75 15.826-2.108 1.124-4.126 2.42-6.263 3.48-3.862 1.912-7.696 3.927-11.702 5.49-4.66 1.818-9.401 3.604-14.267 4.68-9.61 2.124-19.175 4.55-29.002 5.583-2.433.256-4.843.722-7.268 1.057-3.635.502-7.274.97-10.91 1.459-.577.078-1.168.134-1.72.305-3.497 1.087-7.12 1.157-10.727 1.35-5.585.301-11.172.577-16.758.858-4.073.205-8.151.35-12.221.613-7.735.499-15.464 1.069-23.198 1.597-5.93.406-11.86.818-17.794 1.181-7.502.459-15.007.89-22.513 1.293-3.434.184-6.87.297-10.308.394-8.586.244-17.105 1.285-25.544 2.72-10.108 1.717-20.135 3.922-30.183 5.976-3.426.7-6.84 1.49-10.213 2.406-3.37.913-6.732 1.9-10.008 3.099-3.83 1.401-7.581 3.022-11.331 4.63-3.763 1.616-7.353 3.517-10.288 6.484-1.672 1.691-3.445 3.288-5.239 4.851-1.185 1.034-1.194 2.104-.557 3.421 1.496 3.097 2.973 6.204 4.366 9.347 1.654 3.73 3.28 7.474 4.785 11.265.706 1.779 1.182 3.661 1.62 5.53 1.029 4.395-.178 8.258-3.295 11.405-4.713 4.759-10.253 8.093-17.065 8.8-2.952.306-5.935.557-8.894.483-4.613-.115-8.328-2.206-10.825-6.1-1.79-2.792-3.281-5.776-4.943-8.652-5.145-8.9-9.497-18.177-13.467-27.653-1.392-3.324-3.234-6.459-4.833-9.699-4.076-8.257-8.127-16.527-12.196-24.787-1.829-3.713-3.748-7.381-5.499-11.13-3.528-7.55-6.604-15.338-10.537-22.668-4.65-8.665-7.957-17.889-12.092-26.759-2.042-4.38-3.775-8.906-5.79-13.3-1.26-2.75-2.636-5.471-4.222-8.043-3.77-6.115-7.098-12.455-10.222-18.916-3.273-6.77-6.65-13.49-9.96-20.243-1.128-2.303-2.352-4.578-3.249-6.972-2.098-5.597-4.936-10.805-7.933-15.946-.614-1.055-1.225-2.142-1.628-3.287-1.753-4.99-4.521-9.447-7.14-13.99-1.343-2.332-2.841-4.495-4.706-6.475-3.926-4.17-6.63-9.211-8.702-14.46-2.436-6.17-1.419-12.272 1.944-17.954.65-1.098 1.427-2.137 2.253-3.112 3.524-4.16 7.529-7.885 12.055-10.845 7.267-4.753 15.207-5.81 23.584-3.065 4.753 1.557 8.836 4.19 12.561 7.422 3.167 2.748 6.4 5.463 8.422 9.262.39.731.974 1.01 1.744.731 5.18-1.874 10.618-1.213 15.943-1.568 8.604-.574 17.22-1.102 25.839-1.316 11.126-.275 22.262-.492 33.37.698 5.213.559 10.453.873 15.685 1.238 4.95.346 9.854.952 14.709 2.025 5.802 1.282 11.64 2.413 17.454 3.642 8.383 1.77 16.76 3.537 25.004 5.935 11.238 3.27 21.99 7.702 32.408 12.971 6.691 3.385 13.902 5.405 20.808 8.217 4.654 1.894 9.393 3.488 14.338 4.452 5.732 1.118 11.513 1.78 17.345 1.936 3.843.103 7.687-.044 11.5.7 7.474 1.457 13.436 8.013 13.81 15.586.231 4.655-1.654 8.69-4.684 12.094-1.489 1.673-3.435 2.939-5.18 4.381-.177.147-.41.227-.593.368-7.798 6.052-16.97 9.191-26.167 12.225-4.421 1.458-8.961 2.558-13.446 3.826-.706.2-1.403.428-2.105.642l.122.552z"/><path fill="none" stroke="#00262f" stroke-linecap="round" stroke-linejoin="round" stroke-miterlimit="20" stroke-width="22" d="M281.184 118.73c.686 0 1.374.013 2.06-.002 5.127-.11 10.257-.384 15.382-.306 8.099.124 16.207.278 24.286.808 6.273.412 12.52 1.32 18.754 2.19 5.538.772 11.04 1.798 16.56 2.706 2.415.398 4.82.896 7.25 1.153 6.474.682 12.714 2.285 18.877 4.337 8.792 2.929 17.734 5.435 26.151 9.396 4.744 2.233 9.568 4.334 14.152 6.863 6.798 3.75 14.123 5.37 21.718 6.12 8.022.794 16.046 1.01 24.085.11 2.78-.31 5.622-.416 8.315.552 1.629.585 3.36 1.204 4.684 2.26 4.832 3.855 8.017 8.763 8.396 15.1.257 4.295-1.38 8.004-4.202 11.167-5.897 6.603-12.973 11.676-20.75 15.826-2.108 1.124-4.126 2.42-6.263 3.48-3.862 1.912-7.696 3.927-11.702 5.49-4.66 1.818-9.401 3.604-14.267 4.68-9.61 2.124-19.175 4.55-29.002 5.583-2.433.256-4.843.722-7.268 1.057-3.635.502-7.274.97-10.91 1.459-.577.078-1.168.134-1.72.305-3.497 1.087-7.12 1.157-10.727 1.35-5.585.301-11.172.577-16.758.858-4.073.205-8.151.35-12.221.613-7.735.499-15.464 1.069-23.198 1.597-5.93.406-11.86.818-17.794 1.181-7.502.459-15.007.89-22.513 1.293-3.434.184-6.87.297-10.308.394-8.586.244-17.105 1.285-25.544 2.72-10.108 1.717-20.135 3.922-30.183 5.976-3.426.7-6.84 1.49-10.213 2.406-3.37.913-6.732 1.9-10.008 3.099-3.83 1.401-7.581 3.022-11.331 4.63-3.763 1.616-7.353 3.517-10.288 6.484-1.672 1.691-3.445 3.288-5.239 4.851-1.185 1.034-1.194 2.104-.557 3.421 1.496 3.097 2.973 6.204 4.366 9.347 1.654 3.73 3.28 7.474 4.785 11.265.706 1.779 1.182 3.661 1.62 5.53 1.029 4.395-.178 8.258-3.295 11.405-4.713 4.759-10.253 8.093-17.065 8.8-2.952.306-5.935.557-8.894.483-4.613-.115-8.328-2.206-10.825-6.1-1.79-2.792-3.281-5.776-4.943-8.652-5.145-8.9-9.497-18.177-13.467-27.653-1.392-3.324-3.234-6.459-4.833-9.699-4.076-8.257-8.127-16.527-12.196-24.787-1.829-3.713-3.748-7.381-5.499-11.13-3.528-7.55-6.604-15.338-10.537-22.668-4.65-8.665-7.957-17.889-12.092-26.759-2.042-4.38-3.775-8.906-5.79-13.3-1.26-2.75-2.636-5.471-4.222-8.043-3.77-6.115-7.098-12.455-10.222-18.916-3.273-6.77-6.65-13.49-9.96-20.243-1.128-2.303-2.352-4.578-3.249-6.972-2.098-5.597-4.936-10.805-7.933-15.946-.614-1.055-1.225-2.142-1.628-3.287-1.753-4.99-4.521-9.447-7.14-13.99-1.343-2.332-2.841-4.495-4.706-6.475-3.926-4.17-6.63-9.211-8.702-14.46-2.436-6.17-1.419-12.272 1.944-17.954.65-1.098 1.427-2.137 2.253-3.112 3.524-4.16 7.529-7.885 12.055-10.845 7.267-4.753 15.207-5.81 23.584-3.065 4.753 1.557 8.836 4.19 12.561 7.422 3.167 2.748 6.4 5.463 8.422 9.262.39.731.974 1.01 1.744.731 5.18-1.874 10.618-1.213 15.943-1.568 8.604-.574 17.22-1.102 25.839-1.316 11.126-.275 22.262-.492 33.37.698 5.213.559 10.453.873 15.685 1.238 4.95.346 9.854.952 14.709 2.025 5.802 1.282 11.64 2.413 17.454 3.642 8.383 1.77 16.76 3.537 25.004 5.935 11.238 3.27 21.99 7.702 32.408 12.971 6.691 3.385 13.902 5.405 20.808 8.217 4.654 1.894 9.393 3.488 14.338 4.452 5.732 1.118 11.513 1.78 17.345 1.936 3.843.103 7.687-.044 11.5.7 7.474 1.457 13.436 8.013 13.81 15.586.231 4.655-1.654 8.69-4.684 12.094-1.489 1.673-3.435 2.939-5.18 4.381-.177.147-.41.227-.593.368-7.798 6.052-16.97 9.191-26.167 12.225-4.421 1.458-8.961 2.558-13.446 3.826-.706.2-1.403.428-2.105.642l.122.552z" clip-path="url(&quot;#3viha&quot;)"/></g></g></g><g><g><g><path d="M324.01 147.415c.22 3.163.411 6.33.671 9.49.189 2.286-.44 3.12-2.72 3.22-2.246.097-4.506.376-6.702-.483-.936-.367-1.517-.914-1.456-1.936.262-4.345.54-8.688.84-13.03.04-.577.222-1.15.374-1.715.415-1.537 1.855-2.517 3.41-2.24 1.232.218 2.455.51 3.658.852 1.208.342 1.97 1.335 2.02 2.576.046 1.084.01 2.172.01 3.258zM152.457 53.3c-.102.015.335 3.051.4 4.565.056 1.3-.175 2.634-.444 3.919-.175.837-.982 1.042-1.778 1.117-2.612.244-5.22.537-7.835.735a5.764 5.764 0 0 1-2.188-.275c-.745-.247-.958-.9-.937-1.72.029-1.107-.137-2.217-.201-3.326-.037-.623-.112-1.257-.04-1.871.291-2.485.614-4.967.967-7.444.117-.823.802-1.243 1.514-1.3 1.488-.12 2.99-.104 4.485-.097.96.005 1.918.123 2.878.142 1.968.039 2.603.538 2.883 2.45.15 1.028.2 2.07.296 3.105zm1.11 18.799c-.01 2.384-.156 4.779.042 7.145.267 3.185.845 6.342 1.254 9.516.197 1.53.264 3.076.474 4.604.312 2.266.651 4.531 1.07 6.78.325 1.743-.237 2.656-1.99 2.868-2.074.25-4.147.58-6.23.674-1.925.089-2.448-.494-2.881-2.413-.738-3.267-1.637-6.503-2.232-9.796-.557-3.077-.765-6.215-1.204-9.315-.398-2.813-.967-5.603-1.33-8.42-.194-1.517-.154-3.07-.137-4.606.008-.673.401-1.19 1.146-1.299 2.418-.353 5.265-.805 7.68-.978.729.068 1.088-.093 1.835-.12 1.562-.057 1.795.133 2.095 1.64.19.958.331 2.406.387 3.135.015.195.022.39.021.585zm168.95 91.739c1.253.101 1.906.725 2.076 1.979.133.983.166 2.018.018 2.996-.612 4.035-.534 8.077-.38 12.137.196 5.178.288 10.36.33 15.541.012 1.454-.298 2.913-.48 4.367-.09.735-.556 1.1-1.221 1.436-2.06 1.038-4.1.73-6.217.251-1.214-.275-2.173-.81-2.415-1.956-.233-1.104-.362-2.233-.482-3.357-.281-2.618-.456-5.248-.806-7.855-.824-6.125-1.339-12.238-.185-18.387.26-1.387.213-2.832.324-4.248.023-.29.105-.578.19-.857.568-1.872.888-2.093 2.869-2.057.837.015 1.675.003 2.513.003v-.016c1.29 0 2.585-.082 3.866.023zm-123.282-48.903c.047.006-.582 10.543-.965 15.804-.17 2.34-.358 4.68-.612 7.012-.149 1.373-.342 2.792-1.796 3.508-.431.212-.914.448-1.374.45-1.963.003-3.927-.12-5.89-.116-2.38.005-4.764.022-7.14.157-5.207.297-10.41.667-15.616 1.016-3.797.254-7.595.5-11.39.79-2.586.196-5.166.468-7.75.694-2.62.229-4.017-.604-4.906-2.927-1.063-2.777-2.04-5.586-3.096-8.365-1.353-3.561-2.743-7.108-4.129-10.656-.609-1.56-1.273-3.098-1.858-4.666a8.614 8.614 0 0 1-.505-2.063c-.207-1.932.854-3.264 2.801-3.57 3.014-.472 6.038-.889 9.047-1.395 2.552-.43 5.077-1.023 7.634-1.416 2.598-.4 5.236-.551 7.83-.975 4.963-.81 9.947-1.28 14.976-1.38 3.248-.066 6.49-.382 9.738-.444 4.084-.079 8.17-.04 12.255.002 1.997.02 2.828 1.04 2.76 3.01-.064 1.841-.014 3.687-.014 5.53zm39.824-48.113c.976.214 1.938.457 2.828.861 2.53 1.151 4.915 2.626 7.355 3.975 2.08 1.148 4.135 2.342 6.232 3.459 2.098 1.117 4.18 2.29 6.366 3.21 3.431 1.445 7.097 1.94 10.776 2.425 2.287.3 4.26-.613 6.357-1.038.882-.178 1.573-.196 2.374.268 1.632.947 3.341 1.76 4.99 2.679 2.948 1.64 6.123 2.894 9.462 3.374 1.746.25 2.077.92 1.281 2.346-.259.464-.625.915-1.045 1.234-2.358 1.79-4.937 3.085-7.895 3.61-1.931.341-3.813.959-5.746 1.285-1.67.281-3.382.454-5.075.444-2.419-.013-4.851-.11-7.25-.407-2.546-.314-5.337-.232-7.397-1.972-1.798-1.518-4.158-1.816-5.935-3.314-1.101-.928-2.55-1.432-3.74-2.27-.976-.686-1.75-1.654-2.706-2.375-1.684-1.27-3.448-2.433-5.16-3.666-1.081-.78-2.097-1.651-3.2-2.396-1.347-.91-2.81-1.07-4.344-.395-1.505.665-1.994 2.58-1.158 3.997 1.182 2.003 2.734 3.697 5.055 4.523 3.9 1.388 7.79 2.81 11.699 4.173 1.244.434 1.787 1.493 2.042 2.53.69 2.805.964 5.68-.756 8.257-.632.946-1.464 1.918-2.45 2.437-.431.228-1.794.915-2.915 1.477-1.373.69-2.88 1.093-4.417 1.101-2.913.015-6.846-.474-8.71-.966-2.159-.574-3.906-2.064-5.593-3.49-1.076-.911-1.958-2.051-2.936-3.08-.545-.572-.639-1.288-.193-1.841 1.306-1.624 2.714-3.166 4.082-4.74 1.092-1.225 1.935.077 2.716.478.876.45 1.436 1.503 2.306 1.972 2.273 1.225 4.486 2.674 7.138 2.97 1.119.126 2.26.096 3.39.064 1.067-.03 1.631-.542 1.735-1.429.202-1.734-.125-2.11-1.761-2.509-1.455-.354-2.903-.725-4.33-1.176-3.658-1.154-7.443-2.347-10.317-5.123-.763-.738-1.79-1.196-2.62-1.874a5.303 5.303 0 0 1-1.27-1.52c-.877-1.602-2.094-3.173-2.403-4.894-.58-3.225-.348-6.594 2.292-8.974 1.648-1.485 3.93-2.671 6.017-3.436 1.546-.566 3.222-.617 4.829-.264zm92.396 127.298c.004-1.03-.342-6.918-.583-9.996-.286-3.63-.645-7.256-.807-10.891-.19-4.265-.266-8.538-.262-12.807.002-2 .342-3.998.47-6 .162-2.552.21-5.11.409-7.658.176-2.268 1.02-3.088 3.263-3.037 1.75.04 3.51.274 5.23.607.433.083.958.837 1.048 1.351.41 2.345.676 4.716 1.005 7.076.03.218.146.425.223.637.149-.137.312-.261.445-.412.944-1.061 1.746-2.302 2.849-3.157 2.27-1.76 4.653-3.424 7.485-4.188 2.028-.547 4.099-.267 6.101.178 2.218.493 4.37 1.288 6.069 2.872 3.462 3.227 5.932 7.086 7.21 11.684.898 3.226.643 6.503.465 9.763-.18 3.272-.473 6.537-.891 9.786-.552 4.281-.58 8.624-1.684 12.845-.567 2.17-.773 4.435-1.144 6.656-.178 1.069-.705 1.636-1.686 1.41-2.96-.684-5.991-.238-8.96-.707-1.983-.314-2.733-.875-2.74-2.895-.005-2.12.242-4.254.532-6.36.833-6.054 1.78-12.093 2.603-18.149.242-1.78.207-3.598.327-5.396.046-.708.153-1.413.259-2.115.186-1.235.28-2.05.069-3.392a6.998 6.998 0 0 0-.24-.981c-.142-.46-.25-.987-.379-1.532-.83-3.52-3.943-6.083-7.345-4.82-2.774 1.03-5.35 2.54-7.548 4.648-1.415 1.358-1.935 2.89-1.996 4.789-.094 2.926-.496 5.844-.548 8.77-.083 4.609-.187 9.235.11 13.828.188 2.929.24 6.019.408 8.756.009.142.01.284.007.426-.02 1.235.197 2.851-.87 3.85-1.257 1.177-2.636 2.053-4.457 1.982-.375-.015-.316.014-.744.071-.467.063-.931.15-1.386.274-1.234.333-1.934-.207-2.04-1.71-.125-1.796-.185-3.597-.266-5.397-.01-.22-.012-.439-.011-.659zm67.383-7.097c2.087-.052 3.95-.371 5.729-1.254 2.948-1.465 6.192-2.313 8.947-4.18 1.24-.84 2.338-1.896 3.593-2.71 1.705-1.108 3.478-2.118 5.262-3.098 5.302-2.916 11.033-2.713 16.782-2.165 1.014.097 1.997.571 2.98.911.791.273 1.543.669 2.344.9 1.865.537 3.409 1.614 4.82 2.873.472.422.8 1.094.988 1.714.092.305-.18.9-.47 1.105-.78.551-1.645.993-2.504 1.421-1.348.671-2.77 1.208-4.062 1.97-.807.475-1.455 1.237-2.134 1.91-.384.382-.67.86-1.032 1.268-1.382 1.555-1.995 1.705-3.835.833-1.47-.697-2.86-1.591-4.373-2.168-4.679-1.784-9.22-1.906-13.633 1.018-3.233 2.142-6.673 3.97-10.004 5.964-.786.471-1.502 1.058-2.259 1.578-2.775 1.908-5.793 2.741-9.164 2.123-1.812-.332-3.68-.435-5.442-.925-1.335-.37-2.59-1.113-3.8-1.83-1.29-.764-2.462-1.724-3.722-2.543-1.573-1.021-2.494-2.562-3.433-4.102-.415-.68-.81-1.377-1.284-2.015-.943-1.27-1.509-2.677-1.869-4.215-.263-1.123-.851-2.168-1.128-3.288-.348-1.41-.74-2.863-.732-4.296.015-2.59.44-5.16 1.18-7.655.235-.79.582-1.57 1.012-2.272 1.2-1.958 2.31-4.006 3.755-5.771 1.829-2.232 4.384-3.59 6.988-4.78.403-.184.903-.212 1.358-.217 1.71-.02 3.424-.068 5.129.033.983.057 1.99.27 2.917.604 2.672.963 5.16 2.13 7.37 4.11 2.439 2.185 4.36 4.731 6.344 7.253.761.967 1.283 2.156 1.756 3.308.579 1.408.338 2.377-.882 3.272-2.154 1.579-4.391 3.045-6.595 4.557-.653.448-1.277.954-1.971 1.327a206.477 206.477 0 0 1-5.35 2.743c-1.831.915-3.665 1.825-5.52 2.69-.57.265-.554.499-.198.92 1.647 1.947 3.467 3.528 6.142 3.079zm-102.363-8.076c-.153-4.649-.252-9.3-.486-13.944-.082-1.621-.475-3.23-.763-4.837a753.373 753.373 0 0 0-1.51-8.13c-.079-.41-.235-.805-.37-1.201-.735-2.144-2.215-2.832-4.41-2.169-2.29.692-3.235 2.598-3.602 4.571-.477 2.565-.428 5.23-.564 7.854-.192 3.76-.34 7.522-.52 11.282-.281 5.9-.331 11.795.245 17.685.35 3.584.699 7.25 1.014 10.838.018.206-.021.657 0 .863.107 1.064 0 1.207-.822 1.687-.493.213-1.047.413-1.57.403-1.829-.032-3.663-.09-5.48-.28-.889-.092-1.458-.829-1.734-1.664-.774-2.342-1.61-4.672-2.217-7.058a49.814 49.814 0 0 1-1.226-6.672c-.403-3.57-.789-7.158-.867-10.746-.081-3.68.236-7.368.342-11.054.148-5.158.981-10.244 1.913-15.29.673-3.645 1.915-7.191 2.997-10.753.444-1.463.972-1.71 2.558-1.655 1.088.039 2.174.136 3.261.188.926.045 1.515.452 1.937 1.324.616 1.274 1.086 2.535.908 3.98-.03.236.15.498.232.748.165-.17.338-.334.493-.513.734-.845 1.313-1.959 2.23-2.474 1.131-.635 2.521-.927 3.835-1.098 4.24-.551 7.071 1.864 9.631 4.783 2.155 2.457 2.525 5.458 2.71 8.544.117 1.958.3 3.917.565 5.86.134.98.465 1.945.79 2.887.996 2.882.899 5.823.677 8.805-.148 1.992-.012 4.004-.05 6.006-.05 2.637-.039 5.281-.248 7.907-.33 4.161-.8 8.312-1.254 12.462-.13 1.194-.378 2.379-.636 3.554-.161.738-.68 1.107-1.465 1.123-1.077.021-2.11.175-3.148-.163a6.526 6.526 0 0 0-.779-.214c-.462-.09-.838-.204-1.27-.239a1.495 1.495 0 0 1-1.368-1.497c0-1.463-.091-2.934.027-4.388.15-1.819-.767-2.978-2.193-3.758-1.57-.86-3.248-1.52-4.867-2.293-.938-.448-1.88-.9-2.768-1.435-.996-.598-1.269-1.315-1.032-2.423.231-1.089.53-2.172 1.884-2.33 1.83-.212 3.663-.49 5.499-.526 3.82-.072 3.287-.279 3.488-3.168.031-.459.004-.922.004-1.384l-.021.002zm-31.323-14.752c-.42 3.658-.882 7.327-2.671 10.432-1.269 2.201-2.115 4.612-3.562 6.699-.351.506-.263.917-.057 1.492 1.315 3.666 3.79 6.47 6.547 9.083 1.24 1.175 2.474 2.359 3.715 3.534.656.622.932 1.315.327 2.108-.66.865-1.312 1.744-2.058 2.532-1.206 1.274-2.435 2.535-3.749 3.694-1.165 1.028-1.838.973-3.19.19-4.974-2.885-8.326-7.17-10.698-12.312-.122-.265-.22-.546-.374-.792-.779-1.242-.774-1.207-2.172-.772-1.595.497-3.198.978-4.821 1.37-.71.171-.915.474-.966 1.184-.309 4.38-.649 8.759-1.038 13.133-.162 1.816-1.091 2.366-2.858 1.926-1.378-.344-2.787-.57-4.155-.945-.708-.195-1.424-.513-2.004-.95-.328-.248-.604-.89-.533-1.29.772-4.36.283-8.679-.361-12.989-.65-4.344-1.301-8.689-2.07-13.012-.495-2.797-1.304-5.538-1.789-8.336-.627-3.624-1.258-7.254-.922-10.978.326-3.627.544-7.264.733-10.9.115-2.217.04-4.443.133-6.66.082-1.963.28-3.92.42-5.882.043-.6.326-.886.946-.933 1.563-.119 3.12-.3 4.683-.428 1.56-.128 2.648.633 3.462 2.499a34.96 34.96 0 0 1 1.261 3.415c.218.69.569 1.037 1.308 1.121 1.998.228 3.992.5 5.982.793 4.98.732 9.359 2.69 12.954 6.298 3.68 3.692 6.35 7.936 7.334 13.12.162.854.169 1.739.243 2.556zm-62.355-29.609c.041-.325.071-.653.077-.981.015-.75.147-1.67.154-2.353.01-1.03.437-1.433 1.478-1.447 3.386-.046 6.739.217 10.023 1.098.295.078.593.143.896.177 1.93.222 2.326.64 1.985 2.603-.442 2.54-1.017 5.058-1.576 7.577-.516 2.324-1.112 4.63-1.629 6.954-.625 2.81-1.123 5.65-1.834 8.438-.419 1.642-1.17 3.197-1.72 4.81-.508 1.488-.945 3.002-1.413 4.504-.038.12-.048.266-.124.354-1.134 1.31-.26 2.406.448 3.426 1.302 1.874 2.76 3.64 4.043 5.527.718 1.057 1.28 2.237 1.795 3.413 1.132 2.587 2.294 5.17 3.243 7.826.71 1.991 1.057 4.11 1.663 6.143.51 1.714 1.01 3.421 1.986 4.988 1.246 1.997 2.854 3.422 5.037 4.276.327.128.711.677.698 1.017-.068 1.668-.25 3.333-.414 4.996-.068.7-.61.809-1.184.885-2.627.348-4.971-.527-7.186-1.766-3.365-1.883-5.964-4.571-7.542-8.09-.674-1.503-.844-3.226-1.328-4.822-.57-1.875-1.222-3.726-1.858-5.58-.38-1.105-.861-2.179-1.186-3.3-.558-1.92-1.572-3.6-2.708-5.194-1.018-1.428-2.21-2.735-3.374-4.053-.253-.287-.776-.627-1.055-.544-.656.197-1.35.553-1.298 1.45a140.7 140.7 0 0 0 .26 3.876c.234 2.742.488 5.481.735 8.22.218 2.417.495 4.829.645 7.248.162 2.624.162 5.257.32 7.88.1 1.662.368 3.312.542 4.97.11 1.041.24 2.085.261 3.13.018.908-.53 1.529-1.359 1.492a94.512 94.512 0 0 1-6.239-.465c-.44-.049-.915-.5-1.222-.888-1.002-1.262-.888-2.853-1.086-4.327-.411-3.068-.872-6.143-1.02-9.228-.185-3.885-1.142-7.589-2.053-11.325-.366-1.498-.456-3.06-.76-4.576-.974-4.874-1.449-9.84-2.94-14.622-.969-3.106-1.69-6.295-2.408-9.473-.414-1.828-.614-3.706-.883-5.565-.132-.915.579-1.776 1.624-2.076 2.713-.78 5.479-.955 8.28-.733.333.026.662.118.995.134 1.957.09 2.654.751 3.02 2.668.344 1.806.793 3.592 1.206 5.385.035.153.144.29.219.434.151-.115.354-.199.445-.35 1.129-1.87 1.938-3.873 2.51-5.981 1.151-4.254 1.663-8.61 2.142-12.974.023-.206.054-.424.142-.607.233-2.006.334-3.064.527-4.579zm-12.885-69.002c-3.566-.375-6.374 1.212-8.895 3.424-1.627 1.43-3.151 2.983-4.634 4.564-.349.372-.472 1.078-.476 1.632-.018 2.712.008 5.426.077 8.139.077 3.05.652 6.865.846 9.91.084 1.327.119 1.268.345 2.587.092.533.043 1.679.04 2.216-.01 1.688-.323 2.02-1.993 2.195-2.362.247-4.723.511-7.09.711-2.779.235-2.912-.58-3.043-2.833-.163-2.783-.878-5.44-1.255-8.162-.324-2.346-.235-4.745-.437-7.112-.302-3.539-.733-7.067-1.045-10.606-.208-2.366-.44-4.7.014-7.12.383-2.046.024-4.222.125-6.335.102-2.117.341-4.23.572-6.339.135-1.232.842-1.929 2.12-2.087 2.495-.308 4.968-.624 7.459.116 2.744.814 4.048 2.62 3.84 5.483-.102 1.4-.131 2.794-.387 4.182-.256 1.387-.327 2.801-.152 4.2l.05.397c.06.477.342.493.706.204 1.28-1.013 2.58-2.003 3.861-3.014 1.588-1.252 3.262-2.352 5.31-2.65 3.961-.574 7.917-1.272 11.9-1.589 3.008-.239 6.001.39 8.836 1.497 2.546.994 4.888 2.343 6.703 4.441.54.623 1.002 1.33 1.401 2.052.82 1.483 1.664 2.963 2.328 4.516.75 1.76 1.37 3.58 1.948 5.406 1.103 3.487.797 7.12 1.029 10.699.088 1.366.453 2.712.637 4.074.157 1.155.346 2.322.317 3.48-.027 1.065-.325 2.125-.502 3.187-.574 3.43-.75 6.88-.755 10.357-.005 3.16.066 6.338-.69 9.457-.153.635-.089 1.33-.08 1.995.02 1.205-.407 1.75-1.614 1.685a127.18 127.18 0 0 1-6.75-.546c-1.823-.196-3.633-.508-5.447-.775-.9-.132-1.106-.649-1.012-1.528.11-1.03.06-2.084.006-3.124-.144-2.843-.014-5.653.344-8.49.296-2.343-.008-4.756.024-7.137.03-2.336.174-4.67.223-7.007.033-1.588-.005-3.178-.024-4.766-.006-.503-.052-1.005-.08-1.507-.191-3.425-.335-6.854-.611-10.273-.062-.766-.469-1.577-.92-2.225-.976-1.403-2.06-2.733-3.143-4.056-1.434-1.75-3.207-2.909-5.54-3.08-1.499-.11-2.99-.294-4.486-.445zm-23.76 86.372c1.036-.07 2.448-.175 3.863-.255 1.765-.1 2.463.304 3.018 2 .79 2.418 1.426 4.887 2.218 7.304.574 1.75 1.356 3.43 1.93 5.18.756 2.298 1.467 4.616 2.072 6.958.69 2.667 1.361 5.35 1.82 8.063.62 3.67 1.181 7.364 1.474 11.07.192 2.42-.141 4.882-.232 7.325-.062 1.7-.095 3.4-.171 5.098-.134 3.02-.713 5.955-1.835 8.785-.335.848-.634 1.71-.871 2.591-.67 2.489-2.267 4.468-3.611 6.563-.695 1.086-1.856 1.884-2.847 2.768-2.05 1.827-4.247 3.468-7.093 3.673a23.97 23.97 0 0 1-5.127-.18c-2.843-.411-5.535-1.33-7.656-3.398-.615-.601-.97-1.47-1.587-2.07-2.537-2.469-4.461-5.41-6.327-8.365-1.487-2.357-2.704-4.89-3.96-7.386a430.502 430.502 0 0 1-4.757-9.8c-.55-1.168-.96-2.403-1.424-3.612-.626-1.63-1.239-3.266-1.862-4.897-1.247-3.266-2.366-6.591-3.807-9.77-.647-1.427-1.964-2.544-2.935-3.833-.881-1.169-2.217-1.392-3.48-1.715-1.947-.497-3.124-1.665-3.941-3.511-.844-1.908-2.024-3.664-2.471-5.747-.315-1.467-.74-2.915-.967-4.395-.168-1.101.264-1.574 1.397-1.611 2.037-.067 4.079.001 6.117-.042 3.557-.076 7.123-.048 10.568-1.193 1.26-.42 2.571-.706 3.877-.964.855-.168 1.743-.02 2.267.754.748 1.104 1.68 2.205 2.01 3.446.855 3.23 2.35 6.175 3.651 9.21.264.615.405 1.285.666 1.894.506 1.18.914 1.67 1.24 2.496.254.648.518 1.293.812 1.924.428.919.634 1.774 1.007 2.901.851 2.572 1.582 5.183 2.358 7.78 1.162 3.883 2.26 7.787 3.5 11.645.788 2.456 1.785 4.845 2.69 7.263.528 1.412.989 2.855 1.62 4.219.315.682.872 1.3 1.447 1.801a15.918 15.918 0 0 0 2.534 1.776c.397.227.953.207 1.44.237.285.018.92-.001 1.175.07 1.725 0 2.902-1.145 3.533-2.604 1.072-2.482 2.076-5.092 2.46-7.742.308-2.115-.37-4.369-.573-6.564-.146-1.572-.153-3.16-.364-4.72a65.911 65.911 0 0 0-1.005-5.535c-.364-1.63-.829-3.24-1.32-4.837-.48-1.553-1.043-3.08-1.583-4.615-.608-1.726-1.229-3.449-1.847-5.171-.114-.315-.211-.641-.37-.933-1.668-3.08-2.406-6.481-3.407-9.793-.412-1.362-.874-2.71-1.285-4.073a38.23 38.23 0 0 1-.713-2.67c-.19-.844.15-1.451.936-1.845 1.685-.845 3.449-1.261 5.728-.948zm-44.528-3.514c-1.124-.168-1.933-.203-2.686-.427-.714-.213-1.107-.678-1.399-1.53-.763-2.23-1.279-4.543-2.542-6.63-2.013-3.324-3.713-6.837-5.627-10.224-1.046-1.85-2.267-3.601-3.395-5.406-.62-.991-1.197-2.009-1.815-3.002-1.634-2.626-3.303-5.231-4.914-7.87-1.808-2.96-3.714-5.87-5.303-8.944-1.33-2.572-2.247-5.355-3.382-8.03-.88-2.074-1.835-4.117-2.715-6.19-.83-1.953-1.571-3.943-2.413-5.89-1.536-3.553-3.315-7.015-4.612-10.651-.919-2.578-2.489-4.787-3.458-7.305-.735-1.906-1.572-3.78-2.171-5.728-.759-2.466.095-4.521 2.197-5.997a32.258 32.258 0 0 0 2.579-1.992c2.04-1.765 4.567-2.246 7.09-2.601 3.06-.43 6.144-.79 9.228-.916 1.989-.081 3.995.339 5.997.486 3.222.236 6.252 1.23 8.998 2.804 2.663 1.526 5.162 3.378 7.577 5.284 1.891 1.493 3.643 3.197 5.278 4.973 1.83 1.988 3.481 4.145 5.172 6.259 1.876 2.348 3.019 5.07 3.981 7.892 1.18 3.456 1.419 7.032 1.36 10.628-.02 1.273-.45 2.541-.706 3.81-.575 2.856-.957 5.772-1.79 8.551-.934 3.11-2.813 5.763-4.917 8.246-1.678 1.982-3.262 4.049-5.475 5.484-.44.285-.47.525-.17.892.078.097.135.22.23.298 2.013 1.64 3.035 3.984 4.185 6.184 1.564 2.99 2.857 6.123 4.281 9.187.65 1.4 1.453 2.74 1.979 4.182.741 2.029 1.25 4.142 1.938 6.192.368 1.096.994 2.106 1.344 3.206.542 1.7.033 2.483-1.767 2.792-2.382.408-4.78.726-7.167 1.11-1.767.285-3.528.616-4.99.873zM85.666 37.002c-2.007 0-3.764-.238-5.427.057-2.374.42-4.719 1.116-7 1.913-1.938.677-3.741 1.697-4.835 3.595-.119.206-2.299 4.547-3.61 6.606-.878 1.379-1.693 2.789-1.915 4.448-.414 3.089.305 5.981 1.618 8.742 1.166 2.45 2.512 4.819 3.593 7.304.939 2.158 1.541 4.436.904 6.842-.15.563-.187 1.165-.406 1.695-.1.244-.512.36-.782.533-.113-.204-.251-.398-.333-.613-.75-1.976-1.387-4.004-2.266-5.92-.832-1.812-1.901-3.517-2.895-5.254-.826-1.445-1.817-2.81-2.516-4.312-1.198-2.575-2.088-5.3-3.364-7.831-1.245-2.469-1.126-4.005-.528-6.406.074-.3.81-1.391 1.051-1.611.89-.81 1.867-1.533 2.701-2.395 1.31-1.35 2.758-2.729 2.998-4.673.265-2.135.402-2.702.42-4.862.004-.44 0-1.882-.605-2.916-.806-1.376-2.05-2.453-3.182-3.577a43.205 43.205 0 0 0-3.69-3.281c-1.428-1.124-2.876-2.258-4.452-3.143-1.447-.813-3.062-1.338-4.629-1.917-.855-.316-1.759-.641-2.655-.69-5.154-.282-9.83.802-13.804 4.441-3.204 2.932-6.733 5.452-9.177 9.204-1.86 2.855-2.5 7.348-.779 10.472 1.13 2.05 2.291 4.082 3.411 6.138a18.92 18.92 0 0 0 3.93 5.013c1.506 1.363 2.615 2.999 3.591 4.764 1.194 2.158 2.511 4.247 3.717 6.4 1.387 2.475 3.092 4.861 3.97 7.514 1.243 3.75 3.152 7.089 5.1 10.45 1.003 1.728 2.102 3.417 2.922 5.23 1.546 3.421 2.795 6.98 4.4 10.37 2.328 4.91 4.9 9.705 7.298 14.583 2.525 5.136 4.944 10.322 7.456 15.464a94.939 94.939 0 0 0 3.123 5.865c1.861 3.218 3.827 6.375 5.702 9.586 1.923 3.29 3.454 6.75 4.702 10.366.911 2.636 2.253 5.124 3.42 7.67 1.232 2.693 2.517 5.36 3.713 8.069.67 1.518 1.192 3.102 1.809 4.646a167.928 167.928 0 0 0 1.644 3.929c.692 1.61 1.331 3.246 2.118 4.808 1.073 2.13 2.335 4.164 3.389 6.302 2.288 4.648 4.547 9.313 6.719 14.017 1.418 3.07 2.575 6.263 4.009 9.327 1.445 3.09 3.145 6.06 4.63 9.133 1.29 2.669 2.376 5.436 3.657 8.11 2.187 4.561 4.424 9.1 6.703 13.616a154.1 154.1 0 0 0 3.42 6.35c3.18 5.629 5.642 11.584 8.157 17.52a128.98 128.98 0 0 0 3.721 8.047c1.549 3.054 3.242 6.035 4.887 9.04 1.76 3.213 3.516 6.427 5.313 9.618.752 1.334 1.768 2.313 3.493 2.202 2.085-.135 4.182-.117 6.262-.308 3.356-.307 6.453-1.371 9.106-3.53a142.57 142.57 0 0 0 2.685-2.25c.741-.634 1.229-1.388.96-2.423-.3-1.16-.52-2.355-.948-3.468-1.003-2.604-2.083-5.18-3.181-7.747-.77-1.798-1.599-3.572-2.439-5.339-.807-1.698-1.722-3.347-2.483-5.064-1.356-3.058-2.607-6.162-3.952-9.224-.607-1.382-1.354-2.702-2.004-4.065-.613-1.287-.363-2.253.574-3.283.948-1.043 2.03-.79 3.125-.486 1.408.39 2.694.492 3.785-.774 1.39-1.611 2.614-3.09 4.42-4.236.207-.13.368-.247.524-.367.726-.553 1.4-1.173 2.008-1.853 1.075-1.202 2.583-2.037 3.86-2.86 1.987-1.28 4.092-2.405 6.234-3.409 2.843-1.333 5.793-2.44 8.686-3.67 1.172-.499 2.352-.98 3.541-1.438 2.487-.958 4.957-1.974 7.505-2.728 3.12-.923 6.332-1.534 9.504-2.285 3.087-.732 6.165-1.512 9.264-2.191 3.128-.685 6.274-1.294 9.42-1.898 5.978-1.149 11.863-2.768 17.92-3.524 5.344-.666 10.674-1.448 16.025-2.04 3.695-.408 7.413-.646 11.126-.84 4.487-.236 8.98-.337 13.469-.51 3.047-.116 6.096-.206 9.14-.398 4.66-.293 9.315-.677 13.975-.995 3.82-.261 7.646-.464 11.468-.725 2.796-.192 5.589-.455 8.385-.653a2136.2 2136.2 0 0 1 12.656-.848c3.857-.25 7.714-.511 11.574-.716 2.493-.133 4.995-.115 7.485-.271 3.37-.21 6.731-.589 10.103-.771 3-.163 6.01-.136 9.014-.236a28.21 28.21 0 0 0 3.453-.318c.671-.106 3.454-.942 4.124-1.027 3.062-.393 3.976-.275 7.036-.674 1.695-.221 3.365-.616 5.054-.89 2.307-.376 4.617-.737 6.933-1.056 1.982-.272 3.989-.386 5.957-.73 3.486-.611 6.958-1.315 10.425-2.034 2.815-.584 5.61-1.266 8.422-1.865.977-.208 2.006-.199 2.964-.461 3.14-.862 6.262-1.79 9.38-2.724.671-.201 1.298-.549 1.952-.81 1.55-.621 3.133-1.166 4.65-1.857 3.158-1.44 6.433-2.648 9.334-4.61a33.069 33.069 0 0 1 2.483-1.507c2.107-1.118 4.314-2.072 6.332-3.329 2.929-1.824 5.841-3.71 8.55-5.837a51.522 51.522 0 0 0 6.662-6.239c1.587-1.785 2.5-4.065 1.298-6.502-.67-1.359-1.296-2.265-2.032-3.414a6.418 6.418 0 0 0-1.858-1.889l-.012-.007a3.89 3.89 0 0 0-.609-.33c-1.233-.534-2.435-.667-3.927-.573-3.002.19-5.995.555-9 .675-2.878.115-5.768.084-8.648-.015-3.3-.113-6.606-.256-9.888-.598-3.238-.338-6.452-.916-9.668-1.444-.842-.138-1.936-.272-3.143-.617-5.52-1.035-15.37-6.589-17.916-7.65-1.541-.643-3.094-1.267-4.599-1.99-1.37-.658-2.651-1.507-4.03-2.147-2.108-.978-4.24-1.918-6.409-2.748-2.715-1.04-5.466-1.988-8.225-2.908-3.401-1.135-6.824-2.208-10.243-3.293-2.937-.933-5.846-1.987-8.832-2.733-5.014-1.252-8.006-1.11-13.056-2.213-.966-.211-1.983-.177-2.958-.357-3.108-.574-4.818-1.082-7.934-1.607-2.895-.488-5.812-.858-8.725-1.227-3.018-.383-6.045-.692-9.066-1.053-3.394-.405-6.776-.942-10.18-1.22-3.44-.281-6.9-.322-10.35-.454-1.415-.053-2.834-.13-4.247-.086-2.822.091-7.215-.46-10.027-.228-3.251.27-8.366.199-11.615.258-6.107.11-12.22-.107-18.331-.157-3.093-.025-6.188.05-9.281.02-2.928-.027-5.858-.065-8.78-.235a38.043 38.043 0 0 1-5.068-.653c-2.4-.468-4.828-.927-7.137-1.708-1.962-.663-3.218-2.567-2.616-5.007.473-1.92 1.92-2.775 3.4-3.39 2.62-1.09 5.375-1.855 8.083-2.73.939-.304 2.494-.73 3.46-.93 3.078-.638 6.163-1.24 9.245-1.85 2.291-.456 4.58-.924 6.877-1.347 2.547-.468 5.127-.785 7.648-1.361 2.802-.64 5.546-1.528 8.33-2.254 2.104-.55 4.268-.896 6.339-1.545 3.47-1.09 6.898-2.32 10.325-3.543a335.408 335.408 0 0 0 8.835-3.292 16.564 16.564 0 0 0 2.833-1.42c2.788-1.756 5.47-3.69 8.317-5.342 2.45-1.42 3.933-3.534 4.74-6.076.883-2.787-1.995-6.662-4.995-7.364-3.15-.738-6.323-.592-9.5-.64-2.119-.033-4.242-.054-6.354-.208-1.577-.114-3.133-.479-4.707-.65-1.746-.19-3.532-.126-5.246-.457-3.386-.654-6.737-1.494-10.097-2.28-.933-.219-1.87-.456-2.765-.79-4.243-1.583-8.466-3.22-12.71-4.802-3.2-1.193-6.452-2.254-9.623-3.521-2.54-1.016-5.03-2.178-7.477-3.406-3.663-1.84-3.094-1.579-6.858-3.46-.492-.111-9.018-3.59-9.409-3.764-2.57-1.148-2.428-.943-5.038-1.999-2.243-1.034-4.313-1.725-8.28-2.587-1.9-.68-4.097-1.292-6.219-1.9-3.358-.96-12.422-2.769-14.137-3.275-1.105-.327-4.147-.802-6.21-1.208-1.83-.36-4.745-1.173-6.562-1.565-2.443-.527-4.936-.815-7.391-1.287-1.796-.345-3.555-.892-5.353-1.225-4.774-.883-9.605-1.243-14.45-1.478-2.289-.11-4.572-.333-6.857-.52-1.83-.15-3.66-.323-5.49-.487-2.622-.234-5.24-.537-7.868-.682-2.492-.138-4.993-.142-7.491-.149-4.895-.014-9.792-.058-14.686.042-3.543.073-7.08.37-10.622.545-3.628.179-7.258.317-10.885.498-3.797.19-7.592.41-11.106.602z"/></g><g><path d="M99.322 59.542c1.46.094 2.94.076 4.377.313 1.594.263 3.28.504 4.687 1.224 1.48.758 2.758 1.985 3.974 3.163 1.646 1.593 3.127 3.357 4.72 5.008 1.526 1.582 2.794 3.29 3.57 5.393.792 2.15 2.043 4.16 2.097 6.522.039 1.696.48 3.287.831 4.918.194.9-.056 1.907-.167 2.859-.284 2.409-.597 4.814-.912 7.22-.048.37-.102.762-.264 1.09-.889 1.795-1.779 3.617-3.248 5.01-.862.818-1.93 1.416-2.902 2.12-.558.403-.82-.02-1.107-.38-1.787-2.259-3.582-4.51-5.357-6.779-1.47-1.878-3.008-3.711-4.341-5.682-1.188-1.756-2.105-3.691-3.195-5.516-1.819-3.046-3.712-6.049-5.508-9.108-.715-1.218-1.382-2.493-1.849-3.82-1.136-3.232-2.856-6.13-4.808-8.908-.43-.612-.427-.711-.895-1.298-.439-.549.023-1.555.69-1.725 3.431-.873 5.941-2.03 9.607-1.624z"/></g><g><path d="M240.91 177.558c-.096-1.295-.186-2.591-.29-3.885-.277-3.418-.61-6.832-.826-10.253-.241-3.829-.358-7.665-.572-11.496a38.193 38.193 0 0 0-.45-4.228c-.151-.898.18-.942.926-.932 4.009.052 7.173 1.9 10.123 4.423 2.834 2.426 3.735 5.66 4.257 9.106.331 2.19.78 4.415-.071 6.57-.644 1.63-1.54 3.16-2.19 4.787-.948 2.374-2.361 3.715-4.604 5.095-.67.254-1.453.875-2.095 1.243-.928.533-1.873 1.115-2.888 1.398-1.175.328-1.277.145-1.347-1.071-.015-.251-.002-.503-.002-.755z"/></g><g><path d="M393.93 164.093c.436.135.814.459 1.25.581 2.37.665 3.293 2.675 4.328 4.586.247.456.104.743-.342 1.018-3.018 1.863-6.008 3.77-9.034 5.618-.708.433-1.5.757-2.291 1.012-.294.094-.875-.036-1.026-.263-1.216-1.833-1.659-3.907-1.62-6.078.015-.873.213-1.742.294-2.616.266-2.827 2.754-4.045 4.781-4.339 1.503-.15 2.76.204 3.66.481z"/></g><g><path d="M167.883 116.058c1.72.013 2.18.577 2.135 2.501-.033 1.418.129 2.841.23 4.26.19 2.628.429 5.252.57 7.883.022.414-.273 1.136-.569 1.224-1.18.353-2.41.63-3.636.703-.89.052-1.293-.586-1.413-1.554-.481-3.89-1.07-7.765-1.614-11.647-.058-.415-.101-.833-.119-1.251-.045-1.055.513-1.766 1.568-1.903.87-.114 1.75-.137 2.848-.216zm-2.764-4.698c-.913.006-4.066.186-5.757.4-1.7.215-2.122.854-1.867 2.544.571 3.796 1.078 7.603 1.734 11.385.577 3.329 1.31 6.63 1.993 9.94.349 1.693.617 1.886 2.379 1.766 3.459-.235 6.916-.494 10.375-.721.639-.042 1.052-.273 1.107-.938.07-.866.2-1.737.154-2.598-.2-3.759-.448-7.515-.688-11.27-.191-2.998-.367-5.997-.605-8.991-.131-1.65-.793-2.146-2.464-2.011-1.84.148-3.678.305-5.517.46-.28.023-.563.033-.844.034z"/></g><g><path d="M189.923 117.943c0 .75.032 1.5-.007 2.248-.059 1.125-.564 1.55-1.689 1.5-.707-.032-1.416-.101-2.121-.078-.912.03-1.313-.453-1.36-1.272-.044-.79-.007-1.583-.007-2.375 0-.703.03-1.407-.011-2.107-.056-.943.314-1.465 1.228-1.528a35.61 35.61 0 0 1 2.366-.06c1.027-.003 1.45.384 1.502 1.419.039.749.117 2.058.1 2.253zm-4.68 14.87h-.124c0-.92-.018-1.842.004-2.762.023-.905.459-1.187 1.16-.637.572.448 1.168 1.067 1.38 1.729.43 1.339.664 2.75.868 4.148.199 1.357.362 1.542 1.708 1.393.372-.041.752-.022 1.129-.021 1.448.004 2.173-.753 2.02-2.201-.114-1.08-.208-2.18-.499-3.22-.37-1.32-.73-2.713-1.449-3.852-1.318-2.089-1.435-2.065 1.019-2.589 1.092-.233 1.596-.82 1.644-1.876.056-1.241.105-2.483.14-3.725.056-2.043.213-4.092.114-6.128-.1-2.048-.254-2.71-2.338-2.75-.987-.02-1.972-.09-2.959-.114-2.29-.056-4.58-.156-6.868-.125-1.673.022-2.326.765-2.344 2.426-.028 2.627-.058 5.254-.037 7.881.024 2.964.07 5.929.172 8.89.072 2.088.247 4.172.396 6.255.04.57.21 1.096.917 1.152.833.067 1.667.147 2.501.168 1.059.027 1.455-.42 1.447-1.528-.005-.838 0-1.676 0-2.514z"/></g><g><path d="M149.87 113.405c1.502-.043 1.509-.044 1.874 1.453.347 1.422.658 2.853 1.022 4.271.214.838-.08 1.281-.91 1.44-1.109.211-2.21.466-3.32.664-1.806.323-2.345 1.113-1.907 2.857.695 2.766.887 2.887 3.71 2.351.906-.172 1.806-.395 2.72-.488.33-.034.903.159 1 .397.375.924.644 1.899.873 2.873.182.776-.028 1.383-.923 1.637-1.12.317-2.211.732-3.326 1.071-.665.202-.839.533-.604 1.216.46 1.343.838 2.714 1.245 4.076.108.36.209.723.29 1.09.14.641-.167.934-.788.99-.916.08-1.835.262-2.746.226-.39-.016-.948-.386-1.115-.743-.864-1.854-1.644-3.748-2.42-5.642a771.772 771.772 0 0 1-3.608-8.953c-.444-1.126-.804-2.286-1.205-3.429-.36-1.023-.684-2.062-1.095-3.065-.588-1.44-.424-1.957 1.025-2.32 1.254-.315 2.546-.476 3.819-.721 2.13-.41 4.259-.833 6.388-1.25z"/></g></g></g><g><g><path d="M103.832 123.034c0-.44.283-.83.701-.97 1.949-.646 2.367.625 2.419.958.028.178-.145.776-.332 1.348a1.021 1.021 0 0 1-1.496.56l-.796-.478a1.02 1.02 0 0 1-.496-.875z"/></g><g><path d="M159.87 127.11a.28.28 0 0 0-.393.043c-.325.402-.301.841-.153 1.046.175.24 1.133.189 1.181 0 .038-.148-.102-.515-.164-.667a.277.277 0 0 0-.083-.111z"/></g><g><path d="M239.076 105.163c0-.152.082-.293.214-.368.62-.355.997-.196 1.316-.024.188.101.266.382.298.624a.423.423 0 0 1-.337.472l-.443.088a.424.424 0 0 1-.282-.041l-.541-.288a.424.424 0 0 1-.225-.375z"/></g><g><path d="M227.863 179.294a.55.55 0 0 1 .378-.522c1.048-.347 1.272.336 1.3.515.015.096-.078.417-.178.725a.55.55 0 0 1-.805.301l-.428-.257a.549.549 0 0 1-.267-.47z"/></g><g><path d="M299.216 141.754a.486.486 0 0 0-.684.075c-.561.698-.522 1.46-.264 1.814.303.415 1.964.327 2.048 0 .066-.257-.177-.892-.285-1.156a.484.484 0 0 0-.145-.193z"/></g><g><path d="M268.86 67.878c.311-.313.787-.39 1.182-.194 1.838.914 1.24 2.11 1.042 2.383-.105.146-.649.448-1.185.723-.583.3-1.294-.02-1.456-.656l-.229-.9a1.02 1.02 0 0 1 .265-.97z"/></g><g><path d="M148.536 182.71a.425.425 0 0 1 .411-.11c.691.185.846.563.952.91.062.204-.08.459-.228.653a.423.423 0 0 1-.572.097l-.376-.249a.425.425 0 0 1-.172-.228l-.18-.586a.423.423 0 0 1 .103-.424z"/></g><g><path d="M198.767 120.999a.55.55 0 0 1 .635-.105c.988.491.667 1.135.56 1.282-.056.078-.349.24-.637.389a.55.55 0 0 1-.783-.353l-.123-.484a.55.55 0 0 1 .142-.522z"/></g><g><path d="M386.088 190.84a.486.486 0 0 0-.537-.428c-.89.1-1.399.668-1.465 1.101-.078.508 1.163 1.616 1.453 1.442.228-.135.503-.758.612-1.02a.485.485 0 0 0 .033-.24z"/></g></g></g></g></g></svg>