<svg xmlns="http://www.w3.org/2000/svg" viewBox="0 0 2612.55 1598.76"><defs><style>.cls-1{fill:#2b3d31;}.cls-2{fill:#4b666b;}.cls-3{fill:#fbfcfc;}.cls-4{fill:#fff;}.cls-5{fill:#f8ad3b;}</style></defs><g id="Layer_2" data-name="Layer 2"><g id="Layer_10" data-name="Layer 10"><rect class="cls-1" x="152.91" y="106.4" width="2055" height="7"/><rect class="cls-1" x="152.91" y="1328.4" width="1042" height="7"/><rect class="cls-1" x="152.91" y="786.4" width="1637" height="7"/><rect class="cls-1" x="1564.41" y="830.9" width="1360" height="7" transform="translate(3078.8 -1410.01) rotate(90)"/><rect class="cls-1" x="1483.41" y="1171.9" width="678" height="7" transform="translate(2997.8 -647.01) rotate(90)"/><rect class="cls-1" x="1156.41" y="1435.9" width="150" height="7" transform="translate(2670.8 207.99) rotate(90)"/><path class="cls-2" d="M2251.47,113.19l34.44,17.73a85.69,85.69,0,0,1-3.22,8c-139.36,259.72-286.93,514.34-468.27,747.74-130.44,167.88-276.5,319.45-457.68,434.05-177.87,112.5-373.9,171.12-581.11,197.1-208.54,26.14-418.18,24.91-627.76,25.62-2.91,0-5.18,0-9.79,0,0-13.09,0-27.15,0-39.58,195.5-.45,391.07.7,585.88-19.81,156.51-16.48,309-49.19,453.81-112.89,199-87.54,361.07-223.45,502.92-385.16C1912.16,722.08,2086.28,420.5,2251.47,113.19Z"/><path class="cls-2" d="M137.91,1490.13c0-12.65.17-25.89.17-39.64,6.14,0,10.93-.07,15.66-.21,173.38-5.1,347.08-5.29,520.06-16.43,245.69-15.81,477.35-80.09,682-224.2,160.88-113.31,291.71-256.28,409.51-412.11,164.82-218,301.41-453.65,430.55-693.84,2.63-4.9,5.5-9.66,9-15.76l35.68,18.89a103.15,103.15,0,0,0-6,8.6c-64.13,113.29-126,227.91-192.76,339.65-127.38,213.24-267.33,417.58-441.22,596.65-167.11,172.09-360.74,300.94-594,365.8C826,1467.7,641,1481.71,455,1486.47,349.31,1489.17,243.59,1489,137.91,1490.13Z"/><path class="cls-3" d="M137.91,1490.13c105.68-1.12,211.4-1,317-3.66,186-4.76,371-18.77,551.47-68.94,233.3-64.86,426.93-193.71,594-365.8,173.89-179.07,313.84-383.41,441.22-596.65,66.74-111.74,128.63-226.36,192.76-339.65,1.72-3,4.07-5.88,6.09-8.73,3.66,2.11,7.27,4.37,10.93,6.49C2086.28,420.5,1912.16,722.08,1680.67,986c-141.85,161.71-303.92,297.62-502.92,385.16-144.82,63.7-297.3,96.41-453.81,112.89-194.81,20.51-390.38,19.36-585.88,19.81Z"/><rect class="cls-4" x="130.91" y="1526.4" width="2201" height="7"/><rect class="cls-4" x="130.91" y="109.4" width="7" height="1424"/><g id="_0" data-name=" 0"><g id="Group_125" data-name="Group 125"><path id="Path_2914" data-name="Path 2914" class="cls-4" d="M134.14,1568.82c8.3,0,13,5.32,13,14.88s-4.66,14.93-13,14.93-13-5.33-13-14.93S125.75,1568.82,134.14,1568.82Zm0,24.36c3.69,0,5.32-2.77,5.32-9.48s-1.63-9.43-5.32-9.43-5.37,2.72-5.37,9.43S130.37,1593.18,134.14,1593.18Z"/></g></g><g id="_2" data-name=" 2"><g id="Group_126" data-name="Group 126"><path id="Path_2915" data-name="Path 2915" class="cls-4" d="M303.27,1568.73c5.82,0,10,3,10,7.68,0,3.18-2.35,6.5-5.54,9.77l-5.95,6.33h12.37v5.91h-22v-4.82l10.48-11.12c1.63-1.71,2.81-3.68,2.81-5,0-1.67-1.22-2.68-3.31-2.68-2.39,0-5.33,1.43-8,3.73l-2.81-5.37A20,20,0,0,1,303.27,1568.73Z"/></g></g><g id="_4" data-name=" 4"><g id="Group_127" data-name="Group 127"><path id="Path_2916" data-name="Path 2916" class="cls-4" d="M459.77,1587l9.27-17.9h7.17l-8.72,17.23h6.2V1580h6.92v6.29h4V1592h-4v6.46h-6.92V1592H459.77Z"/></g></g><g id="_6" data-name=" 6"><g id="Group_128" data-name="Group 128"><path id="Path_2917" data-name="Path 2917" class="cls-4" d="M642.86,1568.73a19.67,19.67,0,0,1,9.48,2.43l-2.86,5.2a10.58,10.58,0,0,0-6.16-1.88c-4.7,0-7,3-6.88,7.8,1.39-2,3.74-3.15,7-3.15,5.79,0,9.48,3.78,9.48,9.48,0,6.2-4.36,10.14-11,10.14-7.89,0-12.67-5.57-12.67-14.59C629.27,1574.81,634.6,1568.73,642.86,1568.73Zm-1.22,24.07c2.69,0,4.36-1.51,4.36-4.24,0-2.51-1.55-4-4.23-4-2.89,0-4.53,1.72-4.53,4.11,0,2.18,1.38,4.11,4.4,4.11Z"/></g></g><g id="_8" data-name=" 8"><g id="Group_129" data-name="Group 129"><path id="Path_2918" data-name="Path 2918" class="cls-4" d="M803.24,1582.7a7.38,7.38,0,0,1-4.06-6.29c0-4.7,4.1-7.67,10.48-7.67s10.52,3.06,10.52,7.88a6.84,6.84,0,0,1-3.69,6.08,8,8,0,0,1,5.24,7.42c0,5.28-4.7,8.64-12,8.64s-12-3.31-12-8.51A8.2,8.2,0,0,1,803.24,1582.7Zm6.46,10.65c3.23,0,5-1.34,5-3.86s-1.8-3.81-5-3.81-5,1.38-5,3.81,1.76,3.85,5,3.85Zm0-13c2.72,0,4.23-1.17,4.23-3.27s-1.51-3.4-4.23-3.4-4.24,1.22-4.24,3.4,1.51,3.26,4.24,3.26Z"/></g></g><g id="_10" data-name=" 10"><g id="Group_130" data-name="Group 130"><path id="Path_2919" data-name="Path 2919" class="cls-4" d="M955.51,1569h12.87v29.39h-7.46V1575h-5.41Z"/><path id="Path_2920" data-name="Path 2920" class="cls-4" d="M987.25,1568.82c8.3,0,13,5.32,13,14.88s-4.66,14.93-13,14.93-13-5.33-13-14.93S978.87,1568.82,987.25,1568.82Zm0,24.36c3.69,0,5.33-2.77,5.33-9.48s-1.64-9.43-5.33-9.43-5.36,2.72-5.36,9.43S983.48,1593.18,987.25,1593.18Z"/></g></g><g id="_12" data-name=" 12"><g id="Group_131" data-name="Group 131"><path id="Path_2921" data-name="Path 2921" class="cls-4" d="M1126.57,1569h12.87v29.39H1132V1575h-5.41Z"/><path id="Path_2922" data-name="Path 2922" class="cls-4" d="M1156.38,1568.73c5.83,0,10,3,10,7.68,0,3.18-2.35,6.5-5.53,9.77l-6,6.33h12.37v5.91h-22v-4.82l10.48-11.12c1.64-1.71,2.81-3.68,2.81-5,0-1.67-1.21-2.68-3.31-2.68-2.39,0-5.33,1.43-8,3.73l-2.81-5.37A20,20,0,0,1,1156.38,1568.73Z"/></g></g><g id="_14" data-name=" 14"><g id="Group_132" data-name="Group 132"><path id="Path_2923" data-name="Path 2923" class="cls-4" d="M1294.77,1569h12.87v29.39h-7.46V1575h-5.41Z"/><path id="Path_2924" data-name="Path 2924" class="cls-4" d="M1312.88,1587l9.27-17.9h7.17l-8.72,17.23h6.2V1580h6.92v6.29h4V1592h-4v6.46h-6.92V1592h-13.92Z"/></g></g><g id="_16" data-name=" 16"><g id="Group_133" data-name="Group 133"><path id="Path_2925" data-name="Path 2925" class="cls-4" d="M1463.69,1569h12.87v29.39h-7.46V1575h-5.41Z"/><path id="Path_2926" data-name="Path 2926" class="cls-4" d="M1496,1568.73a19.61,19.61,0,0,1,9.48,2.43l-2.85,5.2a10.61,10.61,0,0,0-6.17-1.88c-4.69,0-7,3-6.87,7.8,1.38-2,3.73-3.15,7-3.15,5.78,0,9.47,3.78,9.47,9.48,0,6.2-4.36,10.14-11,10.14-7.88,0-12.66-5.57-12.66-14.59C1482.39,1574.81,1487.71,1568.73,1496,1568.73Zm-1.22,24.07c2.69,0,4.36-1.51,4.36-4.24,0-2.51-1.55-4-4.23-4-2.89,0-4.53,1.72-4.53,4.11C1490.35,1590.87,1491.74,1592.8,1494.75,1592.8Z"/></g></g><g id="_18" data-name=" 18"><g id="Group_134" data-name="Group 134"><path id="Path_2927" data-name="Path 2927" class="cls-4" d="M1632.37,1569h12.87v29.39h-7.46V1575h-5.41Z"/><path id="Path_2928" data-name="Path 2928" class="cls-4" d="M1656.35,1582.7a7.38,7.38,0,0,1-4.06-6.29c0-4.7,4.1-7.67,10.48-7.67s10.52,3.06,10.52,7.88a6.84,6.84,0,0,1-3.69,6.08,8,8,0,0,1,5.24,7.42c0,5.28-4.7,8.64-12,8.64s-12-3.31-12-8.51A8.2,8.2,0,0,1,1656.35,1582.7Zm6.46,10.65c3.23,0,5-1.34,5-3.86s-1.8-3.81-5-3.81-5,1.38-5,3.81,1.76,3.85,5,3.85Zm0-13c2.72,0,4.23-1.17,4.23-3.27s-1.51-3.4-4.23-3.4-4.24,1.22-4.24,3.4,1.52,3.26,4.24,3.26Z"/></g></g><g id="_20" data-name=" 20"><g id="Group_135" data-name="Group 135"><path id="Path_2929" data-name="Path 2929" class="cls-4" d="M1808.58,1568.73c5.83,0,10,3,10,7.68,0,3.18-2.34,6.5-5.53,9.77l-6,6.33h12.36v5.91h-22v-4.82l10.49-11.12c1.63-1.71,2.81-3.68,2.81-5,0-1.67-1.22-2.68-3.32-2.68-2.39,0-5.32,1.43-8,3.73l-2.81-5.37A19.94,19.94,0,0,1,1808.58,1568.73Z"/><path id="Path_2930" data-name="Path 2930" class="cls-4" d="M1835.67,1568.82c8.3,0,13,5.32,13,14.88s-4.66,14.93-13,14.93-13-5.33-13-14.93S1827.29,1568.82,1835.67,1568.82Zm0,24.36c3.69,0,5.33-2.77,5.33-9.48s-1.64-9.43-5.33-9.43-5.37,2.72-5.37,9.43S1831.9,1593.18,1835.67,1593.18Z"/></g></g><g id="_22" data-name=" 22"><g id="Group_136" data-name="Group 136"><path id="Path_2931" data-name="Path 2931" class="cls-4" d="M1979.64,1568.73c5.83,0,10,3,10,7.68,0,3.18-2.35,6.5-5.54,9.77l-5.95,6.33h12.37v5.91h-22v-4.82l10.48-11.12c1.64-1.71,2.81-3.68,2.81-5,0-1.67-1.21-2.68-3.31-2.68-2.39,0-5.33,1.43-8,3.73l-2.81-5.37A20,20,0,0,1,1979.64,1568.73Z"/><path id="Path_2932" data-name="Path 2932" class="cls-4" d="M2004.8,1568.73c5.83,0,10,3,10,7.68,0,3.18-2.35,6.5-5.54,9.77l-6,6.33h12.37v5.91h-22v-4.82l10.48-11.12c1.64-1.71,2.81-3.68,2.81-5,0-1.67-1.22-2.68-3.31-2.68-2.39,0-5.33,1.43-8,3.73l-2.81-5.37A20,20,0,0,1,2004.8,1568.73Z"/></g></g><g id="_24" data-name=" 24"><g id="Group_137" data-name="Group 137"><path id="Path_2933" data-name="Path 2933" class="cls-4" d="M2147.84,1568.73c5.83,0,10,3,10,7.68,0,3.18-2.35,6.5-5.53,9.77l-6,6.33h12.37v5.91h-22v-4.82l10.48-11.12c1.64-1.71,2.81-3.68,2.81-5,0-1.67-1.21-2.68-3.31-2.68-2.39,0-5.32,1.43-8,3.73l-2.81-5.37A20,20,0,0,1,2147.84,1568.73Z"/><path id="Path_2934" data-name="Path 2934" class="cls-4" d="M2161.3,1587l9.27-17.9h7.17L2169,1586.3h6.2V1580h6.92v6.29h4V1592h-4v6.46h-6.92V1592H2161.3Z"/></g></g><g id="_26" data-name=" 26"><g id="Group_138" data-name="Group 138"><path id="Path_2935" data-name="Path 2935" class="cls-4" d="M2316.76,1568.73c5.83,0,10,3,10,7.68,0,3.18-2.35,6.5-5.54,9.77l-5.95,6.33h12.37v5.91h-22v-4.82l10.48-11.12c1.64-1.71,2.81-3.68,2.81-5,0-1.67-1.22-2.68-3.31-2.68-2.39,0-5.33,1.43-8,3.73l-2.81-5.37A20,20,0,0,1,2316.76,1568.73Z"/><path id="Path_2936" data-name="Path 2936" class="cls-4" d="M2344.39,1568.73a19.64,19.64,0,0,1,9.48,2.43l-2.85,5.2a10.61,10.61,0,0,0-6.17-1.88c-4.7,0-7,3-6.87,7.8,1.38-2,3.73-3.15,7-3.15,5.78,0,9.47,3.78,9.47,9.48,0,6.2-4.36,10.14-11,10.14-7.89,0-12.67-5.57-12.67-14.59C2330.81,1574.81,2336.13,1568.73,2344.39,1568.73Zm-1.22,24.07c2.69,0,4.36-1.51,4.36-4.24,0-2.51-1.55-4-4.23-4-2.89,0-4.53,1.72-4.53,4.11,0,2.18,1.38,4.11,4.4,4.11Z"/></g></g><g id="_0.01" data-name=" 0.01"><g id="Group_139" data-name="Group 139"><path id="Path_2937" data-name="Path 2937" class="cls-4" d="M16.85,1483.74c8.3,0,13,5.32,13,14.88s-4.66,14.93-13,14.93-13-5.33-13-14.93S8.47,1483.74,16.85,1483.74Zm0,24.36c3.69,0,5.33-2.77,5.33-9.48s-1.64-9.43-5.33-9.43-5.36,2.73-5.36,9.43,1.59,9.48,5.36,9.48Z"/><path id="Path_2938" data-name="Path 2938" class="cls-4" d="M36.65,1506.67a3.36,3.36,0,0,1,3.52,3.19v.29a3.38,3.38,0,0,1-3.21,3.53h-.31a3.33,3.33,0,0,1-3.48-3.18,2,2,0,0,1,0-.35,3.32,3.32,0,0,1,3.16-3.48Z"/><path id="Path_2939" data-name="Path 2939" class="cls-4" d="M56.52,1483.74c8.3,0,13,5.32,13,14.88s-4.66,14.93-13,14.93-13-5.33-13-14.93S48.14,1483.74,56.52,1483.74Zm0,24.36c3.69,0,5.33-2.77,5.33-9.48s-1.64-9.43-5.33-9.43-5.36,2.73-5.36,9.43,1.59,9.48,5.36,9.48Z"/><path id="Path_2940" data-name="Path 2940" class="cls-4" d="M71.54,1484H84.41v29.39H76.94v-23.4H71.53Z"/></g></g><g id="_0.07" data-name=" 0.07"><g id="Group_140" data-name="Group 140"><path id="Path_2941" data-name="Path 2941" class="cls-4" d="M13,1314.84c8.3,0,13,5.33,13,14.89s-4.65,14.92-12.95,14.92-13-5.32-13-14.92S4.65,1314.84,13,1314.84Zm0,24.36c3.69,0,5.32-2.76,5.32-9.47s-1.63-9.44-5.32-9.44-5.37,2.73-5.37,9.44,1.6,9.47,5.37,9.47Z"/><path id="Path_2942" data-name="Path 2942" class="cls-4" d="M32.83,1337.78a3.36,3.36,0,0,1,3.52,3.19,1.4,1.4,0,0,1,0,.29,3.36,3.36,0,0,1-3.2,3.52h-.32a3.33,3.33,0,0,1-3.48-3.18c0-.11,0-.23,0-.34a3.32,3.32,0,0,1,3.16-3.48Z"/><path id="Path_2943" data-name="Path 2943" class="cls-4" d="M52.71,1314.84c8.3,0,12.95,5.33,12.95,14.89s-4.65,14.92-12.95,14.92-13-5.32-13-14.92S44.32,1314.84,52.71,1314.84Zm0,24.36c3.69,0,5.32-2.76,5.32-9.47s-1.63-9.44-5.32-9.44-5.37,2.73-5.37,9.44,1.59,9.47,5.37,9.47Z"/><path id="Path_2944" data-name="Path 2944" class="cls-4" d="M68.81,1315.09H91.66v5.08l-10.82,24.27H73L83.44,1321H75.35v4.11L68.81,1321Z"/></g></g><g id="_0.26" data-name=" 0.26"><g id="Group_141" data-name="Group 141"><path id="Path_2945" data-name="Path 2945" class="cls-4" d="M14.4,775.54c8.3,0,13,5.33,13,14.89s-4.66,14.92-13,14.92-13-5.32-13-14.92S6,775.54,14.4,775.54Zm0,24.36c3.69,0,5.33-2.76,5.33-9.47S18.09,781,14.4,781,9,783.72,9,790.43s1.59,9.47,5.36,9.47Z"/><path id="Path_2946" data-name="Path 2946" class="cls-4" d="M34.19,798.48a3.36,3.36,0,0,1,3.53,3.18v.3a3.37,3.37,0,0,1-3.21,3.52h-.32a3.34,3.34,0,0,1-3.48-3.18V802a3.33,3.33,0,0,1,3.17-3.48Z"/><path id="Path_2947" data-name="Path 2947" class="cls-4" d="M52.14,775.46c5.83,0,10,3,10,7.67,0,3.19-2.35,6.5-5.53,9.77l-6,6.33H63v5.91h-22v-4.82l10.48-11.11c1.64-1.72,2.81-3.69,2.81-5,0-1.68-1.21-2.68-3.31-2.68-2.39,0-5.32,1.42-8,3.73l-2.81-5.37A19.93,19.93,0,0,1,52.14,775.46Z"/><path id="Path_2948" data-name="Path 2948" class="cls-4" d="M79.77,775.46a19.5,19.5,0,0,1,9.48,2.43l-2.85,5.2a10.67,10.67,0,0,0-6.17-1.89c-4.69,0-7,3-6.87,7.8,1.38-2,3.73-3.14,7-3.14,5.79,0,9.47,3.77,9.47,9.47,0,6.21-4.36,10.15-11,10.15-7.88,0-12.66-5.57-12.66-14.59C66.19,781.54,71.51,775.46,79.77,775.46Zm-1.21,24.07c2.68,0,4.36-1.51,4.36-4.24,0-2.52-1.55-4-4.24-4-2.89,0-4.52,1.72-4.52,4.11C74.15,797.6,75.54,799.53,78.56,799.53Z"/></g></g><g id="_0.5" data-name=" 0.5"><g id="Group_142" data-name="Group 142"><path id="Path_2949" data-name="Path 2949" class="cls-4" d="M27.75,94.14c8.3,0,13,5.32,13,14.88S36.05,124,27.75,124s-13-5.33-13-14.93S19.37,94.14,27.75,94.14Zm0,24.36c3.69,0,5.33-2.77,5.33-9.48s-1.64-9.43-5.33-9.43-5.36,2.72-5.36,9.43,1.59,9.48,5.36,9.48Z"/><path id="Path_2950" data-name="Path 2950" class="cls-4" d="M47.55,117.07a3.36,3.36,0,0,1,3.52,3.19,1.4,1.4,0,0,1,0,.29,3.35,3.35,0,0,1-3.2,3.52,1.71,1.71,0,0,1-.32,0,3.33,3.33,0,0,1-3.48-3.18v-.34a3.34,3.34,0,0,1,3.16-3.48Z"/><path id="Path_2951" data-name="Path 2951" class="cls-4" d="M56.23,114.72a10.26,10.26,0,0,0,7.46,3.61c2.9,0,4.57-1.42,4.57-3.94,0-2.31-1.67-3.65-4.57-3.65-1.51,0-6.16.09-8,.21V94.39H75v5.91H62.52V105h2.64c6.71,0,11.11,3.61,11.11,8.85,0,6.16-4.61,10.14-11.7,10.14a20.74,20.74,0,0,1-11.32-3.64Z"/></g></g><g id="ETH"><g id="Group_143" data-name="Group 143"><path id="Path_2952" data-name="Path 2952" class="cls-4" d="M4.82,0h23V5.91H12.28v5.83h14v5.87h-14v5.91h16v5.87H4.82Z"/><path id="Path_2953" data-name="Path 2953" class="cls-4" d="M30.44,0H55.52V6H46.67V29.39H39.21V6H30.44Z"/><path id="Path_2954" data-name="Path 2954" class="cls-4" d="M58.7,0h7.47V12.12H78.33V0h7.46V29.39H78.33V18H66.17v11.4H58.7Z"/></g></g><g id="WEEKS"><g id="Group_144" data-name="Group 144"><path id="Path_2955" data-name="Path 2955" class="cls-4" d="M2461.43,1569.07l5.75,21.59,5.61-21.59h7.3l5.75,21.59,5.66-21.59h7.63l-9.69,29.35h-7.67l-5.45-20.3-5.53,20.3h-7.72l-9.6-29.35Z"/><path id="Path_2956" data-name="Path 2956" class="cls-4" d="M2501.77,1569.07h23v5.87h-15.52v5.83h14v5.87h-14v5.91h16v5.87h-23.44Z"/><path id="Path_2957" data-name="Path 2957" class="cls-4" d="M2530,1569.07h23v5.87H2537.5v5.83h14v5.87h-14v5.91h16v5.87H2530Z"/><path id="Path_2958" data-name="Path 2958" class="cls-4" d="M2558.3,1569.07h7.46v12.7l11.23-12.7h8.64l-10.9,12.16,11.62,17.19h-8.93l-7.76-11.53-3.9,4.32v7.21h-7.46Z"/><path id="Path_2959" data-name="Path 2959" class="cls-4" d="M2590.29,1588.23c3,2.64,7.55,4.4,10.61,4.4,2.35,0,3.81-.88,3.81-2.56,0-5.2-15.51-2.1-15.51-12.49,0-5.41,4.65-8.85,11.7-8.85a22.07,22.07,0,0,1,11.57,3.27l-2.81,5.83c-3.1-1.8-7-3.06-9.39-3.06-1.93,0-3.23.71-3.23,2.14,0,5.07,15.51,2.18,15.51,12.78,0,5.88-5.2,9-11.73,9a21.92,21.92,0,0,1-13.42-4.7Z"/></g></g><g id="_13" data-name=" 13"><g id="Group_145" data-name="Group 145"><path id="Path_2960" data-name="Path 2960" class="cls-4" d="M1212.2,1569h12.87v29.39h-7.46V1575h-5.41Z"/><path id="Path_2961" data-name="Path 2961" class="cls-4" d="M1232.12,1589.53a10,10,0,0,0,7.33,3.56c2.94,0,4.53-1.42,4.53-3.81s-1.63-3.69-4.57-3.69h-4.7v-4l6.54-6.79h-10.69v-5.7h19.37v4.24l-7.34,7.63,1.39.21c4.27.67,7.3,3.48,7.3,8,0,5.61-4.4,9.56-11.24,9.56a18.47,18.47,0,0,1-10.94-3.57Z"/></g></g><path class="cls-2" d="M2244.49,132.44a22.41,22.41,0,1,1,22.42-22.39A22.4,22.4,0,0,1,2244.49,132.44Zm0-7.07A15.33,15.33,0,0,0,2259.83,110a15.35,15.35,0,0,0-15.35-15.33,15.34,15.34,0,0,0,0,30.67Z"/><path class="cls-5" d="M2244.5,125.37a15.34,15.34,0,0,1,0-30.67A15.35,15.35,0,0,1,2259.83,110,15.33,15.33,0,0,1,2244.5,125.37Z"/><path class="cls-2" d="M2160.09,302.87a22.42,22.42,0,1,1,22.42-22.39A22.41,22.41,0,0,1,2160.09,302.87Zm0-7.08a15.33,15.33,0,0,0,15.33-15.34,15.35,15.35,0,0,0-15.35-15.33,15.34,15.34,0,0,0,0,30.67Z"/><path class="cls-5" d="M2160.1,295.79a15.34,15.34,0,0,1,0-30.67,15.35,15.35,0,0,1,15.35,15.33A15.33,15.33,0,0,1,2160.1,295.79Z"/><path class="cls-2" d="M2075.59,444.18A22.42,22.42,0,1,1,2098,421.79,22.41,22.41,0,0,1,2075.59,444.18Zm0-7.08a15.33,15.33,0,0,0,15.33-15.34,15.33,15.33,0,0,0-15.34-15.33,15.34,15.34,0,0,0,0,30.67Z"/><path class="cls-5" d="M2075.59,437.1a15.34,15.34,0,0,1,0-30.67,15.33,15.33,0,0,1,15.34,15.33A15.33,15.33,0,0,1,2075.59,437.1Z"/><path class="cls-2" d="M1992,586.29a22.42,22.42,0,1,1,22.41-22.39A22.41,22.41,0,0,1,1992,586.29Zm0-7.08a15.33,15.33,0,0,0,15.33-15.34A15.33,15.33,0,0,0,1992,548.54a15.34,15.34,0,0,0,0,30.67Z"/><path class="cls-5" d="M1992,579.21a15.34,15.34,0,0,1,0-30.67,15.33,15.33,0,0,1,15.34,15.33A15.33,15.33,0,0,1,1992,579.21Z"/><path class="cls-2" d="M1906.59,700.5A22.42,22.42,0,1,1,1929,678.11,22.4,22.4,0,0,1,1906.59,700.5Zm0-7.08a15.32,15.32,0,0,0,15.33-15.33,15.36,15.36,0,0,0-15.35-15.34,15.34,15.34,0,0,0,0,30.67Z"/><path class="cls-5" d="M1906.6,693.42a15.34,15.34,0,0,1,0-30.67,15.36,15.36,0,0,1,15.35,15.34A15.32,15.32,0,0,1,1906.6,693.42Z"/><path class="cls-2" d="M1822.74,813.48a22.41,22.41,0,1,1,22.41-22.39A22.39,22.39,0,0,1,1822.74,813.48Zm0-7.07a15.34,15.34,0,0,0,15.34-15.34,15.36,15.36,0,0,0-15.35-15.34,15.34,15.34,0,0,0,0,30.68Z"/><path class="cls-5" d="M1822.74,806.41a15.34,15.34,0,0,1,0-30.68,15.36,15.36,0,0,1,15.35,15.34A15.34,15.34,0,0,1,1822.74,806.41Z"/><path class="cls-2" d="M1737.84,928.16a22.42,22.42,0,1,1,22.41-22.39A22.4,22.4,0,0,1,1737.84,928.16Zm0-7.07a15.33,15.33,0,0,0,15.33-15.34,15.35,15.35,0,0,0-15.34-15.34,15.34,15.34,0,0,0,0,30.68Z"/><path class="cls-5" d="M1737.84,921.09a15.34,15.34,0,0,1,0-30.68,15.35,15.35,0,0,1,15.34,15.34A15.33,15.33,0,0,1,1737.84,921.09Z"/><path class="cls-2" d="M1653.84,1013.16a22.42,22.42,0,1,1,22.41-22.39A22.4,22.4,0,0,1,1653.84,1013.16Zm0-7.07a15.33,15.33,0,0,0,15.33-15.34,15.35,15.35,0,0,0-15.34-15.34,15.34,15.34,0,0,0,0,30.68Z"/><path class="cls-5" d="M1653.84,1006.09a15.34,15.34,0,0,1,0-30.68,15.35,15.35,0,0,1,15.34,15.34A15.33,15.33,0,0,1,1653.84,1006.09Z"/><path class="cls-2" d="M1569.64,1098.15a22.42,22.42,0,1,1,22.42-22.39A22.4,22.4,0,0,1,1569.64,1098.15Zm0-7.07a15.33,15.33,0,0,0,15.33-15.34,15.36,15.36,0,0,0-15.35-15.34,15.34,15.34,0,0,0,0,30.68Z"/><path class="cls-5" d="M1569.65,1091.08a15.34,15.34,0,0,1,0-30.68,15.36,15.36,0,0,1,15.35,15.34A15.33,15.33,0,0,1,1569.65,1091.08Z"/><path class="cls-2" d="M1485.15,1183.09a22.42,22.42,0,1,1,22.41-22.39A22.41,22.41,0,0,1,1485.15,1183.09Zm0-7.08a15.33,15.33,0,0,0,15.33-15.33,15.33,15.33,0,0,0-15.34-15.34,15.34,15.34,0,0,0,0,30.67Z"/><path class="cls-5" d="M1485.15,1176a15.34,15.34,0,0,1,0-30.67,15.33,15.33,0,0,1,15.34,15.34A15.33,15.33,0,0,1,1485.15,1176Z"/><path class="cls-2" d="M1400.48,1239.6a22.42,22.42,0,1,1,22.41-22.39A22.4,22.4,0,0,1,1400.48,1239.6Zm0-7.08a15.31,15.31,0,0,0,15.33-15.33,15.33,15.33,0,0,0-15.34-15.34,15.34,15.34,0,0,0,0,30.67Z"/><path class="cls-5" d="M1400.48,1232.52a15.34,15.34,0,0,1,0-30.67,15.33,15.33,0,0,1,15.34,15.34A15.31,15.31,0,0,1,1400.48,1232.52Z"/><path class="cls-2" d="M1315.69,1297.07a22.42,22.42,0,1,1,22.41-22.39A22.41,22.41,0,0,1,1315.69,1297.07Zm0-7.08a15.33,15.33,0,0,0,15.33-15.33,15.33,15.33,0,0,0-15.34-15.34,15.34,15.34,0,0,0,0,30.67Z"/><path class="cls-5" d="M1315.69,1290a15.34,15.34,0,0,1,0-30.67,15.33,15.33,0,0,1,15.34,15.34A15.33,15.33,0,0,1,1315.69,1290Z"/><path class="cls-2" d="M1232.06,1354.13a22.42,22.42,0,1,1,22.41-22.39A22.41,22.41,0,0,1,1232.06,1354.13Zm0-7.08a15.33,15.33,0,0,0,15.33-15.34,15.33,15.33,0,0,0-15.34-15.33,15.34,15.34,0,0,0,0,30.67Z"/><path class="cls-5" d="M1232.06,1347.05a15.34,15.34,0,0,1,0-30.67,15.33,15.33,0,0,1,15.34,15.33A15.33,15.33,0,0,1,1232.06,1347.05Z"/><path class="cls-2" d="M1146.49,1381.31a22.41,22.41,0,1,1,22.42-22.38A22.4,22.4,0,0,1,1146.49,1381.31Zm0-7.07a15.33,15.33,0,0,0,15.33-15.34,15.35,15.35,0,0,0-15.35-15.33,15.34,15.34,0,0,0,0,30.67Z"/><path class="cls-5" d="M1146.5,1374.24a15.34,15.34,0,0,1,0-30.67,15.35,15.35,0,0,1,15.35,15.33A15.33,15.33,0,0,1,1146.5,1374.24Z"/><path class="cls-2" d="M1063.29,1439.18a22.42,22.42,0,1,1,22.41-22.39A22.39,22.39,0,0,1,1063.29,1439.18Zm0-7.08a15.32,15.32,0,0,0,15.34-15.33,15.36,15.36,0,0,0-15.35-15.34,15.34,15.34,0,0,0,0,30.67Z"/><path class="cls-5" d="M1063.29,1432.1a15.34,15.34,0,0,1,0-30.67,15.36,15.36,0,0,1,15.35,15.34A15.32,15.32,0,0,1,1063.29,1432.1Z"/><path class="cls-2" d="M977.82,1467a22.41,22.41,0,1,1,22.42-22.39A22.4,22.4,0,0,1,977.82,1467Zm0-7.07a15.33,15.33,0,0,0,15.33-15.34,15.33,15.33,0,0,0-15.34-15.33,15.34,15.34,0,0,0,0,30.67Z"/><path class="cls-5" d="M977.83,1459.91a15.34,15.34,0,0,1,0-30.67,15.33,15.33,0,0,1,15.34,15.33A15.33,15.33,0,0,1,977.83,1459.91Z"/><path class="cls-2" d="M894.82,1496a22.41,22.41,0,1,1,22.42-22.39A22.4,22.4,0,0,1,894.82,1496Zm0-7.07a15.33,15.33,0,0,0,15.33-15.34,15.33,15.33,0,0,0-15.34-15.33,15.34,15.34,0,0,0,0,30.67Z"/><path class="cls-5" d="M894.83,1488.91a15.34,15.34,0,0,1,0-30.67,15.33,15.33,0,0,1,15.34,15.33A15.33,15.33,0,0,1,894.83,1488.91Z"/><path class="cls-2" d="M809.07,1496.08a22.41,22.41,0,1,1,22.42-22.39A22.4,22.4,0,0,1,809.07,1496.08Zm0-7.07a15.33,15.33,0,0,0,15.33-15.34,15.35,15.35,0,0,0-15.35-15.33,15.34,15.34,0,0,0,0,30.67Z"/><path class="cls-5" d="M809.08,1489a15.34,15.34,0,0,1,0-30.67,15.35,15.35,0,0,1,15.35,15.33A15.33,15.33,0,0,1,809.08,1489Z"/><path class="cls-2" d="M726.07,1521.08a22.41,22.41,0,1,1,22.42-22.39A22.4,22.4,0,0,1,726.07,1521.08Zm0-7.07a15.33,15.33,0,0,0,15.33-15.34,15.35,15.35,0,0,0-15.35-15.33,15.34,15.34,0,0,0,0,30.67Z"/><path class="cls-5" d="M726.08,1514a15.34,15.34,0,0,1,0-30.67,15.35,15.35,0,0,1,15.35,15.33A15.33,15.33,0,0,1,726.08,1514Z"/><path class="cls-2" d="M641.07,1521.08a22.41,22.41,0,1,1,22.42-22.39A22.4,22.4,0,0,1,641.07,1521.08Zm0-7.07a15.33,15.33,0,0,0,15.33-15.34,15.35,15.35,0,0,0-15.35-15.33,15.34,15.34,0,0,0,0,30.67Z"/><path class="cls-5" d="M641.08,1514a15.34,15.34,0,0,1,0-30.67,15.35,15.35,0,0,1,15.35,15.33A15.33,15.33,0,0,1,641.08,1514Z"/><path class="cls-2" d="M557.07,1521.08a22.41,22.41,0,1,1,22.42-22.39A22.4,22.4,0,0,1,557.07,1521.08Zm0-7.07a15.33,15.33,0,0,0,15.33-15.34,15.35,15.35,0,0,0-15.35-15.33,15.34,15.34,0,0,0,0,30.67Z"/><path class="cls-5" d="M557.08,1514a15.34,15.34,0,0,1,0-30.67,15.35,15.35,0,0,1,15.35,15.33A15.33,15.33,0,0,1,557.08,1514Z"/><path class="cls-2" d="M472.06,1521.6a22.42,22.42,0,1,1,22.42-22.39A22.4,22.4,0,0,1,472.06,1521.6Zm0-7.08a15.32,15.32,0,0,0,15.33-15.33,15.35,15.35,0,0,0-15.35-15.34,15.34,15.34,0,0,0,0,30.67Z"/><path class="cls-5" d="M472.07,1514.52a15.34,15.34,0,0,1,0-30.67,15.35,15.35,0,0,1,15.35,15.34A15.32,15.32,0,0,1,472.07,1514.52Z"/><path class="cls-2" d="M388.06,1521.6a22.42,22.42,0,1,1,22.42-22.39A22.4,22.4,0,0,1,388.06,1521.6Zm0-7.08a15.32,15.32,0,0,0,15.33-15.33,15.35,15.35,0,0,0-15.35-15.34,15.34,15.34,0,0,0,0,30.67Z"/><path class="cls-5" d="M388.07,1514.52a15.34,15.34,0,0,1,0-30.67,15.35,15.35,0,0,1,15.35,15.34A15.32,15.32,0,0,1,388.07,1514.52Z"/><path class="cls-2" d="M303.06,1521.6a22.42,22.42,0,1,1,22.42-22.39A22.4,22.4,0,0,1,303.06,1521.6Zm0-7.08a15.32,15.32,0,0,0,15.33-15.33,15.35,15.35,0,0,0-15.35-15.34,15.34,15.34,0,0,0,0,30.67Z"/><path class="cls-5" d="M303.07,1514.52a15.34,15.34,0,0,1,0-30.67,15.35,15.35,0,0,1,15.35,15.34A15.32,15.32,0,0,1,303.07,1514.52Z"/><path class="cls-2" d="M219.06,1521.6a22.42,22.42,0,1,1,22.42-22.39A22.4,22.4,0,0,1,219.06,1521.6Zm0-7.08a15.32,15.32,0,0,0,15.33-15.33,15.35,15.35,0,0,0-15.35-15.34,15.34,15.34,0,0,0,0,30.67Z"/><path class="cls-5" d="M219.07,1514.52a15.34,15.34,0,0,1,0-30.67,15.35,15.35,0,0,1,15.35,15.34A15.32,15.32,0,0,1,219.07,1514.52Z"/><path class="cls-2" d="M134.06,1521.6a22.42,22.42,0,1,1,22.42-22.39A22.4,22.4,0,0,1,134.06,1521.6Zm0-7.08a15.32,15.32,0,0,0,15.33-15.33,15.35,15.35,0,0,0-15.35-15.34,15.34,15.34,0,0,0,0,30.67Z"/><path class="cls-5" d="M134.07,1514.52a15.34,15.34,0,0,1,0-30.67,15.35,15.35,0,0,1,15.35,15.34A15.32,15.32,0,0,1,134.07,1514.52Z"/><path class="cls-2" d="M2328.12,125.23c-.11.1-.21.17-.3.26l-3,3q-3.95,4-7.9,7.9c-.35.36-.35.36-.7,0l-14.68-14.67c-.33-.34-.33-.34,0-.68l10.81-10.83c.36-.36.36-.36,0-.72l-4.6-4.6-6.25-6.28c-.29-.3-.29-.3,0-.59l14.78-14.79c.24-.24.36-.2.57,0l10.84,10.84c.39.4.39.4.8,0l10.77-10.78c.34-.34.34-.34.67,0l14.65,14.65c.38.38.38.38,0,.77l-10.75,10.76c-.38.37-.38.37,0,.75L2354.61,121c.39.39.39.39,0,.78l-14.56,14.56-.22.22a.24.24,0,0,1-.4,0c-.08-.09-.16-.16-.24-.24l-10.74-10.74C2328.36,125.43,2328.25,125.34,2328.12,125.23Zm-8.55-15.39-11.47,11.43,8.61,8.61a1.94,1.94,0,0,1,.23-.32q5.43-5.43,10.87-10.87c.32-.32.32-.32.64,0l10.88,10.9.31.29,0-.1,8.62-8.52c-.11-.09-.25-.16-.35-.26L2337,110.13c-.32-.32-.32-.32,0-.64l10.89-10.89.24-.25-8.54-8.55L2338,91.38l-9.56,9.56c-.32.32-.32.32-.64,0L2316.92,90l-.32-.3-.27.26-8,8c-.3.3-.3.3,0,.6l10.88,10.89C2319.34,109.58,2319.43,109.69,2319.57,109.84Z"/><path class="cls-5" d="M2319.57,109.84c-.14-.15-.23-.26-.34-.36l-10.88-10.89c-.31-.3-.31-.3,0-.6l8-8,.27-.26.32.3,10.88,10.9c.32.32.32.32.64,0l9.56-9.56,1.58-1.58,8.54,8.55-.24.25L2337,109.49c-.32.32-.32.32,0,.64L2347.86,121c.1.1.24.17.35.26l-8.62,8.52,0,.1-.31-.29-10.88-10.9c-.32-.32-.32-.32-.64,0q-5.45,5.43-10.87,10.87a1.94,1.94,0,0,0-.23.32l-8.61-8.61Z"/><rect class="cls-4" x="2324.91" y="175.4" width="7" height="14"/><rect class="cls-4" x="2324.91" y="153.4" width="7" height="8"/><rect class="cls-4" x="2324.91" y="202.4" width="7" height="14"/><rect class="cls-4" x="2324.91" y="229.4" width="7" height="14"/><rect class="cls-4" x="2324.91" y="256.4" width="7" height="14"/><rect class="cls-4" x="2324.91" y="283.4" width="7" height="14"/><rect class="cls-4" x="2324.91" y="310.4" width="7" height="14"/><rect class="cls-4" x="2324.91" y="337.4" width="7" height="14"/><rect class="cls-4" x="2324.91" y="364.4" width="7" height="14"/><rect class="cls-4" x="2324.91" y="391.4" width="7" height="14"/><rect class="cls-4" x="2324.91" y="418.4" width="7" height="14"/><rect class="cls-4" x="2324.91" y="445.4" width="7" height="14"/><rect class="cls-4" x="2324.91" y="472.4" width="7" height="14"/><rect class="cls-4" x="2324.91" y="499.4" width="7" height="14"/><rect class="cls-4" x="2324.91" y="526.4" width="7" height="14"/><rect class="cls-4" x="2324.91" y="553.4" width="7" height="14"/><rect class="cls-4" x="2324.91" y="580.4" width="7" height="14"/><rect class="cls-4" x="2324.91" y="607.4" width="7" height="14"/><rect class="cls-4" x="2324.91" y="634.4" width="7" height="14"/><rect class="cls-4" x="2324.91" y="661.4" width="7" height="14"/><rect class="cls-4" x="2324.91" y="688.4" width="7" height="14"/><rect class="cls-4" x="2324.91" y="715.4" width="7" height="14"/><rect class="cls-4" x="2324.91" y="742.4" width="7" height="14"/><rect class="cls-4" x="2324.91" y="769.4" width="7" height="14"/><rect class="cls-4" x="2324.91" y="796.4" width="7" height="14"/><rect class="cls-4" x="2324.91" y="823.4" width="7" height="14"/><rect class="cls-4" x="2324.91" y="850.4" width="7" height="14"/><rect class="cls-4" x="2324.91" y="877.4" width="7" height="14"/><rect class="cls-4" x="2324.91" y="904.4" width="7" height="14"/><rect class="cls-4" x="2324.91" y="931.4" width="7" height="14"/><rect class="cls-4" x="2324.91" y="958.4" width="7" height="14"/><rect class="cls-4" x="2324.91" y="985.4" width="7" height="14"/><rect class="cls-4" x="2324.91" y="1012.4" width="7" height="14"/><rect class="cls-4" x="2324.91" y="1039.4" width="7" height="14"/><rect class="cls-4" x="2324.91" y="1066.4" width="7" height="14"/><rect class="cls-4" x="2324.91" y="1093.4" width="7" height="14"/><rect class="cls-4" x="2324.91" y="1120.4" width="7" height="14"/><rect class="cls-4" x="2324.91" y="1147.4" width="7" height="14"/><rect class="cls-4" x="2324.91" y="1174.4" width="7" height="14"/><rect class="cls-4" x="2324.91" y="1201.4" width="7" height="14"/><rect class="cls-4" x="2324.91" y="1228.4" width="7" height="14"/><rect class="cls-4" x="2324.91" y="1255.4" width="7" height="14"/><rect class="cls-4" x="2324.91" y="1282.4" width="7" height="14"/><rect class="cls-4" x="2324.91" y="1309.4" width="7" height="14"/><rect class="cls-4" x="2324.91" y="1336.4" width="7" height="14"/><rect class="cls-4" x="2324.91" y="1363.4" width="7" height="14"/><rect class="cls-4" x="2324.91" y="1390.4" width="7" height="14"/><rect class="cls-4" x="2324.91" y="1417.4" width="7" height="14"/><rect class="cls-4" x="2324.91" y="1444.4" width="7" height="14"/><rect class="cls-4" x="2324.91" y="1471.4" width="7" height="14"/><rect class="cls-4" x="2324.91" y="1498.4" width="7" height="14"/></g></g></svg>