<svg xmlns="http://www.w3.org/2000/svg" width="94" height="20" viewBox="0 0 94 20"><g><g><g><path fill="#e4e4e4" d="M27.335 12.77l2.225-4.794.04.008 1.126 4.668-3.391.117zm9.615 2.49c-.375-1.241-.75-2.482-1.123-3.723a9930.68 9930.68 0 0 1-2.182-7.276c-.009-.029-.013-.059-.019-.088l-.538-1.742c-.072 0-.144-.003-.216 0-1.723.06-3.447.12-5.172.177-.107.003-.158.043-.206.134-.293.564-.591 1.125-.888 1.688-.347.673-.692 1.347-1.042 2.019l-4.85 9.305-.046.078-1.758 3.389c1.828-.062 3.62-.121 5.41-.189.061-.002.146-.075.175-.137.314-.662.624-1.326.921-1.995.07-.158.149-.221.33-.225.93-.02 1.859-.06 2.787-.091.99-.034 1.98-.064 2.97-.1.096-.003.139.02.158.122.037.19.092.376.14.564.13.529.262 1.058.396 1.595l5.736-.2-.983-3.306z"/></g><g><path fill="#e4e4e4" d="M45.175 9.985zm0 0c.044-.413.082-.792.123-1.171.093-.857.19-1.713.278-2.57.013-.133.055-.17.186-.174.558-.014 1.116-.051 1.675-.057.27-.003.55.009.81.076.48.123.794.45.895.936.163.786.033 1.522-.46 2.172-.307.403-.733.639-1.223.682-.748.066-1.502.073-2.284.106zm-.546 5.009l.079-.895c.25-.013.485-.028.72-.037.655-.026 1.312-.032 1.965-.077 1.38-.096 2.69-.434 3.872-1.186 1.458-.929 2.373-2.256 2.798-3.914.158-.618.252-1.262.292-1.9.079-1.286-.199-2.485-1.061-3.495a4.61 4.61 0 0 0-1.748-1.144c-1.076-.406-2.197-.493-3.33-.456-2.367.077-4.732.167-7.097.252-.156.006-.312.016-.475.024l-.022.196c-.06.524-.122 1.048-.183 1.571-.054.537-.105 1.074-.162 1.61-.102.953-.208 1.905-.312 2.858a4671.86 4671.86 0 0 0-.349 3.2l-.307 2.84c-.026.247-.056.494-.085.741l-.356 3.348 5.388-.19c.078-.727.153-1.433.23-2.138.045-.403.095-.805.143-1.208z"/></g><g><path fill="#e4e4e4" d="M67.915 2.974l.198-1.778L82.767.69c-.06.595-.12 1.184-.178 1.772-.085.76-.18 1.519-.247 2.28-.018.203-.098.228-.267.232-1.238.036-2.476.079-3.714.121-.229.008-.457.024-.692.036l-.096.881-.35 3.185c-.104.947-.21 1.893-.312 2.84-.066.61-.128 1.219-.192 1.828l-.376 3.352-5.387.193.16-1.474.198-1.881c.011-.078.027-.156.036-.234.139-1.28.275-2.559.415-3.838.151-1.387.307-2.774.46-4.162.018-.165.029-.33.044-.51l-4.612.155.258-2.493z"/></g><g><path fill="#e4e4e4" d="M7.802 5.08c.066-.589.13-1.178.198-1.78l14.655-.51c-.06.603-.12 1.187-.18 1.772l-.275 2.49c-.06.006-.1.012-.143.013l-2.856.1c-.49.016-.982.033-1.473.042-.125.003-.19.03-.19.171 0 .139-.028.277-.043.416l-.35 3.182-.315 2.874c-.076.705-.15 1.41-.225 2.116l-.375 3.354-5.386.183.158-1.46c.067-.626.131-1.254.197-1.88l.09-.759a4163.081 4163.081 0 0 0 .777-7.07c.033-.3.062-.599.094-.922l-4.616.162.258-2.493z"/></g><g><path fill="#d80000" d="M76.719 13.866c.064-.61.126-1.219.192-1.828.103-.947.208-1.893.312-2.84l.35-3.185.096-.88c.234-.013.463-.029.691-.037 1.239-.042 2.476-.085 3.714-.12.17-.006.25-.03.268-.233.067-.761.162-1.52.247-2.28l1.034-.034c-.011.132-.02.265-.034.398-.11 1.09-.263 2.174-.184 3.28.094 1.308.115 2.62.17 3.93.012.301.03.602.045.912.06.004.107.01.154.009.934-.033 1.868-.07 2.802-.097.132-.004.172-.056.202-.172.406-1.554.82-3.106 1.227-4.659.117-.445.263-.887.329-1.34.118-.81.184-1.627.272-2.44l4.556-.158.39 11.188-6.621.233c-.171-.366-.402-.681-.764-.878-.782-.425-1.576-.372-2.365-.03-.5.218-.863.6-1.152 1.054l-3.566.121c-.788.027-1.577.057-2.365.086z"/></g><g><path fill="#d80000" d="M7.802 5.081l-.258 2.493 4.616-.162c-.032.323-.06.622-.093.921a2545.836 2545.836 0 0 1-.778 7.07c-.029.254-.06.507-.09.76l-10.782.37-.39-11.191 7.775-.261z"/></g><g><path fill="#d80000" d="M44.629 14.994c.025-.295.051-.59.079-.895.25-.013.485-.028.72-.037.655-.026 1.311-.032 1.965-.077 1.38-.096 2.69-.434 3.871-1.186 1.459-.93 2.374-2.256 2.798-3.914.158-.618.253-1.262.292-1.9.08-1.286-.198-2.484-1.06-3.495l3.201-.116 4.748-.17-.35 3.256c-.114 1.061-.227 2.123-.342 3.184-.117 1.08-.235 2.16-.354 3.238-.058.525-.122 1.048-.183 1.572l-5.899.206-3.241.115-6.245.219z"/></g><g><path fill="#e4e4e4" d="M60.015 14.454c.06-.524.124-1.047.181-1.572.12-1.079.238-2.158.355-3.238.115-1.061.228-2.123.342-3.184l.35-3.256.2-1.772 5.381-.19c-.058.605-.116 1.188-.173 1.77-.012.072-.027.143-.035.215l-.196 1.828-.353 3.238-.307 2.822-.338 3.148-.372 3.357-5.387.183c.065-.6.129-1.178.19-1.756l.162-1.593z"/></g><g><path fill="#d80000" d="M16.605 15.966l.225-2.116.315-2.874.35-3.182c.015-.139.043-.277.043-.416 0-.141.065-.168.19-.17.49-.01.982-.027 1.473-.043l2.856-.1c.042-.002.084-.007.143-.012l.275-2.491 4.04-.14c.031 0 .061.005.091.007-.347.674-.691 1.348-1.042 2.02l-4.85 9.305c-.014.027-.03.052-.046.078l-4.063.134z"/></g><g><path fill="#d80000" d="M65.422 14.263l.338-3.147.307-2.823.353-3.238.196-1.828c.008-.071.024-.143.035-.214l1.263-.04-.256 2.493 4.61-.154c-.015.18-.025.345-.044.51-.152 1.388-.308 2.775-.46 4.162-.14 1.28-.275 2.559-.415 3.838-.008.078-.024.156-.036.234l-4.727.165-1.164.042z"/></g><g><path fill="#d80000" d="M40.439 3.933c-.054.537-.105 1.074-.162 1.61-.102.953-.208 1.905-.312 2.858l-.349 3.2-.307 2.84c-.027.247-.056.494-.085.741l-2.274.077c-.375-1.24-.75-2.481-1.123-3.722-.729-2.425-1.455-4.85-2.183-7.276-.008-.029-.012-.059-.017-.088l6.395-.22.417-.02z"/></g><g><path fill="#e4e4e4" d="M88.607 2.25c-.089.813-.156 1.63-.273 2.44-.066.453-.211.895-.328 1.34-.409 1.553-.82 3.105-1.228 4.659-.03.116-.07.168-.201.172-.935.027-1.868.064-2.803.097-.047.001-.094-.005-.154-.009-.016-.31-.032-.611-.045-.913-.055-1.31-.076-2.621-.17-3.928-.08-1.107.074-2.19.184-3.281.013-.133.023-.266.034-.398l.197-1.78 4.965-.173-.178 1.773z"/></g><g><path fill="#e4e4e4" d="M82.65 13.659c.289-.455.651-.836 1.152-1.053.789-.343 1.583-.396 2.365.03.362.196.593.51.764.876.42 1.197-.136 2.796-1.486 3.374-.622.267-1.265.333-1.917.118-.748-.246-1.134-.796-1.236-1.556-.086-.635.065-1.227.358-1.79z"/></g><g><path fill="#d80000" d="M30.727 12.652l-3.392.117 2.225-4.793.04.008 1.127 4.668z"/></g><g><path fill="#d80000" d="M45.175 9.985c.043-.413.082-.792.123-1.171.093-.857.19-1.713.278-2.57.013-.133.054-.17.186-.174.558-.014 1.116-.051 1.674-.057.271-.003.552.01.811.076.48.124.794.45.895.937.163.785.033 1.52-.46 2.17-.307.404-.733.64-1.224.683-.748.066-1.501.073-2.283.106z"/></g></g></g></svg>