<svg xmlns="http://www.w3.org/2000/svg" width="244" height="185" viewBox="0 0 244 185"><g><g><path d="M174.546 122.274c-8.775 6.367-19.974 4.837-27.205-3.407-8.432-9.617-8.529-24.63-.22-34.179 9.622-11.057 26.144-9.542 33.683 3.086 2.643 4.427 3.768 8.582 3.762 15.807-.155 6.507-3.108 13.674-10.02 18.693zm-76.712-3.794c-7.487 9.382-20.592 10.281-29.493 2.191-10.888-9.894-10.83-28.365.16-38.154 3.81-3.396 8.287-5.218 14.46-5.274 7.925.317 14.46 4.715 18.166 12.605 4.711 10.032 3.73 19.83-3.293 28.632zm146.011 7.946c-.263-7.308-.844-14.577-1.828-21.82-1.922-14.13-5.418-27.855-10.32-41.242-6.105-16.686-14.362-32.25-24.213-47-.415-.627-.89-1.08-1.594-1.403C190.447 7.915 174.344 3.01 157.643.012c-.8-.143-1.21.076-1.606.806-1.86 3.428-3.642 6.897-5.115 10.498-.572 1.404-1.257 1.626-2.605 1.43a173.61 173.61 0 0 0-20.516-1.732c-10.65-.254-21.263.206-31.807 1.788-1.076.164-1.536-.176-1.946-1.143-1.535-3.63-3.367-7.12-5.206-10.604-.472-.89-.973-1.189-2.075-.967-3.003.604-6.015 1.181-9.01 1.84-13.349 2.942-26.22 7.308-38.666 12.945-.838.381-1.421.917-1.928 1.673a245.936 245.936 0 0 0-11.38 18.872C17.974 49.752 11.857 64.776 7.605 80.534 3.015 97.55.835 114.905.822 135.344c.035 3.909.332 10.622.894 17.323.07.834.211 1.558 1.008 2.127 4.922 3.507 9.92 6.894 15.09 10.032 14.002 8.5 28.853 15.125 44.47 20.05.739.234 1.202.28 1.726-.446 4.433-6.18 8.473-12.593 11.949-19.367.597-1.163.363-1.494-.771-1.916-6.352-2.367-12.408-5.359-18.29-8.723-.752-.43-.934-.703-.09-1.28a32.937 32.937 0 0 0 3.331-2.613c.575-.505 1.061-.496 1.68-.208 7.122 3.296 14.485 5.927 22.036 8.054 11.251 3.167 22.724 4.9 34.397 5.294 8.884.302 17.72-.319 26.502-1.699 11.977-1.88 23.51-5.31 34.664-10.035 1.468-.621 3.021-1.916 4.369-1.723 1.433.205 2.637 1.852 4 2.787.925.638.96.949-.083 1.54-5.807 3.294-11.787 6.21-18.013 8.63-.73.284-1.776.34-1.037 1.734a167.794 167.794 0 0 0 11.974 19.376c.484.677.962.9 1.835.618 7.831-2.532 15.54-5.382 23.047-8.77 12.783-5.768 24.81-12.835 36.164-21.066.873-.633 1.342-1.292 1.421-2.362.64-8.745 1.064-17.494.75-26.275z"/></g></g></svg>