<svg xmlns="http://www.w3.org/2000/svg" width="186" height="185" viewBox="0 0 186 185"><g><g><g><path d="M93.328 123.03c-16.86 0-30.531-13.67-30.531-30.53 0-16.862 13.67-30.532 30.531-30.532 16.861 0 30.532 13.67 30.532 30.532 0 16.86-13.67 30.53-30.532 30.53zm0-77.92c-26.172 0-47.389 21.217-47.389 47.39 0 26.172 21.217 47.387 47.39 47.387 26.171 0 47.388-21.215 47.388-47.387 0-26.173-21.217-47.39-47.389-47.39z"/></g><g><path d="M131.52 43.352c0-6.052 4.905-10.958 10.957-10.958 6.052 0 10.957 4.906 10.957 10.958 0 6.052-4.905 10.957-10.957 10.957-6.052 0-10.958-4.905-10.958-10.957z"/></g><g><path d="M168.064 138.202c-1.873 12.337-6.64 17.854-8.363 19.49a32.33 32.33 0 0 0-1.18 1.18c-1.636 1.724-7.155 6.492-19.49 8.364-10.082 1.529-39.427 1.372-45.702 1.372-6.275 0-35.62.157-45.704-1.372-12.333-1.872-17.851-6.64-19.487-8.362a32.723 32.723 0 0 0-1.182-1.183c-1.723-1.635-6.492-7.152-8.363-19.489-1.53-10.083-1.372-39.427-1.372-45.702 0-6.275-.158-35.62 1.372-45.703 1.871-12.335 6.64-17.853 8.363-19.49a32.69 32.69 0 0 0 1.182-1.18c1.636-1.723 7.154-6.49 19.487-8.362 10.083-1.53 39.429-1.372 45.704-1.372 6.275 0 35.62-.159 45.702 1.372 12.335 1.872 17.854 6.64 19.49 8.362.382.404.776.798 1.18 1.18 1.723 1.637 6.49 7.155 8.363 19.49 1.53 10.083 1.372 39.428 1.372 45.703 0 6.275.158 35.62-1.372 45.702zm16.295-92.154c-1.124-10.301-5.651-21.884-14.174-30.405-8.522-8.522-20.104-13.05-30.405-14.174C129.479.346 107.658-.029 93.329-.029c-14.33 0-36.151.375-46.452 1.498-10.302 1.125-21.884 5.652-30.406 14.174C7.95 24.164 3.421 35.747 2.3 46.048 1.174 56.35.799 78.17.799 92.5c0 14.328.375 36.15 1.5 46.452 1.122 10.302 5.65 21.883 14.172 30.406 8.522 8.522 20.104 13.049 30.406 14.172 10.3 1.125 32.122 1.5 46.452 1.5 14.329 0 36.15-.375 46.45-1.5 10.302-1.123 21.884-5.65 30.406-14.172 8.523-8.523 13.05-20.104 14.174-30.406 1.124-10.302 1.499-32.124 1.499-46.452 0-14.329-.375-36.15-1.499-46.452z"/></g></g></g></svg>