<svg xmlns="http://www.w3.org/2000/svg" width="207" height="185" viewBox="0 0 207 185"><g><g><g><path d="M13.053 105.642l.72-1.13L57.16 36.639c.634-.994 2.125-.89 2.602.19 7.248 16.244 13.502 36.445 10.573 49.023-1.25 5.174-4.676 12.182-8.532 18.66a34.576 34.576 0 0 1-1.628 2.758c-.273.41-.737.65-1.234.65h-44.62c-1.201 0-1.901-1.3-1.268-2.278z"/></g><g><path d="M206.438 118.254v10.744c0 .617-.377 1.164-.924 1.404-3.36 1.441-14.857 6.718-19.637 13.366-12.202 16.981-21.521 41.261-42.359 41.261H56.593c-30.808 0-55.775-25.05-55.775-55.964v-.994c0-.82.668-1.488 1.492-1.488h48.456c.96 0 1.664.89 1.577 1.831-.343 3.152.24 6.375 1.732 9.307 2.878 5.84 8.842 9.493 15.283 9.493h23.99v-18.73H69.632c-1.214 0-1.935-1.407-1.231-2.398.257-.397.547-.807.854-1.27 2.245-3.186 5.45-8.14 8.636-13.777 2.178-3.802 4.286-7.865 5.98-11.941.344-.737.617-1.491.891-2.228.464-1.305.944-2.519 1.288-3.736.34-1.028.613-2.108.89-3.119.804-3.462 1.148-7.128 1.148-10.93 0-1.492-.07-3.053-.207-4.544-.067-1.628-.274-3.255-.48-4.883-.137-1.438-.394-2.862-.668-4.353-.343-2.175-.82-4.333-1.37-6.511l-.187-.82c-.414-1.492-.754-2.913-1.235-4.404a164.983 164.983 0 0 0-4.56-13.502c-.596-1.698-1.284-3.326-1.967-4.954-1.011-2.451-2.042-4.676-2.982-6.784-.48-.96-.89-1.835-1.305-2.725-.46-1.011-.94-2.022-1.42-2.982-.344-.737-.738-1.421-1.011-2.108L67.764 15.1c-.41-.737.277-1.611 1.08-1.388l18.336 4.97h.05c.034 0 .054.017.07.017l2.415.667 2.655.754.978.274V9.497c0-5.26 4.216-9.526 9.423-9.526 2.605 0 4.97 1.06 6.668 2.792a9.589 9.589 0 0 1 2.758 6.734v16.178l1.952.547c.156.05.31.12.447.223.48.36 1.164.89 2.038 1.541.687.547 1.424 1.218 2.314 1.902 1.765 1.424 3.873 3.255 6.185 5.363.617.53 1.217 1.081 1.764 1.628 2.982 2.775 6.324 6.03 9.51 9.63a116.66 116.66 0 0 1 2.658 3.119c.891 1.097 1.832 2.174 2.656 3.255 1.077 1.441 2.244 2.932 3.255 4.49.48.737 1.027 1.49 1.491 2.228 1.301 1.971 2.448 4.01 3.546 6.047.463.944.944 1.972 1.354 2.982 1.218 2.726 2.175 5.5 2.792 8.276.19.6.327 1.25.397 1.835v.136c.203.824.273 1.698.34 2.589a27.684 27.684 0 0 1-.48 8.549c-.257 1.217-.597 2.365-1.01 3.582-.411 1.165-.821 2.382-1.352 3.53-1.03 2.381-2.248 4.763-3.686 6.99-.463.821-1.01 1.695-1.557 2.52-.6.873-1.218 1.697-1.768 2.5-.754 1.028-1.558 2.109-2.382 3.07-.734 1.01-1.49 2.021-2.311 2.912-1.148 1.354-2.245 2.638-3.393 3.872a36.561 36.561 0 0 1-2.178 2.365c-.737.82-1.49 1.558-2.175 2.245a89.046 89.046 0 0 1-2.912 2.775l-1.884 1.731a1.54 1.54 0 0 1-1.01.377h-14.6v18.73h18.368c4.113 0 8.02-1.458 11.171-4.133 1.08-.94 5.79-5.02 11.361-11.171.187-.207.427-.36.704-.427l50.734-14.67c.944-.273 1.902.447 1.902 1.441z"/></g></g></g></svg>