<svg xmlns="http://www.w3.org/2000/svg" width="224" height="185" viewBox="0 0 224 185"><g><g><path d="M223.622 23.39c-4.35 7.853-11.077 13.556-17.624 19.418-1.142 1.023-2.338 1.986-3.14 2.664-2.287 59.54-26.199 105.292-82.271 129.49C78.532 193.113 30.79 184.892.92 164.864c15.41 1.234 30.029-1.17 44.036-6.84 7.705-3.118 15.025-7.079 22.458-13.401-21.14-1.875-35.171-12.137-43.15-31.359 6.603-.106 12.861 1.09 19.79-1.957-22.586-7.08-34.544-21.65-36.534-44.962 6.91 1.763 12.678 5.29 20.103 4.106C7.8 53.49 3.44 33.448 13.67 8.94c25.85 29.658 57.42 46.094 96.512 48.699-3.005-24.321 4.508-43.278 27.122-53.357 19.396-8.646 37.11-3.85 52.53 10.48 7.87-1.18 15.204-3.941 22.356-7.281 1.95-.91 3.946-1.72 5.92-2.576l-.054-.053c-2.856 10.046-9.635 17.154-17.564 24.106 1.38-.104 5.3-.74 6.618-1.083a1229.322 1229.322 0 0 0 16.566-4.43z"/></g></g></svg>